<?xml version="1.0" encoding="utf-8" standalone="no"?>
<!DOCTYPE svg PUBLIC "-//W3C//DTD SVG 1.1//EN"
  "http://www.w3.org/Graphics/SVG/1.1/DTD/svg11.dtd">
<svg xmlns:xlink="http://www.w3.org/1999/xlink" width="928.540625pt" height="354.43725pt" viewBox="0 0 928.540625 354.43725" xmlns="http://www.w3.org/2000/svg" version="1.1">
 <metadata>
  <rdf:RDF xmlns:dc="http://purl.org/dc/elements/1.1/" xmlns:cc="http://creativecommons.org/ns#" xmlns:rdf="http://www.w3.org/1999/02/22-rdf-syntax-ns#">
   <cc:Work>
    <dc:type rdf:resource="http://purl.org/dc/dcmitype/StillImage"/>
    <dc:date>2026-04-21T03:47:30.654284</dc:date>
    <dc:format>image/svg+xml</dc:format>
    <dc:creator>
     <cc:Agent>
      <dc:title>Matplotlib v3.10.7, https://matplotlib.org/</dc:title>
     </cc:Agent>
    </dc:creator>
   </cc:Work>
  </rdf:RDF>
 </metadata>
 <defs>
  <style type="text/css">*{stroke-linejoin: round; stroke-linecap: butt}</style>
 </defs>
 <g id="figure_1">
  <g id="patch_1">
   <path d="M 0 354.43725 
L 928.540625 354.43725 
L 928.540625 0 
L 0 0 
z
" style="fill: #ffffff"/>
  </g>
  <g id="axes_1">
   <g id="patch_2">
    <path d="M 87.740625 292.905109 
L 445.517298 292.905109 
L 445.517298 25.178359 
L 87.740625 25.178359 
z
" style="fill: #ffffff"/>
   </g>
   <g id="matplotlib.axis_1">
    <g id="xtick_1">
     <g id="line2d_1">
      <path d="M 87.740625 292.905109 
L 87.740625 25.178359 
" clip-path="url(#p51c5899e2a)" style="fill: none; stroke-dasharray: 0.8,1.32; stroke-dashoffset: 0; stroke: #b0b0b0; stroke-opacity: 0.35; stroke-width: 0.8"/>
     </g>
     <g id="line2d_2">
      <defs>
       <path id="me58ac4b335" d="M 0 0 
L 0 3.5 
" style="stroke: #000000; stroke-width: 0.8"/>
      </defs>
      <g>
       <use xlink:href="#me58ac4b335" x="87.740625" y="292.905109" style="stroke: #000000; stroke-width: 0.8"/>
      </g>
     </g>
     <g id="text_1">
      <!-- 0 -->
      <g transform="translate(84.559375 307.503547) scale(0.1 -0.1)">
       <defs>
        <path id="DejaVuSerif-30" d="M 2034 219 
Q 2513 219 2750 744 
Q 2988 1269 2988 2328 
Q 2988 3391 2750 3916 
Q 2513 4441 2034 4441 
Q 1556 4441 1318 3916 
Q 1081 3391 1081 2328 
Q 1081 1269 1318 744 
Q 1556 219 2034 219 
z
M 2034 -91 
Q 1275 -91 848 546 
Q 422 1184 422 2328 
Q 422 3475 848 4112 
Q 1275 4750 2034 4750 
Q 2797 4750 3222 4112 
Q 3647 3475 3647 2328 
Q 3647 1184 3222 546 
Q 2797 -91 2034 -91 
z
" transform="scale(0.015625)"/>
       </defs>
       <use xlink:href="#DejaVuSerif-30"/>
      </g>
     </g>
    </g>
    <g id="xtick_2">
     <g id="line2d_3">
      <path d="M 146.322241 292.905109 
L 146.322241 25.178359 
" clip-path="url(#p51c5899e2a)" style="fill: none; stroke-dasharray: 0.8,1.32; stroke-dashoffset: 0; stroke: #b0b0b0; stroke-opacity: 0.35; stroke-width: 0.8"/>
     </g>
     <g id="line2d_4">
      <g>
       <use xlink:href="#me58ac4b335" x="146.322241" y="292.905109" style="stroke: #000000; stroke-width: 0.8"/>
      </g>
     </g>
     <g id="text_2">
      <!-- 1000 -->
      <g transform="translate(133.597241 307.503547) scale(0.1 -0.1)">
       <defs>
        <path id="DejaVuSerif-31" d="M 909 0 
L 909 331 
L 1722 331 
L 1722 4213 
L 781 3603 
L 781 4013 
L 1919 4750 
L 2350 4750 
L 2350 331 
L 3163 331 
L 3163 0 
L 909 0 
z
" transform="scale(0.015625)"/>
       </defs>
       <use xlink:href="#DejaVuSerif-31"/>
       <use xlink:href="#DejaVuSerif-30" transform="translate(63.623047 0)"/>
       <use xlink:href="#DejaVuSerif-30" transform="translate(127.246094 0)"/>
       <use xlink:href="#DejaVuSerif-30" transform="translate(190.869141 0)"/>
      </g>
     </g>
    </g>
    <g id="xtick_3">
     <g id="line2d_5">
      <path d="M 204.903856 292.905109 
L 204.903856 25.178359 
" clip-path="url(#p51c5899e2a)" style="fill: none; stroke-dasharray: 0.8,1.32; stroke-dashoffset: 0; stroke: #b0b0b0; stroke-opacity: 0.35; stroke-width: 0.8"/>
     </g>
     <g id="line2d_6">
      <g>
       <use xlink:href="#me58ac4b335" x="204.903856" y="292.905109" style="stroke: #000000; stroke-width: 0.8"/>
      </g>
     </g>
     <g id="text_3">
      <!-- 2000 -->
      <g transform="translate(192.178856 307.503547) scale(0.1 -0.1)">
       <defs>
        <path id="DejaVuSerif-32" d="M 819 3553 
L 469 3553 
L 469 4384 
Q 803 4563 1142 4656 
Q 1481 4750 1806 4750 
Q 2534 4750 2956 4397 
Q 3378 4044 3378 3438 
Q 3378 2753 2422 1800 
Q 2347 1728 2309 1691 
L 1131 513 
L 3078 513 
L 3078 1088 
L 3444 1088 
L 3444 0 
L 434 0 
L 434 341 
L 1850 1753 
Q 2319 2222 2519 2614 
Q 2719 3006 2719 3438 
Q 2719 3909 2473 4175 
Q 2228 4441 1797 4441 
Q 1350 4441 1106 4219 
Q 863 3997 819 3553 
z
" transform="scale(0.015625)"/>
       </defs>
       <use xlink:href="#DejaVuSerif-32"/>
       <use xlink:href="#DejaVuSerif-30" transform="translate(63.623047 0)"/>
       <use xlink:href="#DejaVuSerif-30" transform="translate(127.246094 0)"/>
       <use xlink:href="#DejaVuSerif-30" transform="translate(190.869141 0)"/>
      </g>
     </g>
    </g>
    <g id="xtick_4">
     <g id="line2d_7">
      <path d="M 263.485472 292.905109 
L 263.485472 25.178359 
" clip-path="url(#p51c5899e2a)" style="fill: none; stroke-dasharray: 0.8,1.32; stroke-dashoffset: 0; stroke: #b0b0b0; stroke-opacity: 0.35; stroke-width: 0.8"/>
     </g>
     <g id="line2d_8">
      <g>
       <use xlink:href="#me58ac4b335" x="263.485472" y="292.905109" style="stroke: #000000; stroke-width: 0.8"/>
      </g>
     </g>
     <g id="text_4">
      <!-- 3000 -->
      <g transform="translate(250.760472 307.503547) scale(0.1 -0.1)">
       <defs>
        <path id="DejaVuSerif-33" d="M 622 4469 
Q 988 4606 1323 4678 
Q 1659 4750 1953 4750 
Q 2638 4750 3022 4454 
Q 3406 4159 3406 3634 
Q 3406 3213 3140 2930 
Q 2875 2647 2388 2547 
Q 2963 2466 3280 2130 
Q 3597 1794 3597 1259 
Q 3597 606 3158 257 
Q 2719 -91 1894 -91 
Q 1528 -91 1179 -12 
Q 831 66 488 225 
L 488 1131 
L 838 1131 
Q 869 681 1141 450 
Q 1413 219 1906 219 
Q 2384 219 2661 495 
Q 2938 772 2938 1253 
Q 2938 1803 2653 2086 
Q 2369 2369 1819 2369 
L 1522 2369 
L 1522 2688 
L 1678 2688 
Q 2225 2688 2498 2914 
Q 2772 3141 2772 3597 
Q 2772 4006 2547 4223 
Q 2322 4441 1900 4441 
Q 1478 4441 1245 4241 
Q 1013 4041 972 3647 
L 622 3647 
L 622 4469 
z
" transform="scale(0.015625)"/>
       </defs>
       <use xlink:href="#DejaVuSerif-33"/>
       <use xlink:href="#DejaVuSerif-30" transform="translate(63.623047 0)"/>
       <use xlink:href="#DejaVuSerif-30" transform="translate(127.246094 0)"/>
       <use xlink:href="#DejaVuSerif-30" transform="translate(190.869141 0)"/>
      </g>
     </g>
    </g>
    <g id="xtick_5">
     <g id="line2d_9">
      <path d="M 322.067088 292.905109 
L 322.067088 25.178359 
" clip-path="url(#p51c5899e2a)" style="fill: none; stroke-dasharray: 0.8,1.32; stroke-dashoffset: 0; stroke: #b0b0b0; stroke-opacity: 0.35; stroke-width: 0.8"/>
     </g>
     <g id="line2d_10">
      <g>
       <use xlink:href="#me58ac4b335" x="322.067088" y="292.905109" style="stroke: #000000; stroke-width: 0.8"/>
      </g>
     </g>
     <g id="text_5">
      <!-- 4000 -->
      <g transform="translate(309.342088 307.503547) scale(0.1 -0.1)">
       <defs>
        <path id="DejaVuSerif-34" d="M 2234 1581 
L 2234 4063 
L 641 1581 
L 2234 1581 
z
M 3609 0 
L 1484 0 
L 1484 331 
L 2234 331 
L 2234 1247 
L 197 1247 
L 197 1588 
L 2241 4750 
L 2859 4750 
L 2859 1581 
L 3750 1581 
L 3750 1247 
L 2859 1247 
L 2859 331 
L 3609 331 
L 3609 0 
z
" transform="scale(0.015625)"/>
       </defs>
       <use xlink:href="#DejaVuSerif-34"/>
       <use xlink:href="#DejaVuSerif-30" transform="translate(63.623047 0)"/>
       <use xlink:href="#DejaVuSerif-30" transform="translate(127.246094 0)"/>
       <use xlink:href="#DejaVuSerif-30" transform="translate(190.869141 0)"/>
      </g>
     </g>
    </g>
    <g id="xtick_6">
     <g id="line2d_11">
      <path d="M 380.648703 292.905109 
L 380.648703 25.178359 
" clip-path="url(#p51c5899e2a)" style="fill: none; stroke-dasharray: 0.8,1.32; stroke-dashoffset: 0; stroke: #b0b0b0; stroke-opacity: 0.35; stroke-width: 0.8"/>
     </g>
     <g id="line2d_12">
      <g>
       <use xlink:href="#me58ac4b335" x="380.648703" y="292.905109" style="stroke: #000000; stroke-width: 0.8"/>
      </g>
     </g>
     <g id="text_6">
      <!-- 5000 -->
      <g transform="translate(367.923703 307.503547) scale(0.1 -0.1)">
       <defs>
        <path id="DejaVuSerif-35" d="M 3219 4666 
L 3219 4153 
L 1081 4153 
L 1081 2816 
Q 1244 2928 1461 2984 
Q 1678 3041 1947 3041 
Q 2703 3041 3140 2622 
Q 3578 2203 3578 1478 
Q 3578 738 3136 323 
Q 2694 -91 1894 -91 
Q 1572 -91 1234 -12 
Q 897 66 544 225 
L 544 1131 
L 897 1131 
Q 925 688 1179 453 
Q 1434 219 1894 219 
Q 2388 219 2653 544 
Q 2919 869 2919 1478 
Q 2919 2084 2655 2407 
Q 2391 2731 1894 2731 
Q 1613 2731 1398 2631 
Q 1184 2531 1019 2322 
L 750 2322 
L 750 4666 
L 3219 4666 
z
" transform="scale(0.015625)"/>
       </defs>
       <use xlink:href="#DejaVuSerif-35"/>
       <use xlink:href="#DejaVuSerif-30" transform="translate(63.623047 0)"/>
       <use xlink:href="#DejaVuSerif-30" transform="translate(127.246094 0)"/>
       <use xlink:href="#DejaVuSerif-30" transform="translate(190.869141 0)"/>
      </g>
     </g>
    </g>
    <g id="xtick_7">
     <g id="line2d_13">
      <path d="M 439.230319 292.905109 
L 439.230319 25.178359 
" clip-path="url(#p51c5899e2a)" style="fill: none; stroke-dasharray: 0.8,1.32; stroke-dashoffset: 0; stroke: #b0b0b0; stroke-opacity: 0.35; stroke-width: 0.8"/>
     </g>
     <g id="line2d_14">
      <g>
       <use xlink:href="#me58ac4b335" x="439.230319" y="292.905109" style="stroke: #000000; stroke-width: 0.8"/>
      </g>
     </g>
     <g id="text_7">
      <!-- 6000 -->
      <g transform="translate(426.505319 307.503547) scale(0.1 -0.1)">
       <defs>
        <path id="DejaVuSerif-36" d="M 2094 219 
Q 2534 219 2771 542 
Q 3009 866 3009 1472 
Q 3009 2078 2771 2401 
Q 2534 2725 2094 2725 
Q 1647 2725 1412 2412 
Q 1178 2100 1178 1509 
Q 1178 888 1415 553 
Q 1653 219 2094 219 
z
M 1075 2569 
Q 1288 2803 1556 2918 
Q 1825 3034 2163 3034 
Q 2859 3034 3264 2615 
Q 3669 2197 3669 1472 
Q 3669 763 3233 336 
Q 2797 -91 2069 -91 
Q 1278 -91 853 498 
Q 428 1088 428 2181 
Q 428 3406 931 4078 
Q 1434 4750 2350 4750 
Q 2597 4750 2869 4703 
Q 3141 4656 3425 4563 
L 3425 3794 
L 3072 3794 
Q 3034 4109 2831 4275 
Q 2628 4441 2284 4441 
Q 1678 4441 1381 3981 
Q 1084 3522 1075 2569 
z
" transform="scale(0.015625)"/>
       </defs>
       <use xlink:href="#DejaVuSerif-36"/>
       <use xlink:href="#DejaVuSerif-30" transform="translate(63.623047 0)"/>
       <use xlink:href="#DejaVuSerif-30" transform="translate(127.246094 0)"/>
       <use xlink:href="#DejaVuSerif-30" transform="translate(190.869141 0)"/>
      </g>
     </g>
    </g>
    <g id="text_8">
     <!-- DeonticAtoms extracted (E2) -->
     <g transform="translate(193.132086 321.181672) scale(0.1 -0.1)">
      <defs>
       <path id="DejaVuSerif-44" d="M 1581 331 
L 2163 331 
Q 3072 331 3558 850 
Q 4044 1369 4044 2338 
Q 4044 3306 3559 3818 
Q 3075 4331 2163 4331 
L 1581 4331 
L 1581 331 
z
M 353 0 
L 353 331 
L 947 331 
L 947 4331 
L 353 4331 
L 353 4666 
L 2209 4666 
Q 3416 4666 4089 4050 
Q 4763 3434 4763 2338 
Q 4763 1238 4088 619 
Q 3413 0 2209 0 
L 353 0 
z
" transform="scale(0.015625)"/>
       <path id="DejaVuSerif-65" d="M 3469 1600 
L 991 1600 
L 991 1575 
Q 991 903 1244 561 
Q 1497 219 1991 219 
Q 2369 219 2611 417 
Q 2853 616 2950 1006 
L 3413 1006 
Q 3275 459 2904 184 
Q 2534 -91 1931 -91 
Q 1203 -91 761 389 
Q 319 869 319 1663 
Q 319 2450 753 2931 
Q 1188 3413 1894 3413 
Q 2647 3413 3050 2948 
Q 3453 2484 3469 1600 
z
M 2791 1931 
Q 2772 2513 2545 2808 
Q 2319 3103 1894 3103 
Q 1497 3103 1269 2806 
Q 1041 2509 991 1931 
L 2791 1931 
z
" transform="scale(0.015625)"/>
       <path id="DejaVuSerif-6f" d="M 1925 219 
Q 2388 219 2623 584 
Q 2859 950 2859 1663 
Q 2859 2375 2623 2739 
Q 2388 3103 1925 3103 
Q 1463 3103 1227 2739 
Q 991 2375 991 1663 
Q 991 950 1228 584 
Q 1466 219 1925 219 
z
M 1925 -91 
Q 1200 -91 759 389 
Q 319 869 319 1663 
Q 319 2456 758 2934 
Q 1197 3413 1925 3413 
Q 2653 3413 3092 2934 
Q 3531 2456 3531 1663 
Q 3531 869 3092 389 
Q 2653 -91 1925 -91 
z
" transform="scale(0.015625)"/>
       <path id="DejaVuSerif-6e" d="M 263 0 
L 263 331 
L 781 331 
L 781 2988 
L 231 2988 
L 231 3322 
L 1356 3322 
L 1356 2731 
Q 1516 3069 1770 3241 
Q 2025 3413 2363 3413 
Q 2913 3413 3172 3097 
Q 3431 2781 3431 2113 
L 3431 331 
L 3944 331 
L 3944 0 
L 2356 0 
L 2356 331 
L 2853 331 
L 2853 1931 
Q 2853 2541 2703 2767 
Q 2553 2994 2175 2994 
Q 1775 2994 1565 2701 
Q 1356 2409 1356 1850 
L 1356 331 
L 1856 331 
L 1856 0 
L 263 0 
z
" transform="scale(0.015625)"/>
       <path id="DejaVuSerif-74" d="M 691 2988 
L 184 2988 
L 184 3322 
L 691 3322 
L 691 4353 
L 1269 4353 
L 1269 3322 
L 2350 3322 
L 2350 2988 
L 1269 2988 
L 1269 878 
Q 1269 456 1350 337 
Q 1431 219 1650 219 
Q 1875 219 1978 351 
Q 2081 484 2088 781 
L 2522 781 
Q 2497 328 2275 118 
Q 2053 -91 1600 -91 
Q 1103 -91 897 129 
Q 691 350 691 878 
L 691 2988 
z
" transform="scale(0.015625)"/>
       <path id="DejaVuSerif-69" d="M 622 4353 
Q 622 4497 726 4603 
Q 831 4709 978 4709 
Q 1122 4709 1226 4603 
Q 1331 4497 1331 4353 
Q 1331 4206 1228 4103 
Q 1125 4000 978 4000 
Q 831 4000 726 4103 
Q 622 4206 622 4353 
z
M 1356 331 
L 1900 331 
L 1900 0 
L 231 0 
L 231 331 
L 781 331 
L 781 2988 
L 231 2988 
L 231 3322 
L 1356 3322 
L 1356 331 
z
" transform="scale(0.015625)"/>
       <path id="DejaVuSerif-63" d="M 3291 997 
Q 3169 466 2822 187 
Q 2475 -91 1925 -91 
Q 1200 -91 759 389 
Q 319 869 319 1663 
Q 319 2459 759 2936 
Q 1200 3413 1925 3413 
Q 2241 3413 2553 3339 
Q 2866 3266 3181 3116 
L 3181 2266 
L 2847 2266 
Q 2781 2703 2561 2903 
Q 2341 3103 1931 3103 
Q 1466 3103 1228 2742 
Q 991 2381 991 1663 
Q 991 944 1227 581 
Q 1463 219 1931 219 
Q 2303 219 2525 412 
Q 2747 606 2828 997 
L 3291 997 
z
" transform="scale(0.015625)"/>
       <path id="DejaVuSerif-41" d="M 1281 1691 
L 2994 1691 
L 2138 3909 
L 1281 1691 
z
M -38 0 
L -38 331 
L 372 331 
L 2034 4666 
L 2559 4666 
L 4225 331 
L 4684 331 
L 4684 0 
L 2988 0 
L 2988 331 
L 3506 331 
L 3116 1356 
L 1153 1356 
L 763 331 
L 1275 331 
L 1275 0 
L -38 0 
z
" transform="scale(0.015625)"/>
       <path id="DejaVuSerif-6d" d="M 3316 2675 
Q 3481 3041 3739 3227 
Q 3997 3413 4341 3413 
Q 4863 3413 5119 3089 
Q 5375 2766 5375 2113 
L 5375 331 
L 5894 331 
L 5894 0 
L 4300 0 
L 4300 331 
L 4800 331 
L 4800 2047 
Q 4800 2556 4650 2772 
Q 4500 2988 4153 2988 
Q 3769 2988 3567 2697 
Q 3366 2406 3366 1850 
L 3366 331 
L 3866 331 
L 3866 0 
L 2291 0 
L 2291 331 
L 2791 331 
L 2791 2069 
Q 2791 2566 2641 2777 
Q 2491 2988 2144 2988 
Q 1759 2988 1557 2697 
Q 1356 2406 1356 1850 
L 1356 331 
L 1856 331 
L 1856 0 
L 263 0 
L 263 331 
L 781 331 
L 781 2994 
L 231 2994 
L 231 3322 
L 1356 3322 
L 1356 2731 
Q 1516 3063 1762 3238 
Q 2009 3413 2322 3413 
Q 2709 3413 2968 3220 
Q 3228 3028 3316 2675 
z
" transform="scale(0.015625)"/>
       <path id="DejaVuSerif-73" d="M 359 184 
L 359 959 
L 691 959 
Q 703 588 923 403 
Q 1144 219 1575 219 
Q 1963 219 2166 364 
Q 2369 509 2369 788 
Q 2369 1006 2220 1140 
Q 2072 1275 1594 1428 
L 1178 1569 
Q 750 1706 558 1912 
Q 366 2119 366 2438 
Q 366 2894 700 3153 
Q 1034 3413 1625 3413 
Q 1888 3413 2178 3344 
Q 2469 3275 2778 3144 
L 2778 2419 
L 2447 2419 
Q 2434 2741 2221 2922 
Q 2009 3103 1644 3103 
Q 1281 3103 1095 2975 
Q 909 2847 909 2591 
Q 909 2381 1050 2254 
Q 1191 2128 1613 1997 
L 2069 1856 
Q 2541 1709 2748 1489 
Q 2956 1269 2956 922 
Q 2956 450 2595 179 
Q 2234 -91 1600 -91 
Q 1278 -91 972 -22 
Q 666 47 359 184 
z
" transform="scale(0.015625)"/>
       <path id="DejaVuSerif-20" transform="scale(0.015625)"/>
       <path id="DejaVuSerif-78" d="M 1863 2028 
L 2559 2988 
L 2113 2988 
L 2113 3322 
L 3391 3322 
L 3391 2988 
L 2950 2988 
L 2059 1759 
L 3097 331 
L 3531 331 
L 3531 0 
L 1997 0 
L 1997 331 
L 2419 331 
L 1697 1325 
L 972 331 
L 1403 331 
L 1403 0 
L 141 0 
L 141 331 
L 581 331 
L 1497 1594 
L 488 2988 
L 78 2988 
L 78 3322 
L 1563 3322 
L 1563 2988 
L 1166 2988 
L 1863 2028 
z
" transform="scale(0.015625)"/>
       <path id="DejaVuSerif-72" d="M 3059 3328 
L 3059 2497 
L 2728 2497 
Q 2713 2744 2591 2866 
Q 2469 2988 2234 2988 
Q 1809 2988 1582 2694 
Q 1356 2400 1356 1850 
L 1356 331 
L 2022 331 
L 2022 0 
L 263 0 
L 263 331 
L 781 331 
L 781 2994 
L 231 2994 
L 231 3322 
L 1356 3322 
L 1356 2731 
Q 1525 3078 1790 3245 
Q 2056 3413 2438 3413 
Q 2578 3413 2733 3391 
Q 2888 3369 3059 3328 
z
" transform="scale(0.015625)"/>
       <path id="DejaVuSerif-61" d="M 2547 1044 
L 2547 1747 
L 1806 1747 
Q 1378 1747 1168 1562 
Q 959 1378 959 997 
Q 959 650 1171 447 
Q 1384 244 1747 244 
Q 2106 244 2326 466 
Q 2547 688 2547 1044 
z
M 3122 2075 
L 3122 331 
L 3634 331 
L 3634 0 
L 2547 0 
L 2547 359 
Q 2356 128 2106 18 
Q 1856 -91 1522 -91 
Q 969 -91 644 203 
Q 319 497 319 997 
Q 319 1513 691 1797 
Q 1063 2081 1741 2081 
L 2547 2081 
L 2547 2309 
Q 2547 2688 2317 2895 
Q 2088 3103 1672 3103 
Q 1328 3103 1125 2947 
Q 922 2791 872 2484 
L 575 2484 
L 575 3156 
Q 875 3284 1158 3348 
Q 1441 3413 1709 3413 
Q 2400 3413 2761 3070 
Q 3122 2728 3122 2075 
z
" transform="scale(0.015625)"/>
       <path id="DejaVuSerif-64" d="M 3359 331 
L 3909 331 
L 3909 0 
L 2784 0 
L 2784 519 
Q 2616 206 2355 57 
Q 2094 -91 1709 -91 
Q 1097 -91 708 395 
Q 319 881 319 1663 
Q 319 2444 706 2928 
Q 1094 3413 1709 3413 
Q 2094 3413 2355 3264 
Q 2616 3116 2784 2803 
L 2784 4531 
L 2241 4531 
L 2241 4863 
L 3359 4863 
L 3359 331 
z
M 2784 1497 
L 2784 1825 
Q 2784 2422 2554 2737 
Q 2325 3053 1888 3053 
Q 1444 3053 1217 2703 
Q 991 2353 991 1663 
Q 991 975 1217 622 
Q 1444 269 1888 269 
Q 2325 269 2554 583 
Q 2784 897 2784 1497 
z
" transform="scale(0.015625)"/>
       <path id="DejaVuSerif-28" d="M 2041 -997 
Q 1281 -656 893 83 
Q 506 822 506 1931 
Q 506 3044 893 3783 
Q 1281 4522 2041 4863 
L 2041 4556 
Q 1559 4225 1350 3623 
Q 1141 3022 1141 1931 
Q 1141 844 1350 242 
Q 1559 -359 2041 -691 
L 2041 -997 
z
" transform="scale(0.015625)"/>
       <path id="DejaVuSerif-45" d="M 353 0 
L 353 331 
L 947 331 
L 947 4331 
L 353 4331 
L 353 4666 
L 4109 4666 
L 4109 3628 
L 3725 3628 
L 3725 4281 
L 1581 4281 
L 1581 2719 
L 3109 2719 
L 3109 3303 
L 3494 3303 
L 3494 1753 
L 3109 1753 
L 3109 2338 
L 1581 2338 
L 1581 384 
L 3775 384 
L 3775 1038 
L 4159 1038 
L 4159 0 
L 353 0 
z
" transform="scale(0.015625)"/>
       <path id="DejaVuSerif-29" d="M 453 -997 
L 453 -691 
Q 934 -359 1145 242 
Q 1356 844 1356 1931 
Q 1356 3022 1145 3623 
Q 934 4225 453 4556 
L 453 4863 
Q 1216 4522 1603 3783 
Q 1991 3044 1991 1931 
Q 1991 822 1603 83 
Q 1216 -656 453 -997 
z
" transform="scale(0.015625)"/>
      </defs>
      <use xlink:href="#DejaVuSerif-44"/>
      <use xlink:href="#DejaVuSerif-65" transform="translate(80.175781 0)"/>
      <use xlink:href="#DejaVuSerif-6f" transform="translate(139.355469 0)"/>
      <use xlink:href="#DejaVuSerif-6e" transform="translate(199.560547 0)"/>
      <use xlink:href="#DejaVuSerif-74" transform="translate(263.964844 0)"/>
      <use xlink:href="#DejaVuSerif-69" transform="translate(304.150391 0)"/>
      <use xlink:href="#DejaVuSerif-63" transform="translate(336.132812 0)"/>
      <use xlink:href="#DejaVuSerif-41" transform="translate(392.138672 0)"/>
      <use xlink:href="#DejaVuSerif-74" transform="translate(462.605469 0)"/>
      <use xlink:href="#DejaVuSerif-6f" transform="translate(502.791016 0)"/>
      <use xlink:href="#DejaVuSerif-6d" transform="translate(562.996094 0)"/>
      <use xlink:href="#DejaVuSerif-73" transform="translate(657.820312 0)"/>
      <use xlink:href="#DejaVuSerif-20" transform="translate(709.138672 0)"/>
      <use xlink:href="#DejaVuSerif-65" transform="translate(740.925781 0)"/>
      <use xlink:href="#DejaVuSerif-78" transform="translate(800.105469 0)"/>
      <use xlink:href="#DejaVuSerif-74" transform="translate(856.501953 0)"/>
      <use xlink:href="#DejaVuSerif-72" transform="translate(896.6875 0)"/>
      <use xlink:href="#DejaVuSerif-61" transform="translate(944.490234 0)"/>
      <use xlink:href="#DejaVuSerif-63" transform="translate(1004.109375 0)"/>
      <use xlink:href="#DejaVuSerif-74" transform="translate(1060.115234 0)"/>
      <use xlink:href="#DejaVuSerif-65" transform="translate(1100.300781 0)"/>
      <use xlink:href="#DejaVuSerif-64" transform="translate(1159.480469 0)"/>
      <use xlink:href="#DejaVuSerif-20" transform="translate(1223.494141 0)"/>
      <use xlink:href="#DejaVuSerif-28" transform="translate(1255.28125 0)"/>
      <use xlink:href="#DejaVuSerif-45" transform="translate(1294.294922 0)"/>
      <use xlink:href="#DejaVuSerif-32" transform="translate(1367.292969 0)"/>
      <use xlink:href="#DejaVuSerif-29" transform="translate(1430.916016 0)"/>
     </g>
    </g>
   </g>
   <g id="matplotlib.axis_2">
    <g id="ytick_1">
     <g id="line2d_15">
      <defs>
       <path id="m3ea4da06ad" d="M 0 0 
L -3.5 0 
" style="stroke: #000000; stroke-width: 0.8"/>
      </defs>
      <g>
       <use xlink:href="#m3ea4da06ad" x="87.740625" y="59.019287" style="stroke: #000000; stroke-width: 0.8"/>
      </g>
     </g>
     <g id="text_9">
      <!-- Brazil (health) -->
      <g transform="translate(8.023438 62.818506) scale(0.1 -0.1)">
       <defs>
        <path id="DejaVuSerif-42" d="M 1581 331 
L 2516 331 
Q 3078 331 3337 575 
Q 3597 819 3597 1350 
Q 3597 1878 3339 2120 
Q 3081 2363 2516 2363 
L 1581 2363 
L 1581 331 
z
M 1581 2694 
L 2375 2694 
Q 2888 2694 3123 2891 
Q 3359 3088 3359 3513 
Q 3359 3941 3123 4136 
Q 2888 4331 2375 4331 
L 1581 4331 
L 1581 2694 
z
M 353 0 
L 353 331 
L 947 331 
L 947 4331 
L 353 4331 
L 353 4666 
L 2656 4666 
Q 3363 4666 3720 4377 
Q 4078 4088 4078 3513 
Q 4078 3097 3829 2850 
Q 3581 2603 3103 2547 
Q 3697 2472 4005 2167 
Q 4313 1863 4313 1350 
Q 4313 656 3875 328 
Q 3438 0 2509 0 
L 353 0 
z
" transform="scale(0.015625)"/>
        <path id="DejaVuSerif-7a" d="M 256 0 
L 256 269 
L 2338 2988 
L 691 2988 
L 691 2413 
L 359 2413 
L 359 3322 
L 3078 3322 
L 3078 3053 
L 997 331 
L 2803 331 
L 2803 934 
L 3138 934 
L 3138 0 
L 256 0 
z
" transform="scale(0.015625)"/>
        <path id="DejaVuSerif-6c" d="M 1313 331 
L 1856 331 
L 1856 0 
L 184 0 
L 184 331 
L 738 331 
L 738 4531 
L 184 4531 
L 184 4863 
L 1313 4863 
L 1313 331 
z
" transform="scale(0.015625)"/>
        <path id="DejaVuSerif-68" d="M 263 0 
L 263 331 
L 781 331 
L 781 4531 
L 231 4531 
L 231 4863 
L 1356 4863 
L 1356 2731 
Q 1516 3069 1770 3241 
Q 2025 3413 2363 3413 
Q 2913 3413 3172 3097 
Q 3431 2781 3431 2113 
L 3431 331 
L 3944 331 
L 3944 0 
L 2356 0 
L 2356 331 
L 2853 331 
L 2853 1931 
Q 2853 2541 2704 2764 
Q 2556 2988 2175 2988 
Q 1775 2988 1565 2697 
Q 1356 2406 1356 1850 
L 1356 331 
L 1856 331 
L 1856 0 
L 263 0 
z
" transform="scale(0.015625)"/>
       </defs>
       <use xlink:href="#DejaVuSerif-42"/>
       <use xlink:href="#DejaVuSerif-72" transform="translate(73.486328 0)"/>
       <use xlink:href="#DejaVuSerif-61" transform="translate(121.289062 0)"/>
       <use xlink:href="#DejaVuSerif-7a" transform="translate(180.908203 0)"/>
       <use xlink:href="#DejaVuSerif-69" transform="translate(233.59375 0)"/>
       <use xlink:href="#DejaVuSerif-6c" transform="translate(265.576172 0)"/>
       <use xlink:href="#DejaVuSerif-20" transform="translate(297.558594 0)"/>
       <use xlink:href="#DejaVuSerif-28" transform="translate(329.345703 0)"/>
       <use xlink:href="#DejaVuSerif-68" transform="translate(368.359375 0)"/>
       <use xlink:href="#DejaVuSerif-65" transform="translate(432.763672 0)"/>
       <use xlink:href="#DejaVuSerif-61" transform="translate(491.943359 0)"/>
       <use xlink:href="#DejaVuSerif-6c" transform="translate(551.5625 0)"/>
       <use xlink:href="#DejaVuSerif-74" transform="translate(583.544922 0)"/>
       <use xlink:href="#DejaVuSerif-68" transform="translate(623.730469 0)"/>
       <use xlink:href="#DejaVuSerif-29" transform="translate(688.134766 0)"/>
      </g>
     </g>
    </g>
    <g id="ytick_2">
     <g id="line2d_16">
      <g>
       <use xlink:href="#m3ea4da06ad" x="87.740625" y="125.700919" style="stroke: #000000; stroke-width: 0.8"/>
      </g>
     </g>
     <g id="text_10">
      <!-- EU (health) -->
      <g transform="translate(22.051563 129.500137) scale(0.1 -0.1)">
       <defs>
        <path id="DejaVuSerif-55" d="M 897 4331 
L 300 4331 
L 300 4666 
L 2125 4666 
L 2125 4331 
L 1528 4331 
L 1528 1919 
Q 1528 1025 1820 672 
Q 2113 319 2828 319 
Q 3544 319 3836 672 
Q 4128 1025 4128 1919 
L 4128 4331 
L 3531 4331 
L 3531 4666 
L 5106 4666 
L 5106 4331 
L 4513 4331 
L 4513 1856 
Q 4513 791 4103 350 
Q 3694 -91 2713 -91 
Q 1731 -91 1314 353 
Q 897 797 897 1856 
L 897 4331 
z
" transform="scale(0.015625)"/>
       </defs>
       <use xlink:href="#DejaVuSerif-45"/>
       <use xlink:href="#DejaVuSerif-55" transform="translate(72.998047 0)"/>
       <use xlink:href="#DejaVuSerif-20" transform="translate(157.275391 0)"/>
       <use xlink:href="#DejaVuSerif-28" transform="translate(189.0625 0)"/>
       <use xlink:href="#DejaVuSerif-68" transform="translate(228.076172 0)"/>
       <use xlink:href="#DejaVuSerif-65" transform="translate(292.480469 0)"/>
       <use xlink:href="#DejaVuSerif-61" transform="translate(351.660156 0)"/>
       <use xlink:href="#DejaVuSerif-6c" transform="translate(411.279297 0)"/>
       <use xlink:href="#DejaVuSerif-74" transform="translate(443.261719 0)"/>
       <use xlink:href="#DejaVuSerif-68" transform="translate(483.447266 0)"/>
       <use xlink:href="#DejaVuSerif-29" transform="translate(547.851562 0)"/>
      </g>
     </g>
    </g>
    <g id="ytick_3">
     <g id="line2d_17">
      <g>
       <use xlink:href="#m3ea4da06ad" x="87.740625" y="192.38255" style="stroke: #000000; stroke-width: 0.8"/>
      </g>
     </g>
     <g id="text_11">
      <!-- USA (health) -->
      <g transform="translate(15.279688 196.181769) scale(0.1 -0.1)">
       <defs>
        <path id="DejaVuSerif-53" d="M 594 225 
L 594 1288 
L 953 1284 
Q 969 753 1261 498 
Q 1553 244 2150 244 
Q 2706 244 2998 464 
Q 3291 684 3291 1106 
Q 3291 1444 3114 1625 
Q 2938 1806 2369 1978 
L 1753 2163 
Q 1084 2366 811 2669 
Q 538 2972 538 3500 
Q 538 4094 959 4422 
Q 1381 4750 2144 4750 
Q 2469 4750 2856 4679 
Q 3244 4609 3681 4475 
L 3681 3481 
L 3328 3481 
Q 3275 3975 2998 4195 
Q 2722 4416 2156 4416 
Q 1663 4416 1405 4214 
Q 1147 4013 1147 3628 
Q 1147 3294 1340 3103 
Q 1534 2913 2163 2725 
L 2741 2553 
Q 3375 2363 3645 2067 
Q 3916 1772 3916 1275 
Q 3916 597 3481 253 
Q 3047 -91 2188 -91 
Q 1803 -91 1404 -12 
Q 1006 66 594 225 
z
" transform="scale(0.015625)"/>
       </defs>
       <use xlink:href="#DejaVuSerif-55"/>
       <use xlink:href="#DejaVuSerif-53" transform="translate(84.277344 0)"/>
       <use xlink:href="#DejaVuSerif-41" transform="translate(152.783203 0)"/>
       <use xlink:href="#DejaVuSerif-20" transform="translate(225 0)"/>
       <use xlink:href="#DejaVuSerif-28" transform="translate(256.787109 0)"/>
       <use xlink:href="#DejaVuSerif-68" transform="translate(295.800781 0)"/>
       <use xlink:href="#DejaVuSerif-65" transform="translate(360.205078 0)"/>
       <use xlink:href="#DejaVuSerif-61" transform="translate(419.384766 0)"/>
       <use xlink:href="#DejaVuSerif-6c" transform="translate(479.003906 0)"/>
       <use xlink:href="#DejaVuSerif-74" transform="translate(510.986328 0)"/>
       <use xlink:href="#DejaVuSerif-68" transform="translate(551.171875 0)"/>
       <use xlink:href="#DejaVuSerif-29" transform="translate(615.576172 0)"/>
      </g>
     </g>
    </g>
    <g id="ytick_4">
     <g id="line2d_18">
      <g>
       <use xlink:href="#m3ea4da06ad" x="87.740625" y="259.064181" style="stroke: #000000; stroke-width: 0.8"/>
      </g>
     </g>
     <g id="text_12">
      <!-- Brazil (labour) -->
      <g transform="translate(7.2 262.8634) scale(0.1 -0.1)">
       <defs>
        <path id="DejaVuSerif-62" d="M 738 331 
L 738 4531 
L 184 4531 
L 184 4863 
L 1313 4863 
L 1313 2803 
Q 1481 3116 1742 3264 
Q 2003 3413 2388 3413 
Q 3000 3413 3387 2928 
Q 3775 2444 3775 1663 
Q 3775 881 3387 395 
Q 3000 -91 2388 -91 
Q 2003 -91 1742 57 
Q 1481 206 1313 519 
L 1313 0 
L 184 0 
L 184 331 
L 738 331 
z
M 1313 1497 
Q 1313 897 1542 583 
Q 1772 269 2209 269 
Q 2650 269 2876 622 
Q 3103 975 3103 1663 
Q 3103 2353 2876 2703 
Q 2650 3053 2209 3053 
Q 1772 3053 1542 2737 
Q 1313 2422 1313 1825 
L 1313 1497 
z
" transform="scale(0.015625)"/>
        <path id="DejaVuSerif-75" d="M 2266 3322 
L 3341 3322 
L 3341 331 
L 3884 331 
L 3884 0 
L 2766 0 
L 2766 588 
Q 2606 256 2353 82 
Q 2100 -91 1766 -91 
Q 1213 -91 952 223 
Q 691 538 691 1209 
L 691 2988 
L 172 2988 
L 172 3322 
L 1269 3322 
L 1269 1388 
Q 1269 781 1417 556 
Q 1566 331 1947 331 
Q 2347 331 2556 625 
Q 2766 919 2766 1478 
L 2766 2988 
L 2266 2988 
L 2266 3322 
z
" transform="scale(0.015625)"/>
       </defs>
       <use xlink:href="#DejaVuSerif-42"/>
       <use xlink:href="#DejaVuSerif-72" transform="translate(73.486328 0)"/>
       <use xlink:href="#DejaVuSerif-61" transform="translate(121.289062 0)"/>
       <use xlink:href="#DejaVuSerif-7a" transform="translate(180.908203 0)"/>
       <use xlink:href="#DejaVuSerif-69" transform="translate(233.59375 0)"/>
       <use xlink:href="#DejaVuSerif-6c" transform="translate(265.576172 0)"/>
       <use xlink:href="#DejaVuSerif-20" transform="translate(297.558594 0)"/>
       <use xlink:href="#DejaVuSerif-28" transform="translate(329.345703 0)"/>
       <use xlink:href="#DejaVuSerif-6c" transform="translate(368.359375 0)"/>
       <use xlink:href="#DejaVuSerif-61" transform="translate(400.341797 0)"/>
       <use xlink:href="#DejaVuSerif-62" transform="translate(459.960938 0)"/>
       <use xlink:href="#DejaVuSerif-6f" transform="translate(523.974609 0)"/>
       <use xlink:href="#DejaVuSerif-75" transform="translate(584.179688 0)"/>
       <use xlink:href="#DejaVuSerif-72" transform="translate(648.583984 0)"/>
       <use xlink:href="#DejaVuSerif-29" transform="translate(696.386719 0)"/>
      </g>
     </g>
    </g>
   </g>
   <g id="patch_3">
    <path d="M 87.740625 37.347757 
L 275.553285 37.347757 
L 275.553285 80.690818 
L 87.740625 80.690818 
z
" clip-path="url(#p51c5899e2a)" style="fill: #3a3a3a; stroke: #000000; stroke-width: 0.8; stroke-linejoin: miter"/>
   </g>
   <g id="patch_4">
    <path d="M 87.740625 104.029388 
L 152.238984 104.029388 
L 152.238984 147.372449 
L 87.740625 147.372449 
z
" clip-path="url(#p51c5899e2a)" style="fill: #3a3a3a; stroke: #000000; stroke-width: 0.8; stroke-linejoin: miter"/>
   </g>
   <g id="patch_5">
    <path d="M 87.740625 170.71102 
L 136.304784 170.71102 
L 136.304784 214.05408 
L 87.740625 214.05408 
z
" clip-path="url(#p51c5899e2a)" style="fill: #3a3a3a; stroke: #000000; stroke-width: 0.8; stroke-linejoin: miter"/>
   </g>
   <g id="patch_6">
    <path d="M 87.740625 237.392651 
L 381.000193 237.392651 
L 381.000193 280.735712 
L 87.740625 280.735712 
z
" clip-path="url(#p51c5899e2a)" style="fill: #9a9a9a; stroke: #000000; stroke-width: 0.8; stroke-linejoin: miter"/>
   </g>
   <g id="patch_7">
    <path d="M 87.740625 292.905109 
L 87.740625 25.178359 
" style="fill: none; stroke: #000000; stroke-width: 0.8; stroke-linejoin: miter; stroke-linecap: square"/>
   </g>
   <g id="patch_8">
    <path d="M 445.517298 292.905109 
L 445.517298 25.178359 
" style="fill: none; stroke: #000000; stroke-width: 0.8; stroke-linejoin: miter; stroke-linecap: square"/>
   </g>
   <g id="patch_9">
    <path d="M 87.740625 292.905109 
L 445.517298 292.905109 
" style="fill: none; stroke: #000000; stroke-width: 0.8; stroke-linejoin: miter; stroke-linecap: square"/>
   </g>
   <g id="patch_10">
    <path d="M 87.740625 25.178359 
L 445.517298 25.178359 
" style="fill: none; stroke: #000000; stroke-width: 0.8; stroke-linejoin: miter; stroke-linecap: square"/>
   </g>
   <g id="text_13">
    <!-- 3,206 -->
    <g transform="translate(279.0724 61.640694) scale(0.095 -0.095)">
     <defs>
      <path id="DejaVuSerif-2c" d="M 231 -622 
Q 525 -406 662 -114 
Q 800 178 800 594 
L 800 709 
L 1416 709 
Q 1391 175 1164 -208 
Q 938 -591 481 -872 
L 231 -622 
z
" transform="scale(0.015625)"/>
     </defs>
     <use xlink:href="#DejaVuSerif-33"/>
     <use xlink:href="#DejaVuSerif-2c" transform="translate(63.623047 0)"/>
     <use xlink:href="#DejaVuSerif-32" transform="translate(95.410156 0)"/>
     <use xlink:href="#DejaVuSerif-30" transform="translate(159.033203 0)"/>
     <use xlink:href="#DejaVuSerif-36" transform="translate(222.65625 0)"/>
    </g>
   </g>
   <g id="text_14">
    <!-- 1,101 -->
    <g transform="translate(155.758099 128.322325) scale(0.095 -0.095)">
     <use xlink:href="#DejaVuSerif-31"/>
     <use xlink:href="#DejaVuSerif-2c" transform="translate(63.623047 0)"/>
     <use xlink:href="#DejaVuSerif-31" transform="translate(95.410156 0)"/>
     <use xlink:href="#DejaVuSerif-30" transform="translate(159.033203 0)"/>
     <use xlink:href="#DejaVuSerif-31" transform="translate(222.65625 0)"/>
    </g>
   </g>
   <g id="text_15">
    <!-- 829 -->
    <g transform="translate(139.823899 195.003956) scale(0.095 -0.095)">
     <defs>
      <path id="DejaVuSerif-38" d="M 2981 1275 
Q 2981 1775 2732 2051 
Q 2484 2328 2034 2328 
Q 1584 2328 1336 2051 
Q 1088 1775 1088 1275 
Q 1088 772 1336 495 
Q 1584 219 2034 219 
Q 2484 219 2732 495 
Q 2981 772 2981 1275 
z
M 2853 3541 
Q 2853 3966 2637 4203 
Q 2422 4441 2034 4441 
Q 1650 4441 1433 4203 
Q 1216 3966 1216 3541 
Q 1216 3113 1433 2875 
Q 1650 2638 2034 2638 
Q 2422 2638 2637 2875 
Q 2853 3113 2853 3541 
z
M 2516 2484 
Q 3047 2413 3344 2092 
Q 3641 1772 3641 1275 
Q 3641 619 3225 264 
Q 2809 -91 2034 -91 
Q 1263 -91 845 264 
Q 428 619 428 1275 
Q 428 1772 725 2092 
Q 1022 2413 1556 2484 
Q 1084 2569 832 2842 
Q 581 3116 581 3541 
Q 581 4103 968 4426 
Q 1356 4750 2034 4750 
Q 2713 4750 3100 4426 
Q 3488 4103 3488 3541 
Q 3488 3116 3236 2842 
Q 2984 2569 2516 2484 
z
" transform="scale(0.015625)"/>
      <path id="DejaVuSerif-39" d="M 2994 2091 
Q 2784 1856 2512 1740 
Q 2241 1625 1900 1625 
Q 1206 1625 804 2044 
Q 403 2463 403 3188 
Q 403 3897 839 4323 
Q 1275 4750 2003 4750 
Q 2794 4750 3217 4161 
Q 3641 3572 3641 2478 
Q 3641 1253 3137 581 
Q 2634 -91 1722 -91 
Q 1475 -91 1203 -44 
Q 931 3 647 97 
L 647 872 
L 997 872 
Q 1038 556 1241 387 
Q 1444 219 1784 219 
Q 2391 219 2687 676 
Q 2984 1134 2994 2091 
z
M 1978 4441 
Q 1534 4441 1298 4117 
Q 1063 3794 1063 3188 
Q 1063 2581 1298 2256 
Q 1534 1931 1978 1931 
Q 2422 1931 2658 2245 
Q 2894 2559 2894 3150 
Q 2894 3772 2656 4106 
Q 2419 4441 1978 4441 
z
" transform="scale(0.015625)"/>
     </defs>
     <use xlink:href="#DejaVuSerif-38"/>
     <use xlink:href="#DejaVuSerif-32" transform="translate(63.623047 0)"/>
     <use xlink:href="#DejaVuSerif-39" transform="translate(127.246094 0)"/>
    </g>
   </g>
   <g id="text_16">
    <!-- 5,006 -->
    <g transform="translate(384.519308 261.685588) scale(0.095 -0.095)">
     <use xlink:href="#DejaVuSerif-35"/>
     <use xlink:href="#DejaVuSerif-2c" transform="translate(63.623047 0)"/>
     <use xlink:href="#DejaVuSerif-30" transform="translate(95.410156 0)"/>
     <use xlink:href="#DejaVuSerif-30" transform="translate(159.033203 0)"/>
     <use xlink:href="#DejaVuSerif-36" transform="translate(222.65625 0)"/>
    </g>
   </g>
   <g id="text_17">
    <!-- (a) Atoms per normative regime, by applied track -->
    <g transform="translate(134.792438 15.178359) scale(0.105 -0.105)">
     <defs>
      <path id="DejaVuSerif-70" d="M 1313 1825 
L 1313 1497 
Q 1313 897 1542 583 
Q 1772 269 2209 269 
Q 2650 269 2876 622 
Q 3103 975 3103 1663 
Q 3103 2353 2876 2703 
Q 2650 3053 2209 3053 
Q 1772 3053 1542 2737 
Q 1313 2422 1313 1825 
z
M 738 2988 
L 184 2988 
L 184 3322 
L 1313 3322 
L 1313 2803 
Q 1481 3116 1742 3264 
Q 2003 3413 2388 3413 
Q 3000 3413 3387 2928 
Q 3775 2444 3775 1663 
Q 3775 881 3387 395 
Q 3000 -91 2388 -91 
Q 2003 -91 1742 57 
Q 1481 206 1313 519 
L 1313 -997 
L 1856 -997 
L 1856 -1331 
L 184 -1331 
L 184 -997 
L 738 -997 
L 738 2988 
z
" transform="scale(0.015625)"/>
      <path id="DejaVuSerif-76" d="M 1581 0 
L 359 2988 
L -19 2988 
L -19 3322 
L 1509 3322 
L 1509 2988 
L 978 2988 
L 1913 703 
L 2847 2988 
L 2350 2988 
L 2350 3322 
L 3597 3322 
L 3597 2988 
L 3225 2988 
L 2003 0 
L 1581 0 
z
" transform="scale(0.015625)"/>
      <path id="DejaVuSerif-67" d="M 3359 2988 
L 3359 72 
Q 3359 -644 2965 -1033 
Q 2572 -1422 1844 -1422 
Q 1516 -1422 1216 -1362 
Q 916 -1303 641 -1184 
L 641 -488 
L 941 -488 
Q 997 -813 1206 -963 
Q 1416 -1113 1806 -1113 
Q 2313 -1113 2548 -827 
Q 2784 -541 2784 72 
L 2784 519 
Q 2616 206 2355 57 
Q 2094 -91 1709 -91 
Q 1097 -91 708 395 
Q 319 881 319 1663 
Q 319 2444 706 2928 
Q 1094 3413 1709 3413 
Q 2094 3413 2355 3264 
Q 2616 3116 2784 2803 
L 2784 3322 
L 3909 3322 
L 3909 2988 
L 3359 2988 
z
M 2784 1825 
Q 2784 2422 2554 2737 
Q 2325 3053 1888 3053 
Q 1444 3053 1217 2703 
Q 991 2353 991 1663 
Q 991 975 1217 622 
Q 1444 269 1888 269 
Q 2325 269 2554 583 
Q 2784 897 2784 1497 
L 2784 1825 
z
" transform="scale(0.015625)"/>
      <path id="DejaVuSerif-79" d="M 1381 -609 
L 1600 -56 
L 359 2988 
L -19 2988 
L -19 3322 
L 1509 3322 
L 1509 2988 
L 978 2988 
L 1913 703 
L 2847 2988 
L 2350 2988 
L 2350 3322 
L 3597 3322 
L 3597 2988 
L 3225 2988 
L 1703 -750 
Q 1547 -1138 1356 -1280 
Q 1166 -1422 819 -1422 
Q 672 -1422 517 -1397 
Q 363 -1372 206 -1325 
L 206 -691 
L 500 -691 
Q 519 -903 608 -995 
Q 697 -1088 884 -1088 
Q 1056 -1088 1161 -992 
Q 1266 -897 1381 -609 
z
" transform="scale(0.015625)"/>
      <path id="DejaVuSerif-6b" d="M 1831 0 
L 219 0 
L 219 331 
L 738 331 
L 738 4531 
L 184 4531 
L 184 4863 
L 1313 4863 
L 1313 1697 
L 2713 2988 
L 2234 2988 
L 2234 3322 
L 3738 3322 
L 3738 2988 
L 3169 2988 
L 2181 2075 
L 3444 331 
L 3922 331 
L 3922 0 
L 2284 0 
L 2284 331 
L 2759 331 
L 1766 1697 
L 1313 1275 
L 1313 331 
L 1831 331 
L 1831 0 
z
" transform="scale(0.015625)"/>
     </defs>
     <use xlink:href="#DejaVuSerif-28"/>
     <use xlink:href="#DejaVuSerif-61" transform="translate(39.013672 0)"/>
     <use xlink:href="#DejaVuSerif-29" transform="translate(98.632812 0)"/>
     <use xlink:href="#DejaVuSerif-20" transform="translate(137.646484 0)"/>
     <use xlink:href="#DejaVuSerif-41" transform="translate(169.433594 0)"/>
     <use xlink:href="#DejaVuSerif-74" transform="translate(239.900391 0)"/>
     <use xlink:href="#DejaVuSerif-6f" transform="translate(280.085938 0)"/>
     <use xlink:href="#DejaVuSerif-6d" transform="translate(340.291016 0)"/>
     <use xlink:href="#DejaVuSerif-73" transform="translate(435.115234 0)"/>
     <use xlink:href="#DejaVuSerif-20" transform="translate(486.433594 0)"/>
     <use xlink:href="#DejaVuSerif-70" transform="translate(518.220703 0)"/>
     <use xlink:href="#DejaVuSerif-65" transform="translate(582.234375 0)"/>
     <use xlink:href="#DejaVuSerif-72" transform="translate(641.414062 0)"/>
     <use xlink:href="#DejaVuSerif-20" transform="translate(689.216797 0)"/>
     <use xlink:href="#DejaVuSerif-6e" transform="translate(721.003906 0)"/>
     <use xlink:href="#DejaVuSerif-6f" transform="translate(785.408203 0)"/>
     <use xlink:href="#DejaVuSerif-72" transform="translate(845.613281 0)"/>
     <use xlink:href="#DejaVuSerif-6d" transform="translate(893.416016 0)"/>
     <use xlink:href="#DejaVuSerif-61" transform="translate(988.240234 0)"/>
     <use xlink:href="#DejaVuSerif-74" transform="translate(1047.859375 0)"/>
     <use xlink:href="#DejaVuSerif-69" transform="translate(1088.044922 0)"/>
     <use xlink:href="#DejaVuSerif-76" transform="translate(1120.027344 0)"/>
     <use xlink:href="#DejaVuSerif-65" transform="translate(1176.521484 0)"/>
     <use xlink:href="#DejaVuSerif-20" transform="translate(1235.701172 0)"/>
     <use xlink:href="#DejaVuSerif-72" transform="translate(1267.488281 0)"/>
     <use xlink:href="#DejaVuSerif-65" transform="translate(1315.291016 0)"/>
     <use xlink:href="#DejaVuSerif-67" transform="translate(1374.470703 0)"/>
     <use xlink:href="#DejaVuSerif-69" transform="translate(1438.484375 0)"/>
     <use xlink:href="#DejaVuSerif-6d" transform="translate(1470.466797 0)"/>
     <use xlink:href="#DejaVuSerif-65" transform="translate(1565.291016 0)"/>
     <use xlink:href="#DejaVuSerif-2c" transform="translate(1624.470703 0)"/>
     <use xlink:href="#DejaVuSerif-20" transform="translate(1656.257812 0)"/>
     <use xlink:href="#DejaVuSerif-62" transform="translate(1688.044922 0)"/>
     <use xlink:href="#DejaVuSerif-79" transform="translate(1752.058594 0)"/>
     <use xlink:href="#DejaVuSerif-20" transform="translate(1808.552734 0)"/>
     <use xlink:href="#DejaVuSerif-61" transform="translate(1840.339844 0)"/>
     <use xlink:href="#DejaVuSerif-70" transform="translate(1899.958984 0)"/>
     <use xlink:href="#DejaVuSerif-70" transform="translate(1963.972656 0)"/>
     <use xlink:href="#DejaVuSerif-6c" transform="translate(2027.986328 0)"/>
     <use xlink:href="#DejaVuSerif-69" transform="translate(2059.96875 0)"/>
     <use xlink:href="#DejaVuSerif-65" transform="translate(2091.951172 0)"/>
     <use xlink:href="#DejaVuSerif-64" transform="translate(2151.130859 0)"/>
     <use xlink:href="#DejaVuSerif-20" transform="translate(2215.144531 0)"/>
     <use xlink:href="#DejaVuSerif-74" transform="translate(2246.931641 0)"/>
     <use xlink:href="#DejaVuSerif-72" transform="translate(2287.117188 0)"/>
     <use xlink:href="#DejaVuSerif-61" transform="translate(2334.919922 0)"/>
     <use xlink:href="#DejaVuSerif-63" transform="translate(2394.539062 0)"/>
     <use xlink:href="#DejaVuSerif-6b" transform="translate(2450.544922 0)"/>
    </g>
   </g>
   <g id="legend_1">
    <g id="patch_11">
     <path d="M 324.717688 172.85357 
L 439.567298 172.85357 
Q 441.267298 172.85357 441.267298 171.15357 
L 441.267298 146.929898 
Q 441.267298 145.229898 439.567298 145.229898 
L 324.717688 145.229898 
Q 323.017688 145.229898 323.017688 146.929898 
L 323.017688 171.15357 
Q 323.017688 172.85357 324.717688 172.85357 
z
" style="fill: #ffffff; opacity: 0.8; stroke: #666666; stroke-linejoin: miter"/>
    </g>
    <g id="patch_12">
     <path d="M 326.417688 155.08857 
L 343.417688 155.08857 
L 343.417688 149.13857 
L 326.417688 149.13857 
z
" style="fill: #3a3a3a; stroke: #000000; stroke-linejoin: miter"/>
    </g>
    <g id="text_18">
     <!-- Health / governance -->
     <g transform="translate(350.217688 155.08857) scale(0.085 -0.085)">
      <defs>
       <path id="DejaVuSerif-48" d="M 353 0 
L 353 331 
L 947 331 
L 947 4331 
L 353 4331 
L 353 4666 
L 2175 4666 
L 2175 4331 
L 1581 4331 
L 1581 2719 
L 4000 2719 
L 4000 4331 
L 3406 4331 
L 3406 4666 
L 5228 4666 
L 5228 4331 
L 4634 4331 
L 4634 331 
L 5228 331 
L 5228 0 
L 3406 0 
L 3406 331 
L 4000 331 
L 4000 2338 
L 1581 2338 
L 1581 331 
L 2175 331 
L 2175 0 
L 353 0 
z
" transform="scale(0.015625)"/>
       <path id="DejaVuSerif-2f" d="M 1656 4666 
L 2156 4666 
L 500 -594 
L 0 -594 
L 1656 4666 
z
" transform="scale(0.015625)"/>
      </defs>
      <use xlink:href="#DejaVuSerif-48"/>
      <use xlink:href="#DejaVuSerif-65" transform="translate(87.207031 0)"/>
      <use xlink:href="#DejaVuSerif-61" transform="translate(146.386719 0)"/>
      <use xlink:href="#DejaVuSerif-6c" transform="translate(206.005859 0)"/>
      <use xlink:href="#DejaVuSerif-74" transform="translate(237.988281 0)"/>
      <use xlink:href="#DejaVuSerif-68" transform="translate(278.173828 0)"/>
      <use xlink:href="#DejaVuSerif-20" transform="translate(342.578125 0)"/>
      <use xlink:href="#DejaVuSerif-2f" transform="translate(374.365234 0)"/>
      <use xlink:href="#DejaVuSerif-20" transform="translate(408.056641 0)"/>
      <use xlink:href="#DejaVuSerif-67" transform="translate(439.84375 0)"/>
      <use xlink:href="#DejaVuSerif-6f" transform="translate(503.857422 0)"/>
      <use xlink:href="#DejaVuSerif-76" transform="translate(564.0625 0)"/>
      <use xlink:href="#DejaVuSerif-65" transform="translate(620.556641 0)"/>
      <use xlink:href="#DejaVuSerif-72" transform="translate(679.736328 0)"/>
      <use xlink:href="#DejaVuSerif-6e" transform="translate(727.539062 0)"/>
      <use xlink:href="#DejaVuSerif-61" transform="translate(791.943359 0)"/>
      <use xlink:href="#DejaVuSerif-6e" transform="translate(851.5625 0)"/>
      <use xlink:href="#DejaVuSerif-63" transform="translate(915.966797 0)"/>
      <use xlink:href="#DejaVuSerif-65" transform="translate(971.972656 0)"/>
     </g>
    </g>
    <g id="patch_13">
     <path d="M 326.417688 167.685836 
L 343.417688 167.685836 
L 343.417688 161.735836 
L 326.417688 161.735836 
z
" style="fill: #9a9a9a; stroke: #000000; stroke-linejoin: miter"/>
    </g>
    <g id="text_19">
     <!-- Labour -->
     <g transform="translate(350.217688 167.685836) scale(0.085 -0.085)">
      <defs>
       <path id="DejaVuSerif-4c" d="M 353 0 
L 353 331 
L 947 331 
L 947 4331 
L 353 4331 
L 353 4666 
L 2175 4666 
L 2175 4331 
L 1581 4331 
L 1581 384 
L 3713 384 
L 3713 1166 
L 4097 1166 
L 4097 0 
L 353 0 
z
" transform="scale(0.015625)"/>
      </defs>
      <use xlink:href="#DejaVuSerif-4c"/>
      <use xlink:href="#DejaVuSerif-61" transform="translate(66.40625 0)"/>
      <use xlink:href="#DejaVuSerif-62" transform="translate(126.025391 0)"/>
      <use xlink:href="#DejaVuSerif-6f" transform="translate(190.039062 0)"/>
      <use xlink:href="#DejaVuSerif-75" transform="translate(250.244141 0)"/>
      <use xlink:href="#DejaVuSerif-72" transform="translate(314.648438 0)"/>
     </g>
    </g>
   </g>
  </g>
  <g id="axes_2">
   <g id="patch_14">
    <path d="M 509.897451 292.905109 
L 921.340625 292.905109 
L 921.340625 25.178359 
L 509.897451 25.178359 
z
" style="fill: #ffffff"/>
   </g>
   <g id="matplotlib.axis_3">
    <g id="xtick_8">
     <g id="line2d_19">
      <g>
       <use xlink:href="#me58ac4b335" x="566.401253" y="292.905109" style="stroke: #000000; stroke-width: 0.8"/>
      </g>
     </g>
     <g id="text_20">
      <!-- Obligation -->
      <g transform="translate(539.881721 307.503547) scale(0.1 -0.1)">
       <defs>
        <path id="DejaVuSerif-4f" d="M 2625 244 
Q 3391 244 3781 770 
Q 4172 1297 4172 2328 
Q 4172 3363 3781 3889 
Q 3391 4416 2625 4416 
Q 1856 4416 1465 3889 
Q 1075 3363 1075 2328 
Q 1075 1297 1465 770 
Q 1856 244 2625 244 
z
M 2625 -91 
Q 2150 -91 1751 65 
Q 1353 222 1050 525 
Q 700 875 529 1319 
Q 359 1763 359 2328 
Q 359 2894 529 3339 
Q 700 3784 1050 4134 
Q 1356 4441 1750 4595 
Q 2144 4750 2625 4750 
Q 3641 4750 4266 4084 
Q 4891 3419 4891 2328 
Q 4891 1769 4719 1320 
Q 4547 872 4197 525 
Q 3891 219 3497 64 
Q 3103 -91 2625 -91 
z
" transform="scale(0.015625)"/>
       </defs>
       <use xlink:href="#DejaVuSerif-4f"/>
       <use xlink:href="#DejaVuSerif-62" transform="translate(81.982422 0)"/>
       <use xlink:href="#DejaVuSerif-6c" transform="translate(145.996094 0)"/>
       <use xlink:href="#DejaVuSerif-69" transform="translate(177.978516 0)"/>
       <use xlink:href="#DejaVuSerif-67" transform="translate(209.960938 0)"/>
       <use xlink:href="#DejaVuSerif-61" transform="translate(273.974609 0)"/>
       <use xlink:href="#DejaVuSerif-74" transform="translate(333.59375 0)"/>
       <use xlink:href="#DejaVuSerif-69" transform="translate(373.779297 0)"/>
       <use xlink:href="#DejaVuSerif-6f" transform="translate(405.761719 0)"/>
       <use xlink:href="#DejaVuSerif-6e" transform="translate(465.966797 0)"/>
      </g>
     </g>
    </g>
    <g id="xtick_9">
     <g id="line2d_20">
      <g>
       <use xlink:href="#me58ac4b335" x="665.879776" y="292.905109" style="stroke: #000000; stroke-width: 0.8"/>
      </g>
     </g>
     <g id="text_21">
      <!-- Permission -->
      <g transform="translate(638.089933 307.503547) scale(0.1 -0.1)">
       <defs>
        <path id="DejaVuSerif-50" d="M 1581 2375 
L 2406 2375 
Q 2872 2375 3115 2626 
Q 3359 2878 3359 3353 
Q 3359 3831 3115 4081 
Q 2872 4331 2406 4331 
L 1581 4331 
L 1581 2375 
z
M 353 0 
L 353 331 
L 947 331 
L 947 4331 
L 353 4331 
L 353 4666 
L 2559 4666 
Q 3259 4666 3668 4311 
Q 4078 3956 4078 3353 
Q 4078 2753 3668 2397 
Q 3259 2041 2559 2041 
L 1581 2041 
L 1581 331 
L 2303 331 
L 2303 0 
L 353 0 
z
" transform="scale(0.015625)"/>
       </defs>
       <use xlink:href="#DejaVuSerif-50"/>
       <use xlink:href="#DejaVuSerif-65" transform="translate(62.785156 0)"/>
       <use xlink:href="#DejaVuSerif-72" transform="translate(121.964844 0)"/>
       <use xlink:href="#DejaVuSerif-6d" transform="translate(169.767578 0)"/>
       <use xlink:href="#DejaVuSerif-69" transform="translate(264.591797 0)"/>
       <use xlink:href="#DejaVuSerif-73" transform="translate(296.574219 0)"/>
       <use xlink:href="#DejaVuSerif-73" transform="translate(347.892578 0)"/>
       <use xlink:href="#DejaVuSerif-69" transform="translate(399.210938 0)"/>
       <use xlink:href="#DejaVuSerif-6f" transform="translate(431.193359 0)"/>
       <use xlink:href="#DejaVuSerif-6e" transform="translate(491.398438 0)"/>
      </g>
     </g>
    </g>
    <g id="xtick_10">
     <g id="line2d_21">
      <g>
       <use xlink:href="#me58ac4b335" x="765.3583" y="292.905109" style="stroke: #000000; stroke-width: 0.8"/>
      </g>
     </g>
     <g id="text_22">
      <!-- Prohibition -->
      <g transform="translate(737.135644 307.503547) scale(0.1 -0.1)">
       <use xlink:href="#DejaVuSerif-50"/>
       <use xlink:href="#DejaVuSerif-72" transform="translate(67.285156 0)"/>
       <use xlink:href="#DejaVuSerif-6f" transform="translate(115.087891 0)"/>
       <use xlink:href="#DejaVuSerif-68" transform="translate(175.292969 0)"/>
       <use xlink:href="#DejaVuSerif-69" transform="translate(239.697266 0)"/>
       <use xlink:href="#DejaVuSerif-62" transform="translate(271.679688 0)"/>
       <use xlink:href="#DejaVuSerif-69" transform="translate(335.693359 0)"/>
       <use xlink:href="#DejaVuSerif-74" transform="translate(367.675781 0)"/>
       <use xlink:href="#DejaVuSerif-69" transform="translate(407.861328 0)"/>
       <use xlink:href="#DejaVuSerif-6f" transform="translate(439.84375 0)"/>
       <use xlink:href="#DejaVuSerif-6e" transform="translate(500.048828 0)"/>
      </g>
     </g>
    </g>
    <g id="xtick_11">
     <g id="line2d_22">
      <g>
       <use xlink:href="#me58ac4b335" x="864.836824" y="292.905109" style="stroke: #000000; stroke-width: 0.8"/>
      </g>
     </g>
     <g id="text_23">
      <!-- Faculty -->
      <g transform="translate(846.269636 307.503547) scale(0.1 -0.1)">
       <defs>
        <path id="DejaVuSerif-46" d="M 353 0 
L 353 331 
L 947 331 
L 947 4331 
L 353 4331 
L 353 4666 
L 4172 4666 
L 4172 3628 
L 3788 3628 
L 3788 4281 
L 1581 4281 
L 1581 2719 
L 3175 2719 
L 3175 3303 
L 3559 3303 
L 3559 1753 
L 3175 1753 
L 3175 2338 
L 1581 2338 
L 1581 331 
L 2328 331 
L 2328 0 
L 353 0 
z
" transform="scale(0.015625)"/>
       </defs>
       <use xlink:href="#DejaVuSerif-46"/>
       <use xlink:href="#DejaVuSerif-61" transform="translate(62.634766 0)"/>
       <use xlink:href="#DejaVuSerif-63" transform="translate(122.253906 0)"/>
       <use xlink:href="#DejaVuSerif-75" transform="translate(178.259766 0)"/>
       <use xlink:href="#DejaVuSerif-6c" transform="translate(242.664062 0)"/>
       <use xlink:href="#DejaVuSerif-74" transform="translate(274.646484 0)"/>
       <use xlink:href="#DejaVuSerif-79" transform="translate(314.832031 0)"/>
      </g>
     </g>
    </g>
   </g>
   <g id="matplotlib.axis_4">
    <g id="ytick_5">
     <g id="line2d_23">
      <path d="M 509.897451 292.905109 
L 921.340625 292.905109 
" clip-path="url(#p4ee9bf7900)" style="fill: none; stroke-dasharray: 0.8,1.32; stroke-dashoffset: 0; stroke: #b0b0b0; stroke-opacity: 0.35; stroke-width: 0.8"/>
     </g>
     <g id="line2d_24">
      <g>
       <use xlink:href="#m3ea4da06ad" x="509.897451" y="292.905109" style="stroke: #000000; stroke-width: 0.8"/>
      </g>
     </g>
     <g id="text_24">
      <!-- 0 -->
      <g transform="translate(496.534951 296.704328) scale(0.1 -0.1)">
       <use xlink:href="#DejaVuSerif-30"/>
      </g>
     </g>
    </g>
    <g id="ytick_6">
     <g id="line2d_25">
      <path d="M 509.897451 246.709483 
L 921.340625 246.709483 
" clip-path="url(#p4ee9bf7900)" style="fill: none; stroke-dasharray: 0.8,1.32; stroke-dashoffset: 0; stroke: #b0b0b0; stroke-opacity: 0.35; stroke-width: 0.8"/>
     </g>
     <g id="line2d_26">
      <g>
       <use xlink:href="#m3ea4da06ad" x="509.897451" y="246.709483" style="stroke: #000000; stroke-width: 0.8"/>
      </g>
     </g>
     <g id="text_25">
      <!-- 1000 -->
      <g transform="translate(477.447451 250.508702) scale(0.1 -0.1)">
       <use xlink:href="#DejaVuSerif-31"/>
       <use xlink:href="#DejaVuSerif-30" transform="translate(63.623047 0)"/>
       <use xlink:href="#DejaVuSerif-30" transform="translate(127.246094 0)"/>
       <use xlink:href="#DejaVuSerif-30" transform="translate(190.869141 0)"/>
      </g>
     </g>
    </g>
    <g id="ytick_7">
     <g id="line2d_27">
      <path d="M 509.897451 200.513858 
L 921.340625 200.513858 
" clip-path="url(#p4ee9bf7900)" style="fill: none; stroke-dasharray: 0.8,1.32; stroke-dashoffset: 0; stroke: #b0b0b0; stroke-opacity: 0.35; stroke-width: 0.8"/>
     </g>
     <g id="line2d_28">
      <g>
       <use xlink:href="#m3ea4da06ad" x="509.897451" y="200.513858" style="stroke: #000000; stroke-width: 0.8"/>
      </g>
     </g>
     <g id="text_26">
      <!-- 2000 -->
      <g transform="translate(477.447451 204.313076) scale(0.1 -0.1)">
       <use xlink:href="#DejaVuSerif-32"/>
       <use xlink:href="#DejaVuSerif-30" transform="translate(63.623047 0)"/>
       <use xlink:href="#DejaVuSerif-30" transform="translate(127.246094 0)"/>
       <use xlink:href="#DejaVuSerif-30" transform="translate(190.869141 0)"/>
      </g>
     </g>
    </g>
    <g id="ytick_8">
     <g id="line2d_29">
      <path d="M 509.897451 154.318232 
L 921.340625 154.318232 
" clip-path="url(#p4ee9bf7900)" style="fill: none; stroke-dasharray: 0.8,1.32; stroke-dashoffset: 0; stroke: #b0b0b0; stroke-opacity: 0.35; stroke-width: 0.8"/>
     </g>
     <g id="line2d_30">
      <g>
       <use xlink:href="#m3ea4da06ad" x="509.897451" y="154.318232" style="stroke: #000000; stroke-width: 0.8"/>
      </g>
     </g>
     <g id="text_27">
      <!-- 3000 -->
      <g transform="translate(477.447451 158.11745) scale(0.1 -0.1)">
       <use xlink:href="#DejaVuSerif-33"/>
       <use xlink:href="#DejaVuSerif-30" transform="translate(63.623047 0)"/>
       <use xlink:href="#DejaVuSerif-30" transform="translate(127.246094 0)"/>
       <use xlink:href="#DejaVuSerif-30" transform="translate(190.869141 0)"/>
      </g>
     </g>
    </g>
    <g id="ytick_9">
     <g id="line2d_31">
      <path d="M 509.897451 108.122606 
L 921.340625 108.122606 
" clip-path="url(#p4ee9bf7900)" style="fill: none; stroke-dasharray: 0.8,1.32; stroke-dashoffset: 0; stroke: #b0b0b0; stroke-opacity: 0.35; stroke-width: 0.8"/>
     </g>
     <g id="line2d_32">
      <g>
       <use xlink:href="#m3ea4da06ad" x="509.897451" y="108.122606" style="stroke: #000000; stroke-width: 0.8"/>
      </g>
     </g>
     <g id="text_28">
      <!-- 4000 -->
      <g transform="translate(477.447451 111.921824) scale(0.1 -0.1)">
       <use xlink:href="#DejaVuSerif-34"/>
       <use xlink:href="#DejaVuSerif-30" transform="translate(63.623047 0)"/>
       <use xlink:href="#DejaVuSerif-30" transform="translate(127.246094 0)"/>
       <use xlink:href="#DejaVuSerif-30" transform="translate(190.869141 0)"/>
      </g>
     </g>
    </g>
    <g id="ytick_10">
     <g id="line2d_33">
      <path d="M 509.897451 61.92698 
L 921.340625 61.92698 
" clip-path="url(#p4ee9bf7900)" style="fill: none; stroke-dasharray: 0.8,1.32; stroke-dashoffset: 0; stroke: #b0b0b0; stroke-opacity: 0.35; stroke-width: 0.8"/>
     </g>
     <g id="line2d_34">
      <g>
       <use xlink:href="#m3ea4da06ad" x="509.897451" y="61.92698" style="stroke: #000000; stroke-width: 0.8"/>
      </g>
     </g>
     <g id="text_29">
      <!-- 5000 -->
      <g transform="translate(477.447451 65.726199) scale(0.1 -0.1)">
       <use xlink:href="#DejaVuSerif-35"/>
       <use xlink:href="#DejaVuSerif-30" transform="translate(63.623047 0)"/>
       <use xlink:href="#DejaVuSerif-30" transform="translate(127.246094 0)"/>
       <use xlink:href="#DejaVuSerif-30" transform="translate(190.869141 0)"/>
      </g>
     </g>
    </g>
    <g id="text_30">
     <!-- DeonticAtoms (count) -->
     <g transform="translate(471.367764 214.249547) rotate(-90) scale(0.1 -0.1)">
      <use xlink:href="#DejaVuSerif-44"/>
      <use xlink:href="#DejaVuSerif-65" transform="translate(80.175781 0)"/>
      <use xlink:href="#DejaVuSerif-6f" transform="translate(139.355469 0)"/>
      <use xlink:href="#DejaVuSerif-6e" transform="translate(199.560547 0)"/>
      <use xlink:href="#DejaVuSerif-74" transform="translate(263.964844 0)"/>
      <use xlink:href="#DejaVuSerif-69" transform="translate(304.150391 0)"/>
      <use xlink:href="#DejaVuSerif-63" transform="translate(336.132812 0)"/>
      <use xlink:href="#DejaVuSerif-41" transform="translate(392.138672 0)"/>
      <use xlink:href="#DejaVuSerif-74" transform="translate(462.605469 0)"/>
      <use xlink:href="#DejaVuSerif-6f" transform="translate(502.791016 0)"/>
      <use xlink:href="#DejaVuSerif-6d" transform="translate(562.996094 0)"/>
      <use xlink:href="#DejaVuSerif-73" transform="translate(657.820312 0)"/>
      <use xlink:href="#DejaVuSerif-20" transform="translate(709.138672 0)"/>
      <use xlink:href="#DejaVuSerif-28" transform="translate(740.925781 0)"/>
      <use xlink:href="#DejaVuSerif-63" transform="translate(779.939453 0)"/>
      <use xlink:href="#DejaVuSerif-6f" transform="translate(835.945312 0)"/>
      <use xlink:href="#DejaVuSerif-75" transform="translate(896.150391 0)"/>
      <use xlink:href="#DejaVuSerif-6e" transform="translate(960.554688 0)"/>
      <use xlink:href="#DejaVuSerif-74" transform="translate(1024.958984 0)"/>
      <use xlink:href="#DejaVuSerif-29" transform="translate(1065.144531 0)"/>
     </g>
    </g>
   </g>
   <g id="patch_15">
    <path d="M 528.599414 292.905109 
L 566.401253 292.905109 
L 566.401253 93.109027 
L 528.599414 93.109027 
z
" clip-path="url(#p4ee9bf7900)" style="fill: #3a3a3a; stroke: #000000; stroke-width: 0.8; stroke-linejoin: miter"/>
   </g>
   <g id="patch_16">
    <path d="M 628.077937 292.905109 
L 665.879776 292.905109 
L 665.879776 270.638818 
L 628.077937 270.638818 
z
" clip-path="url(#p4ee9bf7900)" style="fill: #3a3a3a; stroke: #000000; stroke-width: 0.8; stroke-linejoin: miter"/>
   </g>
   <g id="patch_17">
    <path d="M 727.556461 292.905109 
L 765.3583 292.905109 
L 765.3583 281.587181 
L 727.556461 281.587181 
z
" clip-path="url(#p4ee9bf7900)" style="fill: #3a3a3a; stroke: #000000; stroke-width: 0.8; stroke-linejoin: miter"/>
   </g>
   <g id="patch_18">
    <path d="M 827.034985 292.905109 
L 864.836824 292.905109 
L 864.836824 289.024677 
L 827.034985 289.024677 
z
" clip-path="url(#p4ee9bf7900)" style="fill: #3a3a3a; stroke: #000000; stroke-width: 0.8; stroke-linejoin: miter"/>
   </g>
   <g id="patch_19">
    <path d="M 566.401253 292.905109 
L 604.203092 292.905109 
L 604.203092 129.557376 
L 566.401253 129.557376 
z
" clip-path="url(#p4ee9bf7900)" style="fill: #9a9a9a; stroke: #000000; stroke-width: 0.8; stroke-linejoin: miter"/>
   </g>
   <g id="patch_20">
    <path d="M 665.879776 292.905109 
L 703.681615 292.905109 
L 703.681615 271.608926 
L 665.879776 271.608926 
z
" clip-path="url(#p4ee9bf7900)" style="fill: #9a9a9a; stroke: #000000; stroke-width: 0.8; stroke-linejoin: miter"/>
   </g>
   <g id="patch_21">
    <path d="M 765.3583 292.905109 
L 803.160139 292.905109 
L 803.160139 255.30187 
L 765.3583 255.30187 
z
" clip-path="url(#p4ee9bf7900)" style="fill: #9a9a9a; stroke: #000000; stroke-width: 0.8; stroke-linejoin: miter"/>
   </g>
   <g id="patch_22">
    <path d="M 864.836824 292.905109 
L 902.638663 292.905109 
L 902.638663 283.896962 
L 864.836824 283.896962 
z
" clip-path="url(#p4ee9bf7900)" style="fill: #9a9a9a; stroke: #000000; stroke-width: 0.8; stroke-linejoin: miter"/>
   </g>
   <g id="patch_23">
    <path d="M 509.897451 292.905109 
L 509.897451 25.178359 
" style="fill: none; stroke: #000000; stroke-width: 0.8; stroke-linejoin: miter; stroke-linecap: square"/>
   </g>
   <g id="patch_24">
    <path d="M 921.340625 292.905109 
L 921.340625 25.178359 
" style="fill: none; stroke: #000000; stroke-width: 0.8; stroke-linejoin: miter; stroke-linecap: square"/>
   </g>
   <g id="patch_25">
    <path d="M 509.897451 292.905109 
L 921.340625 292.905109 
" style="fill: none; stroke: #000000; stroke-width: 0.8; stroke-linejoin: miter; stroke-linecap: square"/>
   </g>
   <g id="patch_26">
    <path d="M 509.897451 25.178359 
L 921.340625 25.178359 
" style="fill: none; stroke: #000000; stroke-width: 0.8; stroke-linejoin: miter; stroke-linecap: square"/>
   </g>
   <g id="text_31">
    <!-- 4,325 -->
    <g transform="translate(535.33338 79.795012) scale(0.085 -0.085)">
     <use xlink:href="#DejaVuSerif-34"/>
     <use xlink:href="#DejaVuSerif-2c" transform="translate(63.623047 0)"/>
     <use xlink:href="#DejaVuSerif-33" transform="translate(95.410156 0)"/>
     <use xlink:href="#DejaVuSerif-32" transform="translate(159.033203 0)"/>
     <use xlink:href="#DejaVuSerif-35" transform="translate(222.65625 0)"/>
    </g>
    <!-- (84.2%) -->
    <g transform="translate(530.68295 88.344352) scale(0.085 -0.085)">
     <defs>
      <path id="DejaVuSerif-2e" d="M 603 325 
Q 603 500 722 622 
Q 841 744 1019 744 
Q 1191 744 1312 622 
Q 1434 500 1434 325 
Q 1434 153 1312 31 
Q 1191 -91 1019 -91 
Q 841 -91 722 29 
Q 603 150 603 325 
z
" transform="scale(0.015625)"/>
      <path id="DejaVuSerif-25" d="M 1434 4459 
Q 1159 4459 1004 4200 
Q 850 3941 850 3475 
Q 850 3016 1008 2753 
Q 1166 2491 1434 2491 
Q 1700 2491 1854 2752 
Q 2009 3013 2009 3475 
Q 2009 3938 1854 4198 
Q 1700 4459 1434 4459 
z
M 4653 2169 
Q 4381 2169 4226 1906 
Q 4072 1644 4072 1178 
Q 4072 719 4228 458 
Q 4384 197 4653 197 
Q 4922 197 5075 458 
Q 5228 719 5228 1178 
Q 5228 1641 5073 1905 
Q 4919 2169 4653 2169 
z
M 4653 2450 
Q 5147 2450 5437 2106 
Q 5728 1763 5728 1178 
Q 5728 594 5436 251 
Q 5144 -91 4653 -91 
Q 4153 -91 3862 251 
Q 3572 594 3572 1178 
Q 3572 1766 3864 2108 
Q 4156 2450 4653 2450 
z
M 4263 4750 
L 4738 4750 
L 1819 -91 
L 1344 -91 
L 4263 4750 
z
M 1428 4750 
Q 1922 4750 2215 4408 
Q 2509 4066 2509 3481 
Q 2509 2891 2217 2550 
Q 1925 2209 1428 2209 
Q 931 2209 642 2551 
Q 353 2894 353 3481 
Q 353 4063 643 4406 
Q 934 4750 1428 4750 
z
" transform="scale(0.015625)"/>
     </defs>
     <use xlink:href="#DejaVuSerif-28"/>
     <use xlink:href="#DejaVuSerif-38" transform="translate(39.013672 0)"/>
     <use xlink:href="#DejaVuSerif-34" transform="translate(102.636719 0)"/>
     <use xlink:href="#DejaVuSerif-2e" transform="translate(166.259766 0)"/>
     <use xlink:href="#DejaVuSerif-32" transform="translate(198.046875 0)"/>
     <use xlink:href="#DejaVuSerif-25" transform="translate(261.669922 0)"/>
     <use xlink:href="#DejaVuSerif-29" transform="translate(356.689453 0)"/>
    </g>
   </g>
   <g id="text_32">
    <!-- 482 -->
    <g transform="translate(638.866669 257.324802) scale(0.085 -0.085)">
     <use xlink:href="#DejaVuSerif-34"/>
     <use xlink:href="#DejaVuSerif-38" transform="translate(63.623047 0)"/>
     <use xlink:href="#DejaVuSerif-32" transform="translate(127.246094 0)"/>
    </g>
    <!-- (9.4%) -->
    <g transform="translate(632.865537 265.874142) scale(0.085 -0.085)">
     <use xlink:href="#DejaVuSerif-28"/>
     <use xlink:href="#DejaVuSerif-39" transform="translate(39.013672 0)"/>
     <use xlink:href="#DejaVuSerif-2e" transform="translate(102.636719 0)"/>
     <use xlink:href="#DejaVuSerif-34" transform="translate(134.423828 0)"/>
     <use xlink:href="#DejaVuSerif-25" transform="translate(198.046875 0)"/>
     <use xlink:href="#DejaVuSerif-29" transform="translate(293.066406 0)"/>
    </g>
   </g>
   <g id="text_33">
    <!-- 245 -->
    <g transform="translate(738.345193 268.273166) scale(0.085 -0.085)">
     <use xlink:href="#DejaVuSerif-32"/>
     <use xlink:href="#DejaVuSerif-34" transform="translate(63.623047 0)"/>
     <use xlink:href="#DejaVuSerif-35" transform="translate(127.246094 0)"/>
    </g>
    <!-- (4.8%) -->
    <g transform="translate(732.34406 276.822505) scale(0.085 -0.085)">
     <use xlink:href="#DejaVuSerif-28"/>
     <use xlink:href="#DejaVuSerif-34" transform="translate(39.013672 0)"/>
     <use xlink:href="#DejaVuSerif-2e" transform="translate(102.636719 0)"/>
     <use xlink:href="#DejaVuSerif-38" transform="translate(134.423828 0)"/>
     <use xlink:href="#DejaVuSerif-25" transform="translate(198.046875 0)"/>
     <use xlink:href="#DejaVuSerif-29" transform="translate(293.066406 0)"/>
    </g>
   </g>
   <g id="text_34">
    <!-- 84 -->
    <g transform="translate(840.527779 275.710661) scale(0.085 -0.085)">
     <use xlink:href="#DejaVuSerif-38"/>
     <use xlink:href="#DejaVuSerif-34" transform="translate(63.623047 0)"/>
    </g>
    <!-- (1.6%) -->
    <g transform="translate(831.822584 284.260001) scale(0.085 -0.085)">
     <use xlink:href="#DejaVuSerif-28"/>
     <use xlink:href="#DejaVuSerif-31" transform="translate(39.013672 0)"/>
     <use xlink:href="#DejaVuSerif-2e" transform="translate(102.636719 0)"/>
     <use xlink:href="#DejaVuSerif-36" transform="translate(134.423828 0)"/>
     <use xlink:href="#DejaVuSerif-25" transform="translate(198.046875 0)"/>
     <use xlink:href="#DejaVuSerif-29" transform="translate(293.066406 0)"/>
    </g>
   </g>
   <g id="text_35">
    <!-- 3,536 -->
    <g transform="translate(573.135219 116.243361) scale(0.085 -0.085)">
     <use xlink:href="#DejaVuSerif-33"/>
     <use xlink:href="#DejaVuSerif-2c" transform="translate(63.623047 0)"/>
     <use xlink:href="#DejaVuSerif-35" transform="translate(95.410156 0)"/>
     <use xlink:href="#DejaVuSerif-33" transform="translate(159.033203 0)"/>
     <use xlink:href="#DejaVuSerif-36" transform="translate(222.65625 0)"/>
    </g>
    <!-- (70.6%) -->
    <g transform="translate(568.484789 124.792701) scale(0.085 -0.085)">
     <defs>
      <path id="DejaVuSerif-37" d="M 3609 4347 
L 1784 0 
L 1319 0 
L 3059 4153 
L 903 4153 
L 903 3578 
L 538 3578 
L 538 4666 
L 3609 4666 
L 3609 4347 
z
" transform="scale(0.015625)"/>
     </defs>
     <use xlink:href="#DejaVuSerif-28"/>
     <use xlink:href="#DejaVuSerif-37" transform="translate(39.013672 0)"/>
     <use xlink:href="#DejaVuSerif-30" transform="translate(102.636719 0)"/>
     <use xlink:href="#DejaVuSerif-2e" transform="translate(166.259766 0)"/>
     <use xlink:href="#DejaVuSerif-36" transform="translate(198.046875 0)"/>
     <use xlink:href="#DejaVuSerif-25" transform="translate(261.669922 0)"/>
     <use xlink:href="#DejaVuSerif-29" transform="translate(356.689453 0)"/>
    </g>
   </g>
   <g id="text_36">
    <!-- 461 -->
    <g transform="translate(676.668508 258.29491) scale(0.085 -0.085)">
     <use xlink:href="#DejaVuSerif-34"/>
     <use xlink:href="#DejaVuSerif-36" transform="translate(63.623047 0)"/>
     <use xlink:href="#DejaVuSerif-31" transform="translate(127.246094 0)"/>
    </g>
    <!-- (9.2%) -->
    <g transform="translate(670.667376 266.84425) scale(0.085 -0.085)">
     <use xlink:href="#DejaVuSerif-28"/>
     <use xlink:href="#DejaVuSerif-39" transform="translate(39.013672 0)"/>
     <use xlink:href="#DejaVuSerif-2e" transform="translate(102.636719 0)"/>
     <use xlink:href="#DejaVuSerif-32" transform="translate(134.423828 0)"/>
     <use xlink:href="#DejaVuSerif-25" transform="translate(198.046875 0)"/>
     <use xlink:href="#DejaVuSerif-29" transform="translate(293.066406 0)"/>
    </g>
   </g>
   <g id="text_37">
    <!-- 814 -->
    <g transform="translate(776.147032 241.987854) scale(0.085 -0.085)">
     <use xlink:href="#DejaVuSerif-38"/>
     <use xlink:href="#DejaVuSerif-31" transform="translate(63.623047 0)"/>
     <use xlink:href="#DejaVuSerif-34" transform="translate(127.246094 0)"/>
    </g>
    <!-- (16.3%) -->
    <g transform="translate(767.441837 250.537194) scale(0.085 -0.085)">
     <use xlink:href="#DejaVuSerif-28"/>
     <use xlink:href="#DejaVuSerif-31" transform="translate(39.013672 0)"/>
     <use xlink:href="#DejaVuSerif-36" transform="translate(102.636719 0)"/>
     <use xlink:href="#DejaVuSerif-2e" transform="translate(166.259766 0)"/>
     <use xlink:href="#DejaVuSerif-33" transform="translate(198.046875 0)"/>
     <use xlink:href="#DejaVuSerif-25" transform="translate(261.669922 0)"/>
     <use xlink:href="#DejaVuSerif-29" transform="translate(356.689453 0)"/>
    </g>
   </g>
   <g id="text_38">
    <!-- 195 -->
    <g transform="translate(875.625556 270.582947) scale(0.085 -0.085)">
     <use xlink:href="#DejaVuSerif-31"/>
     <use xlink:href="#DejaVuSerif-39" transform="translate(63.623047 0)"/>
     <use xlink:href="#DejaVuSerif-35" transform="translate(127.246094 0)"/>
    </g>
    <!-- (3.9%) -->
    <g transform="translate(869.624423 279.132287) scale(0.085 -0.085)">
     <use xlink:href="#DejaVuSerif-28"/>
     <use xlink:href="#DejaVuSerif-33" transform="translate(39.013672 0)"/>
     <use xlink:href="#DejaVuSerif-2e" transform="translate(102.636719 0)"/>
     <use xlink:href="#DejaVuSerif-39" transform="translate(134.423828 0)"/>
     <use xlink:href="#DejaVuSerif-25" transform="translate(198.046875 0)"/>
     <use xlink:href="#DejaVuSerif-29" transform="translate(293.066406 0)"/>
    </g>
   </g>
   <g id="text_39">
    <!-- (b) Modality distribution, by track -->
    <g transform="translate(625.054077 15.178359) scale(0.105 -0.105)">
     <defs>
      <path id="DejaVuSerif-4d" d="M 353 0 
L 353 331 
L 947 331 
L 947 4331 
L 319 4331 
L 319 4666 
L 1678 4666 
L 3316 1344 
L 4953 4666 
L 6228 4666 
L 6228 4331 
L 5606 4331 
L 5606 331 
L 6203 331 
L 6203 0 
L 4378 0 
L 4378 331 
L 4972 331 
L 4972 3938 
L 3372 684 
L 2931 684 
L 1331 3938 
L 1331 331 
L 1925 331 
L 1925 0 
L 353 0 
z
" transform="scale(0.015625)"/>
     </defs>
     <use xlink:href="#DejaVuSerif-28"/>
     <use xlink:href="#DejaVuSerif-62" transform="translate(39.013672 0)"/>
     <use xlink:href="#DejaVuSerif-29" transform="translate(103.027344 0)"/>
     <use xlink:href="#DejaVuSerif-20" transform="translate(142.041016 0)"/>
     <use xlink:href="#DejaVuSerif-4d" transform="translate(173.828125 0)"/>
     <use xlink:href="#DejaVuSerif-6f" transform="translate(276.220703 0)"/>
     <use xlink:href="#DejaVuSerif-64" transform="translate(336.425781 0)"/>
     <use xlink:href="#DejaVuSerif-61" transform="translate(400.439453 0)"/>
     <use xlink:href="#DejaVuSerif-6c" transform="translate(460.058594 0)"/>
     <use xlink:href="#DejaVuSerif-69" transform="translate(492.041016 0)"/>
     <use xlink:href="#DejaVuSerif-74" transform="translate(524.023438 0)"/>
     <use xlink:href="#DejaVuSerif-79" transform="translate(564.208984 0)"/>
     <use xlink:href="#DejaVuSerif-20" transform="translate(620.703125 0)"/>
     <use xlink:href="#DejaVuSerif-64" transform="translate(652.490234 0)"/>
     <use xlink:href="#DejaVuSerif-69" transform="translate(716.503906 0)"/>
     <use xlink:href="#DejaVuSerif-73" transform="translate(748.486328 0)"/>
     <use xlink:href="#DejaVuSerif-74" transform="translate(799.804688 0)"/>
     <use xlink:href="#DejaVuSerif-72" transform="translate(839.990234 0)"/>
     <use xlink:href="#DejaVuSerif-69" transform="translate(887.792969 0)"/>
     <use xlink:href="#DejaVuSerif-62" transform="translate(919.775391 0)"/>
     <use xlink:href="#DejaVuSerif-75" transform="translate(983.789062 0)"/>
     <use xlink:href="#DejaVuSerif-74" transform="translate(1048.193359 0)"/>
     <use xlink:href="#DejaVuSerif-69" transform="translate(1088.378906 0)"/>
     <use xlink:href="#DejaVuSerif-6f" transform="translate(1120.361328 0)"/>
     <use xlink:href="#DejaVuSerif-6e" transform="translate(1180.566406 0)"/>
     <use xlink:href="#DejaVuSerif-2c" transform="translate(1244.970703 0)"/>
     <use xlink:href="#DejaVuSerif-20" transform="translate(1276.757812 0)"/>
     <use xlink:href="#DejaVuSerif-62" transform="translate(1308.544922 0)"/>
     <use xlink:href="#DejaVuSerif-79" transform="translate(1372.558594 0)"/>
     <use xlink:href="#DejaVuSerif-20" transform="translate(1429.052734 0)"/>
     <use xlink:href="#DejaVuSerif-74" transform="translate(1460.839844 0)"/>
     <use xlink:href="#DejaVuSerif-72" transform="translate(1501.025391 0)"/>
     <use xlink:href="#DejaVuSerif-61" transform="translate(1548.828125 0)"/>
     <use xlink:href="#DejaVuSerif-63" transform="translate(1608.447266 0)"/>
     <use xlink:href="#DejaVuSerif-6b" transform="translate(1664.453125 0)"/>
    </g>
   </g>
   <g id="legend_2">
    <g id="patch_27">
     <path d="M 744.448438 58.926953 
L 915.040625 58.926953 
Q 916.840625 58.926953 916.840625 57.126953 
L 916.840625 31.478359 
Q 916.840625 29.678359 915.040625 29.678359 
L 744.448438 29.678359 
Q 742.648438 29.678359 742.648438 31.478359 
L 742.648438 57.126953 
Q 742.648438 58.926953 744.448438 58.926953 
z
" style="fill: #ffffff; opacity: 0.8; stroke: #666666; stroke-linejoin: miter"/>
    </g>
    <g id="patch_28">
     <path d="M 746.248438 40.116953 
L 764.248438 40.116953 
L 764.248438 33.816953 
L 746.248438 33.816953 
z
" style="fill: #3a3a3a; stroke: #000000; stroke-width: 0.8; stroke-linejoin: miter"/>
    </g>
    <g id="text_40">
     <!-- Health / governance (n=5,136) -->
     <g transform="translate(771.448438 40.116953) scale(0.09 -0.09)">
      <defs>
       <path id="DejaVuSerif-3d" d="M 678 2894 
L 4684 2894 
L 4684 2394 
L 678 2394 
L 678 2894 
z
M 678 1619 
L 4684 1619 
L 4684 1119 
L 678 1119 
L 678 1619 
z
" transform="scale(0.015625)"/>
      </defs>
      <use xlink:href="#DejaVuSerif-48"/>
      <use xlink:href="#DejaVuSerif-65" transform="translate(87.207031 0)"/>
      <use xlink:href="#DejaVuSerif-61" transform="translate(146.386719 0)"/>
      <use xlink:href="#DejaVuSerif-6c" transform="translate(206.005859 0)"/>
      <use xlink:href="#DejaVuSerif-74" transform="translate(237.988281 0)"/>
      <use xlink:href="#DejaVuSerif-68" transform="translate(278.173828 0)"/>
      <use xlink:href="#DejaVuSerif-20" transform="translate(342.578125 0)"/>
      <use xlink:href="#DejaVuSerif-2f" transform="translate(374.365234 0)"/>
      <use xlink:href="#DejaVuSerif-20" transform="translate(408.056641 0)"/>
      <use xlink:href="#DejaVuSerif-67" transform="translate(439.84375 0)"/>
      <use xlink:href="#DejaVuSerif-6f" transform="translate(503.857422 0)"/>
      <use xlink:href="#DejaVuSerif-76" transform="translate(564.0625 0)"/>
      <use xlink:href="#DejaVuSerif-65" transform="translate(620.556641 0)"/>
      <use xlink:href="#DejaVuSerif-72" transform="translate(679.736328 0)"/>
      <use xlink:href="#DejaVuSerif-6e" transform="translate(727.539062 0)"/>
      <use xlink:href="#DejaVuSerif-61" transform="translate(791.943359 0)"/>
      <use xlink:href="#DejaVuSerif-6e" transform="translate(851.5625 0)"/>
      <use xlink:href="#DejaVuSerif-63" transform="translate(915.966797 0)"/>
      <use xlink:href="#DejaVuSerif-65" transform="translate(971.972656 0)"/>
      <use xlink:href="#DejaVuSerif-20" transform="translate(1031.152344 0)"/>
      <use xlink:href="#DejaVuSerif-28" transform="translate(1062.939453 0)"/>
      <use xlink:href="#DejaVuSerif-6e" transform="translate(1101.953125 0)"/>
      <use xlink:href="#DejaVuSerif-3d" transform="translate(1166.357422 0)"/>
      <use xlink:href="#DejaVuSerif-35" transform="translate(1250.146484 0)"/>
      <use xlink:href="#DejaVuSerif-2c" transform="translate(1313.769531 0)"/>
      <use xlink:href="#DejaVuSerif-31" transform="translate(1345.556641 0)"/>
      <use xlink:href="#DejaVuSerif-33" transform="translate(1409.179688 0)"/>
      <use xlink:href="#DejaVuSerif-36" transform="translate(1472.802734 0)"/>
      <use xlink:href="#DejaVuSerif-29" transform="translate(1536.425781 0)"/>
     </g>
    </g>
    <g id="patch_29">
     <path d="M 746.248438 53.455234 
L 764.248438 53.455234 
L 764.248438 47.155234 
L 746.248438 47.155234 
z
" style="fill: #9a9a9a; stroke: #000000; stroke-width: 0.8; stroke-linejoin: miter"/>
    </g>
    <g id="text_41">
     <!-- Labour (n=5,006) -->
     <g transform="translate(771.448438 53.455234) scale(0.09 -0.09)">
      <use xlink:href="#DejaVuSerif-4c"/>
      <use xlink:href="#DejaVuSerif-61" transform="translate(66.40625 0)"/>
      <use xlink:href="#DejaVuSerif-62" transform="translate(126.025391 0)"/>
      <use xlink:href="#DejaVuSerif-6f" transform="translate(190.039062 0)"/>
      <use xlink:href="#DejaVuSerif-75" transform="translate(250.244141 0)"/>
      <use xlink:href="#DejaVuSerif-72" transform="translate(314.648438 0)"/>
      <use xlink:href="#DejaVuSerif-20" transform="translate(362.451172 0)"/>
      <use xlink:href="#DejaVuSerif-28" transform="translate(394.238281 0)"/>
      <use xlink:href="#DejaVuSerif-6e" transform="translate(433.251953 0)"/>
      <use xlink:href="#DejaVuSerif-3d" transform="translate(497.65625 0)"/>
      <use xlink:href="#DejaVuSerif-35" transform="translate(581.445312 0)"/>
      <use xlink:href="#DejaVuSerif-2c" transform="translate(645.068359 0)"/>
      <use xlink:href="#DejaVuSerif-30" transform="translate(676.855469 0)"/>
      <use xlink:href="#DejaVuSerif-30" transform="translate(740.478516 0)"/>
      <use xlink:href="#DejaVuSerif-36" transform="translate(804.101562 0)"/>
      <use xlink:href="#DejaVuSerif-29" transform="translate(867.724609 0)"/>
     </g>
    </g>
   </g>
  </g>
  <g id="text_42">
   <!-- Total: 10,142 DeonticAtoms extracted at E2 (source: outputs/e2_report*.md) -->
   <g style="fill: #555555" transform="translate(298.95043 345.233109) scale(0.085 -0.085)">
    <defs>
     <path id="DejaVuSerif-Italic-54" d="M 769 0 
L 831 331 
L 1428 331 
L 2200 4294 
L 828 4294 
L 688 3566 
L 303 3566 
L 516 4666 
L 4659 4666 
L 4447 3566 
L 4063 3566 
L 4203 4294 
L 2831 4294 
L 2059 331 
L 2656 331 
L 2594 0 
L 769 0 
z
" transform="scale(0.015625)"/>
     <path id="DejaVuSerif-Italic-6f" d="M 1644 219 
Q 2106 219 2414 584 
Q 2722 950 2859 1663 
Q 2922 1988 2922 2241 
Q 2922 2541 2834 2738 
Q 2669 3103 2206 3103 
Q 1744 3103 1436 2739 
Q 1128 2375 991 1663 
Q 928 1338 928 1088 
Q 928 784 1019 584 
Q 1184 219 1644 219 
z
M 1584 -91 
Q 859 -91 513 388 
Q 272 722 272 1203 
Q 272 1419 319 1663 
Q 472 2456 1005 2934 
Q 1538 3413 2266 3413 
Q 2994 3413 3341 2934 
Q 3578 2603 3578 2122 
Q 3578 1906 3531 1663 
Q 3378 869 2845 389 
Q 2313 -91 1584 -91 
z
" transform="scale(0.015625)"/>
     <path id="DejaVuSerif-Italic-74" d="M 856 2988 
L 350 2988 
L 416 3322 
L 922 3322 
L 1122 4353 
L 1700 4353 
L 1500 3322 
L 2581 3322 
L 2516 2988 
L 1434 2988 
L 1025 878 
Q 978 631 978 488 
Q 978 388 1000 338 
Q 1059 219 1278 219 
Q 1503 219 1633 351 
Q 1763 484 1825 781 
L 2259 781 
Q 2147 328 1884 118 
Q 1622 -91 1169 -91 
Q 672 -91 506 131 
Q 406 266 406 516 
Q 406 675 447 878 
L 856 2988 
z
" transform="scale(0.015625)"/>
     <path id="DejaVuSerif-Italic-61" d="M 2325 519 
Q 1909 -91 1238 -91 
Q 688 -91 409 281 
Q 216 544 216 919 
Q 216 1078 250 1256 
Q 463 2359 1231 2928 
Q 1884 3413 2675 3413 
Q 3206 3413 3388 3322 
L 2806 331 
L 3300 331 
L 3238 0 
L 2225 0 
L 2325 519 
z
M 822 938 
Q 822 269 1469 269 
Q 1863 269 2130 583 
Q 2397 897 2516 1497 
L 2806 3003 
L 2806 3003 
Q 2806 3094 2556 3094 
Q 1956 3094 1491 2625 
Q 1028 2153 863 1297 
Q 822 1097 822 938 
z
" transform="scale(0.015625)"/>
     <path id="DejaVuSerif-Italic-6c" d="M 903 331 
L 1447 331 
L 1384 0 
L 266 0 
L 1147 4531 
L 594 4531 
L 656 4863 
L 1784 4863 
L 903 331 
z
" transform="scale(0.015625)"/>
     <path id="DejaVuSerif-Italic-3a" d="M 529 29 
Q 434 150 468 325 
Q 503 500 647 622 
Q 791 744 966 744 
Q 1141 744 1237 622 
Q 1334 500 1300 325 
Q 1266 150 1123 29 
Q 981 -91 803 -91 
Q 625 -91 529 29 
z
M 926 2067 
Q 828 2188 862 2363 
Q 897 2538 1040 2658 
Q 1184 2778 1359 2778 
Q 1538 2778 1633 2659 
Q 1728 2541 1693 2362 
Q 1659 2184 1518 2065 
Q 1378 1947 1200 1947 
Q 1025 1947 926 2067 
z
" transform="scale(0.015625)"/>
     <path id="DejaVuSerif-Italic-20" transform="scale(0.015625)"/>
     <path id="DejaVuSerif-Italic-31" d="M 447 0 
L 513 331 
L 1325 331 
L 2078 4213 
L 1019 3603 
L 1100 4013 
L 2381 4750 
L 2813 4750 
L 1953 331 
L 2766 331 
L 2700 0 
L 447 0 
z
" transform="scale(0.015625)"/>
     <path id="DejaVuSerif-Italic-30" d="M 1011 744 
Q 1147 219 1625 219 
Q 2103 219 2442 744 
Q 2781 1269 2988 2328 
Q 3194 3391 3058 3916 
Q 2922 4441 2444 4441 
Q 1966 4441 1627 3916 
Q 1288 3391 1081 2328 
Q 875 1269 1011 744 
z
M 1563 -91 
Q 803 -91 501 546 
Q 200 1184 422 2328 
Q 644 3475 1195 4112 
Q 1747 4750 2506 4750 
Q 3269 4750 3569 4112 
Q 3869 3475 3647 2328 
Q 3425 1184 2875 546 
Q 2325 -91 1563 -91 
z
" transform="scale(0.015625)"/>
     <path id="DejaVuSerif-Italic-2c" d="M 125 -622 
Q 463 -406 656 -114 
Q 850 178 931 594 
L 953 709 
L 1569 709 
Q 1441 175 1139 -208 
Q 838 -591 328 -872 
L 125 -622 
z
" transform="scale(0.015625)"/>
     <path id="DejaVuSerif-Italic-34" d="M 2084 1581 
L 2566 4063 
L 491 1581 
L 2084 1581 
z
M 3150 0 
L 1025 0 
L 1091 331 
L 1841 331 
L 2019 1247 
L -19 1247 
L 47 1588 
L 2706 4750 
L 3325 4750 
L 2709 1581 
L 3600 1581 
L 3534 1247 
L 2644 1247 
L 2466 331 
L 3216 331 
L 3150 0 
z
" transform="scale(0.015625)"/>
     <path id="DejaVuSerif-Italic-32" d="M 1050 3553 
L 700 3553 
L 863 4384 
Q 1231 4563 1589 4656 
Q 1947 4750 2272 4750 
Q 3000 4750 3353 4397 
Q 3706 4044 3588 3438 
Q 3456 2753 2313 1800 
Q 2225 1728 2178 1691 
L 772 513 
L 2719 513 
L 2831 1088 
L 3197 1088 
L 2984 0 
L -25 0 
L 41 341 
L 1731 1753 
Q 2291 2222 2567 2614 
Q 2844 3006 2928 3438 
Q 3019 3909 2825 4175 
Q 2631 4441 2200 4441 
Q 1753 4441 1467 4219 
Q 1181 3997 1050 3553 
z
" transform="scale(0.015625)"/>
     <path id="DejaVuSerif-Italic-44" d="M 1194 331 
L 1775 331 
Q 2684 331 3271 850 
Q 3859 1369 4048 2337 
Q 4238 3306 3852 3818 
Q 3466 4331 2553 4331 
L 1972 4331 
L 1194 331 
z
M -97 0 
L -34 331 
L 559 331 
L 1338 4331 
L 744 4331 
L 809 4666 
L 2666 4666 
Q 3872 4666 4426 4050 
Q 4981 3434 4766 2338 
Q 4553 1238 3758 619 
Q 2963 0 1759 0 
L -97 0 
z
" transform="scale(0.015625)"/>
     <path id="DejaVuSerif-Italic-65" d="M 938 1275 
Q 925 1156 925 1050 
Q 925 756 1031 563 
Q 1216 219 1709 219 
Q 2072 219 2250 328 
Q 2569 525 2644 778 
L 3066 778 
Q 2941 381 2475 103 
Q 2150 -91 1506 -91 
Q 863 -91 516 388 
Q 272 722 272 1206 
Q 272 1419 319 1659 
Q 472 2450 1000 2931 
Q 1528 3413 2278 3413 
Q 3500 3413 3500 2547 
Q 3500 1913 2859 1603 
Q 2206 1288 938 1275 
z
M 2541 1975 
Q 2891 2181 2891 2569 
Q 2891 3103 2181 3103 
Q 1763 3103 1472 2784 
Q 1181 2466 1003 1606 
Q 2006 1653 2541 1975 
z
" transform="scale(0.015625)"/>
     <path id="DejaVuSerif-Italic-6e" d="M 450 0 
L 1031 2988 
L 481 2988 
L 544 3322 
L 1669 3322 
L 1556 2731 
Q 1781 3069 2068 3241 
Q 2356 3413 2694 3413 
Q 3244 3413 3444 3097 
Q 3563 2906 3563 2588 
Q 3563 2378 3509 2113 
L 3163 331 
L 3675 331 
L 3613 0 
L 2522 0 
L 2897 1931 
Q 2959 2253 2959 2469 
Q 2959 2659 2909 2769 
Q 2803 2994 2425 2994 
Q 2025 2994 1759 2701 
Q 1494 2409 1384 1850 
L 1025 0 
L 450 0 
z
" transform="scale(0.015625)"/>
     <path id="DejaVuSerif-Italic-69" d="M 1009 4353 
Q 1038 4497 1163 4603 
Q 1288 4709 1434 4709 
Q 1578 4709 1663 4603 
Q 1728 4522 1728 4422 
Q 1728 4388 1719 4353 
Q 1691 4206 1567 4103 
Q 1444 4000 1297 4000 
Q 1150 4000 1066 4103 
Q 1003 4181 1003 4281 
Q 1003 4316 1009 4353 
z
M 963 331 
L 1506 331 
L 1444 0 
L 325 0 
L 903 2988 
L 353 2988 
L 419 3322 
L 1544 3322 
L 963 331 
z
" transform="scale(0.015625)"/>
     <path id="DejaVuSerif-Italic-63" d="M 3163 997 
Q 2938 466 2536 187 
Q 2134 -91 1584 -91 
Q 859 -91 513 388 
Q 272 722 272 1203 
Q 272 1419 319 1663 
Q 475 2459 1008 2936 
Q 1541 3413 2266 3413 
Q 2581 3413 2879 3339 
Q 3178 3266 3463 3116 
L 3300 2266 
L 2966 2266 
Q 2966 2309 2966 2347 
Q 2966 2722 2803 2903 
Q 2622 3103 2213 3103 
Q 1747 3103 1439 2742 
Q 1131 2381 991 1663 
Q 928 1334 928 1078 
Q 928 778 1016 581 
Q 1181 219 1650 219 
Q 2022 219 2281 412 
Q 2541 606 2700 997 
L 3163 997 
z
" transform="scale(0.015625)"/>
     <path id="DejaVuSerif-Italic-41" d="M 1159 1691 
L 2872 1691 
L 2447 3909 
L 1159 1691 
z
M -488 0 
L -425 331 
L -16 331 
L 2491 4666 
L 3016 4666 
L 3841 331 
L 4297 331 
L 4234 0 
L 2538 0 
L 2600 331 
L 3119 331 
L 2928 1356 
L 966 1356 
L 375 331 
L 888 331 
L 825 0 
L -488 0 
z
" transform="scale(0.015625)"/>
     <path id="DejaVuSerif-Italic-6d" d="M 3503 2675 
Q 3741 3041 4034 3227 
Q 4328 3413 4672 3413 
Q 5194 3413 5388 3088 
Q 5503 2894 5503 2578 
Q 5503 2372 5453 2113 
L 5106 331 
L 5625 331 
L 5563 0 
L 4469 0 
L 4866 2047 
Q 4913 2291 4913 2466 
Q 4913 2659 4856 2772 
Q 4750 2988 4403 2988 
Q 4019 2988 3761 2697 
Q 3503 2406 3394 1850 
L 3034 0 
L 2459 0 
L 2863 2069 
Q 2906 2303 2906 2472 
Q 2906 2666 2850 2775 
Q 2741 2988 2394 2988 
Q 2009 2988 1751 2697 
Q 1494 2406 1384 1850 
L 1025 0 
L 450 0 
L 1031 2994 
L 481 2994 
L 544 3322 
L 1669 3322 
L 1556 2731 
Q 1778 3063 2059 3238 
Q 2341 3413 2653 3413 
Q 3041 3413 3262 3220 
Q 3484 3028 3503 2675 
z
" transform="scale(0.015625)"/>
     <path id="DejaVuSerif-Italic-73" d="M 222 959 
L 553 959 
Q 541 869 541 788 
Q 541 219 1313 219 
Q 2088 219 2200 788 
Q 2209 844 2209 944 
Q 2209 1041 2103 1158 
Q 1997 1275 1550 1428 
L 1159 1569 
Q 759 1706 629 1882 
Q 500 2059 500 2263 
Q 500 2344 516 2438 
Q 606 2894 990 3153 
Q 1375 3413 1931 3413 
Q 2484 3413 3066 3144 
L 2925 2419 
L 2594 2419 
Q 2606 2491 2606 2553 
Q 2606 2781 2448 2942 
Q 2291 3103 1925 3103 
Q 1191 3103 1091 2591 
Q 1078 2538 1078 2444 
Q 1078 2347 1179 2237 
Q 1281 2128 1678 1997 
L 2106 1856 
Q 2550 1709 2716 1488 
Q 2831 1331 2831 1178 
Q 2831 522 2306 181 
Q 1894 -91 1262 -91 
Q 631 -91 72 184 
L 222 959 
z
" transform="scale(0.015625)"/>
     <path id="DejaVuSerif-Italic-78" d="M 409 0 
L 19 0 
L 1484 1594 
L 747 2988 
L 338 2988 
L 400 3322 
L 1244 3322 
L 1934 2028 
L 3125 3322 
L 3516 3322 
L 2078 1759 
L 2838 331 
L 3272 331 
L 3209 0 
L 2338 0 
L 1631 1325 
L 409 0 
z
" transform="scale(0.015625)"/>
     <path id="DejaVuSerif-Italic-72" d="M 3375 3328 
L 3213 2497 
L 2881 2497 
Q 2891 2559 2891 2613 
Q 2891 2775 2816 2866 
Q 2719 2988 2484 2988 
Q 2059 2988 1775 2694 
Q 1491 2400 1384 1850 
L 1025 0 
L 450 0 
L 1031 2994 
L 481 2994 
L 544 3322 
L 1669 3322 
L 1556 2731 
Q 1791 3078 2089 3245 
Q 2388 3413 2769 3413 
Q 2909 3413 3059 3391 
Q 3209 3369 3375 3328 
z
" transform="scale(0.015625)"/>
     <path id="DejaVuSerif-Italic-64" d="M 3841 4863 
L 2897 0 
L 2322 0 
L 2422 519 
Q 2191 206 1902 57 
Q 1613 -91 1228 -91 
Q 616 -91 322 394 
Q 125 716 125 1166 
Q 125 1397 178 1663 
Q 331 2444 812 2928 
Q 1294 3413 1909 3413 
Q 2294 3413 2525 3264 
Q 2756 3116 2866 2803 
L 3200 4531 
L 2656 4531 
L 2722 4863 
L 3841 4863 
z
M 2613 1497 
L 2675 1825 
Q 2722 2069 2722 2266 
Q 2722 2550 2622 2738 
Q 2456 3053 2019 3053 
Q 1575 3053 1279 2703 
Q 984 2353 850 1663 
Q 788 1347 788 1103 
Q 788 813 875 622 
Q 1031 269 1475 269 
Q 1913 269 2203 583 
Q 2494 897 2613 1497 
z
" transform="scale(0.015625)"/>
     <path id="DejaVuSerif-Italic-45" d="M -97 0 
L -34 331 
L 559 331 
L 1338 4331 
L 744 4331 
L 809 4666 
L 4566 4666 
L 4366 3628 
L 3981 3628 
L 4106 4281 
L 1963 4281 
L 1659 2719 
L 3188 2719 
L 3300 3303 
L 3684 3303 
L 3384 1753 
L 3000 1753 
L 3113 2338 
L 1584 2338 
L 1206 384 
L 3400 384 
L 3525 1038 
L 3909 1038 
L 3709 0 
L -97 0 
z
" transform="scale(0.015625)"/>
     <path id="DejaVuSerif-Italic-28" d="M 1472 -997 
Q 778 -656 534 83 
Q 291 822 506 1931 
Q 722 3044 1253 3783 
Q 1784 4522 2609 4863 
L 2550 4556 
Q 2006 4225 1679 3623 
Q 1353 3022 1141 1931 
Q 928 844 1020 242 
Q 1113 -359 1531 -691 
L 1472 -997 
z
" transform="scale(0.015625)"/>
     <path id="DejaVuSerif-Italic-75" d="M 3097 3322 
L 3672 3322 
L 3091 331 
L 3634 331 
L 3572 0 
L 2453 0 
L 2566 588 
Q 2341 256 2055 82 
Q 1769 -91 1434 -91 
Q 881 -91 681 225 
Q 559 413 559 734 
Q 559 944 613 1209 
L 956 2988 
L 438 2988 
L 503 3322 
L 1600 3322 
L 1225 1388 
Q 1163 1066 1163 853 
Q 1163 663 1213 556 
Q 1316 331 1697 331 
Q 2097 331 2364 625 
Q 2631 919 2738 1478 
L 3097 3322 
z
" transform="scale(0.015625)"/>
     <path id="DejaVuSerif-Italic-70" d="M 1466 1825 
L 1400 1497 
Q 1353 1250 1353 1053 
Q 1353 769 1453 581 
Q 1622 269 2059 269 
Q 2500 269 2795 622 
Q 3091 975 3225 1663 
Q 3284 1978 3284 2225 
Q 3284 2513 3200 2703 
Q 3041 3053 2600 3053 
Q 2163 3053 1872 2737 
Q 1581 2422 1466 1825 
z
M 1116 2988 
L 563 2988 
L 628 3322 
L 1756 3322 
L 1656 2803 
Q 1884 3116 2175 3264 
Q 2466 3413 2850 3413 
Q 3463 3413 3753 2928 
Q 3947 2609 3947 2163 
Q 3947 1928 3897 1663 
Q 3744 881 3262 395 
Q 2781 -91 2169 -91 
Q 1784 -91 1551 57 
Q 1319 206 1213 519 
L 850 -1331 
L 275 -1331 
L 1116 2988 
z
" transform="scale(0.015625)"/>
     <path id="DejaVuSerif-Italic-2f" d="M 2172 4666 
L 2672 4666 
L -9 -594 
L -509 -594 
L 2172 4666 
z
" transform="scale(0.015625)"/>
     <path id="DejaVuSerif-Italic-5f" d="M 3200 -1259 
L 3200 -1509 
L 0 -1509 
L 0 -1259 
L 3200 -1259 
z
" transform="scale(0.015625)"/>
     <path id="DejaVuSerif-Italic-2a" d="M 3097 3866 
L 1875 3297 
L 3097 2719 
L 2859 2350 
L 1772 3028 
L 1813 1838 
L 1388 1838 
L 1428 3028 
L 341 2350 
L 103 2719 
L 1325 3291 
L 103 3866 
L 341 4238 
L 1428 3559 
L 1388 4750 
L 1813 4750 
L 1772 3559 
L 2859 4238 
L 3097 3866 
z
" transform="scale(0.015625)"/>
     <path id="DejaVuSerif-Italic-2e" d="M 664 29 
Q 569 150 603 325 
Q 638 500 780 622 
Q 922 744 1100 744 
Q 1272 744 1370 622 
Q 1469 500 1434 325 
Q 1400 153 1254 31 
Q 1109 -91 938 -91 
Q 759 -91 664 29 
z
" transform="scale(0.015625)"/>
     <path id="DejaVuSerif-Italic-29" d="M -113 -997 
L -53 -691 
Q 491 -359 819 242 
Q 1147 844 1359 1931 
Q 1572 3022 1478 3623 
Q 1384 4225 966 4556 
L 1025 4863 
Q 1722 4522 1965 3783 
Q 2209 3044 1994 1931 
Q 1778 822 1247 83 
Q 716 -656 -113 -997 
z
" transform="scale(0.015625)"/>
    </defs>
    <use xlink:href="#DejaVuSerif-Italic-54"/>
    <use xlink:href="#DejaVuSerif-Italic-6f" transform="translate(58.949219 0)"/>
    <use xlink:href="#DejaVuSerif-Italic-74" transform="translate(119.154297 0)"/>
    <use xlink:href="#DejaVuSerif-Italic-61" transform="translate(159.339844 0)"/>
    <use xlink:href="#DejaVuSerif-Italic-6c" transform="translate(218.958984 0)"/>
    <use xlink:href="#DejaVuSerif-Italic-3a" transform="translate(250.941406 0)"/>
    <use xlink:href="#DejaVuSerif-Italic-20" transform="translate(284.632812 0)"/>
    <use xlink:href="#DejaVuSerif-Italic-31" transform="translate(316.419922 0)"/>
    <use xlink:href="#DejaVuSerif-Italic-30" transform="translate(380.042969 0)"/>
    <use xlink:href="#DejaVuSerif-Italic-2c" transform="translate(443.666016 0)"/>
    <use xlink:href="#DejaVuSerif-Italic-31" transform="translate(475.453125 0)"/>
    <use xlink:href="#DejaVuSerif-Italic-34" transform="translate(539.076172 0)"/>
    <use xlink:href="#DejaVuSerif-Italic-32" transform="translate(602.699219 0)"/>
    <use xlink:href="#DejaVuSerif-Italic-20" transform="translate(666.322266 0)"/>
    <use xlink:href="#DejaVuSerif-Italic-44" transform="translate(698.109375 0)"/>
    <use xlink:href="#DejaVuSerif-Italic-65" transform="translate(778.285156 0)"/>
    <use xlink:href="#DejaVuSerif-Italic-6f" transform="translate(837.464844 0)"/>
    <use xlink:href="#DejaVuSerif-Italic-6e" transform="translate(897.669922 0)"/>
    <use xlink:href="#DejaVuSerif-Italic-74" transform="translate(962.074219 0)"/>
    <use xlink:href="#DejaVuSerif-Italic-69" transform="translate(1002.259766 0)"/>
    <use xlink:href="#DejaVuSerif-Italic-63" transform="translate(1034.242188 0)"/>
    <use xlink:href="#DejaVuSerif-Italic-41" transform="translate(1090.248047 0)"/>
    <use xlink:href="#DejaVuSerif-Italic-74" transform="translate(1160.714844 0)"/>
    <use xlink:href="#DejaVuSerif-Italic-6f" transform="translate(1200.900391 0)"/>
    <use xlink:href="#DejaVuSerif-Italic-6d" transform="translate(1261.105469 0)"/>
    <use xlink:href="#DejaVuSerif-Italic-73" transform="translate(1355.929688 0)"/>
    <use xlink:href="#DejaVuSerif-Italic-20" transform="translate(1407.248047 0)"/>
    <use xlink:href="#DejaVuSerif-Italic-65" transform="translate(1439.035156 0)"/>
    <use xlink:href="#DejaVuSerif-Italic-78" transform="translate(1498.214844 0)"/>
    <use xlink:href="#DejaVuSerif-Italic-74" transform="translate(1554.611328 0)"/>
    <use xlink:href="#DejaVuSerif-Italic-72" transform="translate(1594.796875 0)"/>
    <use xlink:href="#DejaVuSerif-Italic-61" transform="translate(1642.599609 0)"/>
    <use xlink:href="#DejaVuSerif-Italic-63" transform="translate(1702.21875 0)"/>
    <use xlink:href="#DejaVuSerif-Italic-74" transform="translate(1758.224609 0)"/>
    <use xlink:href="#DejaVuSerif-Italic-65" transform="translate(1798.410156 0)"/>
    <use xlink:href="#DejaVuSerif-Italic-64" transform="translate(1857.589844 0)"/>
    <use xlink:href="#DejaVuSerif-Italic-20" transform="translate(1921.603516 0)"/>
    <use xlink:href="#DejaVuSerif-Italic-61" transform="translate(1953.390625 0)"/>
    <use xlink:href="#DejaVuSerif-Italic-74" transform="translate(2013.009766 0)"/>
    <use xlink:href="#DejaVuSerif-Italic-20" transform="translate(2053.195312 0)"/>
    <use xlink:href="#DejaVuSerif-Italic-45" transform="translate(2084.982422 0)"/>
    <use xlink:href="#DejaVuSerif-Italic-32" transform="translate(2157.980469 0)"/>
    <use xlink:href="#DejaVuSerif-Italic-20" transform="translate(2221.603516 0)"/>
    <use xlink:href="#DejaVuSerif-Italic-28" transform="translate(2253.390625 0)"/>
    <use xlink:href="#DejaVuSerif-Italic-73" transform="translate(2292.404297 0)"/>
    <use xlink:href="#DejaVuSerif-Italic-6f" transform="translate(2343.722656 0)"/>
    <use xlink:href="#DejaVuSerif-Italic-75" transform="translate(2403.927734 0)"/>
    <use xlink:href="#DejaVuSerif-Italic-72" transform="translate(2468.332031 0)"/>
    <use xlink:href="#DejaVuSerif-Italic-63" transform="translate(2516.134766 0)"/>
    <use xlink:href="#DejaVuSerif-Italic-65" transform="translate(2572.140625 0)"/>
    <use xlink:href="#DejaVuSerif-Italic-3a" transform="translate(2631.320312 0)"/>
    <use xlink:href="#DejaVuSerif-Italic-20" transform="translate(2665.011719 0)"/>
    <use xlink:href="#DejaVuSerif-Italic-6f" transform="translate(2696.798828 0)"/>
    <use xlink:href="#DejaVuSerif-Italic-75" transform="translate(2757.003906 0)"/>
    <use xlink:href="#DejaVuSerif-Italic-74" transform="translate(2821.408203 0)"/>
    <use xlink:href="#DejaVuSerif-Italic-70" transform="translate(2861.59375 0)"/>
    <use xlink:href="#DejaVuSerif-Italic-75" transform="translate(2925.607422 0)"/>
    <use xlink:href="#DejaVuSerif-Italic-74" transform="translate(2990.011719 0)"/>
    <use xlink:href="#DejaVuSerif-Italic-73" transform="translate(3030.197266 0)"/>
    <use xlink:href="#DejaVuSerif-Italic-2f" transform="translate(3081.515625 0)"/>
    <use xlink:href="#DejaVuSerif-Italic-65" transform="translate(3115.207031 0)"/>
    <use xlink:href="#DejaVuSerif-Italic-32" transform="translate(3174.386719 0)"/>
    <use xlink:href="#DejaVuSerif-Italic-5f" transform="translate(3238.009766 0)"/>
    <use xlink:href="#DejaVuSerif-Italic-72" transform="translate(3288.009766 0)"/>
    <use xlink:href="#DejaVuSerif-Italic-65" transform="translate(3335.8125 0)"/>
    <use xlink:href="#DejaVuSerif-Italic-70" transform="translate(3394.992188 0)"/>
    <use xlink:href="#DejaVuSerif-Italic-6f" transform="translate(3459.005859 0)"/>
    <use xlink:href="#DejaVuSerif-Italic-72" transform="translate(3519.210938 0)"/>
    <use xlink:href="#DejaVuSerif-Italic-74" transform="translate(3567.013672 0)"/>
    <use xlink:href="#DejaVuSerif-Italic-2a" transform="translate(3607.199219 0)"/>
    <use xlink:href="#DejaVuSerif-Italic-2e" transform="translate(3657.199219 0)"/>
    <use xlink:href="#DejaVuSerif-Italic-6d" transform="translate(3688.986328 0)"/>
    <use xlink:href="#DejaVuSerif-Italic-64" transform="translate(3783.810547 0)"/>
    <use xlink:href="#DejaVuSerif-Italic-29" transform="translate(3847.824219 0)"/>
   </g>
  </g>
 </g>
 <defs>
  <clipPath id="p51c5899e2a">
   <rect x="87.740625" y="25.178359" width="357.776673" height="267.72675"/>
  </clipPath>
  <clipPath id="p4ee9bf7900">
   <rect x="509.897451" y="25.178359" width="411.443174" height="267.72675"/>
  </clipPath>
 </defs>
</svg>
