<?xml version="1.0" encoding="utf-8" standalone="no"?>
<!DOCTYPE svg PUBLIC "-//W3C//DTD SVG 1.1//EN"
  "http://www.w3.org/Graphics/SVG/1.1/DTD/svg11.dtd">
<svg xmlns:xlink="http://www.w3.org/1999/xlink" width="778.115079pt" height="743.781766pt" viewBox="0 0 778.115079 743.781766" xmlns="http://www.w3.org/2000/svg" version="1.1">
 <metadata>
  <rdf:RDF xmlns:dc="http://purl.org/dc/elements/1.1/" xmlns:cc="http://creativecommons.org/ns#" xmlns:rdf="http://www.w3.org/1999/02/22-rdf-syntax-ns#">
   <cc:Work>
    <dc:type rdf:resource="http://purl.org/dc/dcmitype/StillImage"/>
    <dc:date>2026-04-17T01:11:42.625978</dc:date>
    <dc:format>image/svg+xml</dc:format>
    <dc:creator>
     <cc:Agent>
      <dc:title>Matplotlib v3.10.8, https://matplotlib.org/</dc:title>
     </cc:Agent>
    </dc:creator>
   </cc:Work>
  </rdf:RDF>
 </metadata>
 <defs>
  <style type="text/css">*{stroke-linejoin: round; stroke-linecap: butt}</style>
 </defs>
 <g id="figure_1">
  <g id="patch_1">
   <path d="M 0 743.781766 
L 778.115079 743.781766 
L 778.115079 0 
L 0 0 
z
" style="fill: #ffffff"/>
  </g>
  <g id="axes_1">
   <g id="patch_2">
    <path d="M 651.395079 338.381766 
C 651.395079 299.616457 643.759158 261.228092 628.924317 225.413616 
C 614.089475 189.599141 592.344213 157.055057 564.933 129.643844 
C 537.521788 102.232631 504.977703 80.487369 469.163228 65.652528 
C 433.348752 50.817686 394.960387 43.181766 356.195079 43.181766 
C 317.42977 43.181766 279.041405 50.817686 243.226929 65.652528 
C 207.412454 80.487369 174.868369 102.232631 147.457157 129.643844 
C 120.045944 157.055057 98.300682 189.599141 83.465841 225.413616 
C 68.630999 261.228092 60.995079 299.616457 60.995079 338.381766 
C 60.995079 377.147074 68.630999 415.535439 83.465841 451.349915 
C 98.300682 487.16439 120.045944 519.708475 147.457157 547.119687 
C 174.868369 574.5309 207.412454 596.276162 243.226929 611.111004 
C 279.041405 625.945845 317.42977 633.581766 356.195079 633.581766 
C 394.960387 633.581766 433.348752 625.945845 469.163228 611.111004 
C 504.977703 596.276162 537.521788 574.5309 564.933 547.119687 
C 592.344213 519.708475 614.089475 487.16439 628.924317 451.349915 
C 643.759158 415.535439 651.395079 377.147074 651.395079 338.381766 
M 356.195079 338.381766 
C 356.195079 338.381766 356.195079 338.381766 356.195079 338.381766 
C 356.195079 338.381766 356.195079 338.381766 356.195079 338.381766 
C 356.195079 338.381766 356.195079 338.381766 356.195079 338.381766 
C 356.195079 338.381766 356.195079 338.381766 356.195079 338.381766 
C 356.195079 338.381766 356.195079 338.381766 356.195079 338.381766 
C 356.195079 338.381766 356.195079 338.381766 356.195079 338.381766 
C 356.195079 338.381766 356.195079 338.381766 356.195079 338.381766 
C 356.195079 338.381766 356.195079 338.381766 356.195079 338.381766 
C 356.195079 338.381766 356.195079 338.381766 356.195079 338.381766 
C 356.195079 338.381766 356.195079 338.381766 356.195079 338.381766 
C 356.195079 338.381766 356.195079 338.381766 356.195079 338.381766 
C 356.195079 338.381766 356.195079 338.381766 356.195079 338.381766 
C 356.195079 338.381766 356.195079 338.381766 356.195079 338.381766 
C 356.195079 338.381766 356.195079 338.381766 356.195079 338.381766 
C 356.195079 338.381766 356.195079 338.381766 356.195079 338.381766 
C 356.195079 338.381766 356.195079 338.381766 356.195079 338.381766 
z
" style="fill: #ffffff"/>
   </g>
   <g id="matplotlib.axis_1">
    <g id="xtick_1">
     <g id="line2d_1">
      <path d="M 356.195079 338.381766 
L 356.195079 43.181766 
" clip-path="url(#pf09a488eb6)" style="fill: none; stroke: #cccccc; stroke-width: 0.6; stroke-linecap: square"/>
     </g>
     <g id="text_1">
      <!-- Camada de -->
      <g style="fill: #1a2b4a" transform="translate(321.773672 15.558281) scale(0.11 -0.11)">
       <defs>
        <path id="DejaVuSans-Bold-43" d="M 4288 256 
Q 3956 84 3597 -3 
Q 3238 -91 2847 -91 
Q 1681 -91 1000 561 
Q 319 1213 319 2328 
Q 319 3447 1000 4098 
Q 1681 4750 2847 4750 
Q 3238 4750 3597 4662 
Q 3956 4575 4288 4403 
L 4288 3438 
Q 3953 3666 3628 3772 
Q 3303 3878 2944 3878 
Q 2300 3878 1931 3465 
Q 1563 3053 1563 2328 
Q 1563 1606 1931 1193 
Q 2300 781 2944 781 
Q 3303 781 3628 887 
Q 3953 994 4288 1222 
L 4288 256 
z
" transform="scale(0.015625)"/>
        <path id="DejaVuSans-Bold-61" d="M 2106 1575 
Q 1756 1575 1579 1456 
Q 1403 1338 1403 1106 
Q 1403 894 1545 773 
Q 1688 653 1941 653 
Q 2256 653 2472 879 
Q 2688 1106 2688 1447 
L 2688 1575 
L 2106 1575 
z
M 3816 1997 
L 3816 0 
L 2688 0 
L 2688 519 
Q 2463 200 2181 54 
Q 1900 -91 1497 -91 
Q 953 -91 614 226 
Q 275 544 275 1050 
Q 275 1666 698 1953 
Q 1122 2241 2028 2241 
L 2688 2241 
L 2688 2328 
Q 2688 2594 2478 2717 
Q 2269 2841 1825 2841 
Q 1466 2841 1156 2769 
Q 847 2697 581 2553 
L 581 3406 
Q 941 3494 1303 3539 
Q 1666 3584 2028 3584 
Q 2975 3584 3395 3211 
Q 3816 2838 3816 1997 
z
" transform="scale(0.015625)"/>
        <path id="DejaVuSans-Bold-6d" d="M 3781 2919 
Q 3994 3244 4286 3414 
Q 4578 3584 4928 3584 
Q 5531 3584 5847 3212 
Q 6163 2841 6163 2131 
L 6163 0 
L 5038 0 
L 5038 1825 
Q 5041 1866 5042 1909 
Q 5044 1953 5044 2034 
Q 5044 2406 4934 2573 
Q 4825 2741 4581 2741 
Q 4263 2741 4089 2478 
Q 3916 2216 3909 1719 
L 3909 0 
L 2784 0 
L 2784 1825 
Q 2784 2406 2684 2573 
Q 2584 2741 2328 2741 
Q 2006 2741 1831 2477 
Q 1656 2213 1656 1722 
L 1656 0 
L 531 0 
L 531 3500 
L 1656 3500 
L 1656 2988 
Q 1863 3284 2130 3434 
Q 2397 3584 2719 3584 
Q 3081 3584 3359 3409 
Q 3638 3234 3781 2919 
z
" transform="scale(0.015625)"/>
        <path id="DejaVuSans-Bold-64" d="M 2919 2988 
L 2919 4863 
L 4044 4863 
L 4044 0 
L 2919 0 
L 2919 506 
Q 2688 197 2409 53 
Q 2131 -91 1766 -91 
Q 1119 -91 703 423 
Q 288 938 288 1747 
Q 288 2556 703 3070 
Q 1119 3584 1766 3584 
Q 2128 3584 2408 3439 
Q 2688 3294 2919 2988 
z
M 2181 722 
Q 2541 722 2730 984 
Q 2919 1247 2919 1747 
Q 2919 2247 2730 2509 
Q 2541 2772 2181 2772 
Q 1825 2772 1636 2509 
Q 1447 2247 1447 1747 
Q 1447 1247 1636 984 
Q 1825 722 2181 722 
z
" transform="scale(0.015625)"/>
        <path id="DejaVuSans-Bold-20" transform="scale(0.015625)"/>
        <path id="DejaVuSans-Bold-65" d="M 4031 1759 
L 4031 1441 
L 1416 1441 
Q 1456 1047 1700 850 
Q 1944 653 2381 653 
Q 2734 653 3104 758 
Q 3475 863 3866 1075 
L 3866 213 
Q 3469 63 3072 -14 
Q 2675 -91 2278 -91 
Q 1328 -91 801 392 
Q 275 875 275 1747 
Q 275 2603 792 3093 
Q 1309 3584 2216 3584 
Q 3041 3584 3536 3087 
Q 4031 2591 4031 1759 
z
M 2881 2131 
Q 2881 2450 2695 2645 
Q 2509 2841 2209 2841 
Q 1884 2841 1681 2658 
Q 1478 2475 1428 2131 
L 2881 2131 
z
" transform="scale(0.015625)"/>
       </defs>
       <use xlink:href="#DejaVuSans-Bold-43"/>
       <use xlink:href="#DejaVuSans-Bold-61" transform="translate(73.388672 0)"/>
       <use xlink:href="#DejaVuSans-Bold-6d" transform="translate(140.869141 0)"/>
       <use xlink:href="#DejaVuSans-Bold-61" transform="translate(245.068359 0)"/>
       <use xlink:href="#DejaVuSans-Bold-64" transform="translate(312.548828 0)"/>
       <use xlink:href="#DejaVuSans-Bold-61" transform="translate(384.130859 0)"/>
       <use xlink:href="#DejaVuSans-Bold-20" transform="translate(451.611328 0)"/>
       <use xlink:href="#DejaVuSans-Bold-64" transform="translate(486.425781 0)"/>
       <use xlink:href="#DejaVuSans-Bold-65" transform="translate(558.007812 0)"/>
      </g>
      <!-- Governança -->
      <g style="fill: #1a2b4a" transform="translate(319.359688 27.875875) scale(0.11 -0.11)">
       <defs>
        <path id="DejaVuSans-Bold-47" d="M 4781 347 
Q 4331 128 3847 18 
Q 3363 -91 2847 -91 
Q 1681 -91 1000 561 
Q 319 1213 319 2328 
Q 319 3456 1012 4103 
Q 1706 4750 2913 4750 
Q 3378 4750 3804 4662 
Q 4231 4575 4609 4403 
L 4609 3438 
Q 4219 3659 3833 3768 
Q 3447 3878 3059 3878 
Q 2341 3878 1952 3476 
Q 1563 3075 1563 2328 
Q 1563 1588 1938 1184 
Q 2313 781 3003 781 
Q 3191 781 3352 804 
Q 3513 828 3641 878 
L 3641 1784 
L 2906 1784 
L 2906 2591 
L 4781 2591 
L 4781 347 
z
" transform="scale(0.015625)"/>
        <path id="DejaVuSans-Bold-6f" d="M 2203 2784 
Q 1831 2784 1636 2517 
Q 1441 2250 1441 1747 
Q 1441 1244 1636 976 
Q 1831 709 2203 709 
Q 2569 709 2762 976 
Q 2956 1244 2956 1747 
Q 2956 2250 2762 2517 
Q 2569 2784 2203 2784 
z
M 2203 3584 
Q 3106 3584 3614 3096 
Q 4122 2609 4122 1747 
Q 4122 884 3614 396 
Q 3106 -91 2203 -91 
Q 1297 -91 786 396 
Q 275 884 275 1747 
Q 275 2609 786 3096 
Q 1297 3584 2203 3584 
z
" transform="scale(0.015625)"/>
        <path id="DejaVuSans-Bold-76" d="M 97 3500 
L 1216 3500 
L 2088 1081 
L 2956 3500 
L 4078 3500 
L 2700 0 
L 1472 0 
L 97 3500 
z
" transform="scale(0.015625)"/>
        <path id="DejaVuSans-Bold-72" d="M 3138 2547 
Q 2991 2616 2845 2648 
Q 2700 2681 2553 2681 
Q 2122 2681 1889 2404 
Q 1656 2128 1656 1613 
L 1656 0 
L 538 0 
L 538 3500 
L 1656 3500 
L 1656 2925 
Q 1872 3269 2151 3426 
Q 2431 3584 2822 3584 
Q 2878 3584 2943 3579 
Q 3009 3575 3134 3559 
L 3138 2547 
z
" transform="scale(0.015625)"/>
        <path id="DejaVuSans-Bold-6e" d="M 4056 2131 
L 4056 0 
L 2931 0 
L 2931 347 
L 2931 1631 
Q 2931 2084 2911 2256 
Q 2891 2428 2841 2509 
Q 2775 2619 2662 2680 
Q 2550 2741 2406 2741 
Q 2056 2741 1856 2470 
Q 1656 2200 1656 1722 
L 1656 0 
L 538 0 
L 538 3500 
L 1656 3500 
L 1656 2988 
Q 1909 3294 2193 3439 
Q 2478 3584 2822 3584 
Q 3428 3584 3742 3212 
Q 4056 2841 4056 2131 
z
" transform="scale(0.015625)"/>
        <path id="DejaVuSans-Bold-e7" d="M 3366 3391 
L 3366 2478 
Q 3138 2634 2908 2709 
Q 2678 2784 2431 2784 
Q 1963 2784 1702 2511 
Q 1441 2238 1441 1747 
Q 1441 1256 1702 982 
Q 1963 709 2431 709 
Q 2694 709 2930 787 
Q 3166 866 3366 1019 
L 3366 103 
Q 3103 6 2833 -42 
Q 2563 -91 2291 -91 
Q 1344 -91 809 395 
Q 275 881 275 1747 
Q 275 2613 809 3098 
Q 1344 3584 2291 3584 
Q 2566 3584 2833 3536 
Q 3100 3488 3366 3391 
z
M 2457 0 
Q 2639 -194 2724 -359 
Q 2810 -525 2810 -672 
Q 2810 -969 2618 -1111 
Q 2426 -1253 2029 -1253 
Q 1879 -1253 1719 -1233 
Q 1560 -1213 1398 -1172 
L 1395 -697 
Q 1551 -747 1680 -770 
Q 1810 -794 1914 -794 
Q 2095 -794 2196 -722 
Q 2298 -650 2298 -525 
Q 2298 -444 2231 -316 
Q 2164 -188 2023 0 
L 2457 0 
z
" transform="scale(0.015625)"/>
       </defs>
       <use xlink:href="#DejaVuSans-Bold-47"/>
       <use xlink:href="#DejaVuSans-Bold-6f" transform="translate(82.080078 0)"/>
       <use xlink:href="#DejaVuSans-Bold-76" transform="translate(150.78125 0)"/>
       <use xlink:href="#DejaVuSans-Bold-65" transform="translate(215.966797 0)"/>
       <use xlink:href="#DejaVuSans-Bold-72" transform="translate(283.789062 0)"/>
       <use xlink:href="#DejaVuSans-Bold-6e" transform="translate(333.105469 0)"/>
       <use xlink:href="#DejaVuSans-Bold-61" transform="translate(404.296875 0)"/>
       <use xlink:href="#DejaVuSans-Bold-6e" transform="translate(471.777344 0)"/>
       <use xlink:href="#DejaVuSans-Bold-e7" transform="translate(542.96875 0)"/>
       <use xlink:href="#DejaVuSans-Bold-61" transform="translate(602.246094 0)"/>
      </g>
     </g>
    </g>
    <g id="xtick_2">
     <g id="line2d_2">
      <path d="M 356.195079 338.381766 
L 586.991732 154.327576 
" clip-path="url(#pf09a488eb6)" style="fill: none; stroke: #cccccc; stroke-width: 0.6; stroke-linecap: square"/>
     </g>
     <g id="text_2">
      <!-- Enforcement -->
      <g style="fill: #1a2b4a" transform="translate(566.593869 142.087388) scale(0.11 -0.11)">
       <defs>
        <path id="DejaVuSans-Bold-45" d="M 588 4666 
L 3834 4666 
L 3834 3756 
L 1791 3756 
L 1791 2888 
L 3713 2888 
L 3713 1978 
L 1791 1978 
L 1791 909 
L 3903 909 
L 3903 0 
L 588 0 
L 588 4666 
z
" transform="scale(0.015625)"/>
        <path id="DejaVuSans-Bold-66" d="M 2841 4863 
L 2841 4128 
L 2222 4128 
Q 1984 4128 1890 4042 
Q 1797 3956 1797 3744 
L 1797 3500 
L 2753 3500 
L 2753 2700 
L 1797 2700 
L 1797 0 
L 678 0 
L 678 2700 
L 122 2700 
L 122 3500 
L 678 3500 
L 678 3744 
Q 678 4316 997 4589 
Q 1316 4863 1984 4863 
L 2841 4863 
z
" transform="scale(0.015625)"/>
        <path id="DejaVuSans-Bold-63" d="M 3366 3391 
L 3366 2478 
Q 3138 2634 2908 2709 
Q 2678 2784 2431 2784 
Q 1963 2784 1702 2511 
Q 1441 2238 1441 1747 
Q 1441 1256 1702 982 
Q 1963 709 2431 709 
Q 2694 709 2930 787 
Q 3166 866 3366 1019 
L 3366 103 
Q 3103 6 2833 -42 
Q 2563 -91 2291 -91 
Q 1344 -91 809 395 
Q 275 881 275 1747 
Q 275 2613 809 3098 
Q 1344 3584 2291 3584 
Q 2566 3584 2833 3536 
Q 3100 3488 3366 3391 
z
" transform="scale(0.015625)"/>
        <path id="DejaVuSans-Bold-74" d="M 1759 4494 
L 1759 3500 
L 2913 3500 
L 2913 2700 
L 1759 2700 
L 1759 1216 
Q 1759 972 1856 886 
Q 1953 800 2241 800 
L 2816 800 
L 2816 0 
L 1856 0 
Q 1194 0 917 276 
Q 641 553 641 1216 
L 641 2700 
L 84 2700 
L 84 3500 
L 641 3500 
L 641 4494 
L 1759 4494 
z
" transform="scale(0.015625)"/>
       </defs>
       <use xlink:href="#DejaVuSans-Bold-45"/>
       <use xlink:href="#DejaVuSans-Bold-6e" transform="translate(68.310547 0)"/>
       <use xlink:href="#DejaVuSans-Bold-66" transform="translate(139.501953 0)"/>
       <use xlink:href="#DejaVuSans-Bold-6f" transform="translate(183.007812 0)"/>
       <use xlink:href="#DejaVuSans-Bold-72" transform="translate(251.708984 0)"/>
       <use xlink:href="#DejaVuSans-Bold-63" transform="translate(301.025391 0)"/>
       <use xlink:href="#DejaVuSans-Bold-65" transform="translate(360.302734 0)"/>
       <use xlink:href="#DejaVuSans-Bold-6d" transform="translate(428.125 0)"/>
       <use xlink:href="#DejaVuSans-Bold-65" transform="translate(532.324219 0)"/>
       <use xlink:href="#DejaVuSans-Bold-6e" transform="translate(600.146484 0)"/>
       <use xlink:href="#DejaVuSans-Bold-74" transform="translate(671.337891 0)"/>
      </g>
     </g>
    </g>
    <g id="xtick_3">
     <g id="line2d_3">
      <path d="M 356.195079 338.381766 
L 643.993798 404.069945 
" clip-path="url(#pf09a488eb6)" style="fill: none; stroke: #cccccc; stroke-width: 0.6; stroke-linecap: square"/>
     </g>
     <g id="text_3">
      <!-- Variedade do -->
      <g style="fill: #1a2b4a" transform="translate(626.939766 406.355255) scale(0.11 -0.11)">
       <defs>
        <path id="DejaVuSans-Bold-56" d="M 31 4666 
L 1241 4666 
L 2478 1222 
L 3713 4666 
L 4922 4666 
L 3194 0 
L 1759 0 
L 31 4666 
z
" transform="scale(0.015625)"/>
        <path id="DejaVuSans-Bold-69" d="M 538 3500 
L 1656 3500 
L 1656 0 
L 538 0 
L 538 3500 
z
M 538 4863 
L 1656 4863 
L 1656 3950 
L 538 3950 
L 538 4863 
z
" transform="scale(0.015625)"/>
       </defs>
       <use xlink:href="#DejaVuSans-Bold-56"/>
       <use xlink:href="#DejaVuSans-Bold-61" transform="translate(71.892578 0)"/>
       <use xlink:href="#DejaVuSans-Bold-72" transform="translate(139.373047 0)"/>
       <use xlink:href="#DejaVuSans-Bold-69" transform="translate(188.689453 0)"/>
       <use xlink:href="#DejaVuSans-Bold-65" transform="translate(222.966797 0)"/>
       <use xlink:href="#DejaVuSans-Bold-64" transform="translate(290.789062 0)"/>
       <use xlink:href="#DejaVuSans-Bold-61" transform="translate(362.371094 0)"/>
       <use xlink:href="#DejaVuSans-Bold-64" transform="translate(429.851562 0)"/>
       <use xlink:href="#DejaVuSans-Bold-65" transform="translate(501.433594 0)"/>
       <use xlink:href="#DejaVuSans-Bold-20" transform="translate(569.255859 0)"/>
       <use xlink:href="#DejaVuSans-Bold-64" transform="translate(604.070312 0)"/>
       <use xlink:href="#DejaVuSans-Bold-6f" transform="translate(675.652344 0)"/>
      </g>
      <!-- Regulador -->
      <g style="fill: #1a2b4a" transform="translate(636.03711 418.672849) scale(0.11 -0.11)">
       <defs>
        <path id="DejaVuSans-Bold-52" d="M 2297 2597 
Q 2675 2597 2839 2737 
Q 3003 2878 3003 3200 
Q 3003 3519 2839 3656 
Q 2675 3794 2297 3794 
L 1791 3794 
L 1791 2597 
L 2297 2597 
z
M 1791 1766 
L 1791 0 
L 588 0 
L 588 4666 
L 2425 4666 
Q 3347 4666 3776 4356 
Q 4206 4047 4206 3378 
Q 4206 2916 3982 2619 
Q 3759 2322 3309 2181 
Q 3556 2125 3751 1926 
Q 3947 1728 4147 1325 
L 4800 0 
L 3519 0 
L 2950 1159 
Q 2778 1509 2601 1637 
Q 2425 1766 2131 1766 
L 1791 1766 
z
" transform="scale(0.015625)"/>
        <path id="DejaVuSans-Bold-67" d="M 2919 594 
Q 2688 288 2409 144 
Q 2131 0 1766 0 
Q 1125 0 706 504 
Q 288 1009 288 1791 
Q 288 2575 706 3076 
Q 1125 3578 1766 3578 
Q 2131 3578 2409 3434 
Q 2688 3291 2919 2981 
L 2919 3500 
L 4044 3500 
L 4044 353 
Q 4044 -491 3511 -936 
Q 2978 -1381 1966 -1381 
Q 1638 -1381 1331 -1331 
Q 1025 -1281 716 -1178 
L 716 -306 
Q 1009 -475 1290 -558 
Q 1572 -641 1856 -641 
Q 2406 -641 2662 -400 
Q 2919 -159 2919 353 
L 2919 594 
z
M 2181 2772 
Q 1834 2772 1640 2515 
Q 1447 2259 1447 1791 
Q 1447 1309 1634 1061 
Q 1822 813 2181 813 
Q 2531 813 2725 1069 
Q 2919 1325 2919 1791 
Q 2919 2259 2725 2515 
Q 2531 2772 2181 2772 
z
" transform="scale(0.015625)"/>
        <path id="DejaVuSans-Bold-75" d="M 500 1363 
L 500 3500 
L 1625 3500 
L 1625 3150 
Q 1625 2866 1622 2436 
Q 1619 2006 1619 1863 
Q 1619 1441 1641 1255 
Q 1663 1069 1716 984 
Q 1784 875 1895 815 
Q 2006 756 2150 756 
Q 2500 756 2700 1025 
Q 2900 1294 2900 1772 
L 2900 3500 
L 4019 3500 
L 4019 0 
L 2900 0 
L 2900 506 
Q 2647 200 2364 54 
Q 2081 -91 1741 -91 
Q 1134 -91 817 281 
Q 500 653 500 1363 
z
" transform="scale(0.015625)"/>
        <path id="DejaVuSans-Bold-6c" d="M 538 4863 
L 1656 4863 
L 1656 0 
L 538 0 
L 538 4863 
z
" transform="scale(0.015625)"/>
       </defs>
       <use xlink:href="#DejaVuSans-Bold-52"/>
       <use xlink:href="#DejaVuSans-Bold-65" transform="translate(77.001953 0)"/>
       <use xlink:href="#DejaVuSans-Bold-67" transform="translate(144.824219 0)"/>
       <use xlink:href="#DejaVuSans-Bold-75" transform="translate(216.40625 0)"/>
       <use xlink:href="#DejaVuSans-Bold-6c" transform="translate(287.597656 0)"/>
       <use xlink:href="#DejaVuSans-Bold-61" transform="translate(321.875 0)"/>
       <use xlink:href="#DejaVuSans-Bold-64" transform="translate(389.355469 0)"/>
       <use xlink:href="#DejaVuSans-Bold-6f" transform="translate(460.9375 0)"/>
       <use xlink:href="#DejaVuSans-Bold-72" transform="translate(529.638672 0)"/>
      </g>
     </g>
    </g>
    <g id="xtick_4">
     <g id="line2d_4">
      <path d="M 356.195079 338.381766 
L 484.277558 604.347775 
" clip-path="url(#pf09a488eb6)" style="fill: none; stroke: #cccccc; stroke-width: 0.6; stroke-linecap: square"/>
     </g>
     <g id="text_4">
      <!-- Temporalidade -->
      <g style="fill: #1a2b4a" transform="translate(449.196694 629.456825) scale(0.11 -0.11)">
       <defs>
        <path id="DejaVuSans-Bold-54" d="M 31 4666 
L 4331 4666 
L 4331 3756 
L 2784 3756 
L 2784 0 
L 1581 0 
L 1581 3756 
L 31 3756 
L 31 4666 
z
" transform="scale(0.015625)"/>
        <path id="DejaVuSans-Bold-70" d="M 1656 506 
L 1656 -1331 
L 538 -1331 
L 538 3500 
L 1656 3500 
L 1656 2988 
Q 1888 3294 2169 3439 
Q 2450 3584 2816 3584 
Q 3463 3584 3878 3070 
Q 4294 2556 4294 1747 
Q 4294 938 3878 423 
Q 3463 -91 2816 -91 
Q 2450 -91 2169 54 
Q 1888 200 1656 506 
z
M 2400 2772 
Q 2041 2772 1848 2508 
Q 1656 2244 1656 1747 
Q 1656 1250 1848 986 
Q 2041 722 2400 722 
Q 2759 722 2948 984 
Q 3138 1247 3138 1747 
Q 3138 2247 2948 2509 
Q 2759 2772 2400 2772 
z
" transform="scale(0.015625)"/>
       </defs>
       <use xlink:href="#DejaVuSans-Bold-54"/>
       <use xlink:href="#DejaVuSans-Bold-65" transform="translate(54.962891 0)"/>
       <use xlink:href="#DejaVuSans-Bold-6d" transform="translate(122.785156 0)"/>
       <use xlink:href="#DejaVuSans-Bold-70" transform="translate(226.984375 0)"/>
       <use xlink:href="#DejaVuSans-Bold-6f" transform="translate(298.566406 0)"/>
       <use xlink:href="#DejaVuSans-Bold-72" transform="translate(367.267578 0)"/>
       <use xlink:href="#DejaVuSans-Bold-61" transform="translate(416.583984 0)"/>
       <use xlink:href="#DejaVuSans-Bold-6c" transform="translate(484.064453 0)"/>
       <use xlink:href="#DejaVuSans-Bold-69" transform="translate(518.341797 0)"/>
       <use xlink:href="#DejaVuSans-Bold-64" transform="translate(552.619141 0)"/>
       <use xlink:href="#DejaVuSans-Bold-61" transform="translate(624.201172 0)"/>
       <use xlink:href="#DejaVuSans-Bold-64" transform="translate(691.681641 0)"/>
       <use xlink:href="#DejaVuSans-Bold-65" transform="translate(763.263672 0)"/>
      </g>
     </g>
    </g>
    <g id="xtick_5">
     <g id="line2d_5">
      <path d="M 356.195079 338.381766 
L 228.112599 604.347775 
" clip-path="url(#pf09a488eb6)" style="fill: none; stroke: #cccccc; stroke-width: 0.6; stroke-linecap: square"/>
     </g>
     <g id="text_5">
      <!-- Agência -->
      <g style="fill: #1a2b4a" transform="translate(192.785728 623.47506) scale(0.11 -0.11)">
       <defs>
        <path id="DejaVuSans-Bold-41" d="M 3419 850 
L 1538 850 
L 1241 0 
L 31 0 
L 1759 4666 
L 3194 4666 
L 4922 0 
L 3713 0 
L 3419 850 
z
M 1838 1716 
L 3116 1716 
L 2478 3572 
L 1838 1716 
z
" transform="scale(0.015625)"/>
        <path id="DejaVuSans-Bold-ea" d="M 4031 1759 
L 4031 1441 
L 1416 1441 
Q 1456 1047 1700 850 
Q 1944 653 2381 653 
Q 2734 653 3104 758 
Q 3475 863 3866 1075 
L 3866 213 
Q 3469 63 3072 -14 
Q 2675 -91 2278 -91 
Q 1328 -91 801 392 
Q 275 875 275 1747 
Q 275 2603 792 3093 
Q 1309 3584 2216 3584 
Q 3041 3584 3536 3087 
Q 4031 2591 4031 1759 
z
M 2881 2131 
Q 2881 2450 2695 2645 
Q 2509 2841 2209 2841 
Q 1884 2841 1681 2658 
Q 1478 2475 1428 2131 
L 2881 2131 
z
M 1902 5119 
L 2658 5119 
L 3458 3944 
L 2902 3944 
L 2280 4647 
L 1658 3944 
L 1102 3944 
L 1902 5119 
z
" transform="scale(0.015625)"/>
       </defs>
       <use xlink:href="#DejaVuSans-Bold-41"/>
       <use xlink:href="#DejaVuSans-Bold-67" transform="translate(77.392578 0)"/>
       <use xlink:href="#DejaVuSans-Bold-ea" transform="translate(148.974609 0)"/>
       <use xlink:href="#DejaVuSans-Bold-6e" transform="translate(216.796875 0)"/>
       <use xlink:href="#DejaVuSans-Bold-63" transform="translate(287.988281 0)"/>
       <use xlink:href="#DejaVuSans-Bold-69" transform="translate(347.265625 0)"/>
       <use xlink:href="#DejaVuSans-Bold-61" transform="translate(381.542969 0)"/>
      </g>
      <!-- Constitutiva -->
      <g style="fill: #1a2b4a" transform="translate(179.608932 635.878591) scale(0.11 -0.11)">
       <defs>
        <path id="DejaVuSans-Bold-73" d="M 3272 3391 
L 3272 2541 
Q 2913 2691 2578 2766 
Q 2244 2841 1947 2841 
Q 1628 2841 1473 2761 
Q 1319 2681 1319 2516 
Q 1319 2381 1436 2309 
Q 1553 2238 1856 2203 
L 2053 2175 
Q 2913 2066 3209 1816 
Q 3506 1566 3506 1031 
Q 3506 472 3093 190 
Q 2681 -91 1863 -91 
Q 1516 -91 1145 -36 
Q 775 19 384 128 
L 384 978 
Q 719 816 1070 734 
Q 1422 653 1784 653 
Q 2113 653 2278 743 
Q 2444 834 2444 1013 
Q 2444 1163 2330 1236 
Q 2216 1309 1875 1350 
L 1678 1375 
Q 931 1469 631 1722 
Q 331 1975 331 2491 
Q 331 3047 712 3315 
Q 1094 3584 1881 3584 
Q 2191 3584 2531 3537 
Q 2872 3491 3272 3391 
z
" transform="scale(0.015625)"/>
       </defs>
       <use xlink:href="#DejaVuSans-Bold-43"/>
       <use xlink:href="#DejaVuSans-Bold-6f" transform="translate(73.388672 0)"/>
       <use xlink:href="#DejaVuSans-Bold-6e" transform="translate(142.089844 0)"/>
       <use xlink:href="#DejaVuSans-Bold-73" transform="translate(213.28125 0)"/>
       <use xlink:href="#DejaVuSans-Bold-74" transform="translate(272.802734 0)"/>
       <use xlink:href="#DejaVuSans-Bold-69" transform="translate(320.605469 0)"/>
       <use xlink:href="#DejaVuSans-Bold-74" transform="translate(354.882812 0)"/>
       <use xlink:href="#DejaVuSans-Bold-75" transform="translate(402.685547 0)"/>
       <use xlink:href="#DejaVuSans-Bold-74" transform="translate(473.876953 0)"/>
       <use xlink:href="#DejaVuSans-Bold-69" transform="translate(521.679688 0)"/>
       <use xlink:href="#DejaVuSans-Bold-76" transform="translate(555.957031 0)"/>
       <use xlink:href="#DejaVuSans-Bold-61" transform="translate(621.142578 0)"/>
      </g>
     </g>
    </g>
    <g id="xtick_6">
     <g id="line2d_6">
      <path d="M 356.195079 338.381766 
L 68.396359 404.069945 
" clip-path="url(#pf09a488eb6)" style="fill: none; stroke: #cccccc; stroke-width: 0.6; stroke-linecap: square"/>
     </g>
     <g id="text_6">
      <!-- Completude -->
      <g style="fill: #1a2b4a" transform="translate(7.2 406.091255) scale(0.11 -0.11)">
       <use xlink:href="#DejaVuSans-Bold-43"/>
       <use xlink:href="#DejaVuSans-Bold-6f" transform="translate(73.388672 0)"/>
       <use xlink:href="#DejaVuSans-Bold-6d" transform="translate(142.089844 0)"/>
       <use xlink:href="#DejaVuSans-Bold-70" transform="translate(246.289062 0)"/>
       <use xlink:href="#DejaVuSans-Bold-6c" transform="translate(317.871094 0)"/>
       <use xlink:href="#DejaVuSans-Bold-65" transform="translate(352.148438 0)"/>
       <use xlink:href="#DejaVuSans-Bold-74" transform="translate(419.970703 0)"/>
       <use xlink:href="#DejaVuSans-Bold-75" transform="translate(467.773438 0)"/>
       <use xlink:href="#DejaVuSans-Bold-64" transform="translate(538.964844 0)"/>
       <use xlink:href="#DejaVuSans-Bold-65" transform="translate(610.546875 0)"/>
      </g>
      <!-- Algorítmica -->
      <g style="fill: #1a2b4a" transform="translate(8.837969 418.936849) scale(0.11 -0.11)">
       <defs>
        <path id="DejaVuSans-Bold-ed" d="M 538 3500 
L 1656 3500 
L 1656 0 
L 538 0 
L 538 3500 
z
M 1590 5119 
L 2474 5119 
L 1321 3944 
L 709 3944 
L 1590 5119 
z
" transform="scale(0.015625)"/>
       </defs>
       <use xlink:href="#DejaVuSans-Bold-41"/>
       <use xlink:href="#DejaVuSans-Bold-6c" transform="translate(77.392578 0)"/>
       <use xlink:href="#DejaVuSans-Bold-67" transform="translate(111.669922 0)"/>
       <use xlink:href="#DejaVuSans-Bold-6f" transform="translate(183.251953 0)"/>
       <use xlink:href="#DejaVuSans-Bold-72" transform="translate(251.953125 0)"/>
       <use xlink:href="#DejaVuSans-Bold-ed" transform="translate(301.269531 0)"/>
       <use xlink:href="#DejaVuSans-Bold-74" transform="translate(335.546875 0)"/>
       <use xlink:href="#DejaVuSans-Bold-6d" transform="translate(383.349609 0)"/>
       <use xlink:href="#DejaVuSans-Bold-69" transform="translate(487.548828 0)"/>
       <use xlink:href="#DejaVuSans-Bold-63" transform="translate(521.826172 0)"/>
       <use xlink:href="#DejaVuSans-Bold-61" transform="translate(581.103516 0)"/>
      </g>
     </g>
    </g>
    <g id="xtick_7">
     <g id="line2d_7">
      <path d="M 356.195079 338.381766 
L 125.398425 154.327576 
" clip-path="url(#pf09a488eb6)" style="fill: none; stroke: #cccccc; stroke-width: 0.6; stroke-linecap: square"/>
     </g>
     <g id="text_7">
      <!-- Taxonomia -->
      <g style="fill: #1a2b4a" transform="translate(73.139569 135.928592) scale(0.11 -0.11)">
       <defs>
        <path id="DejaVuSans-Bold-78" d="M 1422 1791 
L 159 3500 
L 1344 3500 
L 2059 2463 
L 2784 3500 
L 3969 3500 
L 2706 1797 
L 4031 0 
L 2847 0 
L 2059 1106 
L 1281 0 
L 97 0 
L 1422 1791 
z
" transform="scale(0.015625)"/>
       </defs>
       <use xlink:href="#DejaVuSans-Bold-54"/>
       <use xlink:href="#DejaVuSans-Bold-61" transform="translate(55.337891 0)"/>
       <use xlink:href="#DejaVuSans-Bold-78" transform="translate(122.818359 0)"/>
       <use xlink:href="#DejaVuSans-Bold-6f" transform="translate(187.320312 0)"/>
       <use xlink:href="#DejaVuSans-Bold-6e" transform="translate(256.021484 0)"/>
       <use xlink:href="#DejaVuSans-Bold-6f" transform="translate(327.212891 0)"/>
       <use xlink:href="#DejaVuSans-Bold-6d" transform="translate(395.914062 0)"/>
       <use xlink:href="#DejaVuSans-Bold-69" transform="translate(500.113281 0)"/>
       <use xlink:href="#DejaVuSans-Bold-61" transform="translate(534.390625 0)"/>
      </g>
      <!-- Tripartite -->
      <g style="fill: #1a2b4a" transform="translate(77.264569 148.246185) scale(0.11 -0.11)">
       <use xlink:href="#DejaVuSans-Bold-54"/>
       <use xlink:href="#DejaVuSans-Bold-72" transform="translate(57.212891 0)"/>
       <use xlink:href="#DejaVuSans-Bold-69" transform="translate(106.529297 0)"/>
       <use xlink:href="#DejaVuSans-Bold-70" transform="translate(140.806641 0)"/>
       <use xlink:href="#DejaVuSans-Bold-61" transform="translate(212.388672 0)"/>
       <use xlink:href="#DejaVuSans-Bold-72" transform="translate(279.869141 0)"/>
       <use xlink:href="#DejaVuSans-Bold-74" transform="translate(329.185547 0)"/>
       <use xlink:href="#DejaVuSans-Bold-69" transform="translate(376.988281 0)"/>
       <use xlink:href="#DejaVuSans-Bold-74" transform="translate(411.265625 0)"/>
       <use xlink:href="#DejaVuSans-Bold-65" transform="translate(459.068359 0)"/>
      </g>
     </g>
    </g>
   </g>
   <g id="matplotlib.axis_2">
    <g id="ytick_1">
     <g id="line2d_8">
      <path d="M 356.195079 282.153194 
C 363.578947 282.153194 370.891016 283.607655 377.712821 286.433339 
C 384.534626 289.259023 390.733499 293.400978 395.954683 298.622161 
C 401.175866 303.843345 405.317821 310.042218 408.143505 316.864023 
C 410.969189 323.685828 412.42365 330.997897 412.42365 338.381766 
C 412.42365 345.765634 410.969189 353.077704 408.143505 359.899508 
C 405.317821 366.721313 401.175866 372.920186 395.954683 378.14137 
C 390.733499 383.362553 384.534626 387.504508 377.712821 390.330192 
C 370.891016 393.155876 363.578947 394.610337 356.195079 394.610337 
C 348.81121 394.610337 341.499141 393.155876 334.677336 390.330192 
C 327.855531 387.504508 321.656658 383.362553 316.435474 378.14137 
C 311.214291 372.920186 307.072336 366.721313 304.246652 359.899508 
C 301.420968 353.077704 299.966507 345.765634 299.966507 338.381766 
C 299.966507 330.997897 301.420968 323.685828 304.246652 316.864023 
C 307.072336 310.042218 311.214291 303.843345 316.435474 298.622161 
C 321.656658 293.400978 327.855531 289.259023 334.677336 286.433339 
C 341.499141 283.607655 348.81121 282.153194 356.195079 282.153194 
" clip-path="url(#pf09a488eb6)" style="fill: none; stroke-dasharray: 1.85,0.8; stroke-dashoffset: 0; stroke: #bbbbbb; stroke-width: 0.5"/>
     </g>
     <g id="text_8">
      <!-- 0.2 -->
      <g style="fill: #888888" transform="translate(375.426383 283.880442) scale(0.08 -0.08)">
       <defs>
        <path id="DejaVuSans-30" d="M 2034 4250 
Q 1547 4250 1301 3770 
Q 1056 3291 1056 2328 
Q 1056 1369 1301 889 
Q 1547 409 2034 409 
Q 2525 409 2770 889 
Q 3016 1369 3016 2328 
Q 3016 3291 2770 3770 
Q 2525 4250 2034 4250 
z
M 2034 4750 
Q 2819 4750 3233 4129 
Q 3647 3509 3647 2328 
Q 3647 1150 3233 529 
Q 2819 -91 2034 -91 
Q 1250 -91 836 529 
Q 422 1150 422 2328 
Q 422 3509 836 4129 
Q 1250 4750 2034 4750 
z
" transform="scale(0.015625)"/>
        <path id="DejaVuSans-2e" d="M 684 794 
L 1344 794 
L 1344 0 
L 684 0 
L 684 794 
z
" transform="scale(0.015625)"/>
        <path id="DejaVuSans-32" d="M 1228 531 
L 3431 531 
L 3431 0 
L 469 0 
L 469 531 
Q 828 903 1448 1529 
Q 2069 2156 2228 2338 
Q 2531 2678 2651 2914 
Q 2772 3150 2772 3378 
Q 2772 3750 2511 3984 
Q 2250 4219 1831 4219 
Q 1534 4219 1204 4116 
Q 875 4013 500 3803 
L 500 4441 
Q 881 4594 1212 4672 
Q 1544 4750 1819 4750 
Q 2544 4750 2975 4387 
Q 3406 4025 3406 3419 
Q 3406 3131 3298 2873 
Q 3191 2616 2906 2266 
Q 2828 2175 2409 1742 
Q 1991 1309 1228 531 
z
" transform="scale(0.015625)"/>
       </defs>
       <use xlink:href="#DejaVuSans-30"/>
       <use xlink:href="#DejaVuSans-2e" transform="translate(63.623047 0)"/>
       <use xlink:href="#DejaVuSans-32" transform="translate(95.410156 0)"/>
      </g>
     </g>
    </g>
    <g id="ytick_2">
     <g id="line2d_9">
      <path d="M 356.195079 225.924623 
C 370.962815 225.924623 385.586954 228.833545 399.230564 234.484913 
C 412.874174 240.136281 425.27192 248.420191 435.714287 258.862557 
C 446.156654 269.304924 454.440563 281.702671 460.091931 295.34628 
C 465.743299 308.98989 468.652221 323.614029 468.652221 338.381766 
C 468.652221 353.149502 465.743299 367.773641 460.091931 381.417251 
C 454.440563 395.060861 446.156654 407.458607 435.714287 417.900974 
C 425.27192 428.343341 412.874174 436.62725 399.230564 442.278618 
C 385.586954 447.929986 370.962815 450.838908 356.195079 450.838908 
C 341.427342 450.838908 326.803203 447.929986 313.159593 442.278618 
C 299.515983 436.62725 287.118237 428.343341 276.67587 417.900974 
C 266.233503 407.458607 257.949594 395.060861 252.298226 381.417251 
C 246.646858 367.773641 243.737936 353.149502 243.737936 338.381766 
C 243.737936 323.614029 246.646858 308.98989 252.298226 295.34628 
C 257.949594 281.702671 266.233503 269.304924 276.67587 258.862557 
C 287.118237 248.420191 299.515983 240.136281 313.159593 234.484913 
C 326.803203 228.833545 341.427342 225.924623 356.195079 225.924623 
" clip-path="url(#pf09a488eb6)" style="fill: none; stroke-dasharray: 1.85,0.8; stroke-dashoffset: 0; stroke: #bbbbbb; stroke-width: 0.5"/>
     </g>
     <g id="text_9">
      <!-- 0.4 -->
      <g style="fill: #888888" transform="translate(394.657687 231.042868) scale(0.08 -0.08)">
       <defs>
        <path id="DejaVuSans-34" d="M 2419 4116 
L 825 1625 
L 2419 1625 
L 2419 4116 
z
M 2253 4666 
L 3047 4666 
L 3047 1625 
L 3713 1625 
L 3713 1100 
L 3047 1100 
L 3047 0 
L 2419 0 
L 2419 1100 
L 313 1100 
L 313 1709 
L 2253 4666 
z
" transform="scale(0.015625)"/>
       </defs>
       <use xlink:href="#DejaVuSans-30"/>
       <use xlink:href="#DejaVuSans-2e" transform="translate(63.623047 0)"/>
       <use xlink:href="#DejaVuSans-34" transform="translate(95.410156 0)"/>
      </g>
     </g>
    </g>
    <g id="ytick_3">
     <g id="line2d_10">
      <path d="M 356.195079 169.696051 
C 378.346684 169.696051 400.282892 174.059435 420.748307 182.536487 
C 441.213721 191.013539 459.810341 203.439403 475.473891 219.102953 
C 491.137441 234.766503 503.563305 253.363123 512.040357 273.828537 
C 520.51741 294.293952 524.880793 316.230161 524.880793 338.381766 
C 524.880793 360.533371 520.51741 382.469579 512.040357 402.934994 
C 503.563305 423.400408 491.137441 441.997028 475.473891 457.660578 
C 459.810341 473.324128 441.213721 485.749992 420.748307 494.227044 
C 400.282892 502.704097 378.346684 507.06748 356.195079 507.06748 
C 334.043473 507.06748 312.107265 502.704097 291.64185 494.227044 
C 271.176436 485.749992 252.579816 473.324128 236.916266 457.660578 
C 221.252716 441.997028 208.826852 423.400408 200.3498 402.934994 
C 191.872747 382.469579 187.509364 360.533371 187.509364 338.381766 
C 187.509364 316.230161 191.872747 294.293952 200.3498 273.828537 
C 208.826852 253.363123 221.252716 234.766503 236.916266 219.102953 
C 252.579816 203.439403 271.176436 191.013539 291.64185 182.536487 
C 312.107265 174.059435 334.043473 169.696051 356.195079 169.696051 
" clip-path="url(#pf09a488eb6)" style="fill: none; stroke-dasharray: 1.85,0.8; stroke-dashoffset: 0; stroke: #bbbbbb; stroke-width: 0.5"/>
     </g>
     <g id="text_10">
      <!-- 0.6 -->
      <g style="fill: #888888" transform="translate(413.888991 178.205295) scale(0.08 -0.08)">
       <defs>
        <path id="DejaVuSans-36" d="M 2113 2584 
Q 1688 2584 1439 2293 
Q 1191 2003 1191 1497 
Q 1191 994 1439 701 
Q 1688 409 2113 409 
Q 2538 409 2786 701 
Q 3034 994 3034 1497 
Q 3034 2003 2786 2293 
Q 2538 2584 2113 2584 
z
M 3366 4563 
L 3366 3988 
Q 3128 4100 2886 4159 
Q 2644 4219 2406 4219 
Q 1781 4219 1451 3797 
Q 1122 3375 1075 2522 
Q 1259 2794 1537 2939 
Q 1816 3084 2150 3084 
Q 2853 3084 3261 2657 
Q 3669 2231 3669 1497 
Q 3669 778 3244 343 
Q 2819 -91 2113 -91 
Q 1303 -91 875 529 
Q 447 1150 447 2328 
Q 447 3434 972 4092 
Q 1497 4750 2381 4750 
Q 2619 4750 2861 4703 
Q 3103 4656 3366 4563 
z
" transform="scale(0.015625)"/>
       </defs>
       <use xlink:href="#DejaVuSans-30"/>
       <use xlink:href="#DejaVuSans-2e" transform="translate(63.623047 0)"/>
       <use xlink:href="#DejaVuSans-36" transform="translate(95.410156 0)"/>
      </g>
     </g>
    </g>
    <g id="ytick_4">
     <g id="line2d_11">
      <path d="M 356.195079 113.46748 
C 385.730552 113.46748 414.97883 119.285324 442.266049 130.58806 
C 469.553269 141.890797 494.348762 158.458615 515.233495 179.343349 
C 536.118229 200.228083 552.686047 225.023575 563.988784 252.310795 
C 575.29152 279.598014 581.109364 308.846292 581.109364 338.381766 
C 581.109364 367.917239 575.29152 397.165517 563.988784 424.452736 
C 552.686047 451.739956 536.118229 476.535449 515.233495 497.420182 
C 494.348762 518.304916 469.553269 534.872734 442.266049 546.175471 
C 414.97883 557.478207 385.730552 563.296051 356.195079 563.296051 
C 326.659605 563.296051 297.411327 557.478207 270.124108 546.175471 
C 242.836888 534.872734 218.041395 518.304916 197.156662 497.420182 
C 176.271928 476.535449 159.70411 451.739956 148.401373 424.452736 
C 137.098637 397.165517 131.280793 367.917239 131.280793 338.381766 
C 131.280793 308.846292 137.098637 279.598014 148.401373 252.310795 
C 159.70411 225.023575 176.271928 200.228083 197.156662 179.343349 
C 218.041395 158.458615 242.836888 141.890797 270.124108 130.58806 
C 297.411327 119.285324 326.659605 113.46748 356.195079 113.46748 
" clip-path="url(#pf09a488eb6)" style="fill: none; stroke-dasharray: 1.85,0.8; stroke-dashoffset: 0; stroke: #bbbbbb; stroke-width: 0.5"/>
     </g>
     <g id="text_11">
      <!-- 0.8 -->
      <g style="fill: #888888" transform="translate(433.120295 125.367721) scale(0.08 -0.08)">
       <defs>
        <path id="DejaVuSans-38" d="M 2034 2216 
Q 1584 2216 1326 1975 
Q 1069 1734 1069 1313 
Q 1069 891 1326 650 
Q 1584 409 2034 409 
Q 2484 409 2743 651 
Q 3003 894 3003 1313 
Q 3003 1734 2745 1975 
Q 2488 2216 2034 2216 
z
M 1403 2484 
Q 997 2584 770 2862 
Q 544 3141 544 3541 
Q 544 4100 942 4425 
Q 1341 4750 2034 4750 
Q 2731 4750 3128 4425 
Q 3525 4100 3525 3541 
Q 3525 3141 3298 2862 
Q 3072 2584 2669 2484 
Q 3125 2378 3379 2068 
Q 3634 1759 3634 1313 
Q 3634 634 3220 271 
Q 2806 -91 2034 -91 
Q 1263 -91 848 271 
Q 434 634 434 1313 
Q 434 1759 690 2068 
Q 947 2378 1403 2484 
z
M 1172 3481 
Q 1172 3119 1398 2916 
Q 1625 2713 2034 2713 
Q 2441 2713 2670 2916 
Q 2900 3119 2900 3481 
Q 2900 3844 2670 4047 
Q 2441 4250 2034 4250 
Q 1625 4250 1398 4047 
Q 1172 3844 1172 3481 
z
" transform="scale(0.015625)"/>
       </defs>
       <use xlink:href="#DejaVuSans-30"/>
       <use xlink:href="#DejaVuSans-2e" transform="translate(63.623047 0)"/>
       <use xlink:href="#DejaVuSans-38" transform="translate(95.410156 0)"/>
      </g>
     </g>
    </g>
    <g id="ytick_5">
     <g id="line2d_12">
      <path d="M 356.195079 57.238908 
C 393.11442 57.238908 429.674768 64.511214 463.783792 78.639634 
C 497.892816 92.768055 528.887182 113.477828 554.993099 139.583745 
C 581.099016 165.689662 601.80879 196.684028 615.93721 230.793052 
C 630.06563 264.902076 637.337936 301.462424 637.337936 338.381766 
C 637.337936 375.301107 630.06563 411.861455 615.93721 445.970479 
C 601.80879 480.079503 581.099016 511.073869 554.993099 537.179786 
C 528.887182 563.285703 497.892816 583.995477 463.783792 598.123897 
C 429.674768 612.252317 393.11442 619.524623 356.195079 619.524623 
C 319.275737 619.524623 282.715389 612.252317 248.606365 598.123897 
C 214.497341 583.995477 183.502975 563.285703 157.397058 537.179786 
C 131.291141 511.073869 110.581368 480.079503 96.452947 445.970479 
C 82.324527 411.861455 75.052221 375.301107 75.052221 338.381766 
C 75.052221 301.462424 82.324527 264.902076 96.452947 230.793052 
C 110.581368 196.684028 131.291141 165.689662 157.397058 139.583745 
C 183.502975 113.477828 214.497341 92.768055 248.606365 78.639634 
C 282.715389 64.511214 319.275737 57.238908 356.195079 57.238908 
" clip-path="url(#pf09a488eb6)" style="fill: none; stroke-dasharray: 1.85,0.8; stroke-dashoffset: 0; stroke: #bbbbbb; stroke-width: 0.5"/>
     </g>
     <g id="text_12">
      <!-- 1.0 -->
      <g style="fill: #888888" transform="translate(452.351599 72.530147) scale(0.08 -0.08)">
       <defs>
        <path id="DejaVuSans-31" d="M 794 531 
L 1825 531 
L 1825 4091 
L 703 3866 
L 703 4441 
L 1819 4666 
L 2450 4666 
L 2450 531 
L 3481 531 
L 3481 0 
L 794 0 
L 794 531 
z
" transform="scale(0.015625)"/>
       </defs>
       <use xlink:href="#DejaVuSans-31"/>
       <use xlink:href="#DejaVuSans-2e" transform="translate(63.623047 0)"/>
       <use xlink:href="#DejaVuSans-30" transform="translate(95.410156 0)"/>
      </g>
     </g>
    </g>
   </g>
   <g id="patch_3">
    <path d="M 356.195079 57.238908 
L 576.001415 163.092061 
L 597.397815 393.434716 
L 465.980061 566.352631 
L 248.849762 561.286612 
L 82.10106 400.941937 
L 136.388742 163.092061 
z
" clip-path="url(#pf09a488eb6)" style="fill: #a63929; opacity: 0.18; stroke: #a63929; stroke-linejoin: miter"/>
   </g>
   <g id="patch_4">
    <path d="M 356.195079 127.524623 
L 466.098247 250.736913 
L 493.242088 369.661851 
L 417.186736 465.032246 
L 325.69925 401.707006 
L 219.148069 369.661851 
L 213.32096 224.443458 
z
" clip-path="url(#pf09a488eb6)" style="fill: #1a2b4a; opacity: 0.12; stroke: #1a2b4a; stroke-linejoin: miter"/>
   </g>
   <g id="patch_5">
    <path d="M 356.195079 197.810337 
L 466.098247 250.736913 
L 424.718583 354.021808 
L 417.186736 465.032246 
L 356.195079 338.381766 
L 219.148069 369.661851 
L 246.29191 250.736913 
z
" clip-path="url(#pf09a488eb6)" style="fill: #3d5a80; opacity: 0.12; stroke: #3d5a80; stroke-linejoin: miter"/>
   </g>
   <g id="patch_6">
    <path d="M 356.195079 127.524623 
L 411.146663 294.55934 
L 493.242088 369.661851 
L 417.186736 465.032246 
L 325.69925 401.707006 
L 287.671574 354.021808 
L 246.29191 250.736913 
z
" clip-path="url(#pf09a488eb6)" style="fill: #98c1d9; opacity: 0.12; stroke: #98c1d9; stroke-linejoin: miter"/>
   </g>
   <g id="patch_7">
    <path d="M 356.195079 57.238908 
L 521.049831 206.914487 
L 493.242088 369.661851 
L 386.690907 401.707006 
L 356.195079 338.381766 
L 82.10106 400.941937 
L 213.32096 224.443458 
z
" clip-path="url(#pf09a488eb6)" style="fill: #1a7a3a; opacity: 0.12; stroke: #1a7a3a; stroke-linejoin: miter"/>
   </g>
   <g id="patch_8">
    <path d="M 356.195079 43.181766 
C 317.42977 43.181766 279.041405 50.817686 243.226929 65.652528 
C 207.412454 80.487369 174.868369 102.232631 147.457157 129.643844 
C 120.045944 157.055057 98.300682 189.599141 83.465841 225.413616 
C 68.630999 261.228092 60.995079 299.616457 60.995079 338.381766 
C 60.995079 377.147074 68.630999 415.535439 83.465841 451.349915 
C 98.300682 487.16439 120.045944 519.708475 147.457157 547.119687 
C 174.868369 574.5309 207.412454 596.276162 243.226929 611.111004 
C 279.041405 625.945845 317.42977 633.581766 356.195079 633.581766 
C 394.960387 633.581766 433.348752 625.945845 469.163228 611.111004 
C 504.977703 596.276162 537.521788 574.5309 564.933 547.119687 
C 592.344213 519.708475 614.089475 487.16439 628.924317 451.349915 
C 643.759158 415.535439 651.395079 377.147074 651.395079 338.381766 
C 651.395079 299.616457 643.759158 261.228092 628.924317 225.413616 
C 614.089475 189.599141 592.344213 157.055057 564.933 129.643844 
C 537.521788 102.232631 504.977703 80.487369 469.163228 65.652528 
C 433.348752 50.817686 394.960387 43.181766 356.195079 43.181766 
" style="fill: none; stroke: #cccccc; stroke-width: 0.8; stroke-linejoin: miter; stroke-linecap: square"/>
   </g>
   <g id="line2d_13">
    <path d="M 356.195079 57.238908 
L 576.001415 163.092061 
L 597.397815 393.434716 
L 465.980061 566.352631 
L 248.849762 561.286612 
L 82.10106 400.941937 
L 136.388742 163.092061 
L 356.195079 57.238908 
" clip-path="url(#pf09a488eb6)" style="fill: none; stroke: #a63929; stroke-width: 3.5; stroke-linecap: square"/>
    <defs>
     <path id="m776c9b623d" d="M 0 1.75 
C 0.464105 1.75 0.909265 1.565609 1.237437 1.237437 
C 1.565609 0.909265 1.75 0.464105 1.75 0 
C 1.75 -0.464105 1.565609 -0.909265 1.237437 -1.237437 
C 0.909265 -1.565609 0.464105 -1.75 0 -1.75 
C -0.464105 -1.75 -0.909265 -1.565609 -1.237437 -1.237437 
C -1.565609 -0.909265 -1.75 -0.464105 -1.75 0 
C -1.75 0.464105 -1.565609 0.909265 -1.237437 1.237437 
C -0.909265 1.565609 -0.464105 1.75 0 1.75 
z
" style="stroke: #a63929"/>
    </defs>
    <g clip-path="url(#pf09a488eb6)">
     <use xlink:href="#m776c9b623d" x="356.195079" y="57.238908" style="fill: #a63929; stroke: #a63929"/>
     <use xlink:href="#m776c9b623d" x="576.001415" y="163.092061" style="fill: #a63929; stroke: #a63929"/>
     <use xlink:href="#m776c9b623d" x="597.397815" y="393.434716" style="fill: #a63929; stroke: #a63929"/>
     <use xlink:href="#m776c9b623d" x="465.980061" y="566.352631" style="fill: #a63929; stroke: #a63929"/>
     <use xlink:href="#m776c9b623d" x="248.849762" y="561.286612" style="fill: #a63929; stroke: #a63929"/>
     <use xlink:href="#m776c9b623d" x="82.10106" y="400.941937" style="fill: #a63929; stroke: #a63929"/>
     <use xlink:href="#m776c9b623d" x="136.388742" y="163.092061" style="fill: #a63929; stroke: #a63929"/>
     <use xlink:href="#m776c9b623d" x="356.195079" y="57.238908" style="fill: #a63929; stroke: #a63929"/>
    </g>
   </g>
   <g id="line2d_14">
    <path d="M 356.195079 127.524623 
L 466.098247 250.736913 
L 493.242088 369.661851 
L 417.186736 465.032246 
L 325.69925 401.707006 
L 219.148069 369.661851 
L 213.32096 224.443458 
L 356.195079 127.524623 
" clip-path="url(#pf09a488eb6)" style="fill: none; stroke: #1a2b4a; stroke-width: 1.8; stroke-linecap: square"/>
    <defs>
     <path id="m9b4228e7ef" d="M 0 1.75 
C 0.464105 1.75 0.909265 1.565609 1.237437 1.237437 
C 1.565609 0.909265 1.75 0.464105 1.75 0 
C 1.75 -0.464105 1.565609 -0.909265 1.237437 -1.237437 
C 0.909265 -1.565609 0.464105 -1.75 0 -1.75 
C -0.464105 -1.75 -0.909265 -1.565609 -1.237437 -1.237437 
C -1.565609 -0.909265 -1.75 -0.464105 -1.75 0 
C -1.75 0.464105 -1.565609 0.909265 -1.237437 1.237437 
C -0.909265 1.565609 -0.464105 1.75 0 1.75 
z
" style="stroke: #1a2b4a"/>
    </defs>
    <g clip-path="url(#pf09a488eb6)">
     <use xlink:href="#m9b4228e7ef" x="356.195079" y="127.524623" style="fill: #1a2b4a; stroke: #1a2b4a"/>
     <use xlink:href="#m9b4228e7ef" x="466.098247" y="250.736913" style="fill: #1a2b4a; stroke: #1a2b4a"/>
     <use xlink:href="#m9b4228e7ef" x="493.242088" y="369.661851" style="fill: #1a2b4a; stroke: #1a2b4a"/>
     <use xlink:href="#m9b4228e7ef" x="417.186736" y="465.032246" style="fill: #1a2b4a; stroke: #1a2b4a"/>
     <use xlink:href="#m9b4228e7ef" x="325.69925" y="401.707006" style="fill: #1a2b4a; stroke: #1a2b4a"/>
     <use xlink:href="#m9b4228e7ef" x="219.148069" y="369.661851" style="fill: #1a2b4a; stroke: #1a2b4a"/>
     <use xlink:href="#m9b4228e7ef" x="213.32096" y="224.443458" style="fill: #1a2b4a; stroke: #1a2b4a"/>
     <use xlink:href="#m9b4228e7ef" x="356.195079" y="127.524623" style="fill: #1a2b4a; stroke: #1a2b4a"/>
    </g>
   </g>
   <g id="line2d_15">
    <path d="M 356.195079 197.810337 
L 466.098247 250.736913 
L 424.718583 354.021808 
L 417.186736 465.032246 
L 356.195079 338.381766 
L 219.148069 369.661851 
L 246.29191 250.736913 
L 356.195079 197.810337 
" clip-path="url(#pf09a488eb6)" style="fill: none; stroke: #3d5a80; stroke-width: 1.8; stroke-linecap: square"/>
    <defs>
     <path id="mb88f399799" d="M 0 1.75 
C 0.464105 1.75 0.909265 1.565609 1.237437 1.237437 
C 1.565609 0.909265 1.75 0.464105 1.75 0 
C 1.75 -0.464105 1.565609 -0.909265 1.237437 -1.237437 
C 0.909265 -1.565609 0.464105 -1.75 0 -1.75 
C -0.464105 -1.75 -0.909265 -1.565609 -1.237437 -1.237437 
C -1.565609 -0.909265 -1.75 -0.464105 -1.75 0 
C -1.75 0.464105 -1.565609 0.909265 -1.237437 1.237437 
C -0.909265 1.565609 -0.464105 1.75 0 1.75 
z
" style="stroke: #3d5a80"/>
    </defs>
    <g clip-path="url(#pf09a488eb6)">
     <use xlink:href="#mb88f399799" x="356.195079" y="197.810337" style="fill: #3d5a80; stroke: #3d5a80"/>
     <use xlink:href="#mb88f399799" x="466.098247" y="250.736913" style="fill: #3d5a80; stroke: #3d5a80"/>
     <use xlink:href="#mb88f399799" x="424.718583" y="354.021808" style="fill: #3d5a80; stroke: #3d5a80"/>
     <use xlink:href="#mb88f399799" x="417.186736" y="465.032246" style="fill: #3d5a80; stroke: #3d5a80"/>
     <use xlink:href="#mb88f399799" x="356.195079" y="338.381766" style="fill: #3d5a80; stroke: #3d5a80"/>
     <use xlink:href="#mb88f399799" x="219.148069" y="369.661851" style="fill: #3d5a80; stroke: #3d5a80"/>
     <use xlink:href="#mb88f399799" x="246.29191" y="250.736913" style="fill: #3d5a80; stroke: #3d5a80"/>
     <use xlink:href="#mb88f399799" x="356.195079" y="197.810337" style="fill: #3d5a80; stroke: #3d5a80"/>
    </g>
   </g>
   <g id="line2d_16">
    <path d="M 356.195079 127.524623 
L 411.146663 294.55934 
L 493.242088 369.661851 
L 417.186736 465.032246 
L 325.69925 401.707006 
L 287.671574 354.021808 
L 246.29191 250.736913 
L 356.195079 127.524623 
" clip-path="url(#pf09a488eb6)" style="fill: none; stroke: #98c1d9; stroke-width: 1.8; stroke-linecap: square"/>
    <defs>
     <path id="m3a022f6221" d="M 0 1.75 
C 0.464105 1.75 0.909265 1.565609 1.237437 1.237437 
C 1.565609 0.909265 1.75 0.464105 1.75 0 
C 1.75 -0.464105 1.565609 -0.909265 1.237437 -1.237437 
C 0.909265 -1.565609 0.464105 -1.75 0 -1.75 
C -0.464105 -1.75 -0.909265 -1.565609 -1.237437 -1.237437 
C -1.565609 -0.909265 -1.75 -0.464105 -1.75 0 
C -1.75 0.464105 -1.565609 0.909265 -1.237437 1.237437 
C -0.909265 1.565609 -0.464105 1.75 0 1.75 
z
" style="stroke: #98c1d9"/>
    </defs>
    <g clip-path="url(#pf09a488eb6)">
     <use xlink:href="#m3a022f6221" x="356.195079" y="127.524623" style="fill: #98c1d9; stroke: #98c1d9"/>
     <use xlink:href="#m3a022f6221" x="411.146663" y="294.55934" style="fill: #98c1d9; stroke: #98c1d9"/>
     <use xlink:href="#m3a022f6221" x="493.242088" y="369.661851" style="fill: #98c1d9; stroke: #98c1d9"/>
     <use xlink:href="#m3a022f6221" x="417.186736" y="465.032246" style="fill: #98c1d9; stroke: #98c1d9"/>
     <use xlink:href="#m3a022f6221" x="325.69925" y="401.707006" style="fill: #98c1d9; stroke: #98c1d9"/>
     <use xlink:href="#m3a022f6221" x="287.671574" y="354.021808" style="fill: #98c1d9; stroke: #98c1d9"/>
     <use xlink:href="#m3a022f6221" x="246.29191" y="250.736913" style="fill: #98c1d9; stroke: #98c1d9"/>
     <use xlink:href="#m3a022f6221" x="356.195079" y="127.524623" style="fill: #98c1d9; stroke: #98c1d9"/>
    </g>
   </g>
   <g id="line2d_17">
    <path d="M 356.195079 57.238908 
L 521.049831 206.914487 
L 493.242088 369.661851 
L 386.690907 401.707006 
L 356.195079 338.381766 
L 82.10106 400.941937 
L 213.32096 224.443458 
L 356.195079 57.238908 
" clip-path="url(#pf09a488eb6)" style="fill: none; stroke: #1a7a3a; stroke-width: 1.8; stroke-linecap: square"/>
    <defs>
     <path id="m9b27554d7e" d="M 0 1.75 
C 0.464105 1.75 0.909265 1.565609 1.237437 1.237437 
C 1.565609 0.909265 1.75 0.464105 1.75 0 
C 1.75 -0.464105 1.565609 -0.909265 1.237437 -1.237437 
C 0.909265 -1.565609 0.464105 -1.75 0 -1.75 
C -0.464105 -1.75 -0.909265 -1.565609 -1.237437 -1.237437 
C -1.565609 -0.909265 -1.75 -0.464105 -1.75 0 
C -1.75 0.464105 -1.565609 0.909265 -1.237437 1.237437 
C -0.909265 1.565609 -0.464105 1.75 0 1.75 
z
" style="stroke: #1a7a3a"/>
    </defs>
    <g clip-path="url(#pf09a488eb6)">
     <use xlink:href="#m9b27554d7e" x="356.195079" y="57.238908" style="fill: #1a7a3a; stroke: #1a7a3a"/>
     <use xlink:href="#m9b27554d7e" x="521.049831" y="206.914487" style="fill: #1a7a3a; stroke: #1a7a3a"/>
     <use xlink:href="#m9b27554d7e" x="493.242088" y="369.661851" style="fill: #1a7a3a; stroke: #1a7a3a"/>
     <use xlink:href="#m9b27554d7e" x="386.690907" y="401.707006" style="fill: #1a7a3a; stroke: #1a7a3a"/>
     <use xlink:href="#m9b27554d7e" x="356.195079" y="338.381766" style="fill: #1a7a3a; stroke: #1a7a3a"/>
     <use xlink:href="#m9b27554d7e" x="82.10106" y="400.941937" style="fill: #1a7a3a; stroke: #1a7a3a"/>
     <use xlink:href="#m9b27554d7e" x="213.32096" y="224.443458" style="fill: #1a7a3a; stroke: #1a7a3a"/>
     <use xlink:href="#m9b27554d7e" x="356.195079" y="57.238908" style="fill: #1a7a3a; stroke: #1a7a3a"/>
    </g>
   </g>
   <g id="line2d_18">
    <path d="M 356.195079 85.353194 
L 554.020782 180.621032 
L 602.879695 394.68592 
L 465.980061 566.352631 
L 246.410096 566.352631 
L 109.510462 394.68592 
L 158.369375 180.621032 
L 356.195079 85.353194 
" clip-path="url(#pf09a488eb6)" style="fill: none; stroke-dasharray: 7.4,3.2; stroke-dashoffset: 0; stroke: #e09080; stroke-width: 2"/>
   </g>
  </g>
  <g id="text_13">
   <!-- Kaminski (2025) — Cap. 7 §7.8.1 -->
   <g style="fill: #888888" transform="translate(623.724297 728.910047) scale(0.09 -0.09)">
    <defs>
     <path id="DejaVuSans-Oblique-4b" d="M 1081 4666 
L 1716 4666 
L 1331 2700 
L 3781 4666 
L 4622 4666 
L 1850 2438 
L 3878 0 
L 3109 0 
L 1247 2272 
L 806 0 
L 172 0 
L 1081 4666 
z
" transform="scale(0.015625)"/>
     <path id="DejaVuSans-Oblique-61" d="M 3438 1997 
L 3047 0 
L 2472 0 
L 2578 531 
Q 2325 219 2001 64 
Q 1678 -91 1281 -91 
Q 834 -91 548 182 
Q 263 456 263 884 
Q 263 1497 752 1853 
Q 1241 2209 2100 2209 
L 2900 2209 
L 2931 2363 
Q 2938 2388 2941 2417 
Q 2944 2447 2944 2509 
Q 2944 2788 2717 2942 
Q 2491 3097 2081 3097 
Q 1800 3097 1504 3025 
Q 1209 2953 897 2809 
L 997 3341 
Q 1322 3463 1633 3523 
Q 1944 3584 2234 3584 
Q 2853 3584 3176 3315 
Q 3500 3047 3500 2534 
Q 3500 2431 3484 2292 
Q 3469 2153 3438 1997 
z
M 2816 1759 
L 2241 1759 
Q 1534 1759 1195 1570 
Q 856 1381 856 984 
Q 856 709 1029 553 
Q 1203 397 1509 397 
Q 1978 397 2328 733 
Q 2678 1069 2791 1631 
L 2816 1759 
z
" transform="scale(0.015625)"/>
     <path id="DejaVuSans-Oblique-6d" d="M 5747 2113 
L 5338 0 
L 4763 0 
L 5166 2094 
Q 5191 2228 5203 2325 
Q 5216 2422 5216 2491 
Q 5216 2772 5059 2928 
Q 4903 3084 4622 3084 
Q 4203 3084 3875 2770 
Q 3547 2456 3450 1953 
L 3066 0 
L 2491 0 
L 2900 2094 
Q 2925 2209 2937 2307 
Q 2950 2406 2950 2484 
Q 2950 2769 2794 2926 
Q 2638 3084 2363 3084 
Q 1938 3084 1609 2770 
Q 1281 2456 1184 1953 
L 800 0 
L 225 0 
L 909 3500 
L 1484 3500 
L 1375 2956 
Q 1609 3263 1923 3423 
Q 2238 3584 2597 3584 
Q 2978 3584 3223 3384 
Q 3469 3184 3519 2828 
Q 3781 3197 4126 3390 
Q 4472 3584 4856 3584 
Q 5306 3584 5551 3325 
Q 5797 3066 5797 2591 
Q 5797 2488 5784 2364 
Q 5772 2241 5747 2113 
z
" transform="scale(0.015625)"/>
     <path id="DejaVuSans-Oblique-69" d="M 1172 4863 
L 1747 4863 
L 1606 4134 
L 1031 4134 
L 1172 4863 
z
M 909 3500 
L 1484 3500 
L 800 0 
L 225 0 
L 909 3500 
z
" transform="scale(0.015625)"/>
     <path id="DejaVuSans-Oblique-6e" d="M 3566 2113 
L 3156 0 
L 2578 0 
L 2988 2091 
Q 3016 2238 3031 2350 
Q 3047 2463 3047 2528 
Q 3047 2791 2881 2937 
Q 2716 3084 2419 3084 
Q 1956 3084 1622 2776 
Q 1288 2469 1184 1941 
L 800 0 
L 225 0 
L 903 3500 
L 1478 3500 
L 1363 2950 
Q 1603 3253 1940 3418 
Q 2278 3584 2650 3584 
Q 3113 3584 3367 3334 
Q 3622 3084 3622 2631 
Q 3622 2519 3608 2391 
Q 3594 2263 3566 2113 
z
" transform="scale(0.015625)"/>
     <path id="DejaVuSans-Oblique-73" d="M 3200 3397 
L 3091 2853 
Q 2863 2978 2609 3040 
Q 2356 3103 2088 3103 
Q 1634 3103 1373 2948 
Q 1113 2794 1113 2528 
Q 1113 2219 1719 2053 
Q 1766 2041 1788 2034 
L 1972 1978 
Q 2547 1819 2739 1644 
Q 2931 1469 2931 1166 
Q 2931 609 2489 259 
Q 2047 -91 1331 -91 
Q 1053 -91 747 -37 
Q 441 16 72 128 
L 184 722 
Q 500 559 806 475 
Q 1113 391 1394 391 
Q 1816 391 2080 572 
Q 2344 753 2344 1031 
Q 2344 1331 1650 1516 
L 1591 1531 
L 1394 1581 
Q 956 1697 753 1886 
Q 550 2075 550 2369 
Q 550 2928 970 3256 
Q 1391 3584 2113 3584 
Q 2397 3584 2667 3537 
Q 2938 3491 3200 3397 
z
" transform="scale(0.015625)"/>
     <path id="DejaVuSans-Oblique-6b" d="M 1172 4863 
L 1747 4863 
L 1197 2028 
L 3169 3500 
L 3916 3500 
L 1716 1825 
L 3322 0 
L 2625 0 
L 1131 1709 
L 800 0 
L 225 0 
L 1172 4863 
z
" transform="scale(0.015625)"/>
     <path id="DejaVuSans-Oblique-20" transform="scale(0.015625)"/>
     <path id="DejaVuSans-Oblique-28" d="M 2731 4856 
Q 1903 3822 1495 2892 
Q 1088 1963 1088 1100 
Q 1088 606 1206 120 
Q 1325 -366 1563 -844 
L 1063 -844 
Q 775 -306 634 201 
Q 494 709 494 1197 
Q 494 2125 923 3036 
Q 1353 3947 2222 4856 
L 2731 4856 
z
" transform="scale(0.015625)"/>
     <path id="DejaVuSans-Oblique-32" d="M 2950 2253 
L 934 525 
L 3163 525 
L 3053 0 
L 25 0 
L 128 531 
L 2234 2338 
Q 2656 2703 2832 2979 
Q 3009 3256 3009 3547 
Q 3009 3850 2796 4040 
Q 2584 4231 2241 4231 
Q 1944 4231 1581 4125 
Q 1219 4019 806 3816 
L 922 4441 
Q 1309 4594 1662 4672 
Q 2016 4750 2316 4750 
Q 2928 4750 3301 4425 
Q 3675 4100 3675 3572 
Q 3675 3216 3497 2892 
Q 3319 2569 2950 2253 
z
" transform="scale(0.015625)"/>
     <path id="DejaVuSans-Oblique-30" d="M 2444 4750 
Q 3078 4750 3414 4328 
Q 3750 3906 3750 3116 
Q 3750 2516 3592 1923 
Q 3434 1331 3150 863 
Q 2859 394 2467 151 
Q 2075 -91 1600 -91 
Q 988 -91 653 334 
Q 319 759 319 1544 
Q 319 2138 480 2733 
Q 641 3328 928 3794 
Q 1216 4263 1602 4506 
Q 1988 4750 2444 4750 
z
M 2406 4250 
Q 2169 4250 1955 4123 
Q 1741 3997 1569 3750 
Q 1281 3338 1111 2720 
Q 941 2103 941 1453 
Q 941 938 1123 673 
Q 1306 409 1663 409 
Q 1913 409 2125 536 
Q 2338 663 2509 909 
Q 2794 1319 2961 1936 
Q 3128 2553 3128 3206 
Q 3128 3722 2945 3986 
Q 2763 4250 2406 4250 
z
" transform="scale(0.015625)"/>
     <path id="DejaVuSans-Oblique-35" d="M 3719 4666 
L 3622 4141 
L 1691 4141 
L 1466 2988 
Q 1609 3034 1757 3056 
Q 1906 3078 2059 3078 
Q 2706 3078 3081 2731 
Q 3456 2384 3456 1791 
Q 3456 1375 3264 994 
Q 3072 613 2719 325 
Q 2469 125 2108 17 
Q 1747 -91 1319 -91 
Q 1038 -91 744 -41 
Q 450 9 128 109 
L 244 697 
Q 531 556 820 486 
Q 1109 416 1403 416 
Q 2013 416 2411 781 
Q 2809 1147 2809 1697 
Q 2809 2103 2548 2328 
Q 2288 2553 1819 2553 
Q 1572 2553 1305 2495 
Q 1038 2438 756 2322 
L 1209 4666 
L 3719 4666 
z
" transform="scale(0.015625)"/>
     <path id="DejaVuSans-Oblique-29" d="M -397 -844 
Q 434 191 840 1120 
Q 1247 2050 1247 2913 
Q 1247 3406 1130 3892 
Q 1013 4378 775 4856 
L 1275 4856 
Q 1563 4316 1703 3812 
Q 1844 3309 1844 2822 
Q 1844 1891 1411 973 
Q 978 56 116 -844 
L -397 -844 
z
" transform="scale(0.015625)"/>
     <path id="DejaVuSans-Oblique-2014" d="M 356 1978 
L 6131 1978 
L 6044 1528 
L 269 1528 
L 356 1978 
z
" transform="scale(0.015625)"/>
     <path id="DejaVuSans-Oblique-43" d="M 4447 4306 
L 4319 3641 
Q 4019 3944 3683 4091 
Q 3347 4238 2956 4238 
Q 2422 4238 2017 3981 
Q 1613 3725 1319 3200 
Q 1131 2863 1032 2486 
Q 934 2109 934 1728 
Q 934 1091 1264 756 
Q 1594 422 2222 422 
Q 2656 422 3056 561 
Q 3456 700 3834 978 
L 3688 231 
Q 3316 72 2936 -9 
Q 2556 -91 2175 -91 
Q 1278 -91 773 396 
Q 269 884 269 1753 
Q 269 2309 461 2846 
Q 653 3384 1013 3828 
Q 1394 4300 1883 4525 
Q 2372 4750 3022 4750 
Q 3422 4750 3780 4639 
Q 4138 4528 4447 4306 
z
" transform="scale(0.015625)"/>
     <path id="DejaVuSans-Oblique-70" d="M 3175 2156 
Q 3175 2616 2975 2859 
Q 2775 3103 2400 3103 
Q 2144 3103 1911 2972 
Q 1678 2841 1497 2591 
Q 1319 2344 1212 1994 
Q 1106 1644 1106 1300 
Q 1106 863 1306 627 
Q 1506 391 1875 391 
Q 2147 391 2380 519 
Q 2613 647 2778 891 
Q 2956 1147 3065 1494 
Q 3175 1841 3175 2156 
z
M 1394 2969 
Q 1625 3272 1939 3428 
Q 2253 3584 2638 3584 
Q 3175 3584 3472 3232 
Q 3769 2881 3769 2247 
Q 3769 1728 3584 1258 
Q 3400 788 3053 416 
Q 2822 169 2531 39 
Q 2241 -91 1919 -91 
Q 1547 -91 1294 64 
Q 1041 219 916 525 
L 556 -1331 
L -19 -1331 
L 922 3500 
L 1497 3500 
L 1394 2969 
z
" transform="scale(0.015625)"/>
     <path id="DejaVuSans-Oblique-2e" d="M 525 794 
L 1184 794 
L 1031 0 
L 372 0 
L 525 794 
z
" transform="scale(0.015625)"/>
     <path id="DejaVuSans-Oblique-37" d="M 819 4666 
L 4013 4666 
L 3956 4397 
L 1288 0 
L 594 0 
L 3116 4134 
L 716 4134 
L 819 4666 
z
" transform="scale(0.015625)"/>
     <path id="DejaVuSans-Oblique-a7" d="M 1881 1281 
Q 2138 1434 2272 1607 
Q 2406 1781 2406 1959 
Q 2406 2128 2239 2304 
Q 2072 2481 1625 2766 
L 1375 2925 
Q 1122 2766 989 2591 
Q 856 2416 856 2241 
Q 856 2084 989 1932 
Q 1122 1781 1516 1522 
L 1881 1281 
z
M 3103 4569 
L 3003 4056 
Q 2778 4178 2564 4239 
Q 2350 4300 2169 4300 
Q 1847 4300 1640 4148 
Q 1434 3997 1434 3769 
Q 1434 3522 1856 3241 
Q 1950 3178 2003 3144 
L 2278 2956 
Q 2659 2691 2792 2508 
Q 2925 2325 2925 2106 
Q 2925 1791 2719 1509 
Q 2513 1228 2156 1063 
Q 2284 953 2348 812 
Q 2413 672 2413 500 
Q 2413 9 2033 -300 
Q 1653 -609 1031 -609 
Q 816 -609 575 -564 
Q 334 -519 78 -428 
L 178 84 
Q 416 -34 641 -96 
Q 866 -159 1050 -159 
Q 1400 -159 1609 -10 
Q 1819 138 1819 384 
Q 1819 691 1256 1069 
L 1209 1100 
L 972 1259 
Q 588 1522 459 1698 
Q 331 1875 331 2106 
Q 331 2406 531 2676 
Q 731 2947 1100 3144 
Q 966 3263 905 3389 
Q 844 3516 844 3675 
Q 844 4134 1223 4442 
Q 1603 4750 2188 4750 
Q 2409 4750 2636 4704 
Q 2863 4659 3103 4569 
z
" transform="scale(0.015625)"/>
     <path id="DejaVuSans-Oblique-38" d="M 2847 1416 
Q 2847 1769 2600 1992 
Q 2353 2216 1953 2216 
Q 1466 2216 1148 1923 
Q 831 1631 831 1184 
Q 831 828 1073 618 
Q 1316 409 1728 409 
Q 2219 409 2533 693 
Q 2847 978 2847 1416 
z
M 3169 3591 
Q 3169 3888 2950 4069 
Q 2731 4250 2369 4250 
Q 1941 4250 1664 4009 
Q 1388 3769 1388 3406 
Q 1388 3094 1605 2903 
Q 1822 2713 2181 2713 
Q 2613 2713 2891 2961 
Q 3169 3209 3169 3591 
z
M 2741 2456 
Q 3094 2322 3281 2050 
Q 3469 1778 3469 1394 
Q 3469 747 2969 328 
Q 2469 -91 1678 -91 
Q 1006 -91 609 239 
Q 213 569 213 1119 
Q 213 1619 553 2008 
Q 894 2397 1441 2503 
Q 1113 2616 941 2852 
Q 769 3088 769 3425 
Q 769 3991 1239 4370 
Q 1709 4750 2431 4750 
Q 3034 4750 3414 4442 
Q 3794 4134 3794 3659 
Q 3794 3247 3511 2923 
Q 3228 2600 2741 2456 
z
" transform="scale(0.015625)"/>
     <path id="DejaVuSans-Oblique-31" d="M 416 531 
L 1447 531 
L 2144 4122 
L 978 3897 
L 1088 4441 
L 2247 4666 
L 2881 4666 
L 2075 531 
L 3103 531 
L 3003 0 
L 313 0 
L 416 531 
z
" transform="scale(0.015625)"/>
    </defs>
    <use xlink:href="#DejaVuSans-Oblique-4b"/>
    <use xlink:href="#DejaVuSans-Oblique-61" transform="translate(61.951172 0)"/>
    <use xlink:href="#DejaVuSans-Oblique-6d" transform="translate(123.230469 0)"/>
    <use xlink:href="#DejaVuSans-Oblique-69" transform="translate(220.642578 0)"/>
    <use xlink:href="#DejaVuSans-Oblique-6e" transform="translate(248.425781 0)"/>
    <use xlink:href="#DejaVuSans-Oblique-73" transform="translate(311.804688 0)"/>
    <use xlink:href="#DejaVuSans-Oblique-6b" transform="translate(363.904297 0)"/>
    <use xlink:href="#DejaVuSans-Oblique-69" transform="translate(421.814453 0)"/>
    <use xlink:href="#DejaVuSans-Oblique-20" transform="translate(449.597656 0)"/>
    <use xlink:href="#DejaVuSans-Oblique-28" transform="translate(481.384766 0)"/>
    <use xlink:href="#DejaVuSans-Oblique-32" transform="translate(520.398438 0)"/>
    <use xlink:href="#DejaVuSans-Oblique-30" transform="translate(584.021484 0)"/>
    <use xlink:href="#DejaVuSans-Oblique-32" transform="translate(647.644531 0)"/>
    <use xlink:href="#DejaVuSans-Oblique-35" transform="translate(711.267578 0)"/>
    <use xlink:href="#DejaVuSans-Oblique-29" transform="translate(774.890625 0)"/>
    <use xlink:href="#DejaVuSans-Oblique-20" transform="translate(813.904297 0)"/>
    <use xlink:href="#DejaVuSans-Oblique-2014" transform="translate(845.691406 0)"/>
    <use xlink:href="#DejaVuSans-Oblique-20" transform="translate(945.691406 0)"/>
    <use xlink:href="#DejaVuSans-Oblique-43" transform="translate(977.478516 0)"/>
    <use xlink:href="#DejaVuSans-Oblique-61" transform="translate(1047.302734 0)"/>
    <use xlink:href="#DejaVuSans-Oblique-70" transform="translate(1108.582031 0)"/>
    <use xlink:href="#DejaVuSans-Oblique-2e" transform="translate(1172.058594 0)"/>
    <use xlink:href="#DejaVuSans-Oblique-20" transform="translate(1203.845703 0)"/>
    <use xlink:href="#DejaVuSans-Oblique-37" transform="translate(1235.632812 0)"/>
    <use xlink:href="#DejaVuSans-Oblique-20" transform="translate(1299.255859 0)"/>
    <use xlink:href="#DejaVuSans-Oblique-a7" transform="translate(1331.042969 0)"/>
    <use xlink:href="#DejaVuSans-Oblique-37" transform="translate(1381.042969 0)"/>
    <use xlink:href="#DejaVuSans-Oblique-2e" transform="translate(1444.666016 0)"/>
    <use xlink:href="#DejaVuSans-Oblique-38" transform="translate(1476.453125 0)"/>
    <use xlink:href="#DejaVuSans-Oblique-2e" transform="translate(1540.076172 0)"/>
    <use xlink:href="#DejaVuSans-Oblique-31" transform="translate(1571.863281 0)"/>
   </g>
  </g>
  <g id="legend_1">
   <g id="patch_9">
    <path d="M 172.618516 736.581766 
L 539.771641 736.581766 
Q 541.771641 736.581766 541.771641 734.581766 
L 541.771641 706.206766 
Q 541.771641 704.206766 539.771641 704.206766 
L 172.618516 704.206766 
Q 170.618516 704.206766 170.618516 706.206766 
L 170.618516 734.581766 
Q 170.618516 736.581766 172.618516 736.581766 
z
" style="fill: #ffffff; opacity: 0.8; stroke: #dddddd; stroke-linejoin: miter"/>
   </g>
   <g id="line2d_19">
    <path d="M 174.618516 712.323953 
L 184.618516 712.323953 
L 194.618516 712.323953 
" style="fill: none; stroke: #a63929; stroke-width: 3.5; stroke-linecap: square"/>
   </g>
   <g id="text_14">
    <!-- Q-FENG -->
    <g transform="translate(202.618516 715.823953) scale(0.1 -0.1)">
     <defs>
      <path id="DejaVuSans-51" d="M 2522 4238 
Q 1834 4238 1429 3725 
Q 1025 3213 1025 2328 
Q 1025 1447 1429 934 
Q 1834 422 2522 422 
Q 3209 422 3611 934 
Q 4013 1447 4013 2328 
Q 4013 3213 3611 3725 
Q 3209 4238 2522 4238 
z
M 3406 84 
L 4238 -825 
L 3475 -825 
L 2784 -78 
Q 2681 -84 2626 -87 
Q 2572 -91 2522 -91 
Q 1538 -91 948 567 
Q 359 1225 359 2328 
Q 359 3434 948 4092 
Q 1538 4750 2522 4750 
Q 3503 4750 4090 4092 
Q 4678 3434 4678 2328 
Q 4678 1516 4351 937 
Q 4025 359 3406 84 
z
" transform="scale(0.015625)"/>
      <path id="DejaVuSans-2d" d="M 313 2009 
L 1997 2009 
L 1997 1497 
L 313 1497 
L 313 2009 
z
" transform="scale(0.015625)"/>
      <path id="DejaVuSans-46" d="M 628 4666 
L 3309 4666 
L 3309 4134 
L 1259 4134 
L 1259 2759 
L 3109 2759 
L 3109 2228 
L 1259 2228 
L 1259 0 
L 628 0 
L 628 4666 
z
" transform="scale(0.015625)"/>
      <path id="DejaVuSans-45" d="M 628 4666 
L 3578 4666 
L 3578 4134 
L 1259 4134 
L 1259 2753 
L 3481 2753 
L 3481 2222 
L 1259 2222 
L 1259 531 
L 3634 531 
L 3634 0 
L 628 0 
L 628 4666 
z
" transform="scale(0.015625)"/>
      <path id="DejaVuSans-4e" d="M 628 4666 
L 1478 4666 
L 3547 763 
L 3547 4666 
L 4159 4666 
L 4159 0 
L 3309 0 
L 1241 3903 
L 1241 0 
L 628 0 
L 628 4666 
z
" transform="scale(0.015625)"/>
      <path id="DejaVuSans-47" d="M 3809 666 
L 3809 1919 
L 2778 1919 
L 2778 2438 
L 4434 2438 
L 4434 434 
Q 4069 175 3628 42 
Q 3188 -91 2688 -91 
Q 1594 -91 976 548 
Q 359 1188 359 2328 
Q 359 3472 976 4111 
Q 1594 4750 2688 4750 
Q 3144 4750 3555 4637 
Q 3966 4525 4313 4306 
L 4313 3634 
Q 3963 3931 3569 4081 
Q 3175 4231 2741 4231 
Q 1884 4231 1454 3753 
Q 1025 3275 1025 2328 
Q 1025 1384 1454 906 
Q 1884 428 2741 428 
Q 3075 428 3337 486 
Q 3600 544 3809 666 
z
" transform="scale(0.015625)"/>
     </defs>
     <use xlink:href="#DejaVuSans-51"/>
     <use xlink:href="#DejaVuSans-2d" transform="translate(81.460938 0)"/>
     <use xlink:href="#DejaVuSans-46" transform="translate(117.544922 0)"/>
     <use xlink:href="#DejaVuSans-45" transform="translate(175.064453 0)"/>
     <use xlink:href="#DejaVuSans-4e" transform="translate(238.248047 0)"/>
     <use xlink:href="#DejaVuSans-47" transform="translate(313.052734 0)"/>
    </g>
   </g>
   <g id="line2d_20">
    <path d="M 174.618516 727.002078 
L 184.618516 727.002078 
L 194.618516 727.002078 
" style="fill: none; stroke: #1a2b4a; stroke-width: 1.8; stroke-linecap: square"/>
   </g>
   <g id="text_15">
    <!-- Constitutional AI -->
    <g transform="translate(202.618516 730.502078) scale(0.1 -0.1)">
     <defs>
      <path id="DejaVuSans-43" d="M 4122 4306 
L 4122 3641 
Q 3803 3938 3442 4084 
Q 3081 4231 2675 4231 
Q 1875 4231 1450 3742 
Q 1025 3253 1025 2328 
Q 1025 1406 1450 917 
Q 1875 428 2675 428 
Q 3081 428 3442 575 
Q 3803 722 4122 1019 
L 4122 359 
Q 3791 134 3420 21 
Q 3050 -91 2638 -91 
Q 1578 -91 968 557 
Q 359 1206 359 2328 
Q 359 3453 968 4101 
Q 1578 4750 2638 4750 
Q 3056 4750 3426 4639 
Q 3797 4528 4122 4306 
z
" transform="scale(0.015625)"/>
      <path id="DejaVuSans-6f" d="M 1959 3097 
Q 1497 3097 1228 2736 
Q 959 2375 959 1747 
Q 959 1119 1226 758 
Q 1494 397 1959 397 
Q 2419 397 2687 759 
Q 2956 1122 2956 1747 
Q 2956 2369 2687 2733 
Q 2419 3097 1959 3097 
z
M 1959 3584 
Q 2709 3584 3137 3096 
Q 3566 2609 3566 1747 
Q 3566 888 3137 398 
Q 2709 -91 1959 -91 
Q 1206 -91 779 398 
Q 353 888 353 1747 
Q 353 2609 779 3096 
Q 1206 3584 1959 3584 
z
" transform="scale(0.015625)"/>
      <path id="DejaVuSans-6e" d="M 3513 2113 
L 3513 0 
L 2938 0 
L 2938 2094 
Q 2938 2591 2744 2837 
Q 2550 3084 2163 3084 
Q 1697 3084 1428 2787 
Q 1159 2491 1159 1978 
L 1159 0 
L 581 0 
L 581 3500 
L 1159 3500 
L 1159 2956 
Q 1366 3272 1645 3428 
Q 1925 3584 2291 3584 
Q 2894 3584 3203 3211 
Q 3513 2838 3513 2113 
z
" transform="scale(0.015625)"/>
      <path id="DejaVuSans-73" d="M 2834 3397 
L 2834 2853 
Q 2591 2978 2328 3040 
Q 2066 3103 1784 3103 
Q 1356 3103 1142 2972 
Q 928 2841 928 2578 
Q 928 2378 1081 2264 
Q 1234 2150 1697 2047 
L 1894 2003 
Q 2506 1872 2764 1633 
Q 3022 1394 3022 966 
Q 3022 478 2636 193 
Q 2250 -91 1575 -91 
Q 1294 -91 989 -36 
Q 684 19 347 128 
L 347 722 
Q 666 556 975 473 
Q 1284 391 1588 391 
Q 1994 391 2212 530 
Q 2431 669 2431 922 
Q 2431 1156 2273 1281 
Q 2116 1406 1581 1522 
L 1381 1569 
Q 847 1681 609 1914 
Q 372 2147 372 2553 
Q 372 3047 722 3315 
Q 1072 3584 1716 3584 
Q 2034 3584 2315 3537 
Q 2597 3491 2834 3397 
z
" transform="scale(0.015625)"/>
      <path id="DejaVuSans-74" d="M 1172 4494 
L 1172 3500 
L 2356 3500 
L 2356 3053 
L 1172 3053 
L 1172 1153 
Q 1172 725 1289 603 
Q 1406 481 1766 481 
L 2356 481 
L 2356 0 
L 1766 0 
Q 1100 0 847 248 
Q 594 497 594 1153 
L 594 3053 
L 172 3053 
L 172 3500 
L 594 3500 
L 594 4494 
L 1172 4494 
z
" transform="scale(0.015625)"/>
      <path id="DejaVuSans-69" d="M 603 3500 
L 1178 3500 
L 1178 0 
L 603 0 
L 603 3500 
z
M 603 4863 
L 1178 4863 
L 1178 4134 
L 603 4134 
L 603 4863 
z
" transform="scale(0.015625)"/>
      <path id="DejaVuSans-75" d="M 544 1381 
L 544 3500 
L 1119 3500 
L 1119 1403 
Q 1119 906 1312 657 
Q 1506 409 1894 409 
Q 2359 409 2629 706 
Q 2900 1003 2900 1516 
L 2900 3500 
L 3475 3500 
L 3475 0 
L 2900 0 
L 2900 538 
Q 2691 219 2414 64 
Q 2138 -91 1772 -91 
Q 1169 -91 856 284 
Q 544 659 544 1381 
z
M 1991 3584 
L 1991 3584 
z
" transform="scale(0.015625)"/>
      <path id="DejaVuSans-61" d="M 2194 1759 
Q 1497 1759 1228 1600 
Q 959 1441 959 1056 
Q 959 750 1161 570 
Q 1363 391 1709 391 
Q 2188 391 2477 730 
Q 2766 1069 2766 1631 
L 2766 1759 
L 2194 1759 
z
M 3341 1997 
L 3341 0 
L 2766 0 
L 2766 531 
Q 2569 213 2275 61 
Q 1981 -91 1556 -91 
Q 1019 -91 701 211 
Q 384 513 384 1019 
Q 384 1609 779 1909 
Q 1175 2209 1959 2209 
L 2766 2209 
L 2766 2266 
Q 2766 2663 2505 2880 
Q 2244 3097 1772 3097 
Q 1472 3097 1187 3025 
Q 903 2953 641 2809 
L 641 3341 
Q 956 3463 1253 3523 
Q 1550 3584 1831 3584 
Q 2591 3584 2966 3190 
Q 3341 2797 3341 1997 
z
" transform="scale(0.015625)"/>
      <path id="DejaVuSans-6c" d="M 603 4863 
L 1178 4863 
L 1178 0 
L 603 0 
L 603 4863 
z
" transform="scale(0.015625)"/>
      <path id="DejaVuSans-20" transform="scale(0.015625)"/>
      <path id="DejaVuSans-41" d="M 2188 4044 
L 1331 1722 
L 3047 1722 
L 2188 4044 
z
M 1831 4666 
L 2547 4666 
L 4325 0 
L 3669 0 
L 3244 1197 
L 1141 1197 
L 716 0 
L 50 0 
L 1831 4666 
z
" transform="scale(0.015625)"/>
      <path id="DejaVuSans-49" d="M 628 4666 
L 1259 4666 
L 1259 0 
L 628 0 
L 628 4666 
z
" transform="scale(0.015625)"/>
     </defs>
     <use xlink:href="#DejaVuSans-43"/>
     <use xlink:href="#DejaVuSans-6f" transform="translate(69.824219 0)"/>
     <use xlink:href="#DejaVuSans-6e" transform="translate(131.005859 0)"/>
     <use xlink:href="#DejaVuSans-73" transform="translate(194.384766 0)"/>
     <use xlink:href="#DejaVuSans-74" transform="translate(246.484375 0)"/>
     <use xlink:href="#DejaVuSans-69" transform="translate(285.693359 0)"/>
     <use xlink:href="#DejaVuSans-74" transform="translate(313.476562 0)"/>
     <use xlink:href="#DejaVuSans-75" transform="translate(352.685547 0)"/>
     <use xlink:href="#DejaVuSans-74" transform="translate(416.064453 0)"/>
     <use xlink:href="#DejaVuSans-69" transform="translate(455.273438 0)"/>
     <use xlink:href="#DejaVuSans-6f" transform="translate(483.056641 0)"/>
     <use xlink:href="#DejaVuSans-6e" transform="translate(544.238281 0)"/>
     <use xlink:href="#DejaVuSans-61" transform="translate(607.617188 0)"/>
     <use xlink:href="#DejaVuSans-6c" transform="translate(668.896484 0)"/>
     <use xlink:href="#DejaVuSans-20" transform="translate(696.679688 0)"/>
     <use xlink:href="#DejaVuSans-41" transform="translate(728.466797 0)"/>
     <use xlink:href="#DejaVuSans-49" transform="translate(796.875 0)"/>
    </g>
   </g>
   <g id="line2d_21">
    <path d="M 305.252891 712.323953 
L 315.252891 712.323953 
L 325.252891 712.323953 
" style="fill: none; stroke: #3d5a80; stroke-width: 1.8; stroke-linecap: square"/>
   </g>
   <g id="text_16">
    <!-- Guardrails AI -->
    <g transform="translate(333.252891 715.823953) scale(0.1 -0.1)">
     <defs>
      <path id="DejaVuSans-72" d="M 2631 2963 
Q 2534 3019 2420 3045 
Q 2306 3072 2169 3072 
Q 1681 3072 1420 2755 
Q 1159 2438 1159 1844 
L 1159 0 
L 581 0 
L 581 3500 
L 1159 3500 
L 1159 2956 
Q 1341 3275 1631 3429 
Q 1922 3584 2338 3584 
Q 2397 3584 2469 3576 
Q 2541 3569 2628 3553 
L 2631 2963 
z
" transform="scale(0.015625)"/>
      <path id="DejaVuSans-64" d="M 2906 2969 
L 2906 4863 
L 3481 4863 
L 3481 0 
L 2906 0 
L 2906 525 
Q 2725 213 2448 61 
Q 2172 -91 1784 -91 
Q 1150 -91 751 415 
Q 353 922 353 1747 
Q 353 2572 751 3078 
Q 1150 3584 1784 3584 
Q 2172 3584 2448 3432 
Q 2725 3281 2906 2969 
z
M 947 1747 
Q 947 1113 1208 752 
Q 1469 391 1925 391 
Q 2381 391 2643 752 
Q 2906 1113 2906 1747 
Q 2906 2381 2643 2742 
Q 2381 3103 1925 3103 
Q 1469 3103 1208 2742 
Q 947 2381 947 1747 
z
" transform="scale(0.015625)"/>
     </defs>
     <use xlink:href="#DejaVuSans-47"/>
     <use xlink:href="#DejaVuSans-75" transform="translate(77.490234 0)"/>
     <use xlink:href="#DejaVuSans-61" transform="translate(140.869141 0)"/>
     <use xlink:href="#DejaVuSans-72" transform="translate(202.148438 0)"/>
     <use xlink:href="#DejaVuSans-64" transform="translate(241.511719 0)"/>
     <use xlink:href="#DejaVuSans-72" transform="translate(304.988281 0)"/>
     <use xlink:href="#DejaVuSans-61" transform="translate(346.101562 0)"/>
     <use xlink:href="#DejaVuSans-69" transform="translate(407.380859 0)"/>
     <use xlink:href="#DejaVuSans-6c" transform="translate(435.164062 0)"/>
     <use xlink:href="#DejaVuSans-73" transform="translate(462.947266 0)"/>
     <use xlink:href="#DejaVuSans-20" transform="translate(515.046875 0)"/>
     <use xlink:href="#DejaVuSans-41" transform="translate(546.833984 0)"/>
     <use xlink:href="#DejaVuSans-49" transform="translate(615.242188 0)"/>
    </g>
   </g>
   <g id="line2d_22">
    <path d="M 305.252891 727.002078 
L 315.252891 727.002078 
L 325.252891 727.002078 
" style="fill: none; stroke: #98c1d9; stroke-width: 1.8; stroke-linecap: square"/>
   </g>
   <g id="text_17">
    <!-- RLHF/RLAIF -->
    <g transform="translate(333.252891 730.502078) scale(0.1 -0.1)">
     <defs>
      <path id="DejaVuSans-52" d="M 2841 2188 
Q 3044 2119 3236 1894 
Q 3428 1669 3622 1275 
L 4263 0 
L 3584 0 
L 2988 1197 
Q 2756 1666 2539 1819 
Q 2322 1972 1947 1972 
L 1259 1972 
L 1259 0 
L 628 0 
L 628 4666 
L 2053 4666 
Q 2853 4666 3247 4331 
Q 3641 3997 3641 3322 
Q 3641 2881 3436 2590 
Q 3231 2300 2841 2188 
z
M 1259 4147 
L 1259 2491 
L 2053 2491 
Q 2509 2491 2742 2702 
Q 2975 2913 2975 3322 
Q 2975 3731 2742 3939 
Q 2509 4147 2053 4147 
L 1259 4147 
z
" transform="scale(0.015625)"/>
      <path id="DejaVuSans-4c" d="M 628 4666 
L 1259 4666 
L 1259 531 
L 3531 531 
L 3531 0 
L 628 0 
L 628 4666 
z
" transform="scale(0.015625)"/>
      <path id="DejaVuSans-48" d="M 628 4666 
L 1259 4666 
L 1259 2753 
L 3553 2753 
L 3553 4666 
L 4184 4666 
L 4184 0 
L 3553 0 
L 3553 2222 
L 1259 2222 
L 1259 0 
L 628 0 
L 628 4666 
z
" transform="scale(0.015625)"/>
      <path id="DejaVuSans-2f" d="M 1625 4666 
L 2156 4666 
L 531 -594 
L 0 -594 
L 1625 4666 
z
" transform="scale(0.015625)"/>
     </defs>
     <use xlink:href="#DejaVuSans-52"/>
     <use xlink:href="#DejaVuSans-4c" transform="translate(69.482422 0)"/>
     <use xlink:href="#DejaVuSans-48" transform="translate(125.195312 0)"/>
     <use xlink:href="#DejaVuSans-46" transform="translate(200.390625 0)"/>
     <use xlink:href="#DejaVuSans-2f" transform="translate(257.910156 0)"/>
     <use xlink:href="#DejaVuSans-52" transform="translate(291.601562 0)"/>
     <use xlink:href="#DejaVuSans-4c" transform="translate(361.083984 0)"/>
     <use xlink:href="#DejaVuSans-41" transform="translate(419.046875 0)"/>
     <use xlink:href="#DejaVuSans-49" transform="translate(487.455078 0)"/>
     <use xlink:href="#DejaVuSans-46" transform="translate(516.947266 0)"/>
    </g>
   </g>
   <g id="line2d_23">
    <path d="M 417.724766 712.323953 
L 427.724766 712.323953 
L 437.724766 712.323953 
" style="fill: none; stroke: #1a7a3a; stroke-width: 1.8; stroke-linecap: square"/>
   </g>
   <g id="text_18">
    <!-- Verificação Formal -->
    <g transform="translate(445.724766 715.823953) scale(0.1 -0.1)">
     <defs>
      <path id="DejaVuSans-56" d="M 1831 0 
L 50 4666 
L 709 4666 
L 2188 738 
L 3669 4666 
L 4325 4666 
L 2547 0 
L 1831 0 
z
" transform="scale(0.015625)"/>
      <path id="DejaVuSans-65" d="M 3597 1894 
L 3597 1613 
L 953 1613 
Q 991 1019 1311 708 
Q 1631 397 2203 397 
Q 2534 397 2845 478 
Q 3156 559 3463 722 
L 3463 178 
Q 3153 47 2828 -22 
Q 2503 -91 2169 -91 
Q 1331 -91 842 396 
Q 353 884 353 1716 
Q 353 2575 817 3079 
Q 1281 3584 2069 3584 
Q 2775 3584 3186 3129 
Q 3597 2675 3597 1894 
z
M 3022 2063 
Q 3016 2534 2758 2815 
Q 2500 3097 2075 3097 
Q 1594 3097 1305 2825 
Q 1016 2553 972 2059 
L 3022 2063 
z
" transform="scale(0.015625)"/>
      <path id="DejaVuSans-66" d="M 2375 4863 
L 2375 4384 
L 1825 4384 
Q 1516 4384 1395 4259 
Q 1275 4134 1275 3809 
L 1275 3500 
L 2222 3500 
L 2222 3053 
L 1275 3053 
L 1275 0 
L 697 0 
L 697 3053 
L 147 3053 
L 147 3500 
L 697 3500 
L 697 3744 
Q 697 4328 969 4595 
Q 1241 4863 1831 4863 
L 2375 4863 
z
" transform="scale(0.015625)"/>
      <path id="DejaVuSans-63" d="M 3122 3366 
L 3122 2828 
Q 2878 2963 2633 3030 
Q 2388 3097 2138 3097 
Q 1578 3097 1268 2742 
Q 959 2388 959 1747 
Q 959 1106 1268 751 
Q 1578 397 2138 397 
Q 2388 397 2633 464 
Q 2878 531 3122 666 
L 3122 134 
Q 2881 22 2623 -34 
Q 2366 -91 2075 -91 
Q 1284 -91 818 406 
Q 353 903 353 1747 
Q 353 2603 823 3093 
Q 1294 3584 2113 3584 
Q 2378 3584 2631 3529 
Q 2884 3475 3122 3366 
z
" transform="scale(0.015625)"/>
      <path id="DejaVuSans-e7" d="M 3122 3366 
L 3122 2828 
Q 2878 2963 2633 3030 
Q 2388 3097 2138 3097 
Q 1578 3097 1268 2742 
Q 959 2388 959 1747 
Q 959 1106 1268 751 
Q 1578 397 2138 397 
Q 2388 397 2633 464 
Q 2878 531 3122 666 
L 3122 134 
Q 2881 22 2623 -34 
Q 2366 -91 2075 -91 
Q 1284 -91 818 406 
Q 353 903 353 1747 
Q 353 2603 823 3093 
Q 1294 3584 2113 3584 
Q 2378 3584 2631 3529 
Q 2884 3475 3122 3366 
z
M 2311 0 
Q 2482 -194 2566 -358 
Q 2651 -522 2651 -672 
Q 2651 -950 2463 -1092 
Q 2276 -1234 1907 -1234 
Q 1764 -1234 1628 -1215 
Q 1492 -1197 1357 -1159 
L 1357 -750 
Q 1464 -803 1579 -826 
Q 1695 -850 1842 -850 
Q 2026 -850 2120 -775 
Q 2214 -700 2214 -556 
Q 2214 -463 2146 -327 
Q 2079 -191 1939 0 
L 2311 0 
z
" transform="scale(0.015625)"/>
      <path id="DejaVuSans-e3" d="M 2194 1759 
Q 1497 1759 1228 1600 
Q 959 1441 959 1056 
Q 959 750 1161 570 
Q 1363 391 1709 391 
Q 2188 391 2477 730 
Q 2766 1069 2766 1631 
L 2766 1759 
L 2194 1759 
z
M 3341 1997 
L 3341 0 
L 2766 0 
L 2766 531 
Q 2569 213 2275 61 
Q 1981 -91 1556 -91 
Q 1019 -91 701 211 
Q 384 513 384 1019 
Q 384 1609 779 1909 
Q 1175 2209 1959 2209 
L 2766 2209 
L 2766 2266 
Q 2766 2663 2505 2880 
Q 2244 3097 1772 3097 
Q 1472 3097 1187 3025 
Q 903 2953 641 2809 
L 641 3341 
Q 956 3463 1253 3523 
Q 1550 3584 1831 3584 
Q 2591 3584 2966 3190 
Q 3341 2797 3341 1997 
z
M 1844 4281 
L 1665 4453 
Q 1597 4516 1545 4545 
Q 1494 4575 1453 4575 
Q 1334 4575 1278 4461 
Q 1222 4347 1215 4091 
L 825 4091 
Q 831 4513 990 4742 
Q 1150 4972 1434 4972 
Q 1553 4972 1653 4928 
Q 1753 4884 1869 4781 
L 2047 4609 
Q 2115 4547 2167 4517 
Q 2219 4488 2259 4488 
Q 2378 4488 2434 4602 
Q 2490 4716 2497 4972 
L 2887 4972 
Q 2881 4550 2721 4320 
Q 2562 4091 2278 4091 
Q 2159 4091 2059 4134 
Q 1959 4178 1844 4281 
z
" transform="scale(0.015625)"/>
      <path id="DejaVuSans-6d" d="M 3328 2828 
Q 3544 3216 3844 3400 
Q 4144 3584 4550 3584 
Q 5097 3584 5394 3201 
Q 5691 2819 5691 2113 
L 5691 0 
L 5113 0 
L 5113 2094 
Q 5113 2597 4934 2840 
Q 4756 3084 4391 3084 
Q 3944 3084 3684 2787 
Q 3425 2491 3425 1978 
L 3425 0 
L 2847 0 
L 2847 2094 
Q 2847 2600 2669 2842 
Q 2491 3084 2119 3084 
Q 1678 3084 1418 2786 
Q 1159 2488 1159 1978 
L 1159 0 
L 581 0 
L 581 3500 
L 1159 3500 
L 1159 2956 
Q 1356 3278 1631 3431 
Q 1906 3584 2284 3584 
Q 2666 3584 2933 3390 
Q 3200 3197 3328 2828 
z
" transform="scale(0.015625)"/>
     </defs>
     <use xlink:href="#DejaVuSans-56"/>
     <use xlink:href="#DejaVuSans-65" transform="translate(60.658203 0)"/>
     <use xlink:href="#DejaVuSans-72" transform="translate(122.181641 0)"/>
     <use xlink:href="#DejaVuSans-69" transform="translate(163.294922 0)"/>
     <use xlink:href="#DejaVuSans-66" transform="translate(191.078125 0)"/>
     <use xlink:href="#DejaVuSans-69" transform="translate(226.283203 0)"/>
     <use xlink:href="#DejaVuSans-63" transform="translate(254.066406 0)"/>
     <use xlink:href="#DejaVuSans-61" transform="translate(309.046875 0)"/>
     <use xlink:href="#DejaVuSans-e7" transform="translate(370.326172 0)"/>
     <use xlink:href="#DejaVuSans-e3" transform="translate(425.306641 0)"/>
     <use xlink:href="#DejaVuSans-6f" transform="translate(486.585938 0)"/>
     <use xlink:href="#DejaVuSans-20" transform="translate(547.767578 0)"/>
     <use xlink:href="#DejaVuSans-46" transform="translate(579.554688 0)"/>
     <use xlink:href="#DejaVuSans-6f" transform="translate(633.449219 0)"/>
     <use xlink:href="#DejaVuSans-72" transform="translate(694.630859 0)"/>
     <use xlink:href="#DejaVuSans-6d" transform="translate(733.994141 0)"/>
     <use xlink:href="#DejaVuSans-61" transform="translate(831.40625 0)"/>
     <use xlink:href="#DejaVuSans-6c" transform="translate(892.685547 0)"/>
    </g>
   </g>
   <g id="line2d_24">
    <path d="M 417.724766 727.002078 
L 427.724766 727.002078 
L 437.724766 727.002078 
" style="fill: none; stroke-dasharray: 7.4,3.2; stroke-dashoffset: 0; stroke: #e09080; stroke-width: 2"/>
   </g>
   <g id="text_19">
    <!-- Tipo III (limiar) -->
    <g transform="translate(445.724766 730.502078) scale(0.1 -0.1)">
     <defs>
      <path id="DejaVuSans-54" d="M -19 4666 
L 3928 4666 
L 3928 4134 
L 2272 4134 
L 2272 0 
L 1638 0 
L 1638 4134 
L -19 4134 
L -19 4666 
z
" transform="scale(0.015625)"/>
      <path id="DejaVuSans-70" d="M 1159 525 
L 1159 -1331 
L 581 -1331 
L 581 3500 
L 1159 3500 
L 1159 2969 
Q 1341 3281 1617 3432 
Q 1894 3584 2278 3584 
Q 2916 3584 3314 3078 
Q 3713 2572 3713 1747 
Q 3713 922 3314 415 
Q 2916 -91 2278 -91 
Q 1894 -91 1617 61 
Q 1341 213 1159 525 
z
M 3116 1747 
Q 3116 2381 2855 2742 
Q 2594 3103 2138 3103 
Q 1681 3103 1420 2742 
Q 1159 2381 1159 1747 
Q 1159 1113 1420 752 
Q 1681 391 2138 391 
Q 2594 391 2855 752 
Q 3116 1113 3116 1747 
z
" transform="scale(0.015625)"/>
      <path id="DejaVuSans-28" d="M 1984 4856 
Q 1566 4138 1362 3434 
Q 1159 2731 1159 2009 
Q 1159 1288 1364 580 
Q 1569 -128 1984 -844 
L 1484 -844 
Q 1016 -109 783 600 
Q 550 1309 550 2009 
Q 550 2706 781 3412 
Q 1013 4119 1484 4856 
L 1984 4856 
z
" transform="scale(0.015625)"/>
      <path id="DejaVuSans-29" d="M 513 4856 
L 1013 4856 
Q 1481 4119 1714 3412 
Q 1947 2706 1947 2009 
Q 1947 1309 1714 600 
Q 1481 -109 1013 -844 
L 513 -844 
Q 928 -128 1133 580 
Q 1338 1288 1338 2009 
Q 1338 2731 1133 3434 
Q 928 4138 513 4856 
z
" transform="scale(0.015625)"/>
     </defs>
     <use xlink:href="#DejaVuSans-54"/>
     <use xlink:href="#DejaVuSans-69" transform="translate(57.958984 0)"/>
     <use xlink:href="#DejaVuSans-70" transform="translate(85.742188 0)"/>
     <use xlink:href="#DejaVuSans-6f" transform="translate(149.21875 0)"/>
     <use xlink:href="#DejaVuSans-20" transform="translate(210.400391 0)"/>
     <use xlink:href="#DejaVuSans-49" transform="translate(242.1875 0)"/>
     <use xlink:href="#DejaVuSans-49" transform="translate(271.679688 0)"/>
     <use xlink:href="#DejaVuSans-49" transform="translate(301.171875 0)"/>
     <use xlink:href="#DejaVuSans-20" transform="translate(330.664062 0)"/>
     <use xlink:href="#DejaVuSans-28" transform="translate(362.451172 0)"/>
     <use xlink:href="#DejaVuSans-6c" transform="translate(401.464844 0)"/>
     <use xlink:href="#DejaVuSans-69" transform="translate(429.248047 0)"/>
     <use xlink:href="#DejaVuSans-6d" transform="translate(457.03125 0)"/>
     <use xlink:href="#DejaVuSans-69" transform="translate(554.443359 0)"/>
     <use xlink:href="#DejaVuSans-61" transform="translate(582.226562 0)"/>
     <use xlink:href="#DejaVuSans-72" transform="translate(643.505859 0)"/>
     <use xlink:href="#DejaVuSans-29" transform="translate(684.619141 0)"/>
    </g>
   </g>
  </g>
 </g>
 <defs>
  <clipPath id="pf09a488eb6">
   <path d="M 651.395079 338.381766 
C 651.395079 299.616457 643.759158 261.228092 628.924317 225.413616 
C 614.089475 189.599141 592.344213 157.055057 564.933 129.643844 
C 537.521788 102.232631 504.977703 80.487369 469.163228 65.652528 
C 433.348752 50.817686 394.960387 43.181766 356.195079 43.181766 
C 317.42977 43.181766 279.041405 50.817686 243.226929 65.652528 
C 207.412454 80.487369 174.868369 102.232631 147.457157 129.643844 
C 120.045944 157.055057 98.300682 189.599141 83.465841 225.413616 
C 68.630999 261.228092 60.995079 299.616457 60.995079 338.381766 
C 60.995079 377.147074 68.630999 415.535439 83.465841 451.349915 
C 98.300682 487.16439 120.045944 519.708475 147.457157 547.119687 
C 174.868369 574.5309 207.412454 596.276162 243.226929 611.111004 
C 279.041405 625.945845 317.42977 633.581766 356.195079 633.581766 
C 394.960387 633.581766 433.348752 625.945845 469.163228 611.111004 
C 504.977703 596.276162 537.521788 574.5309 564.933 547.119687 
C 592.344213 519.708475 614.089475 487.16439 628.924317 451.349915 
C 643.759158 415.535439 651.395079 377.147074 651.395079 338.381766 
M 356.195079 338.381766 
C 356.195079 338.381766 356.195079 338.381766 356.195079 338.381766 
C 356.195079 338.381766 356.195079 338.381766 356.195079 338.381766 
C 356.195079 338.381766 356.195079 338.381766 356.195079 338.381766 
C 356.195079 338.381766 356.195079 338.381766 356.195079 338.381766 
C 356.195079 338.381766 356.195079 338.381766 356.195079 338.381766 
C 356.195079 338.381766 356.195079 338.381766 356.195079 338.381766 
C 356.195079 338.381766 356.195079 338.381766 356.195079 338.381766 
C 356.195079 338.381766 356.195079 338.381766 356.195079 338.381766 
C 356.195079 338.381766 356.195079 338.381766 356.195079 338.381766 
C 356.195079 338.381766 356.195079 338.381766 356.195079 338.381766 
C 356.195079 338.381766 356.195079 338.381766 356.195079 338.381766 
C 356.195079 338.381766 356.195079 338.381766 356.195079 338.381766 
C 356.195079 338.381766 356.195079 338.381766 356.195079 338.381766 
C 356.195079 338.381766 356.195079 338.381766 356.195079 338.381766 
C 356.195079 338.381766 356.195079 338.381766 356.195079 338.381766 
C 356.195079 338.381766 356.195079 338.381766 356.195079 338.381766 
z
"/>
  </clipPath>
 </defs>
</svg>
