<?xml version="1.0" encoding="utf-8" standalone="no"?>
<!DOCTYPE svg PUBLIC "-//W3C//DTD SVG 1.1//EN"
  "http://www.w3.org/Graphics/SVG/1.1/DTD/svg11.dtd">
<svg xmlns:xlink="http://www.w3.org/1999/xlink" width="784.613594pt" height="416.354375pt" viewBox="0 0 784.613594 416.354375" xmlns="http://www.w3.org/2000/svg" version="1.1">
 <metadata>
  <rdf:RDF xmlns:dc="http://purl.org/dc/elements/1.1/" xmlns:cc="http://creativecommons.org/ns#" xmlns:rdf="http://www.w3.org/1999/02/22-rdf-syntax-ns#">
   <cc:Work>
    <dc:type rdf:resource="http://purl.org/dc/dcmitype/StillImage"/>
    <dc:date>2026-04-14T10:44:03.436714</dc:date>
    <dc:format>image/svg+xml</dc:format>
    <dc:creator>
     <cc:Agent>
      <dc:title>Matplotlib v3.10.8, https://matplotlib.org/</dc:title>
     </cc:Agent>
    </dc:creator>
   </cc:Work>
  </rdf:RDF>
 </metadata>
 <defs>
  <style type="text/css">*{stroke-linejoin: round; stroke-linecap: butt}</style>
 </defs>
 <g id="figure_1">
  <g id="patch_1">
   <path d="M 0 416.354375 
L 784.613594 416.354375 
L 784.613594 0 
L 0 0 
z
" style="fill: #f5f0e8"/>
  </g>
  <g id="axes_1">
   <g id="patch_2">
    <path d="M 146.550885 154.684592 
Q 183.298181 154.684592 217.250391 154.684592 
" style="fill: none; stroke: #3d5a80; stroke-width: 2.5; stroke-linecap: round"/>
    <path d="M 213.250391 152.684592 
L 217.250391 154.684592 
L 213.250391 156.684592 
" style="fill: none; stroke: #3d5a80; stroke-width: 2.5; stroke-linecap: round"/>
   </g>
   <g id="text_1">
    <!-- |ψ_N⟩ -->
    <g style="fill: #3d5a80" transform="translate(229.8 150.809592) scale(0.09 -0.09)">
     <defs>
      <path id="DejaVuSans-7c" d="M 1344 4891 
L 1344 -1509 
L 813 -1509 
L 813 4891 
L 1344 4891 
z
" transform="scale(0.015625)"/>
      <path id="DejaVuSans-3c8" d="M 1816 -78 
Q 1094 38 759 341 
Q 350 713 350 1472 
L 350 3500 
L 931 3500 
L 931 1494 
Q 931 922 1197 684 
Q 1428 478 1816 434 
L 1816 3500 
L 2388 3500 
L 2388 438 
Q 2797 481 3006 688 
Q 3272 950 3272 1497 
L 3272 3500 
L 3853 3500 
L 3853 1475 
Q 3853 688 3444 344 
Q 3075 34 2388 -75 
L 2388 -1331 
L 1816 -1331 
L 1816 -78 
z
" transform="scale(0.015625)"/>
      <path id="DejaVuSans-5f" d="M 3263 -1063 
L 3263 -1509 
L -63 -1509 
L -63 -1063 
L 3263 -1063 
z
" transform="scale(0.015625)"/>
      <path id="DejaVuSans-4e" d="M 628 4666 
L 1478 4666 
L 3547 763 
L 3547 4666 
L 4159 4666 
L 4159 0 
L 3309 0 
L 1241 3903 
L 1241 0 
L 628 0 
L 628 4666 
z
" transform="scale(0.015625)"/>
      <path id="DejaVuSans-27e9" d="M 1925 2006 
L 1044 -844 
L 513 -844 
L 1394 2006 
L 513 4856 
L 1044 4856 
L 1925 2006 
z
" transform="scale(0.015625)"/>
     </defs>
     <use xlink:href="#DejaVuSans-7c"/>
     <use xlink:href="#DejaVuSans-3c8" transform="translate(33.691406 0)"/>
     <use xlink:href="#DejaVuSans-5f" transform="translate(99.658203 0)"/>
     <use xlink:href="#DejaVuSans-4e" transform="translate(149.658203 0)"/>
     <use xlink:href="#DejaVuSans-27e9" transform="translate(224.462891 0)"/>
    </g>
   </g>
   <g id="patch_3">
    <path d="M 146.543271 154.510203 
Q 183.150732 151.307465 216.973744 148.348335 
" style="fill: none; stroke: #3b6d11; stroke-width: 2.5; stroke-linecap: round"/>
    <path d="M 212.814654 146.704569 
L 216.973744 148.348335 
L 213.163277 150.689348 
" style="fill: none; stroke: #3b6d11; stroke-width: 2.5; stroke-linecap: round"/>
   </g>
   <g id="text_2">
    <!-- |ψ_S⟩ -->
    <g style="fill: #3b6d11" transform="translate(219.672669 147.592293) scale(0.09 -0.09)">
     <defs>
      <path id="DejaVuSans-53" d="M 3425 4513 
L 3425 3897 
Q 3066 4069 2747 4153 
Q 2428 4238 2131 4238 
Q 1616 4238 1336 4038 
Q 1056 3838 1056 3469 
Q 1056 3159 1242 3001 
Q 1428 2844 1947 2747 
L 2328 2669 
Q 3034 2534 3370 2195 
Q 3706 1856 3706 1288 
Q 3706 609 3251 259 
Q 2797 -91 1919 -91 
Q 1588 -91 1214 -16 
Q 841 59 441 206 
L 441 856 
Q 825 641 1194 531 
Q 1563 422 1919 422 
Q 2459 422 2753 634 
Q 3047 847 3047 1241 
Q 3047 1584 2836 1778 
Q 2625 1972 2144 2069 
L 1759 2144 
Q 1053 2284 737 2584 
Q 422 2884 422 3419 
Q 422 4038 858 4394 
Q 1294 4750 2059 4750 
Q 2388 4750 2728 4690 
Q 3069 4631 3425 4513 
z
" transform="scale(0.015625)"/>
     </defs>
     <use xlink:href="#DejaVuSans-7c"/>
     <use xlink:href="#DejaVuSans-3c8" transform="translate(33.691406 0)"/>
     <use xlink:href="#DejaVuSans-5f" transform="translate(99.658203 0)"/>
     <use xlink:href="#DejaVuSans-53" transform="translate(149.658203 0)"/>
     <use xlink:href="#DejaVuSans-27e9" transform="translate(213.134766 0)"/>
    </g>
   </g>
   <g id="text_3">
    <!-- θ ≈ 5° -->
    <g style="fill: #3b6d11" transform="translate(124.047813 61.684592) scale(0.12 -0.12)">
     <defs>
      <path id="DejaVuSans-Bold-3b8" d="M 1447 2081 
Q 1469 1444 1638 1181 
Q 1922 728 2197 725 
Q 2475 722 2763 1181 
Q 2931 1453 2953 2081 
L 1447 2081 
z
M 2950 2881 
Q 2913 3394 2759 3688 
Q 2522 4144 2200 4144 
Q 1875 4144 1641 3688 
Q 1484 3384 1450 2881 
L 2950 2881 
z
M 2200 4913 
Q 3247 4913 3686 4231 
Q 4125 3550 4125 2403 
Q 4125 1256 3673 592 
Q 3222 -72 2200 -72 
Q 1178 -72 726 592 
Q 275 1256 275 2403 
Q 275 3550 714 4231 
Q 1153 4913 2200 4913 
z
" transform="scale(0.015625)"/>
      <path id="DejaVuSans-Bold-20" transform="scale(0.015625)"/>
      <path id="DejaVuSans-Bold-2248" d="M 4684 3309 
L 4684 2547 
Q 4353 2297 4073 2189 
Q 3794 2081 3494 2081 
Q 3159 2081 2713 2263 
Q 2669 2281 2644 2291 
Q 2622 2300 2575 2319 
Q 2091 2509 1797 2509 
Q 1522 2509 1253 2389 
Q 984 2269 678 2009 
L 678 2772 
Q 1006 3016 1286 3123 
Q 1566 3231 1869 3231 
Q 2213 3231 2672 3047 
Q 2703 3034 2719 3028 
Q 2744 3019 2788 3000 
Q 3272 2809 3566 2809 
Q 3834 2809 4098 2926 
Q 4363 3044 4684 3309 
z
M 4684 2003 
L 4684 1241 
Q 4353 991 4073 883 
Q 3794 775 3494 775 
Q 3159 775 2713 956 
Q 2669 975 2641 988 
Q 2622 994 2575 1013 
Q 2091 1203 1797 1203 
Q 1522 1203 1253 1084 
Q 984 966 678 703 
L 678 1466 
Q 1013 1716 1291 1823 
Q 1569 1931 1869 1931 
Q 2203 1931 2650 1750 
Q 2697 1731 2719 1722 
Q 2744 1713 2788 1697 
Q 3272 1503 3566 1503 
Q 3834 1503 4098 1620 
Q 4363 1738 4684 2003 
z
" transform="scale(0.015625)"/>
      <path id="DejaVuSans-Bold-35" d="M 678 4666 
L 3669 4666 
L 3669 3781 
L 1638 3781 
L 1638 3059 
Q 1775 3097 1914 3117 
Q 2053 3138 2203 3138 
Q 3056 3138 3531 2711 
Q 4006 2284 4006 1522 
Q 4006 766 3489 337 
Q 2972 -91 2053 -91 
Q 1656 -91 1267 -14 
Q 878 63 494 219 
L 494 1166 
Q 875 947 1217 837 
Q 1559 728 1863 728 
Q 2300 728 2551 942 
Q 2803 1156 2803 1522 
Q 2803 1891 2551 2103 
Q 2300 2316 1863 2316 
Q 1603 2316 1309 2248 
Q 1016 2181 678 2041 
L 678 4666 
z
" transform="scale(0.015625)"/>
      <path id="DejaVuSans-Bold-b0" d="M 1600 4288 
Q 1375 4288 1219 4131 
Q 1063 3975 1063 3750 
Q 1063 3525 1217 3372 
Q 1372 3219 1600 3219 
Q 1825 3219 1981 3373 
Q 2138 3528 2138 3750 
Q 2138 3975 1980 4131 
Q 1822 4288 1600 4288 
z
M 1600 4794 
Q 1806 4794 1997 4714 
Q 2188 4634 2338 4488 
Q 2484 4338 2561 4150 
Q 2638 3963 2638 3750 
Q 2638 3541 2561 3352 
Q 2484 3163 2344 3022 
Q 2194 2872 2000 2792 
Q 1806 2713 1594 2713 
Q 1153 2713 854 3011 
Q 556 3309 556 3750 
Q 556 4191 857 4492 
Q 1159 4794 1600 4794 
z
" transform="scale(0.015625)"/>
     </defs>
     <use xlink:href="#DejaVuSans-Bold-3b8"/>
     <use xlink:href="#DejaVuSans-Bold-20" transform="translate(68.701172 0)"/>
     <use xlink:href="#DejaVuSans-Bold-2248" transform="translate(103.515625 0)"/>
     <use xlink:href="#DejaVuSans-Bold-20" transform="translate(187.304688 0)"/>
     <use xlink:href="#DejaVuSans-Bold-35" transform="translate(222.119141 0)"/>
     <use xlink:href="#DejaVuSans-Bold-b0" transform="translate(291.699219 0)"/>
    </g>
   </g>
   <g id="text_4">
    <!-- Interferência -->
    <g style="fill: #3b6d11" transform="translate(112.586719 206.095061) scale(0.1 -0.1)">
     <defs>
      <path id="DejaVuSans-49" d="M 628 4666 
L 1259 4666 
L 1259 0 
L 628 0 
L 628 4666 
z
" transform="scale(0.015625)"/>
      <path id="DejaVuSans-6e" d="M 3513 2113 
L 3513 0 
L 2938 0 
L 2938 2094 
Q 2938 2591 2744 2837 
Q 2550 3084 2163 3084 
Q 1697 3084 1428 2787 
Q 1159 2491 1159 1978 
L 1159 0 
L 581 0 
L 581 3500 
L 1159 3500 
L 1159 2956 
Q 1366 3272 1645 3428 
Q 1925 3584 2291 3584 
Q 2894 3584 3203 3211 
Q 3513 2838 3513 2113 
z
" transform="scale(0.015625)"/>
      <path id="DejaVuSans-74" d="M 1172 4494 
L 1172 3500 
L 2356 3500 
L 2356 3053 
L 1172 3053 
L 1172 1153 
Q 1172 725 1289 603 
Q 1406 481 1766 481 
L 2356 481 
L 2356 0 
L 1766 0 
Q 1100 0 847 248 
Q 594 497 594 1153 
L 594 3053 
L 172 3053 
L 172 3500 
L 594 3500 
L 594 4494 
L 1172 4494 
z
" transform="scale(0.015625)"/>
      <path id="DejaVuSans-65" d="M 3597 1894 
L 3597 1613 
L 953 1613 
Q 991 1019 1311 708 
Q 1631 397 2203 397 
Q 2534 397 2845 478 
Q 3156 559 3463 722 
L 3463 178 
Q 3153 47 2828 -22 
Q 2503 -91 2169 -91 
Q 1331 -91 842 396 
Q 353 884 353 1716 
Q 353 2575 817 3079 
Q 1281 3584 2069 3584 
Q 2775 3584 3186 3129 
Q 3597 2675 3597 1894 
z
M 3022 2063 
Q 3016 2534 2758 2815 
Q 2500 3097 2075 3097 
Q 1594 3097 1305 2825 
Q 1016 2553 972 2059 
L 3022 2063 
z
" transform="scale(0.015625)"/>
      <path id="DejaVuSans-72" d="M 2631 2963 
Q 2534 3019 2420 3045 
Q 2306 3072 2169 3072 
Q 1681 3072 1420 2755 
Q 1159 2438 1159 1844 
L 1159 0 
L 581 0 
L 581 3500 
L 1159 3500 
L 1159 2956 
Q 1341 3275 1631 3429 
Q 1922 3584 2338 3584 
Q 2397 3584 2469 3576 
Q 2541 3569 2628 3553 
L 2631 2963 
z
" transform="scale(0.015625)"/>
      <path id="DejaVuSans-66" d="M 2375 4863 
L 2375 4384 
L 1825 4384 
Q 1516 4384 1395 4259 
Q 1275 4134 1275 3809 
L 1275 3500 
L 2222 3500 
L 2222 3053 
L 1275 3053 
L 1275 0 
L 697 0 
L 697 3053 
L 147 3053 
L 147 3500 
L 697 3500 
L 697 3744 
Q 697 4328 969 4595 
Q 1241 4863 1831 4863 
L 2375 4863 
z
" transform="scale(0.015625)"/>
      <path id="DejaVuSans-ea" d="M 3597 1894 
L 3597 1613 
L 953 1613 
Q 991 1019 1311 708 
Q 1631 397 2203 397 
Q 2534 397 2845 478 
Q 3156 559 3463 722 
L 3463 178 
Q 3153 47 2828 -22 
Q 2503 -91 2169 -91 
Q 1331 -91 842 396 
Q 353 884 353 1716 
Q 353 2575 817 3079 
Q 1281 3584 2069 3584 
Q 2775 3584 3186 3129 
Q 3597 2675 3597 1894 
z
M 3022 2063 
Q 3016 2534 2758 2815 
Q 2500 3097 2075 3097 
Q 1594 3097 1305 2825 
Q 1016 2553 972 2059 
L 3022 2063 
z
M 1801 5119 
L 2263 5119 
L 3029 3944 
L 2595 3944 
L 2032 4709 
L 1470 3944 
L 1035 3944 
L 1801 5119 
z
" transform="scale(0.015625)"/>
      <path id="DejaVuSans-63" d="M 3122 3366 
L 3122 2828 
Q 2878 2963 2633 3030 
Q 2388 3097 2138 3097 
Q 1578 3097 1268 2742 
Q 959 2388 959 1747 
Q 959 1106 1268 751 
Q 1578 397 2138 397 
Q 2388 397 2633 464 
Q 2878 531 3122 666 
L 3122 134 
Q 2881 22 2623 -34 
Q 2366 -91 2075 -91 
Q 1284 -91 818 406 
Q 353 903 353 1747 
Q 353 2603 823 3093 
Q 1294 3584 2113 3584 
Q 2378 3584 2631 3529 
Q 2884 3475 3122 3366 
z
" transform="scale(0.015625)"/>
      <path id="DejaVuSans-69" d="M 603 3500 
L 1178 3500 
L 1178 0 
L 603 0 
L 603 3500 
z
M 603 4863 
L 1178 4863 
L 1178 4134 
L 603 4134 
L 603 4863 
z
" transform="scale(0.015625)"/>
      <path id="DejaVuSans-61" d="M 2194 1759 
Q 1497 1759 1228 1600 
Q 959 1441 959 1056 
Q 959 750 1161 570 
Q 1363 391 1709 391 
Q 2188 391 2477 730 
Q 2766 1069 2766 1631 
L 2766 1759 
L 2194 1759 
z
M 3341 1997 
L 3341 0 
L 2766 0 
L 2766 531 
Q 2569 213 2275 61 
Q 1981 -91 1556 -91 
Q 1019 -91 701 211 
Q 384 513 384 1019 
Q 384 1609 779 1909 
Q 1175 2209 1959 2209 
L 2766 2209 
L 2766 2266 
Q 2766 2663 2505 2880 
Q 2244 3097 1772 3097 
Q 1472 3097 1187 3025 
Q 903 2953 641 2809 
L 641 3341 
Q 956 3463 1253 3523 
Q 1550 3584 1831 3584 
Q 2591 3584 2966 3190 
Q 3341 2797 3341 1997 
z
" transform="scale(0.015625)"/>
     </defs>
     <use xlink:href="#DejaVuSans-49"/>
     <use xlink:href="#DejaVuSans-6e" transform="translate(29.492188 0)"/>
     <use xlink:href="#DejaVuSans-74" transform="translate(92.871094 0)"/>
     <use xlink:href="#DejaVuSans-65" transform="translate(132.080078 0)"/>
     <use xlink:href="#DejaVuSans-72" transform="translate(193.603516 0)"/>
     <use xlink:href="#DejaVuSans-66" transform="translate(234.716797 0)"/>
     <use xlink:href="#DejaVuSans-65" transform="translate(269.921875 0)"/>
     <use xlink:href="#DejaVuSans-72" transform="translate(331.445312 0)"/>
     <use xlink:href="#DejaVuSans-ea" transform="translate(370.308594 0)"/>
     <use xlink:href="#DejaVuSans-6e" transform="translate(431.832031 0)"/>
     <use xlink:href="#DejaVuSans-63" transform="translate(495.210938 0)"/>
     <use xlink:href="#DejaVuSans-69" transform="translate(550.191406 0)"/>
     <use xlink:href="#DejaVuSans-61" transform="translate(577.974609 0)"/>
    </g>
    <!-- Construtiva -->
    <g style="fill: #3b6d11" transform="translate(115.66875 217.292873) scale(0.1 -0.1)">
     <defs>
      <path id="DejaVuSans-43" d="M 4122 4306 
L 4122 3641 
Q 3803 3938 3442 4084 
Q 3081 4231 2675 4231 
Q 1875 4231 1450 3742 
Q 1025 3253 1025 2328 
Q 1025 1406 1450 917 
Q 1875 428 2675 428 
Q 3081 428 3442 575 
Q 3803 722 4122 1019 
L 4122 359 
Q 3791 134 3420 21 
Q 3050 -91 2638 -91 
Q 1578 -91 968 557 
Q 359 1206 359 2328 
Q 359 3453 968 4101 
Q 1578 4750 2638 4750 
Q 3056 4750 3426 4639 
Q 3797 4528 4122 4306 
z
" transform="scale(0.015625)"/>
      <path id="DejaVuSans-6f" d="M 1959 3097 
Q 1497 3097 1228 2736 
Q 959 2375 959 1747 
Q 959 1119 1226 758 
Q 1494 397 1959 397 
Q 2419 397 2687 759 
Q 2956 1122 2956 1747 
Q 2956 2369 2687 2733 
Q 2419 3097 1959 3097 
z
M 1959 3584 
Q 2709 3584 3137 3096 
Q 3566 2609 3566 1747 
Q 3566 888 3137 398 
Q 2709 -91 1959 -91 
Q 1206 -91 779 398 
Q 353 888 353 1747 
Q 353 2609 779 3096 
Q 1206 3584 1959 3584 
z
" transform="scale(0.015625)"/>
      <path id="DejaVuSans-73" d="M 2834 3397 
L 2834 2853 
Q 2591 2978 2328 3040 
Q 2066 3103 1784 3103 
Q 1356 3103 1142 2972 
Q 928 2841 928 2578 
Q 928 2378 1081 2264 
Q 1234 2150 1697 2047 
L 1894 2003 
Q 2506 1872 2764 1633 
Q 3022 1394 3022 966 
Q 3022 478 2636 193 
Q 2250 -91 1575 -91 
Q 1294 -91 989 -36 
Q 684 19 347 128 
L 347 722 
Q 666 556 975 473 
Q 1284 391 1588 391 
Q 1994 391 2212 530 
Q 2431 669 2431 922 
Q 2431 1156 2273 1281 
Q 2116 1406 1581 1522 
L 1381 1569 
Q 847 1681 609 1914 
Q 372 2147 372 2553 
Q 372 3047 722 3315 
Q 1072 3584 1716 3584 
Q 2034 3584 2315 3537 
Q 2597 3491 2834 3397 
z
" transform="scale(0.015625)"/>
      <path id="DejaVuSans-75" d="M 544 1381 
L 544 3500 
L 1119 3500 
L 1119 1403 
Q 1119 906 1312 657 
Q 1506 409 1894 409 
Q 2359 409 2629 706 
Q 2900 1003 2900 1516 
L 2900 3500 
L 3475 3500 
L 3475 0 
L 2900 0 
L 2900 538 
Q 2691 219 2414 64 
Q 2138 -91 1772 -91 
Q 1169 -91 856 284 
Q 544 659 544 1381 
z
M 1991 3584 
L 1991 3584 
z
" transform="scale(0.015625)"/>
      <path id="DejaVuSans-76" d="M 191 3500 
L 800 3500 
L 1894 563 
L 2988 3500 
L 3597 3500 
L 2284 0 
L 1503 0 
L 191 3500 
z
" transform="scale(0.015625)"/>
     </defs>
     <use xlink:href="#DejaVuSans-43"/>
     <use xlink:href="#DejaVuSans-6f" transform="translate(69.824219 0)"/>
     <use xlink:href="#DejaVuSans-6e" transform="translate(131.005859 0)"/>
     <use xlink:href="#DejaVuSans-73" transform="translate(194.384766 0)"/>
     <use xlink:href="#DejaVuSans-74" transform="translate(246.484375 0)"/>
     <use xlink:href="#DejaVuSans-72" transform="translate(285.693359 0)"/>
     <use xlink:href="#DejaVuSans-75" transform="translate(326.806641 0)"/>
     <use xlink:href="#DejaVuSans-74" transform="translate(390.185547 0)"/>
     <use xlink:href="#DejaVuSans-69" transform="translate(429.394531 0)"/>
     <use xlink:href="#DejaVuSans-76" transform="translate(457.177734 0)"/>
     <use xlink:href="#DejaVuSans-61" transform="translate(516.357422 0)"/>
    </g>
   </g>
   <g id="text_5">
    <!-- P(Ação) ≈ 1.0 -->
    <g style="fill: #888888" transform="translate(113.552734 224.434592) scale(0.09 -0.09)">
     <defs>
      <path id="DejaVuSans-50" d="M 1259 4147 
L 1259 2394 
L 2053 2394 
Q 2494 2394 2734 2622 
Q 2975 2850 2975 3272 
Q 2975 3691 2734 3919 
Q 2494 4147 2053 4147 
L 1259 4147 
z
M 628 4666 
L 2053 4666 
Q 2838 4666 3239 4311 
Q 3641 3956 3641 3272 
Q 3641 2581 3239 2228 
Q 2838 1875 2053 1875 
L 1259 1875 
L 1259 0 
L 628 0 
L 628 4666 
z
" transform="scale(0.015625)"/>
      <path id="DejaVuSans-28" d="M 1984 4856 
Q 1566 4138 1362 3434 
Q 1159 2731 1159 2009 
Q 1159 1288 1364 580 
Q 1569 -128 1984 -844 
L 1484 -844 
Q 1016 -109 783 600 
Q 550 1309 550 2009 
Q 550 2706 781 3412 
Q 1013 4119 1484 4856 
L 1984 4856 
z
" transform="scale(0.015625)"/>
      <path id="DejaVuSans-41" d="M 2188 4044 
L 1331 1722 
L 3047 1722 
L 2188 4044 
z
M 1831 4666 
L 2547 4666 
L 4325 0 
L 3669 0 
L 3244 1197 
L 1141 1197 
L 716 0 
L 50 0 
L 1831 4666 
z
" transform="scale(0.015625)"/>
      <path id="DejaVuSans-e7" d="M 3122 3366 
L 3122 2828 
Q 2878 2963 2633 3030 
Q 2388 3097 2138 3097 
Q 1578 3097 1268 2742 
Q 959 2388 959 1747 
Q 959 1106 1268 751 
Q 1578 397 2138 397 
Q 2388 397 2633 464 
Q 2878 531 3122 666 
L 3122 134 
Q 2881 22 2623 -34 
Q 2366 -91 2075 -91 
Q 1284 -91 818 406 
Q 353 903 353 1747 
Q 353 2603 823 3093 
Q 1294 3584 2113 3584 
Q 2378 3584 2631 3529 
Q 2884 3475 3122 3366 
z
M 2311 0 
Q 2482 -194 2566 -358 
Q 2651 -522 2651 -672 
Q 2651 -950 2463 -1092 
Q 2276 -1234 1907 -1234 
Q 1764 -1234 1628 -1215 
Q 1492 -1197 1357 -1159 
L 1357 -750 
Q 1464 -803 1579 -826 
Q 1695 -850 1842 -850 
Q 2026 -850 2120 -775 
Q 2214 -700 2214 -556 
Q 2214 -463 2146 -327 
Q 2079 -191 1939 0 
L 2311 0 
z
" transform="scale(0.015625)"/>
      <path id="DejaVuSans-e3" d="M 2194 1759 
Q 1497 1759 1228 1600 
Q 959 1441 959 1056 
Q 959 750 1161 570 
Q 1363 391 1709 391 
Q 2188 391 2477 730 
Q 2766 1069 2766 1631 
L 2766 1759 
L 2194 1759 
z
M 3341 1997 
L 3341 0 
L 2766 0 
L 2766 531 
Q 2569 213 2275 61 
Q 1981 -91 1556 -91 
Q 1019 -91 701 211 
Q 384 513 384 1019 
Q 384 1609 779 1909 
Q 1175 2209 1959 2209 
L 2766 2209 
L 2766 2266 
Q 2766 2663 2505 2880 
Q 2244 3097 1772 3097 
Q 1472 3097 1187 3025 
Q 903 2953 641 2809 
L 641 3341 
Q 956 3463 1253 3523 
Q 1550 3584 1831 3584 
Q 2591 3584 2966 3190 
Q 3341 2797 3341 1997 
z
M 1844 4281 
L 1665 4453 
Q 1597 4516 1545 4545 
Q 1494 4575 1453 4575 
Q 1334 4575 1278 4461 
Q 1222 4347 1215 4091 
L 825 4091 
Q 831 4513 990 4742 
Q 1150 4972 1434 4972 
Q 1553 4972 1653 4928 
Q 1753 4884 1869 4781 
L 2047 4609 
Q 2115 4547 2167 4517 
Q 2219 4488 2259 4488 
Q 2378 4488 2434 4602 
Q 2490 4716 2497 4972 
L 2887 4972 
Q 2881 4550 2721 4320 
Q 2562 4091 2278 4091 
Q 2159 4091 2059 4134 
Q 1959 4178 1844 4281 
z
" transform="scale(0.015625)"/>
      <path id="DejaVuSans-29" d="M 513 4856 
L 1013 4856 
Q 1481 4119 1714 3412 
Q 1947 2706 1947 2009 
Q 1947 1309 1714 600 
Q 1481 -109 1013 -844 
L 513 -844 
Q 928 -128 1133 580 
Q 1338 1288 1338 2009 
Q 1338 2731 1133 3434 
Q 928 4138 513 4856 
z
" transform="scale(0.015625)"/>
      <path id="DejaVuSans-20" transform="scale(0.015625)"/>
      <path id="DejaVuSans-2248" d="M 4684 1947 
L 4684 1388 
Q 4356 1144 4076 1036 
Q 3797 928 3494 928 
Q 3150 928 2694 1113 
Q 2663 1125 2641 1134 
Q 2622 1141 2575 1159 
Q 2091 1350 1797 1350 
Q 1522 1350 1253 1231 
Q 984 1113 678 850 
L 678 1409 
Q 1006 1653 1286 1761 
Q 1566 1869 1869 1869 
Q 2213 1869 2672 1684 
Q 2706 1669 2722 1663 
Q 2741 1656 2788 1638 
Q 3272 1447 3566 1447 
Q 3834 1447 4098 1564 
Q 4363 1681 4684 1947 
z
M 4684 3163 
L 4684 2606 
Q 4356 2359 4076 2251 
Q 3797 2144 3494 2144 
Q 3150 2144 2694 2328 
Q 2663 2341 2641 2350 
Q 2622 2356 2575 2375 
Q 2091 2566 1797 2566 
Q 1522 2566 1253 2447 
Q 984 2328 678 2069 
L 678 2625 
Q 1006 2869 1286 2976 
Q 1566 3084 1869 3084 
Q 2213 3084 2672 2900 
Q 2703 2888 2719 2881 
Q 2741 2872 2788 2853 
Q 3272 2663 3566 2663 
Q 3834 2663 4098 2780 
Q 4363 2897 4684 3163 
z
" transform="scale(0.015625)"/>
      <path id="DejaVuSans-31" d="M 794 531 
L 1825 531 
L 1825 4091 
L 703 3866 
L 703 4441 
L 1819 4666 
L 2450 4666 
L 2450 531 
L 3481 531 
L 3481 0 
L 794 0 
L 794 531 
z
" transform="scale(0.015625)"/>
      <path id="DejaVuSans-2e" d="M 684 794 
L 1344 794 
L 1344 0 
L 684 0 
L 684 794 
z
" transform="scale(0.015625)"/>
      <path id="DejaVuSans-30" d="M 2034 4250 
Q 1547 4250 1301 3770 
Q 1056 3291 1056 2328 
Q 1056 1369 1301 889 
Q 1547 409 2034 409 
Q 2525 409 2770 889 
Q 3016 1369 3016 2328 
Q 3016 3291 2770 3770 
Q 2525 4250 2034 4250 
z
M 2034 4750 
Q 2819 4750 3233 4129 
Q 3647 3509 3647 2328 
Q 3647 1150 3233 529 
Q 2819 -91 2034 -91 
Q 1250 -91 836 529 
Q 422 1150 422 2328 
Q 422 3509 836 4129 
Q 1250 4750 2034 4750 
z
" transform="scale(0.015625)"/>
     </defs>
     <use xlink:href="#DejaVuSans-50"/>
     <use xlink:href="#DejaVuSans-28" transform="translate(60.302734 0)"/>
     <use xlink:href="#DejaVuSans-41" transform="translate(99.316406 0)"/>
     <use xlink:href="#DejaVuSans-e7" transform="translate(165.974609 0)"/>
     <use xlink:href="#DejaVuSans-e3" transform="translate(220.955078 0)"/>
     <use xlink:href="#DejaVuSans-6f" transform="translate(282.234375 0)"/>
     <use xlink:href="#DejaVuSans-29" transform="translate(343.416016 0)"/>
     <use xlink:href="#DejaVuSans-20" transform="translate(382.429688 0)"/>
     <use xlink:href="#DejaVuSans-2248" transform="translate(414.216797 0)"/>
     <use xlink:href="#DejaVuSans-20" transform="translate(498.005859 0)"/>
     <use xlink:href="#DejaVuSans-31" transform="translate(529.792969 0)"/>
     <use xlink:href="#DejaVuSans-2e" transform="translate(593.416016 0)"/>
     <use xlink:href="#DejaVuSans-30" transform="translate(625.203125 0)"/>
    </g>
   </g>
  </g>
  <g id="axes_2">
   <g id="line2d_1">
    <path d="M 429.75 154.684592 
L 429.715902 153.425862 
L 429.613708 152.170825 
L 429.443717 150.92316 
L 429.206428 149.686529 
L 428.902537 148.464558 
L 428.532936 147.260831 
L 428.098709 146.07888 
L 427.601129 144.92217 
L 427.041655 143.794096 
L 426.421929 142.697965 
L 425.743769 141.636993 
L 425.009164 140.614291 
L 424.220268 139.632861 
L 423.379395 138.695579 
L 422.489012 137.805197 
L 421.551731 136.964324 
L 420.570301 136.175428 
L 419.547599 135.440823 
L 418.486627 134.762662 
L 417.390496 134.142937 
L 416.262422 133.583463 
L 415.105712 133.085883 
L 413.923761 132.651656 
L 412.720034 132.282055 
L 411.498063 131.978164 
L 410.261431 131.740875 
L 409.013767 131.570884 
L 407.75873 131.46869 
L 406.5 131.434592 
" clip-path="url(#p86e1f562e9)" style="fill: none; stroke: #3d5a80; stroke-width: 1.5; stroke-linecap: square"/>
   </g>
   <g id="patch_4">
    <path d="M 408.500885 154.684592 
Q 445.248181 154.684592 479.200391 154.684592 
" style="fill: none; stroke: #3d5a80; stroke-width: 2.5; stroke-linecap: round"/>
    <path d="M 475.200391 152.684592 
L 479.200391 154.684592 
L 475.200391 156.684592 
" style="fill: none; stroke: #3d5a80; stroke-width: 2.5; stroke-linecap: round"/>
   </g>
   <g id="text_6">
    <!-- |ψ_N⟩ -->
    <g style="fill: #3d5a80" transform="translate(491.75 150.809592) scale(0.09 -0.09)">
     <use xlink:href="#DejaVuSans-7c"/>
     <use xlink:href="#DejaVuSans-3c8" transform="translate(33.691406 0)"/>
     <use xlink:href="#DejaVuSans-5f" transform="translate(99.658203 0)"/>
     <use xlink:href="#DejaVuSans-4e" transform="translate(149.658203 0)"/>
     <use xlink:href="#DejaVuSans-27e9" transform="translate(224.462891 0)"/>
    </g>
   </g>
   <g id="patch_5">
    <path d="M 406.5 152.683707 
Q 406.5 115.936411 406.5 81.9842 
" style="fill: none; stroke: #3d5a80; stroke-width: 2.5; stroke-linecap: round"/>
    <path d="M 404.5 85.9842 
L 406.5 81.9842 
L 408.5 85.9842 
" style="fill: none; stroke: #3d5a80; stroke-width: 2.5; stroke-linecap: round"/>
   </g>
   <g id="text_7">
    <!-- |ψ_S⟩ -->
    <g style="fill: #3d5a80" transform="translate(395.152969 73.309592) scale(0.09 -0.09)">
     <use xlink:href="#DejaVuSans-7c"/>
     <use xlink:href="#DejaVuSans-3c8" transform="translate(33.691406 0)"/>
     <use xlink:href="#DejaVuSans-5f" transform="translate(99.658203 0)"/>
     <use xlink:href="#DejaVuSans-53" transform="translate(149.658203 0)"/>
     <use xlink:href="#DejaVuSans-27e9" transform="translate(213.134766 0)"/>
    </g>
   </g>
   <g id="text_8">
    <!-- θ ≈ 90° -->
    <g style="fill: #3d5a80" transform="translate(381.823125 61.684592) scale(0.12 -0.12)">
     <defs>
      <path id="DejaVuSans-Bold-39" d="M 641 103 
L 641 966 
Q 928 831 1190 764 
Q 1453 697 1709 697 
Q 2247 697 2547 995 
Q 2847 1294 2900 1881 
Q 2688 1725 2447 1647 
Q 2206 1569 1925 1569 
Q 1209 1569 770 1986 
Q 331 2403 331 3084 
Q 331 3838 820 4291 
Q 1309 4744 2131 4744 
Q 3044 4744 3544 4128 
Q 4044 3513 4044 2388 
Q 4044 1231 3459 570 
Q 2875 -91 1856 -91 
Q 1528 -91 1228 -42 
Q 928 6 641 103 
z
M 2125 2350 
Q 2441 2350 2600 2554 
Q 2759 2759 2759 3169 
Q 2759 3575 2600 3781 
Q 2441 3988 2125 3988 
Q 1809 3988 1650 3781 
Q 1491 3575 1491 3169 
Q 1491 2759 1650 2554 
Q 1809 2350 2125 2350 
z
" transform="scale(0.015625)"/>
      <path id="DejaVuSans-Bold-30" d="M 2944 2338 
Q 2944 3213 2780 3570 
Q 2616 3928 2228 3928 
Q 1841 3928 1675 3570 
Q 1509 3213 1509 2338 
Q 1509 1453 1675 1090 
Q 1841 728 2228 728 
Q 2613 728 2778 1090 
Q 2944 1453 2944 2338 
z
M 4147 2328 
Q 4147 1169 3647 539 
Q 3147 -91 2228 -91 
Q 1306 -91 806 539 
Q 306 1169 306 2328 
Q 306 3491 806 4120 
Q 1306 4750 2228 4750 
Q 3147 4750 3647 4120 
Q 4147 3491 4147 2328 
z
" transform="scale(0.015625)"/>
     </defs>
     <use xlink:href="#DejaVuSans-Bold-3b8"/>
     <use xlink:href="#DejaVuSans-Bold-20" transform="translate(68.701172 0)"/>
     <use xlink:href="#DejaVuSans-Bold-2248" transform="translate(103.515625 0)"/>
     <use xlink:href="#DejaVuSans-Bold-20" transform="translate(187.304688 0)"/>
     <use xlink:href="#DejaVuSans-Bold-39" transform="translate(222.119141 0)"/>
     <use xlink:href="#DejaVuSans-Bold-30" transform="translate(291.699219 0)"/>
     <use xlink:href="#DejaVuSans-Bold-b0" transform="translate(361.279297 0)"/>
    </g>
   </g>
   <g id="text_9">
    <!-- Zona de Transição -->
    <g style="fill: #3d5a80" transform="translate(360.882812 211.703342) scale(0.1 -0.1)">
     <defs>
      <path id="DejaVuSans-5a" d="M 359 4666 
L 4025 4666 
L 4025 4184 
L 1075 531 
L 4097 531 
L 4097 0 
L 288 0 
L 288 481 
L 3238 4134 
L 359 4134 
L 359 4666 
z
" transform="scale(0.015625)"/>
      <path id="DejaVuSans-64" d="M 2906 2969 
L 2906 4863 
L 3481 4863 
L 3481 0 
L 2906 0 
L 2906 525 
Q 2725 213 2448 61 
Q 2172 -91 1784 -91 
Q 1150 -91 751 415 
Q 353 922 353 1747 
Q 353 2572 751 3078 
Q 1150 3584 1784 3584 
Q 2172 3584 2448 3432 
Q 2725 3281 2906 2969 
z
M 947 1747 
Q 947 1113 1208 752 
Q 1469 391 1925 391 
Q 2381 391 2643 752 
Q 2906 1113 2906 1747 
Q 2906 2381 2643 2742 
Q 2381 3103 1925 3103 
Q 1469 3103 1208 2742 
Q 947 2381 947 1747 
z
" transform="scale(0.015625)"/>
      <path id="DejaVuSans-54" d="M -19 4666 
L 3928 4666 
L 3928 4134 
L 2272 4134 
L 2272 0 
L 1638 0 
L 1638 4134 
L -19 4134 
L -19 4666 
z
" transform="scale(0.015625)"/>
     </defs>
     <use xlink:href="#DejaVuSans-5a"/>
     <use xlink:href="#DejaVuSans-6f" transform="translate(68.505859 0)"/>
     <use xlink:href="#DejaVuSans-6e" transform="translate(129.6875 0)"/>
     <use xlink:href="#DejaVuSans-61" transform="translate(193.066406 0)"/>
     <use xlink:href="#DejaVuSans-20" transform="translate(254.345703 0)"/>
     <use xlink:href="#DejaVuSans-64" transform="translate(286.132812 0)"/>
     <use xlink:href="#DejaVuSans-65" transform="translate(349.609375 0)"/>
     <use xlink:href="#DejaVuSans-20" transform="translate(411.132812 0)"/>
     <use xlink:href="#DejaVuSans-54" transform="translate(442.919922 0)"/>
     <use xlink:href="#DejaVuSans-72" transform="translate(489.253906 0)"/>
     <use xlink:href="#DejaVuSans-61" transform="translate(530.367188 0)"/>
     <use xlink:href="#DejaVuSans-6e" transform="translate(591.646484 0)"/>
     <use xlink:href="#DejaVuSans-73" transform="translate(655.025391 0)"/>
     <use xlink:href="#DejaVuSans-69" transform="translate(707.125 0)"/>
     <use xlink:href="#DejaVuSans-e7" transform="translate(734.908203 0)"/>
     <use xlink:href="#DejaVuSans-e3" transform="translate(789.888672 0)"/>
     <use xlink:href="#DejaVuSans-6f" transform="translate(851.167969 0)"/>
    </g>
   </g>
   <g id="text_10">
    <!-- P(Ação) ≈ 0.5 -->
    <g style="fill: #888888" transform="translate(375.502734 224.434592) scale(0.09 -0.09)">
     <defs>
      <path id="DejaVuSans-35" d="M 691 4666 
L 3169 4666 
L 3169 4134 
L 1269 4134 
L 1269 2991 
Q 1406 3038 1543 3061 
Q 1681 3084 1819 3084 
Q 2600 3084 3056 2656 
Q 3513 2228 3513 1497 
Q 3513 744 3044 326 
Q 2575 -91 1722 -91 
Q 1428 -91 1123 -41 
Q 819 9 494 109 
L 494 744 
Q 775 591 1075 516 
Q 1375 441 1709 441 
Q 2250 441 2565 725 
Q 2881 1009 2881 1497 
Q 2881 1984 2565 2268 
Q 2250 2553 1709 2553 
Q 1456 2553 1204 2497 
Q 953 2441 691 2322 
L 691 4666 
z
" transform="scale(0.015625)"/>
     </defs>
     <use xlink:href="#DejaVuSans-50"/>
     <use xlink:href="#DejaVuSans-28" transform="translate(60.302734 0)"/>
     <use xlink:href="#DejaVuSans-41" transform="translate(99.316406 0)"/>
     <use xlink:href="#DejaVuSans-e7" transform="translate(165.974609 0)"/>
     <use xlink:href="#DejaVuSans-e3" transform="translate(220.955078 0)"/>
     <use xlink:href="#DejaVuSans-6f" transform="translate(282.234375 0)"/>
     <use xlink:href="#DejaVuSans-29" transform="translate(343.416016 0)"/>
     <use xlink:href="#DejaVuSans-20" transform="translate(382.429688 0)"/>
     <use xlink:href="#DejaVuSans-2248" transform="translate(414.216797 0)"/>
     <use xlink:href="#DejaVuSans-20" transform="translate(498.005859 0)"/>
     <use xlink:href="#DejaVuSans-30" transform="translate(529.792969 0)"/>
     <use xlink:href="#DejaVuSans-2e" transform="translate(593.416016 0)"/>
     <use xlink:href="#DejaVuSans-35" transform="translate(625.203125 0)"/>
    </g>
   </g>
  </g>
  <g id="axes_3">
   <g id="line2d_2">
    <path d="M 691.7 154.684592 
L 691.578418 152.309976 
L 691.214942 149.960196 
L 690.613375 147.659827 
L 689.780007 145.432928 
L 688.723556 143.302789 
L 687.455069 141.291689 
L 685.987815 139.420662 
L 684.337137 137.709275 
L 682.520301 136.175428 
L 680.556307 134.835163 
L 678.465697 133.702497 
L 676.270337 132.789276 
L 673.993185 132.105052 
L 671.658059 131.656981 
L 669.289381 131.449749 
L 666.911924 131.485522 
L 664.550554 131.763928 
L 662.229966 132.282055 
L 659.974432 133.034482 
L 657.807542 134.013342 
L 655.751957 135.208396 
L 653.829178 136.607146 
L 652.059313 138.194962 
L 650.460874 139.955238 
L 649.050578 141.869565 
L 647.843174 143.917919 
L 646.851291 146.07888 
L 646.085303 148.329845 
L 645.55322 150.647272 
" clip-path="url(#p475e3111a2)" style="fill: none; stroke: #a63929; stroke-width: 1.5; stroke-linecap: square"/>
   </g>
   <g id="patch_6">
    <path d="M 670.450885 154.684592 
Q 707.198181 154.684592 741.150391 154.684592 
" style="fill: none; stroke: #3d5a80; stroke-width: 2.5; stroke-linecap: round"/>
    <path d="M 737.150391 152.684592 
L 741.150391 154.684592 
L 737.150391 156.684592 
" style="fill: none; stroke: #3d5a80; stroke-width: 2.5; stroke-linecap: round"/>
   </g>
   <g id="text_11">
    <!-- |ψ_N⟩ -->
    <g style="fill: #3d5a80" transform="translate(753.7 150.809592) scale(0.09 -0.09)">
     <use xlink:href="#DejaVuSans-7c"/>
     <use xlink:href="#DejaVuSans-3c8" transform="translate(33.691406 0)"/>
     <use xlink:href="#DejaVuSans-5f" transform="translate(99.658203 0)"/>
     <use xlink:href="#DejaVuSans-4e" transform="translate(149.658203 0)"/>
     <use xlink:href="#DejaVuSans-27e9" transform="translate(224.462891 0)"/>
    </g>
   </g>
   <g id="patch_7">
    <path d="M 666.479513 154.337142 
Q 630.290491 147.956041 596.854091 142.060301 
" style="fill: none; stroke: #a63929; stroke-width: 2.5; stroke-linecap: round"/>
    <path d="M 600.446026 144.72451 
L 596.854091 142.060301 
L 601.140618 140.785279 
" style="fill: none; stroke: #a63929; stroke-width: 2.5; stroke-linecap: round"/>
   </g>
   <g id="text_12">
    <!-- |ψ_S⟩ -->
    <g style="fill: #a63929" transform="translate(571.621656 140.553971) scale(0.09 -0.09)">
     <use xlink:href="#DejaVuSans-7c"/>
     <use xlink:href="#DejaVuSans-3c8" transform="translate(33.691406 0)"/>
     <use xlink:href="#DejaVuSans-5f" transform="translate(99.658203 0)"/>
     <use xlink:href="#DejaVuSans-53" transform="translate(149.658203 0)"/>
     <use xlink:href="#DejaVuSans-27e9" transform="translate(213.134766 0)"/>
    </g>
   </g>
   <g id="text_13">
    <!-- θ ≈ 170° -->
    <g style="fill: #a63929" transform="translate(639.598438 61.684592) scale(0.12 -0.12)">
     <defs>
      <path id="DejaVuSans-Bold-31" d="M 750 831 
L 1813 831 
L 1813 3847 
L 722 3622 
L 722 4441 
L 1806 4666 
L 2950 4666 
L 2950 831 
L 4013 831 
L 4013 0 
L 750 0 
L 750 831 
z
" transform="scale(0.015625)"/>
      <path id="DejaVuSans-Bold-37" d="M 428 4666 
L 3944 4666 
L 3944 3988 
L 2125 0 
L 953 0 
L 2675 3781 
L 428 3781 
L 428 4666 
z
" transform="scale(0.015625)"/>
     </defs>
     <use xlink:href="#DejaVuSans-Bold-3b8"/>
     <use xlink:href="#DejaVuSans-Bold-20" transform="translate(68.701172 0)"/>
     <use xlink:href="#DejaVuSans-Bold-2248" transform="translate(103.515625 0)"/>
     <use xlink:href="#DejaVuSans-Bold-20" transform="translate(187.304688 0)"/>
     <use xlink:href="#DejaVuSans-Bold-31" transform="translate(222.119141 0)"/>
     <use xlink:href="#DejaVuSans-Bold-37" transform="translate(291.699219 0)"/>
     <use xlink:href="#DejaVuSans-Bold-30" transform="translate(361.279297 0)"/>
     <use xlink:href="#DejaVuSans-Bold-b0" transform="translate(430.859375 0)"/>
    </g>
   </g>
   <g id="text_14">
    <!-- Interferência Destrutiva -->
    <g style="fill: #a63929" transform="translate(608.809375 211.693967) scale(0.1 -0.1)">
     <defs>
      <path id="DejaVuSans-44" d="M 1259 4147 
L 1259 519 
L 2022 519 
Q 2988 519 3436 956 
Q 3884 1394 3884 2338 
Q 3884 3275 3436 3711 
Q 2988 4147 2022 4147 
L 1259 4147 
z
M 628 4666 
L 1925 4666 
Q 3281 4666 3915 4102 
Q 4550 3538 4550 2338 
Q 4550 1131 3912 565 
Q 3275 0 1925 0 
L 628 0 
L 628 4666 
z
" transform="scale(0.015625)"/>
     </defs>
     <use xlink:href="#DejaVuSans-49"/>
     <use xlink:href="#DejaVuSans-6e" transform="translate(29.492188 0)"/>
     <use xlink:href="#DejaVuSans-74" transform="translate(92.871094 0)"/>
     <use xlink:href="#DejaVuSans-65" transform="translate(132.080078 0)"/>
     <use xlink:href="#DejaVuSans-72" transform="translate(193.603516 0)"/>
     <use xlink:href="#DejaVuSans-66" transform="translate(234.716797 0)"/>
     <use xlink:href="#DejaVuSans-65" transform="translate(269.921875 0)"/>
     <use xlink:href="#DejaVuSans-72" transform="translate(331.445312 0)"/>
     <use xlink:href="#DejaVuSans-ea" transform="translate(370.308594 0)"/>
     <use xlink:href="#DejaVuSans-6e" transform="translate(431.832031 0)"/>
     <use xlink:href="#DejaVuSans-63" transform="translate(495.210938 0)"/>
     <use xlink:href="#DejaVuSans-69" transform="translate(550.191406 0)"/>
     <use xlink:href="#DejaVuSans-61" transform="translate(577.974609 0)"/>
     <use xlink:href="#DejaVuSans-20" transform="translate(639.253906 0)"/>
     <use xlink:href="#DejaVuSans-44" transform="translate(671.041016 0)"/>
     <use xlink:href="#DejaVuSans-65" transform="translate(748.042969 0)"/>
     <use xlink:href="#DejaVuSans-73" transform="translate(809.566406 0)"/>
     <use xlink:href="#DejaVuSans-74" transform="translate(861.666016 0)"/>
     <use xlink:href="#DejaVuSans-72" transform="translate(900.875 0)"/>
     <use xlink:href="#DejaVuSans-75" transform="translate(941.988281 0)"/>
     <use xlink:href="#DejaVuSans-74" transform="translate(1005.367188 0)"/>
     <use xlink:href="#DejaVuSans-69" transform="translate(1044.576172 0)"/>
     <use xlink:href="#DejaVuSans-76" transform="translate(1072.359375 0)"/>
     <use xlink:href="#DejaVuSans-61" transform="translate(1131.539062 0)"/>
    </g>
   </g>
   <g id="text_15">
    <!-- P(Ação) ≈ 0.0 -->
    <g style="fill: #888888" transform="translate(637.452734 224.434592) scale(0.09 -0.09)">
     <use xlink:href="#DejaVuSans-50"/>
     <use xlink:href="#DejaVuSans-28" transform="translate(60.302734 0)"/>
     <use xlink:href="#DejaVuSans-41" transform="translate(99.316406 0)"/>
     <use xlink:href="#DejaVuSans-e7" transform="translate(165.974609 0)"/>
     <use xlink:href="#DejaVuSans-e3" transform="translate(220.955078 0)"/>
     <use xlink:href="#DejaVuSans-6f" transform="translate(282.234375 0)"/>
     <use xlink:href="#DejaVuSans-29" transform="translate(343.416016 0)"/>
     <use xlink:href="#DejaVuSans-20" transform="translate(382.429688 0)"/>
     <use xlink:href="#DejaVuSans-2248" transform="translate(414.216797 0)"/>
     <use xlink:href="#DejaVuSans-20" transform="translate(498.005859 0)"/>
     <use xlink:href="#DejaVuSans-30" transform="translate(529.792969 0)"/>
     <use xlink:href="#DejaVuSans-2e" transform="translate(593.416016 0)"/>
     <use xlink:href="#DejaVuSans-30" transform="translate(625.203125 0)"/>
    </g>
   </g>
  </g>
  <g id="axes_4">
   <g id="patch_8">
    <path d="M 43.8 378.72 
L 769.2 378.72 
L 769.2 301.136327 
L 43.8 301.136327 
z
" style="fill: #f5f0e8"/>
   </g>
   <g id="matplotlib.axis_1">
    <g id="xtick_1">
     <g id="line2d_3">
      <defs>
       <path id="m9a179fb51b" d="M 0 0 
L 0 3.5 
" style="stroke: #888888; stroke-width: 0.8"/>
      </defs>
      <g>
       <use xlink:href="#m9a179fb51b" x="76.772727" y="378.72" style="fill: #888888; stroke: #888888; stroke-width: 0.8"/>
      </g>
     </g>
     <g id="text_16">
      <!-- 0 -->
      <g style="fill: #888888" transform="translate(73.591477 393.318437) scale(0.1 -0.1)">
       <use xlink:href="#DejaVuSans-30"/>
      </g>
     </g>
    </g>
    <g id="xtick_2">
     <g id="line2d_4">
      <g>
       <use xlink:href="#m9a179fb51b" x="241.636364" y="378.72" style="fill: #888888; stroke: #888888; stroke-width: 0.8"/>
      </g>
     </g>
     <g id="text_17">
      <!-- 45 -->
      <g style="fill: #888888" transform="translate(235.273864 393.318437) scale(0.1 -0.1)">
       <defs>
        <path id="DejaVuSans-34" d="M 2419 4116 
L 825 1625 
L 2419 1625 
L 2419 4116 
z
M 2253 4666 
L 3047 4666 
L 3047 1625 
L 3713 1625 
L 3713 1100 
L 3047 1100 
L 3047 0 
L 2419 0 
L 2419 1100 
L 313 1100 
L 313 1709 
L 2253 4666 
z
" transform="scale(0.015625)"/>
       </defs>
       <use xlink:href="#DejaVuSans-34"/>
       <use xlink:href="#DejaVuSans-35" transform="translate(63.623047 0)"/>
      </g>
     </g>
    </g>
    <g id="xtick_3">
     <g id="line2d_5">
      <g>
       <use xlink:href="#m9a179fb51b" x="406.5" y="378.72" style="fill: #888888; stroke: #888888; stroke-width: 0.8"/>
      </g>
     </g>
     <g id="text_18">
      <!-- 90 -->
      <g style="fill: #888888" transform="translate(400.1375 393.318437) scale(0.1 -0.1)">
       <defs>
        <path id="DejaVuSans-39" d="M 703 97 
L 703 672 
Q 941 559 1184 500 
Q 1428 441 1663 441 
Q 2288 441 2617 861 
Q 2947 1281 2994 2138 
Q 2813 1869 2534 1725 
Q 2256 1581 1919 1581 
Q 1219 1581 811 2004 
Q 403 2428 403 3163 
Q 403 3881 828 4315 
Q 1253 4750 1959 4750 
Q 2769 4750 3195 4129 
Q 3622 3509 3622 2328 
Q 3622 1225 3098 567 
Q 2575 -91 1691 -91 
Q 1453 -91 1209 -44 
Q 966 3 703 97 
z
M 1959 2075 
Q 2384 2075 2632 2365 
Q 2881 2656 2881 3163 
Q 2881 3666 2632 3958 
Q 2384 4250 1959 4250 
Q 1534 4250 1286 3958 
Q 1038 3666 1038 3163 
Q 1038 2656 1286 2365 
Q 1534 2075 1959 2075 
z
" transform="scale(0.015625)"/>
       </defs>
       <use xlink:href="#DejaVuSans-39"/>
       <use xlink:href="#DejaVuSans-30" transform="translate(63.623047 0)"/>
      </g>
     </g>
    </g>
    <g id="xtick_4">
     <g id="line2d_6">
      <g>
       <use xlink:href="#m9a179fb51b" x="571.363636" y="378.72" style="fill: #888888; stroke: #888888; stroke-width: 0.8"/>
      </g>
     </g>
     <g id="text_19">
      <!-- 135 -->
      <g style="fill: #888888" transform="translate(561.819886 393.318437) scale(0.1 -0.1)">
       <defs>
        <path id="DejaVuSans-33" d="M 2597 2516 
Q 3050 2419 3304 2112 
Q 3559 1806 3559 1356 
Q 3559 666 3084 287 
Q 2609 -91 1734 -91 
Q 1441 -91 1130 -33 
Q 819 25 488 141 
L 488 750 
Q 750 597 1062 519 
Q 1375 441 1716 441 
Q 2309 441 2620 675 
Q 2931 909 2931 1356 
Q 2931 1769 2642 2001 
Q 2353 2234 1838 2234 
L 1294 2234 
L 1294 2753 
L 1863 2753 
Q 2328 2753 2575 2939 
Q 2822 3125 2822 3475 
Q 2822 3834 2567 4026 
Q 2313 4219 1838 4219 
Q 1578 4219 1281 4162 
Q 984 4106 628 3988 
L 628 4550 
Q 988 4650 1302 4700 
Q 1616 4750 1894 4750 
Q 2613 4750 3031 4423 
Q 3450 4097 3450 3541 
Q 3450 3153 3228 2886 
Q 3006 2619 2597 2516 
z
" transform="scale(0.015625)"/>
       </defs>
       <use xlink:href="#DejaVuSans-31"/>
       <use xlink:href="#DejaVuSans-33" transform="translate(63.623047 0)"/>
       <use xlink:href="#DejaVuSans-35" transform="translate(127.246094 0)"/>
      </g>
     </g>
    </g>
    <g id="xtick_5">
     <g id="line2d_7">
      <g>
       <use xlink:href="#m9a179fb51b" x="736.227273" y="378.72" style="fill: #888888; stroke: #888888; stroke-width: 0.8"/>
      </g>
     </g>
     <g id="text_20">
      <!-- 180 -->
      <g style="fill: #888888" transform="translate(726.683523 393.318437) scale(0.1 -0.1)">
       <defs>
        <path id="DejaVuSans-38" d="M 2034 2216 
Q 1584 2216 1326 1975 
Q 1069 1734 1069 1313 
Q 1069 891 1326 650 
Q 1584 409 2034 409 
Q 2484 409 2743 651 
Q 3003 894 3003 1313 
Q 3003 1734 2745 1975 
Q 2488 2216 2034 2216 
z
M 1403 2484 
Q 997 2584 770 2862 
Q 544 3141 544 3541 
Q 544 4100 942 4425 
Q 1341 4750 2034 4750 
Q 2731 4750 3128 4425 
Q 3525 4100 3525 3541 
Q 3525 3141 3298 2862 
Q 3072 2584 2669 2484 
Q 3125 2378 3379 2068 
Q 3634 1759 3634 1313 
Q 3634 634 3220 271 
Q 2806 -91 2034 -91 
Q 1263 -91 848 271 
Q 434 634 434 1313 
Q 434 1759 690 2068 
Q 947 2378 1403 2484 
z
M 1172 3481 
Q 1172 3119 1398 2916 
Q 1625 2713 2034 2713 
Q 2441 2713 2670 2916 
Q 2900 3119 2900 3481 
Q 2900 3844 2670 4047 
Q 2441 4250 2034 4250 
Q 1625 4250 1398 4047 
Q 1172 3844 1172 3481 
z
" transform="scale(0.015625)"/>
       </defs>
       <use xlink:href="#DejaVuSans-31"/>
       <use xlink:href="#DejaVuSans-38" transform="translate(63.623047 0)"/>
       <use xlink:href="#DejaVuSans-30" transform="translate(127.246094 0)"/>
      </g>
     </g>
    </g>
    <g id="text_21">
     <!-- θ (graus) -->
     <g style="fill: #888888" transform="translate(383.882812 407.074687) scale(0.1 -0.1)">
      <defs>
       <path id="DejaVuSans-3b8" d="M 2953 2219 
L 963 2219 
Q 1009 1284 1225 888 
Q 1494 400 1959 400 
Q 2428 400 2688 891 
Q 2916 1322 2953 2219 
z
M 2944 2750 
Q 2856 3638 2688 3950 
Q 2419 4444 1959 4444 
Q 1481 4444 1228 3956 
Q 1028 3563 969 2750 
L 2944 2750 
z
M 1959 4913 
Q 2709 4913 3138 4250 
Q 3566 3591 3566 2422 
Q 3566 1256 3138 594 
Q 2709 -72 1959 -72 
Q 1206 -72 781 594 
Q 353 1256 353 2422 
Q 353 3591 781 4250 
Q 1206 4913 1959 4913 
z
" transform="scale(0.015625)"/>
       <path id="DejaVuSans-67" d="M 2906 1791 
Q 2906 2416 2648 2759 
Q 2391 3103 1925 3103 
Q 1463 3103 1205 2759 
Q 947 2416 947 1791 
Q 947 1169 1205 825 
Q 1463 481 1925 481 
Q 2391 481 2648 825 
Q 2906 1169 2906 1791 
z
M 3481 434 
Q 3481 -459 3084 -895 
Q 2688 -1331 1869 -1331 
Q 1566 -1331 1297 -1286 
Q 1028 -1241 775 -1147 
L 775 -588 
Q 1028 -725 1275 -790 
Q 1522 -856 1778 -856 
Q 2344 -856 2625 -561 
Q 2906 -266 2906 331 
L 2906 616 
Q 2728 306 2450 153 
Q 2172 0 1784 0 
Q 1141 0 747 490 
Q 353 981 353 1791 
Q 353 2603 747 3093 
Q 1141 3584 1784 3584 
Q 2172 3584 2450 3431 
Q 2728 3278 2906 2969 
L 2906 3500 
L 3481 3500 
L 3481 434 
z
" transform="scale(0.015625)"/>
      </defs>
      <use xlink:href="#DejaVuSans-3b8"/>
      <use xlink:href="#DejaVuSans-20" transform="translate(61.181641 0)"/>
      <use xlink:href="#DejaVuSans-28" transform="translate(92.96875 0)"/>
      <use xlink:href="#DejaVuSans-67" transform="translate(131.982422 0)"/>
      <use xlink:href="#DejaVuSans-72" transform="translate(195.458984 0)"/>
      <use xlink:href="#DejaVuSans-61" transform="translate(236.572266 0)"/>
      <use xlink:href="#DejaVuSans-75" transform="translate(297.851562 0)"/>
      <use xlink:href="#DejaVuSans-73" transform="translate(361.230469 0)"/>
      <use xlink:href="#DejaVuSans-29" transform="translate(413.330078 0)"/>
     </g>
    </g>
   </g>
   <g id="matplotlib.axis_2">
    <g id="ytick_1">
     <g id="line2d_8">
      <defs>
       <path id="mb11c8b73e3" d="M 0 0 
L -3.5 0 
" style="stroke: #888888; stroke-width: 0.8"/>
      </defs>
      <g>
       <use xlink:href="#mb11c8b73e3" x="43.8" y="375.193469" style="fill: #888888; stroke: #888888; stroke-width: 0.8"/>
      </g>
     </g>
     <g id="text_22">
      <!-- 0.0 -->
      <g style="fill: #888888" transform="translate(20.896875 378.992688) scale(0.1 -0.1)">
       <use xlink:href="#DejaVuSans-30"/>
       <use xlink:href="#DejaVuSans-2e" transform="translate(63.623047 0)"/>
       <use xlink:href="#DejaVuSans-30" transform="translate(95.410156 0)"/>
      </g>
     </g>
    </g>
    <g id="ytick_2">
     <g id="line2d_9">
      <g>
       <use xlink:href="#mb11c8b73e3" x="43.8" y="339.928163" style="fill: #888888; stroke: #888888; stroke-width: 0.8"/>
      </g>
     </g>
     <g id="text_23">
      <!-- 0.5 -->
      <g style="fill: #888888" transform="translate(20.896875 343.727382) scale(0.1 -0.1)">
       <use xlink:href="#DejaVuSans-30"/>
       <use xlink:href="#DejaVuSans-2e" transform="translate(63.623047 0)"/>
       <use xlink:href="#DejaVuSans-35" transform="translate(95.410156 0)"/>
      </g>
     </g>
    </g>
    <g id="ytick_3">
     <g id="line2d_10">
      <g>
       <use xlink:href="#mb11c8b73e3" x="43.8" y="304.662857" style="fill: #888888; stroke: #888888; stroke-width: 0.8"/>
      </g>
     </g>
     <g id="text_24">
      <!-- 1.0 -->
      <g style="fill: #888888" transform="translate(20.896875 308.462076) scale(0.1 -0.1)">
       <use xlink:href="#DejaVuSans-31"/>
       <use xlink:href="#DejaVuSans-2e" transform="translate(63.623047 0)"/>
       <use xlink:href="#DejaVuSans-30" transform="translate(95.410156 0)"/>
      </g>
     </g>
    </g>
    <g id="text_25">
     <!-- P(Ação) -->
     <g style="fill: #888888" transform="translate(14.817188 359.050038) rotate(-90) scale(0.1 -0.1)">
      <use xlink:href="#DejaVuSans-50"/>
      <use xlink:href="#DejaVuSans-28" transform="translate(60.302734 0)"/>
      <use xlink:href="#DejaVuSans-41" transform="translate(99.316406 0)"/>
      <use xlink:href="#DejaVuSans-e7" transform="translate(165.974609 0)"/>
      <use xlink:href="#DejaVuSans-e3" transform="translate(220.955078 0)"/>
      <use xlink:href="#DejaVuSans-6f" transform="translate(282.234375 0)"/>
      <use xlink:href="#DejaVuSans-29" transform="translate(343.416016 0)"/>
     </g>
    </g>
   </g>
   <g id="line2d_11">
    <path d="M 76.772727 304.662857 
L 93.341937 304.772663 
L 109.911147 305.101397 
L 126.480356 305.647012 
L 143.049566 306.40611 
L 159.618776 307.373964 
L 176.187985 308.544546 
L 192.757195 309.910567 
L 212.640247 311.795712 
L 232.523298 313.933077 
L 252.40635 316.303499 
L 272.289402 318.885726 
L 295.486295 322.135041 
L 318.683189 325.601426 
L 345.193924 329.77446 
L 381.646185 335.762439 
L 471.119918 350.613734 
L 500.944495 355.265025 
L 524.141389 358.673599 
L 547.338282 361.853485 
L 567.221334 364.367593 
L 587.104386 366.662591 
L 606.987437 368.717903 
L 626.870489 370.515103 
L 643.439698 371.803902 
L 660.008908 372.894198 
L 676.578118 373.779201 
L 693.147328 374.453399 
L 709.716537 374.912594 
L 726.285747 375.153926 
L 736.227273 375.193469 
L 736.227273 375.193469 
" clip-path="url(#p9347bbf656)" style="fill: none; stroke: #3d5a80; stroke-width: 2.5; stroke-linecap: square"/>
   </g>
   <g id="line2d_12">
    <path d="M 95.090909 378.72 
L 95.090909 301.136327 
" clip-path="url(#p9347bbf656)" style="fill: none; stroke-dasharray: 5.55,2.4; stroke-dashoffset: 0; stroke: #3b6d11; stroke-opacity: 0.7; stroke-width: 1.5"/>
   </g>
   <g id="line2d_13">
    <path d="M 406.5 378.72 
L 406.5 301.136327 
" clip-path="url(#p9347bbf656)" style="fill: none; stroke-dasharray: 5.55,2.4; stroke-dashoffset: 0; stroke: #3d5a80; stroke-opacity: 0.7; stroke-width: 1.5"/>
   </g>
   <g id="line2d_14">
    <path d="M 699.590909 378.72 
L 699.590909 301.136327 
" clip-path="url(#p9347bbf656)" style="fill: none; stroke-dasharray: 5.55,2.4; stroke-dashoffset: 0; stroke: #a63929; stroke-opacity: 0.7; stroke-width: 1.5"/>
   </g>
   <g id="patch_9">
    <path d="M 43.8 378.72 
L 43.8 301.136327 
" style="fill: none; stroke: #888888; stroke-width: 0.8; stroke-linejoin: miter; stroke-linecap: square"/>
   </g>
   <g id="patch_10">
    <path d="M 769.2 378.72 
L 769.2 301.136327 
" style="fill: none; stroke: #888888; stroke-width: 0.8; stroke-linejoin: miter; stroke-linecap: square"/>
   </g>
   <g id="patch_11">
    <path d="M 43.8 378.72 
L 769.2 378.72 
" style="fill: none; stroke: #888888; stroke-width: 0.8; stroke-linejoin: miter; stroke-linecap: square"/>
   </g>
   <g id="patch_12">
    <path d="M 43.8 301.136327 
L 769.2 301.136327 
" style="fill: none; stroke: #888888; stroke-width: 0.8; stroke-linejoin: miter; stroke-linecap: square"/>
   </g>
   <g id="text_26">
    <!-- Kaminski (2026) — Cap. 7 §7.2 -->
    <g style="fill: #888888" transform="translate(584.087393 315.242449) scale(0.075 -0.075)">
     <defs>
      <path id="DejaVuSans-Oblique-4b" d="M 1081 4666 
L 1716 4666 
L 1331 2700 
L 3781 4666 
L 4622 4666 
L 1850 2438 
L 3878 0 
L 3109 0 
L 1247 2272 
L 806 0 
L 172 0 
L 1081 4666 
z
" transform="scale(0.015625)"/>
      <path id="DejaVuSans-Oblique-61" d="M 3438 1997 
L 3047 0 
L 2472 0 
L 2578 531 
Q 2325 219 2001 64 
Q 1678 -91 1281 -91 
Q 834 -91 548 182 
Q 263 456 263 884 
Q 263 1497 752 1853 
Q 1241 2209 2100 2209 
L 2900 2209 
L 2931 2363 
Q 2938 2388 2941 2417 
Q 2944 2447 2944 2509 
Q 2944 2788 2717 2942 
Q 2491 3097 2081 3097 
Q 1800 3097 1504 3025 
Q 1209 2953 897 2809 
L 997 3341 
Q 1322 3463 1633 3523 
Q 1944 3584 2234 3584 
Q 2853 3584 3176 3315 
Q 3500 3047 3500 2534 
Q 3500 2431 3484 2292 
Q 3469 2153 3438 1997 
z
M 2816 1759 
L 2241 1759 
Q 1534 1759 1195 1570 
Q 856 1381 856 984 
Q 856 709 1029 553 
Q 1203 397 1509 397 
Q 1978 397 2328 733 
Q 2678 1069 2791 1631 
L 2816 1759 
z
" transform="scale(0.015625)"/>
      <path id="DejaVuSans-Oblique-6d" d="M 5747 2113 
L 5338 0 
L 4763 0 
L 5166 2094 
Q 5191 2228 5203 2325 
Q 5216 2422 5216 2491 
Q 5216 2772 5059 2928 
Q 4903 3084 4622 3084 
Q 4203 3084 3875 2770 
Q 3547 2456 3450 1953 
L 3066 0 
L 2491 0 
L 2900 2094 
Q 2925 2209 2937 2307 
Q 2950 2406 2950 2484 
Q 2950 2769 2794 2926 
Q 2638 3084 2363 3084 
Q 1938 3084 1609 2770 
Q 1281 2456 1184 1953 
L 800 0 
L 225 0 
L 909 3500 
L 1484 3500 
L 1375 2956 
Q 1609 3263 1923 3423 
Q 2238 3584 2597 3584 
Q 2978 3584 3223 3384 
Q 3469 3184 3519 2828 
Q 3781 3197 4126 3390 
Q 4472 3584 4856 3584 
Q 5306 3584 5551 3325 
Q 5797 3066 5797 2591 
Q 5797 2488 5784 2364 
Q 5772 2241 5747 2113 
z
" transform="scale(0.015625)"/>
      <path id="DejaVuSans-Oblique-69" d="M 1172 4863 
L 1747 4863 
L 1606 4134 
L 1031 4134 
L 1172 4863 
z
M 909 3500 
L 1484 3500 
L 800 0 
L 225 0 
L 909 3500 
z
" transform="scale(0.015625)"/>
      <path id="DejaVuSans-Oblique-6e" d="M 3566 2113 
L 3156 0 
L 2578 0 
L 2988 2091 
Q 3016 2238 3031 2350 
Q 3047 2463 3047 2528 
Q 3047 2791 2881 2937 
Q 2716 3084 2419 3084 
Q 1956 3084 1622 2776 
Q 1288 2469 1184 1941 
L 800 0 
L 225 0 
L 903 3500 
L 1478 3500 
L 1363 2950 
Q 1603 3253 1940 3418 
Q 2278 3584 2650 3584 
Q 3113 3584 3367 3334 
Q 3622 3084 3622 2631 
Q 3622 2519 3608 2391 
Q 3594 2263 3566 2113 
z
" transform="scale(0.015625)"/>
      <path id="DejaVuSans-Oblique-73" d="M 3200 3397 
L 3091 2853 
Q 2863 2978 2609 3040 
Q 2356 3103 2088 3103 
Q 1634 3103 1373 2948 
Q 1113 2794 1113 2528 
Q 1113 2219 1719 2053 
Q 1766 2041 1788 2034 
L 1972 1978 
Q 2547 1819 2739 1644 
Q 2931 1469 2931 1166 
Q 2931 609 2489 259 
Q 2047 -91 1331 -91 
Q 1053 -91 747 -37 
Q 441 16 72 128 
L 184 722 
Q 500 559 806 475 
Q 1113 391 1394 391 
Q 1816 391 2080 572 
Q 2344 753 2344 1031 
Q 2344 1331 1650 1516 
L 1591 1531 
L 1394 1581 
Q 956 1697 753 1886 
Q 550 2075 550 2369 
Q 550 2928 970 3256 
Q 1391 3584 2113 3584 
Q 2397 3584 2667 3537 
Q 2938 3491 3200 3397 
z
" transform="scale(0.015625)"/>
      <path id="DejaVuSans-Oblique-6b" d="M 1172 4863 
L 1747 4863 
L 1197 2028 
L 3169 3500 
L 3916 3500 
L 1716 1825 
L 3322 0 
L 2625 0 
L 1131 1709 
L 800 0 
L 225 0 
L 1172 4863 
z
" transform="scale(0.015625)"/>
      <path id="DejaVuSans-Oblique-20" transform="scale(0.015625)"/>
      <path id="DejaVuSans-Oblique-28" d="M 2731 4856 
Q 1903 3822 1495 2892 
Q 1088 1963 1088 1100 
Q 1088 606 1206 120 
Q 1325 -366 1563 -844 
L 1063 -844 
Q 775 -306 634 201 
Q 494 709 494 1197 
Q 494 2125 923 3036 
Q 1353 3947 2222 4856 
L 2731 4856 
z
" transform="scale(0.015625)"/>
      <path id="DejaVuSans-Oblique-32" d="M 2950 2253 
L 934 525 
L 3163 525 
L 3053 0 
L 25 0 
L 128 531 
L 2234 2338 
Q 2656 2703 2832 2979 
Q 3009 3256 3009 3547 
Q 3009 3850 2796 4040 
Q 2584 4231 2241 4231 
Q 1944 4231 1581 4125 
Q 1219 4019 806 3816 
L 922 4441 
Q 1309 4594 1662 4672 
Q 2016 4750 2316 4750 
Q 2928 4750 3301 4425 
Q 3675 4100 3675 3572 
Q 3675 3216 3497 2892 
Q 3319 2569 2950 2253 
z
" transform="scale(0.015625)"/>
      <path id="DejaVuSans-Oblique-30" d="M 2444 4750 
Q 3078 4750 3414 4328 
Q 3750 3906 3750 3116 
Q 3750 2516 3592 1923 
Q 3434 1331 3150 863 
Q 2859 394 2467 151 
Q 2075 -91 1600 -91 
Q 988 -91 653 334 
Q 319 759 319 1544 
Q 319 2138 480 2733 
Q 641 3328 928 3794 
Q 1216 4263 1602 4506 
Q 1988 4750 2444 4750 
z
M 2406 4250 
Q 2169 4250 1955 4123 
Q 1741 3997 1569 3750 
Q 1281 3338 1111 2720 
Q 941 2103 941 1453 
Q 941 938 1123 673 
Q 1306 409 1663 409 
Q 1913 409 2125 536 
Q 2338 663 2509 909 
Q 2794 1319 2961 1936 
Q 3128 2553 3128 3206 
Q 3128 3722 2945 3986 
Q 2763 4250 2406 4250 
z
" transform="scale(0.015625)"/>
      <path id="DejaVuSans-Oblique-36" d="M 2938 1728 
Q 2938 2125 2734 2354 
Q 2531 2584 2181 2584 
Q 1697 2584 1367 2211 
Q 1038 1838 1038 1288 
Q 1038 875 1239 642 
Q 1441 409 1797 409 
Q 2284 409 2611 792 
Q 2938 1175 2938 1728 
z
M 3788 4556 
L 3681 3981 
Q 3500 4100 3265 4162 
Q 3031 4225 2766 4225 
Q 2119 4225 1726 3819 
Q 1334 3413 1141 2547 
Q 1369 2813 1670 2948 
Q 1972 3084 2322 3084 
Q 2894 3084 3233 2754 
Q 3572 2425 3572 1869 
Q 3572 1413 3405 1020 
Q 3238 628 2919 331 
Q 2700 128 2409 18 
Q 2119 -91 1791 -91 
Q 1147 -91 775 318 
Q 403 728 403 1441 
Q 403 2103 573 2717 
Q 744 3331 1050 3781 
Q 1372 4256 1830 4503 
Q 2288 4750 2841 4750 
Q 3084 4750 3321 4701 
Q 3559 4653 3788 4556 
z
" transform="scale(0.015625)"/>
      <path id="DejaVuSans-Oblique-29" d="M -397 -844 
Q 434 191 840 1120 
Q 1247 2050 1247 2913 
Q 1247 3406 1130 3892 
Q 1013 4378 775 4856 
L 1275 4856 
Q 1563 4316 1703 3812 
Q 1844 3309 1844 2822 
Q 1844 1891 1411 973 
Q 978 56 116 -844 
L -397 -844 
z
" transform="scale(0.015625)"/>
      <path id="DejaVuSans-Oblique-2014" d="M 356 1978 
L 6131 1978 
L 6044 1528 
L 269 1528 
L 356 1978 
z
" transform="scale(0.015625)"/>
      <path id="DejaVuSans-Oblique-43" d="M 4447 4306 
L 4319 3641 
Q 4019 3944 3683 4091 
Q 3347 4238 2956 4238 
Q 2422 4238 2017 3981 
Q 1613 3725 1319 3200 
Q 1131 2863 1032 2486 
Q 934 2109 934 1728 
Q 934 1091 1264 756 
Q 1594 422 2222 422 
Q 2656 422 3056 561 
Q 3456 700 3834 978 
L 3688 231 
Q 3316 72 2936 -9 
Q 2556 -91 2175 -91 
Q 1278 -91 773 396 
Q 269 884 269 1753 
Q 269 2309 461 2846 
Q 653 3384 1013 3828 
Q 1394 4300 1883 4525 
Q 2372 4750 3022 4750 
Q 3422 4750 3780 4639 
Q 4138 4528 4447 4306 
z
" transform="scale(0.015625)"/>
      <path id="DejaVuSans-Oblique-70" d="M 3175 2156 
Q 3175 2616 2975 2859 
Q 2775 3103 2400 3103 
Q 2144 3103 1911 2972 
Q 1678 2841 1497 2591 
Q 1319 2344 1212 1994 
Q 1106 1644 1106 1300 
Q 1106 863 1306 627 
Q 1506 391 1875 391 
Q 2147 391 2380 519 
Q 2613 647 2778 891 
Q 2956 1147 3065 1494 
Q 3175 1841 3175 2156 
z
M 1394 2969 
Q 1625 3272 1939 3428 
Q 2253 3584 2638 3584 
Q 3175 3584 3472 3232 
Q 3769 2881 3769 2247 
Q 3769 1728 3584 1258 
Q 3400 788 3053 416 
Q 2822 169 2531 39 
Q 2241 -91 1919 -91 
Q 1547 -91 1294 64 
Q 1041 219 916 525 
L 556 -1331 
L -19 -1331 
L 922 3500 
L 1497 3500 
L 1394 2969 
z
" transform="scale(0.015625)"/>
      <path id="DejaVuSans-Oblique-2e" d="M 525 794 
L 1184 794 
L 1031 0 
L 372 0 
L 525 794 
z
" transform="scale(0.015625)"/>
      <path id="DejaVuSans-Oblique-37" d="M 819 4666 
L 4013 4666 
L 3956 4397 
L 1288 0 
L 594 0 
L 3116 4134 
L 716 4134 
L 819 4666 
z
" transform="scale(0.015625)"/>
      <path id="DejaVuSans-Oblique-a7" d="M 1881 1281 
Q 2138 1434 2272 1607 
Q 2406 1781 2406 1959 
Q 2406 2128 2239 2304 
Q 2072 2481 1625 2766 
L 1375 2925 
Q 1122 2766 989 2591 
Q 856 2416 856 2241 
Q 856 2084 989 1932 
Q 1122 1781 1516 1522 
L 1881 1281 
z
M 3103 4569 
L 3003 4056 
Q 2778 4178 2564 4239 
Q 2350 4300 2169 4300 
Q 1847 4300 1640 4148 
Q 1434 3997 1434 3769 
Q 1434 3522 1856 3241 
Q 1950 3178 2003 3144 
L 2278 2956 
Q 2659 2691 2792 2508 
Q 2925 2325 2925 2106 
Q 2925 1791 2719 1509 
Q 2513 1228 2156 1063 
Q 2284 953 2348 812 
Q 2413 672 2413 500 
Q 2413 9 2033 -300 
Q 1653 -609 1031 -609 
Q 816 -609 575 -564 
Q 334 -519 78 -428 
L 178 84 
Q 416 -34 641 -96 
Q 866 -159 1050 -159 
Q 1400 -159 1609 -10 
Q 1819 138 1819 384 
Q 1819 691 1256 1069 
L 1209 1100 
L 972 1259 
Q 588 1522 459 1698 
Q 331 1875 331 2106 
Q 331 2406 531 2676 
Q 731 2947 1100 3144 
Q 966 3263 905 3389 
Q 844 3516 844 3675 
Q 844 4134 1223 4442 
Q 1603 4750 2188 4750 
Q 2409 4750 2636 4704 
Q 2863 4659 3103 4569 
z
" transform="scale(0.015625)"/>
     </defs>
     <use xlink:href="#DejaVuSans-Oblique-4b"/>
     <use xlink:href="#DejaVuSans-Oblique-61" transform="translate(61.951172 0)"/>
     <use xlink:href="#DejaVuSans-Oblique-6d" transform="translate(123.230469 0)"/>
     <use xlink:href="#DejaVuSans-Oblique-69" transform="translate(220.642578 0)"/>
     <use xlink:href="#DejaVuSans-Oblique-6e" transform="translate(248.425781 0)"/>
     <use xlink:href="#DejaVuSans-Oblique-73" transform="translate(311.804688 0)"/>
     <use xlink:href="#DejaVuSans-Oblique-6b" transform="translate(363.904297 0)"/>
     <use xlink:href="#DejaVuSans-Oblique-69" transform="translate(421.814453 0)"/>
     <use xlink:href="#DejaVuSans-Oblique-20" transform="translate(449.597656 0)"/>
     <use xlink:href="#DejaVuSans-Oblique-28" transform="translate(481.384766 0)"/>
     <use xlink:href="#DejaVuSans-Oblique-32" transform="translate(520.398438 0)"/>
     <use xlink:href="#DejaVuSans-Oblique-30" transform="translate(584.021484 0)"/>
     <use xlink:href="#DejaVuSans-Oblique-32" transform="translate(647.644531 0)"/>
     <use xlink:href="#DejaVuSans-Oblique-36" transform="translate(711.267578 0)"/>
     <use xlink:href="#DejaVuSans-Oblique-29" transform="translate(774.890625 0)"/>
     <use xlink:href="#DejaVuSans-Oblique-20" transform="translate(813.904297 0)"/>
     <use xlink:href="#DejaVuSans-Oblique-2014" transform="translate(845.691406 0)"/>
     <use xlink:href="#DejaVuSans-Oblique-20" transform="translate(945.691406 0)"/>
     <use xlink:href="#DejaVuSans-Oblique-43" transform="translate(977.478516 0)"/>
     <use xlink:href="#DejaVuSans-Oblique-61" transform="translate(1047.302734 0)"/>
     <use xlink:href="#DejaVuSans-Oblique-70" transform="translate(1108.582031 0)"/>
     <use xlink:href="#DejaVuSans-Oblique-2e" transform="translate(1172.058594 0)"/>
     <use xlink:href="#DejaVuSans-Oblique-20" transform="translate(1203.845703 0)"/>
     <use xlink:href="#DejaVuSans-Oblique-37" transform="translate(1235.632812 0)"/>
     <use xlink:href="#DejaVuSans-Oblique-20" transform="translate(1299.255859 0)"/>
     <use xlink:href="#DejaVuSans-Oblique-a7" transform="translate(1331.042969 0)"/>
     <use xlink:href="#DejaVuSans-Oblique-37" transform="translate(1381.042969 0)"/>
     <use xlink:href="#DejaVuSans-Oblique-2e" transform="translate(1444.666016 0)"/>
     <use xlink:href="#DejaVuSans-Oblique-32" transform="translate(1476.453125 0)"/>
    </g>
   </g>
   <g id="text_27">
    <!-- P(Ação) = |α|² + |β|² + 2|α||β| cos(θ) -->
    <g style="fill: #1b2a47" transform="translate(305.988281 295.136327) scale(0.1 -0.1)">
     <defs>
      <path id="DejaVuSans-Bold-50" d="M 588 4666 
L 2584 4666 
Q 3475 4666 3951 4270 
Q 4428 3875 4428 3144 
Q 4428 2409 3951 2014 
Q 3475 1619 2584 1619 
L 1791 1619 
L 1791 0 
L 588 0 
L 588 4666 
z
M 1791 3794 
L 1791 2491 
L 2456 2491 
Q 2806 2491 2997 2661 
Q 3188 2831 3188 3144 
Q 3188 3456 2997 3625 
Q 2806 3794 2456 3794 
L 1791 3794 
z
" transform="scale(0.015625)"/>
      <path id="DejaVuSans-Bold-28" d="M 2413 -844 
L 1484 -844 
Q 1006 -72 778 623 
Q 550 1319 550 2003 
Q 550 2688 779 3389 
Q 1009 4091 1484 4856 
L 2413 4856 
Q 2013 4116 1813 3408 
Q 1613 2700 1613 2009 
Q 1613 1319 1811 609 
Q 2009 -100 2413 -844 
z
" transform="scale(0.015625)"/>
      <path id="DejaVuSans-Bold-41" d="M 3419 850 
L 1538 850 
L 1241 0 
L 31 0 
L 1759 4666 
L 3194 4666 
L 4922 0 
L 3713 0 
L 3419 850 
z
M 1838 1716 
L 3116 1716 
L 2478 3572 
L 1838 1716 
z
" transform="scale(0.015625)"/>
      <path id="DejaVuSans-Bold-e7" d="M 3366 3391 
L 3366 2478 
Q 3138 2634 2908 2709 
Q 2678 2784 2431 2784 
Q 1963 2784 1702 2511 
Q 1441 2238 1441 1747 
Q 1441 1256 1702 982 
Q 1963 709 2431 709 
Q 2694 709 2930 787 
Q 3166 866 3366 1019 
L 3366 103 
Q 3103 6 2833 -42 
Q 2563 -91 2291 -91 
Q 1344 -91 809 395 
Q 275 881 275 1747 
Q 275 2613 809 3098 
Q 1344 3584 2291 3584 
Q 2566 3584 2833 3536 
Q 3100 3488 3366 3391 
z
M 2457 0 
Q 2639 -194 2724 -359 
Q 2810 -525 2810 -672 
Q 2810 -969 2618 -1111 
Q 2426 -1253 2029 -1253 
Q 1879 -1253 1719 -1233 
Q 1560 -1213 1398 -1172 
L 1395 -697 
Q 1551 -747 1680 -770 
Q 1810 -794 1914 -794 
Q 2095 -794 2196 -722 
Q 2298 -650 2298 -525 
Q 2298 -444 2231 -316 
Q 2164 -188 2023 0 
L 2457 0 
z
" transform="scale(0.015625)"/>
      <path id="DejaVuSans-Bold-e3" d="M 2106 1575 
Q 1756 1575 1579 1456 
Q 1403 1338 1403 1106 
Q 1403 894 1545 773 
Q 1688 653 1941 653 
Q 2256 653 2472 879 
Q 2688 1106 2688 1447 
L 2688 1575 
L 2106 1575 
z
M 3816 1997 
L 3816 0 
L 2688 0 
L 2688 519 
Q 2463 200 2181 54 
Q 1900 -91 1497 -91 
Q 953 -91 614 226 
Q 275 544 275 1050 
Q 275 1666 698 1953 
Q 1122 2241 2028 2241 
L 2688 2241 
L 2688 2328 
Q 2688 2594 2478 2717 
Q 2269 2841 1825 2841 
Q 1466 2841 1156 2769 
Q 847 2697 581 2553 
L 581 3406 
Q 941 3494 1303 3539 
Q 1666 3584 2028 3584 
Q 2975 3584 3395 3211 
Q 3816 2838 3816 1997 
z
M 2190 4263 
L 2018 4378 
Q 2006 4384 1987 4397 
Q 1840 4494 1762 4494 
Q 1650 4494 1590 4397 
Q 1531 4300 1531 4116 
L 1531 4091 
L 1097 4091 
Q 1097 4516 1257 4747 
Q 1418 4978 1709 4978 
Q 1822 4978 1936 4936 
Q 2050 4894 2178 4800 
L 2368 4666 
Q 2437 4619 2495 4594 
Q 2553 4569 2600 4569 
Q 2712 4569 2774 4669 
Q 2837 4769 2837 4947 
L 2837 4972 
L 3272 4972 
Q 3272 4547 3111 4315 
Q 2950 4084 2659 4084 
Q 2547 4084 2442 4121 
Q 2337 4159 2190 4263 
z
" transform="scale(0.015625)"/>
      <path id="DejaVuSans-Bold-6f" d="M 2203 2784 
Q 1831 2784 1636 2517 
Q 1441 2250 1441 1747 
Q 1441 1244 1636 976 
Q 1831 709 2203 709 
Q 2569 709 2762 976 
Q 2956 1244 2956 1747 
Q 2956 2250 2762 2517 
Q 2569 2784 2203 2784 
z
M 2203 3584 
Q 3106 3584 3614 3096 
Q 4122 2609 4122 1747 
Q 4122 884 3614 396 
Q 3106 -91 2203 -91 
Q 1297 -91 786 396 
Q 275 884 275 1747 
Q 275 2609 786 3096 
Q 1297 3584 2203 3584 
z
" transform="scale(0.015625)"/>
      <path id="DejaVuSans-Bold-29" d="M 513 -844 
Q 913 -100 1113 609 
Q 1313 1319 1313 2009 
Q 1313 2700 1113 3408 
Q 913 4116 513 4856 
L 1441 4856 
Q 1916 4091 2145 3389 
Q 2375 2688 2375 2003 
Q 2375 1319 2147 623 
Q 1919 -72 1441 -844 
L 513 -844 
z
" transform="scale(0.015625)"/>
      <path id="DejaVuSans-Bold-3d" d="M 678 3084 
L 4684 3084 
L 4684 2350 
L 678 2350 
L 678 3084 
z
M 678 1663 
L 4684 1663 
L 4684 922 
L 678 922 
L 678 1663 
z
" transform="scale(0.015625)"/>
      <path id="DejaVuSans-Bold-7c" d="M 1522 4891 
L 1522 -1509 
L 813 -1509 
L 813 4891 
L 1522 4891 
z
" transform="scale(0.015625)"/>
      <path id="DejaVuSans-Bold-3b1" d="M 3006 3163 
L 3119 3500 
L 4088 3500 
L 3484 1697 
L 3569 1219 
Q 3659 703 3872 703 
L 4128 703 
L 4128 0 
L 3809 0 
Q 3313 0 3059 263 
Q 3003 322 2988 353 
Q 2838 163 2689 39 
Q 2541 -84 1763 -78 
Q 988 -72 648 400 
Q 309 872 309 1794 
Q 309 2713 663 3088 
Q 1109 3569 1966 3578 
Q 2688 3588 3006 3163 
z
M 2575 1841 
L 2481 2350 
Q 2394 2825 1981 2828 
Q 1772 2828 1598 2558 
Q 1425 2288 1425 1741 
Q 1425 1191 1581 944 
Q 1738 697 1969 691 
Q 2213 684 2363 1163 
L 2575 1841 
z
" transform="scale(0.015625)"/>
      <path id="DejaVuSans-Bold-b2" d="M 1288 2613 
L 2444 2613 
L 2444 2088 
L 341 2088 
L 341 2566 
L 1319 3397 
Q 1509 3563 1590 3688 
Q 1672 3813 1672 3938 
Q 1672 4094 1558 4191 
Q 1444 4288 1259 4288 
Q 1066 4288 844 4217 
Q 622 4147 359 4000 
L 359 4581 
Q 631 4666 886 4708 
Q 1141 4750 1375 4750 
Q 1869 4750 2150 4548 
Q 2431 4347 2431 4000 
Q 2431 3775 2320 3586 
Q 2209 3397 1894 3128 
L 1288 2613 
z
" transform="scale(0.015625)"/>
      <path id="DejaVuSans-Bold-2b" d="M 3053 4013 
L 3053 2375 
L 4684 2375 
L 4684 1638 
L 3053 1638 
L 3053 0 
L 2309 0 
L 2309 1638 
L 678 1638 
L 678 2375 
L 2309 2375 
L 2309 4013 
L 3053 4013 
z
" transform="scale(0.015625)"/>
      <path id="DejaVuSans-Bold-3b2" d="M 2575 3038 
Q 2772 3309 2772 3503 
Q 2772 3769 2648 3948 
Q 2525 4128 2241 4128 
Q 1900 4128 1778 3864 
Q 1656 3600 1656 3103 
L 1656 1747 
Q 1656 1250 1848 986 
Q 2041 722 2400 722 
Q 2800 722 2953 934 
Q 3106 1147 3106 1275 
Q 3106 1722 2738 1988 
Q 2538 2122 1988 2134 
L 1988 2847 
Q 2497 2925 2575 3038 
z
M 538 -1331 
L 538 3044 
Q 538 3922 969 4369 
Q 1325 4741 1672 4845 
Q 2019 4950 2259 4950 
Q 2500 4947 2538 4941 
Q 3178 4841 3538 4438 
Q 3788 4163 3788 3600 
Q 3788 3313 3616 3053 
Q 3406 2734 3094 2709 
Q 3556 2584 3844 2322 
Q 4294 1919 4294 1288 
Q 4294 731 3903 320 
Q 3513 -91 2809 -91 
Q 2106 -91 1656 506 
L 1656 -1331 
L 538 -1331 
z
" transform="scale(0.015625)"/>
      <path id="DejaVuSans-Bold-32" d="M 1844 884 
L 3897 884 
L 3897 0 
L 506 0 
L 506 884 
L 2209 2388 
Q 2438 2594 2547 2791 
Q 2656 2988 2656 3200 
Q 2656 3528 2436 3728 
Q 2216 3928 1850 3928 
Q 1569 3928 1234 3808 
Q 900 3688 519 3450 
L 519 4475 
Q 925 4609 1322 4679 
Q 1719 4750 2100 4750 
Q 2938 4750 3402 4381 
Q 3866 4013 3866 3353 
Q 3866 2972 3669 2642 
Q 3472 2313 2841 1759 
L 1844 884 
z
" transform="scale(0.015625)"/>
      <path id="DejaVuSans-Bold-63" d="M 3366 3391 
L 3366 2478 
Q 3138 2634 2908 2709 
Q 2678 2784 2431 2784 
Q 1963 2784 1702 2511 
Q 1441 2238 1441 1747 
Q 1441 1256 1702 982 
Q 1963 709 2431 709 
Q 2694 709 2930 787 
Q 3166 866 3366 1019 
L 3366 103 
Q 3103 6 2833 -42 
Q 2563 -91 2291 -91 
Q 1344 -91 809 395 
Q 275 881 275 1747 
Q 275 2613 809 3098 
Q 1344 3584 2291 3584 
Q 2566 3584 2833 3536 
Q 3100 3488 3366 3391 
z
" transform="scale(0.015625)"/>
      <path id="DejaVuSans-Bold-73" d="M 3272 3391 
L 3272 2541 
Q 2913 2691 2578 2766 
Q 2244 2841 1947 2841 
Q 1628 2841 1473 2761 
Q 1319 2681 1319 2516 
Q 1319 2381 1436 2309 
Q 1553 2238 1856 2203 
L 2053 2175 
Q 2913 2066 3209 1816 
Q 3506 1566 3506 1031 
Q 3506 472 3093 190 
Q 2681 -91 1863 -91 
Q 1516 -91 1145 -36 
Q 775 19 384 128 
L 384 978 
Q 719 816 1070 734 
Q 1422 653 1784 653 
Q 2113 653 2278 743 
Q 2444 834 2444 1013 
Q 2444 1163 2330 1236 
Q 2216 1309 1875 1350 
L 1678 1375 
Q 931 1469 631 1722 
Q 331 1975 331 2491 
Q 331 3047 712 3315 
Q 1094 3584 1881 3584 
Q 2191 3584 2531 3537 
Q 2872 3491 3272 3391 
z
" transform="scale(0.015625)"/>
     </defs>
     <use xlink:href="#DejaVuSans-Bold-50"/>
     <use xlink:href="#DejaVuSans-Bold-28" transform="translate(73.291016 0)"/>
     <use xlink:href="#DejaVuSans-Bold-41" transform="translate(118.994141 0)"/>
     <use xlink:href="#DejaVuSans-Bold-e7" transform="translate(196.386719 0)"/>
     <use xlink:href="#DejaVuSans-Bold-e3" transform="translate(255.664062 0)"/>
     <use xlink:href="#DejaVuSans-Bold-6f" transform="translate(323.144531 0)"/>
     <use xlink:href="#DejaVuSans-Bold-29" transform="translate(391.845703 0)"/>
     <use xlink:href="#DejaVuSans-Bold-20" transform="translate(437.548828 0)"/>
     <use xlink:href="#DejaVuSans-Bold-3d" transform="translate(472.363281 0)"/>
     <use xlink:href="#DejaVuSans-Bold-20" transform="translate(556.152344 0)"/>
     <use xlink:href="#DejaVuSans-Bold-7c" transform="translate(590.966797 0)"/>
     <use xlink:href="#DejaVuSans-Bold-3b1" transform="translate(627.490234 0)"/>
     <use xlink:href="#DejaVuSans-Bold-7c" transform="translate(696.191406 0)"/>
     <use xlink:href="#DejaVuSans-Bold-b2" transform="translate(732.714844 0)"/>
     <use xlink:href="#DejaVuSans-Bold-20" transform="translate(776.513672 0)"/>
     <use xlink:href="#DejaVuSans-Bold-2b" transform="translate(811.328125 0)"/>
     <use xlink:href="#DejaVuSans-Bold-20" transform="translate(895.117188 0)"/>
     <use xlink:href="#DejaVuSans-Bold-7c" transform="translate(929.931641 0)"/>
     <use xlink:href="#DejaVuSans-Bold-3b2" transform="translate(966.455078 0)"/>
     <use xlink:href="#DejaVuSans-Bold-7c" transform="translate(1038.037109 0)"/>
     <use xlink:href="#DejaVuSans-Bold-b2" transform="translate(1074.560547 0)"/>
     <use xlink:href="#DejaVuSans-Bold-20" transform="translate(1118.359375 0)"/>
     <use xlink:href="#DejaVuSans-Bold-2b" transform="translate(1153.173828 0)"/>
     <use xlink:href="#DejaVuSans-Bold-20" transform="translate(1236.962891 0)"/>
     <use xlink:href="#DejaVuSans-Bold-32" transform="translate(1271.777344 0)"/>
     <use xlink:href="#DejaVuSans-Bold-7c" transform="translate(1341.357422 0)"/>
     <use xlink:href="#DejaVuSans-Bold-3b1" transform="translate(1377.880859 0)"/>
     <use xlink:href="#DejaVuSans-Bold-7c" transform="translate(1446.582031 0)"/>
     <use xlink:href="#DejaVuSans-Bold-7c" transform="translate(1483.105469 0)"/>
     <use xlink:href="#DejaVuSans-Bold-3b2" transform="translate(1519.628906 0)"/>
     <use xlink:href="#DejaVuSans-Bold-7c" transform="translate(1591.210938 0)"/>
     <use xlink:href="#DejaVuSans-Bold-20" transform="translate(1627.734375 0)"/>
     <use xlink:href="#DejaVuSans-Bold-63" transform="translate(1662.548828 0)"/>
     <use xlink:href="#DejaVuSans-Bold-6f" transform="translate(1721.826172 0)"/>
     <use xlink:href="#DejaVuSans-Bold-73" transform="translate(1790.527344 0)"/>
     <use xlink:href="#DejaVuSans-Bold-28" transform="translate(1850.048828 0)"/>
     <use xlink:href="#DejaVuSans-Bold-3b8" transform="translate(1895.751953 0)"/>
     <use xlink:href="#DejaVuSans-Bold-29" transform="translate(1964.453125 0)"/>
    </g>
   </g>
  </g>
  <g id="text_28">
   <!-- Fig. 7.1 — Regimes de Fricção Ontológica (θ) -->
   <g style="fill: #1b2a47" transform="translate(218.167031 18.397812) scale(0.14 -0.14)">
    <defs>
     <path id="DejaVuSans-Bold-46" d="M 588 4666 
L 3834 4666 
L 3834 3756 
L 1791 3756 
L 1791 2888 
L 3713 2888 
L 3713 1978 
L 1791 1978 
L 1791 0 
L 588 0 
L 588 4666 
z
" transform="scale(0.015625)"/>
     <path id="DejaVuSans-Bold-69" d="M 538 3500 
L 1656 3500 
L 1656 0 
L 538 0 
L 538 3500 
z
M 538 4863 
L 1656 4863 
L 1656 3950 
L 538 3950 
L 538 4863 
z
" transform="scale(0.015625)"/>
     <path id="DejaVuSans-Bold-67" d="M 2919 594 
Q 2688 288 2409 144 
Q 2131 0 1766 0 
Q 1125 0 706 504 
Q 288 1009 288 1791 
Q 288 2575 706 3076 
Q 1125 3578 1766 3578 
Q 2131 3578 2409 3434 
Q 2688 3291 2919 2981 
L 2919 3500 
L 4044 3500 
L 4044 353 
Q 4044 -491 3511 -936 
Q 2978 -1381 1966 -1381 
Q 1638 -1381 1331 -1331 
Q 1025 -1281 716 -1178 
L 716 -306 
Q 1009 -475 1290 -558 
Q 1572 -641 1856 -641 
Q 2406 -641 2662 -400 
Q 2919 -159 2919 353 
L 2919 594 
z
M 2181 2772 
Q 1834 2772 1640 2515 
Q 1447 2259 1447 1791 
Q 1447 1309 1634 1061 
Q 1822 813 2181 813 
Q 2531 813 2725 1069 
Q 2919 1325 2919 1791 
Q 2919 2259 2725 2515 
Q 2531 2772 2181 2772 
z
" transform="scale(0.015625)"/>
     <path id="DejaVuSans-Bold-2e" d="M 653 1209 
L 1778 1209 
L 1778 0 
L 653 0 
L 653 1209 
z
" transform="scale(0.015625)"/>
     <path id="DejaVuSans-Bold-2014" d="M 344 2156 
L 6056 2156 
L 6056 1350 
L 344 1350 
L 344 2156 
z
" transform="scale(0.015625)"/>
     <path id="DejaVuSans-Bold-52" d="M 2297 2597 
Q 2675 2597 2839 2737 
Q 3003 2878 3003 3200 
Q 3003 3519 2839 3656 
Q 2675 3794 2297 3794 
L 1791 3794 
L 1791 2597 
L 2297 2597 
z
M 1791 1766 
L 1791 0 
L 588 0 
L 588 4666 
L 2425 4666 
Q 3347 4666 3776 4356 
Q 4206 4047 4206 3378 
Q 4206 2916 3982 2619 
Q 3759 2322 3309 2181 
Q 3556 2125 3751 1926 
Q 3947 1728 4147 1325 
L 4800 0 
L 3519 0 
L 2950 1159 
Q 2778 1509 2601 1637 
Q 2425 1766 2131 1766 
L 1791 1766 
z
" transform="scale(0.015625)"/>
     <path id="DejaVuSans-Bold-65" d="M 4031 1759 
L 4031 1441 
L 1416 1441 
Q 1456 1047 1700 850 
Q 1944 653 2381 653 
Q 2734 653 3104 758 
Q 3475 863 3866 1075 
L 3866 213 
Q 3469 63 3072 -14 
Q 2675 -91 2278 -91 
Q 1328 -91 801 392 
Q 275 875 275 1747 
Q 275 2603 792 3093 
Q 1309 3584 2216 3584 
Q 3041 3584 3536 3087 
Q 4031 2591 4031 1759 
z
M 2881 2131 
Q 2881 2450 2695 2645 
Q 2509 2841 2209 2841 
Q 1884 2841 1681 2658 
Q 1478 2475 1428 2131 
L 2881 2131 
z
" transform="scale(0.015625)"/>
     <path id="DejaVuSans-Bold-6d" d="M 3781 2919 
Q 3994 3244 4286 3414 
Q 4578 3584 4928 3584 
Q 5531 3584 5847 3212 
Q 6163 2841 6163 2131 
L 6163 0 
L 5038 0 
L 5038 1825 
Q 5041 1866 5042 1909 
Q 5044 1953 5044 2034 
Q 5044 2406 4934 2573 
Q 4825 2741 4581 2741 
Q 4263 2741 4089 2478 
Q 3916 2216 3909 1719 
L 3909 0 
L 2784 0 
L 2784 1825 
Q 2784 2406 2684 2573 
Q 2584 2741 2328 2741 
Q 2006 2741 1831 2477 
Q 1656 2213 1656 1722 
L 1656 0 
L 531 0 
L 531 3500 
L 1656 3500 
L 1656 2988 
Q 1863 3284 2130 3434 
Q 2397 3584 2719 3584 
Q 3081 3584 3359 3409 
Q 3638 3234 3781 2919 
z
" transform="scale(0.015625)"/>
     <path id="DejaVuSans-Bold-64" d="M 2919 2988 
L 2919 4863 
L 4044 4863 
L 4044 0 
L 2919 0 
L 2919 506 
Q 2688 197 2409 53 
Q 2131 -91 1766 -91 
Q 1119 -91 703 423 
Q 288 938 288 1747 
Q 288 2556 703 3070 
Q 1119 3584 1766 3584 
Q 2128 3584 2408 3439 
Q 2688 3294 2919 2988 
z
M 2181 722 
Q 2541 722 2730 984 
Q 2919 1247 2919 1747 
Q 2919 2247 2730 2509 
Q 2541 2772 2181 2772 
Q 1825 2772 1636 2509 
Q 1447 2247 1447 1747 
Q 1447 1247 1636 984 
Q 1825 722 2181 722 
z
" transform="scale(0.015625)"/>
     <path id="DejaVuSans-Bold-72" d="M 3138 2547 
Q 2991 2616 2845 2648 
Q 2700 2681 2553 2681 
Q 2122 2681 1889 2404 
Q 1656 2128 1656 1613 
L 1656 0 
L 538 0 
L 538 3500 
L 1656 3500 
L 1656 2925 
Q 1872 3269 2151 3426 
Q 2431 3584 2822 3584 
Q 2878 3584 2943 3579 
Q 3009 3575 3134 3559 
L 3138 2547 
z
" transform="scale(0.015625)"/>
     <path id="DejaVuSans-Bold-4f" d="M 2719 3878 
Q 2169 3878 1866 3472 
Q 1563 3066 1563 2328 
Q 1563 1594 1866 1187 
Q 2169 781 2719 781 
Q 3272 781 3575 1187 
Q 3878 1594 3878 2328 
Q 3878 3066 3575 3472 
Q 3272 3878 2719 3878 
z
M 2719 4750 
Q 3844 4750 4481 4106 
Q 5119 3463 5119 2328 
Q 5119 1197 4481 553 
Q 3844 -91 2719 -91 
Q 1597 -91 958 553 
Q 319 1197 319 2328 
Q 319 3463 958 4106 
Q 1597 4750 2719 4750 
z
" transform="scale(0.015625)"/>
     <path id="DejaVuSans-Bold-6e" d="M 4056 2131 
L 4056 0 
L 2931 0 
L 2931 347 
L 2931 1631 
Q 2931 2084 2911 2256 
Q 2891 2428 2841 2509 
Q 2775 2619 2662 2680 
Q 2550 2741 2406 2741 
Q 2056 2741 1856 2470 
Q 1656 2200 1656 1722 
L 1656 0 
L 538 0 
L 538 3500 
L 1656 3500 
L 1656 2988 
Q 1909 3294 2193 3439 
Q 2478 3584 2822 3584 
Q 3428 3584 3742 3212 
Q 4056 2841 4056 2131 
z
" transform="scale(0.015625)"/>
     <path id="DejaVuSans-Bold-74" d="M 1759 4494 
L 1759 3500 
L 2913 3500 
L 2913 2700 
L 1759 2700 
L 1759 1216 
Q 1759 972 1856 886 
Q 1953 800 2241 800 
L 2816 800 
L 2816 0 
L 1856 0 
Q 1194 0 917 276 
Q 641 553 641 1216 
L 641 2700 
L 84 2700 
L 84 3500 
L 641 3500 
L 641 4494 
L 1759 4494 
z
" transform="scale(0.015625)"/>
     <path id="DejaVuSans-Bold-6c" d="M 538 4863 
L 1656 4863 
L 1656 0 
L 538 0 
L 538 4863 
z
" transform="scale(0.015625)"/>
     <path id="DejaVuSans-Bold-f3" d="M 2203 2784 
Q 1831 2784 1636 2517 
Q 1441 2250 1441 1747 
Q 1441 1244 1636 976 
Q 1831 709 2203 709 
Q 2569 709 2762 976 
Q 2956 1244 2956 1747 
Q 2956 2250 2762 2517 
Q 2569 2784 2203 2784 
z
M 2203 3584 
Q 3106 3584 3614 3096 
Q 4122 2609 4122 1747 
Q 4122 884 3614 396 
Q 3106 -91 2203 -91 
Q 1297 -91 786 396 
Q 275 884 275 1747 
Q 275 2609 786 3096 
Q 1297 3584 2203 3584 
z
M 2694 5119 
L 3578 5119 
L 2425 3944 
L 1813 3944 
L 2694 5119 
z
" transform="scale(0.015625)"/>
     <path id="DejaVuSans-Bold-61" d="M 2106 1575 
Q 1756 1575 1579 1456 
Q 1403 1338 1403 1106 
Q 1403 894 1545 773 
Q 1688 653 1941 653 
Q 2256 653 2472 879 
Q 2688 1106 2688 1447 
L 2688 1575 
L 2106 1575 
z
M 3816 1997 
L 3816 0 
L 2688 0 
L 2688 519 
Q 2463 200 2181 54 
Q 1900 -91 1497 -91 
Q 953 -91 614 226 
Q 275 544 275 1050 
Q 275 1666 698 1953 
Q 1122 2241 2028 2241 
L 2688 2241 
L 2688 2328 
Q 2688 2594 2478 2717 
Q 2269 2841 1825 2841 
Q 1466 2841 1156 2769 
Q 847 2697 581 2553 
L 581 3406 
Q 941 3494 1303 3539 
Q 1666 3584 2028 3584 
Q 2975 3584 3395 3211 
Q 3816 2838 3816 1997 
z
" transform="scale(0.015625)"/>
    </defs>
    <use xlink:href="#DejaVuSans-Bold-46"/>
    <use xlink:href="#DejaVuSans-Bold-69" transform="translate(68.310547 0)"/>
    <use xlink:href="#DejaVuSans-Bold-67" transform="translate(102.587891 0)"/>
    <use xlink:href="#DejaVuSans-Bold-2e" transform="translate(174.169922 0)"/>
    <use xlink:href="#DejaVuSans-Bold-20" transform="translate(212.158203 0)"/>
    <use xlink:href="#DejaVuSans-Bold-37" transform="translate(246.972656 0)"/>
    <use xlink:href="#DejaVuSans-Bold-2e" transform="translate(316.552734 0)"/>
    <use xlink:href="#DejaVuSans-Bold-31" transform="translate(354.541016 0)"/>
    <use xlink:href="#DejaVuSans-Bold-20" transform="translate(424.121094 0)"/>
    <use xlink:href="#DejaVuSans-Bold-2014" transform="translate(458.935547 0)"/>
    <use xlink:href="#DejaVuSans-Bold-20" transform="translate(558.935547 0)"/>
    <use xlink:href="#DejaVuSans-Bold-52" transform="translate(593.75 0)"/>
    <use xlink:href="#DejaVuSans-Bold-65" transform="translate(670.751953 0)"/>
    <use xlink:href="#DejaVuSans-Bold-67" transform="translate(738.574219 0)"/>
    <use xlink:href="#DejaVuSans-Bold-69" transform="translate(810.15625 0)"/>
    <use xlink:href="#DejaVuSans-Bold-6d" transform="translate(844.433594 0)"/>
    <use xlink:href="#DejaVuSans-Bold-65" transform="translate(948.632812 0)"/>
    <use xlink:href="#DejaVuSans-Bold-73" transform="translate(1016.455078 0)"/>
    <use xlink:href="#DejaVuSans-Bold-20" transform="translate(1075.976562 0)"/>
    <use xlink:href="#DejaVuSans-Bold-64" transform="translate(1110.791016 0)"/>
    <use xlink:href="#DejaVuSans-Bold-65" transform="translate(1182.373047 0)"/>
    <use xlink:href="#DejaVuSans-Bold-20" transform="translate(1250.195312 0)"/>
    <use xlink:href="#DejaVuSans-Bold-46" transform="translate(1285.009766 0)"/>
    <use xlink:href="#DejaVuSans-Bold-72" transform="translate(1346.945312 0)"/>
    <use xlink:href="#DejaVuSans-Bold-69" transform="translate(1396.261719 0)"/>
    <use xlink:href="#DejaVuSans-Bold-63" transform="translate(1430.539062 0)"/>
    <use xlink:href="#DejaVuSans-Bold-e7" transform="translate(1489.816406 0)"/>
    <use xlink:href="#DejaVuSans-Bold-e3" transform="translate(1549.09375 0)"/>
    <use xlink:href="#DejaVuSans-Bold-6f" transform="translate(1616.574219 0)"/>
    <use xlink:href="#DejaVuSans-Bold-20" transform="translate(1685.275391 0)"/>
    <use xlink:href="#DejaVuSans-Bold-4f" transform="translate(1720.089844 0)"/>
    <use xlink:href="#DejaVuSans-Bold-6e" transform="translate(1805.099609 0)"/>
    <use xlink:href="#DejaVuSans-Bold-74" transform="translate(1876.291016 0)"/>
    <use xlink:href="#DejaVuSans-Bold-6f" transform="translate(1924.09375 0)"/>
    <use xlink:href="#DejaVuSans-Bold-6c" transform="translate(1992.794922 0)"/>
    <use xlink:href="#DejaVuSans-Bold-f3" transform="translate(2027.072266 0)"/>
    <use xlink:href="#DejaVuSans-Bold-67" transform="translate(2095.773438 0)"/>
    <use xlink:href="#DejaVuSans-Bold-69" transform="translate(2167.355469 0)"/>
    <use xlink:href="#DejaVuSans-Bold-63" transform="translate(2201.632812 0)"/>
    <use xlink:href="#DejaVuSans-Bold-61" transform="translate(2260.910156 0)"/>
    <use xlink:href="#DejaVuSans-Bold-20" transform="translate(2328.390625 0)"/>
    <use xlink:href="#DejaVuSans-Bold-28" transform="translate(2363.205078 0)"/>
    <use xlink:href="#DejaVuSans-Bold-3b8" transform="translate(2408.908203 0)"/>
    <use xlink:href="#DejaVuSans-Bold-29" transform="translate(2477.609375 0)"/>
   </g>
  </g>
 </g>
 <defs>
  <clipPath id="p86e1f562e9">
   <rect x="305.75" y="53.934592" width="201.5" height="178.25"/>
  </clipPath>
  <clipPath id="p475e3111a2">
   <rect x="567.7" y="53.934592" width="201.5" height="178.25"/>
  </clipPath>
  <clipPath id="p9347bbf656">
   <rect x="43.8" y="301.136327" width="725.4" height="77.583673"/>
  </clipPath>
 </defs>
</svg>
