<?xml version="1.0" encoding="UTF-8"?>
<svg xmlns="http://www.w3.org/2000/svg" viewBox="0 0 1700 1320" width="1700" height="1320" font-family="Inter,Arial,sans-serif">
<rect width="1700" height="1320" fill="#FFFFFF"/>
<text x="28" y="52" font-size="36" font-weight="700" fill="#1A1A1A" letter-spacing="-0.3">Gantt institucional Q-FENG</text>
<text x="28" y="86" font-size="22" fill="#4A4A4A">Timeline contrafactual &#8212; Manaus, dez. 2020 &#8211; jan. 2021</text>
<line x1="28" y1="102" x2="440" y2="102" stroke="#085041" stroke-width="3" opacity="0.9"/>
<rect x="278" y="248" width="1072" height="704" fill="#FFFFFF" stroke="#D4D4D0" stroke-width="1" opacity="0.6"/>
<line x1="903.3" y1="126" x2="903.3" y2="952" stroke="#D4D4D0" stroke-width="1.5" stroke-dasharray="4,4" opacity="0.6"/>
<text x="591" y="204" text-anchor="middle" font-size="18" font-weight="700" fill="#1A1A1A">dezembro 2020</text>
<text x="1142" y="204" text-anchor="middle" font-size="18" font-weight="700" fill="#1A1A1A">janeiro 2021</text>
<line x1="278.0" y1="220" x2="278.0" y2="952" stroke="#D4D4D0" stroke-width="1" opacity="0.5"/>
<text x="278.0" y="240" text-anchor="middle" font-size="16" font-weight="600" fill="#4A4A4A">10/12</text>
<line x1="486.4" y1="220" x2="486.4" y2="952" stroke="#D4D4D0" stroke-width="1" opacity="0.5"/>
<text x="486.4" y="240" text-anchor="middle" font-size="16" font-weight="600" fill="#4A4A4A">17/12</text>
<line x1="694.9" y1="220" x2="694.9" y2="952" stroke="#D4D4D0" stroke-width="1" opacity="0.5"/>
<text x="694.9" y="240" text-anchor="middle" font-size="16" font-weight="600" fill="#4A4A4A">24/12</text>
<line x1="903.3" y1="220" x2="903.3" y2="952" stroke="#D4D4D0" stroke-width="1" opacity="0.5"/>
<text x="903.3" y="240" text-anchor="middle" font-size="16" font-weight="600" fill="#4A4A4A">31/12</text>
<line x1="1111.8" y1="220" x2="1111.8" y2="952" stroke="#D4D4D0" stroke-width="1" opacity="0.5"/>
<text x="1111.8" y="240" text-anchor="middle" font-size="16" font-weight="600" fill="#4A4A4A">7/1</text>
<line x1="1320.2" y1="220" x2="1320.2" y2="952" stroke="#D4D4D0" stroke-width="1" opacity="0.5"/>
<text x="1320.2" y="240" text-anchor="middle" font-size="16" font-weight="600" fill="#4A4A4A">14/1</text>
<line x1="278.0" y1="243" x2="278.0" y2="247" stroke="#D4D4D0" stroke-width="1"/>
<line x1="337.6" y1="243" x2="337.6" y2="247" stroke="#D4D4D0" stroke-width="1"/>
<line x1="397.1" y1="243" x2="397.1" y2="247" stroke="#D4D4D0" stroke-width="1"/>
<line x1="456.7" y1="243" x2="456.7" y2="247" stroke="#D4D4D0" stroke-width="1"/>
<line x1="516.2" y1="243" x2="516.2" y2="247" stroke="#D4D4D0" stroke-width="1"/>
<line x1="575.8" y1="243" x2="575.8" y2="247" stroke="#D4D4D0" stroke-width="1"/>
<line x1="635.3" y1="243" x2="635.3" y2="247" stroke="#D4D4D0" stroke-width="1"/>
<line x1="694.9" y1="243" x2="694.9" y2="247" stroke="#D4D4D0" stroke-width="1"/>
<line x1="754.4" y1="243" x2="754.4" y2="247" stroke="#D4D4D0" stroke-width="1"/>
<line x1="814.0" y1="243" x2="814.0" y2="247" stroke="#D4D4D0" stroke-width="1"/>
<line x1="873.6" y1="243" x2="873.6" y2="247" stroke="#D4D4D0" stroke-width="1"/>
<line x1="933.1" y1="243" x2="933.1" y2="247" stroke="#D4D4D0" stroke-width="1"/>
<line x1="992.7" y1="243" x2="992.7" y2="247" stroke="#D4D4D0" stroke-width="1"/>
<line x1="1052.2" y1="243" x2="1052.2" y2="247" stroke="#D4D4D0" stroke-width="1"/>
<line x1="1111.8" y1="243" x2="1111.8" y2="247" stroke="#D4D4D0" stroke-width="1"/>
<line x1="1171.3" y1="243" x2="1171.3" y2="247" stroke="#D4D4D0" stroke-width="1"/>
<line x1="1230.9" y1="243" x2="1230.9" y2="247" stroke="#D4D4D0" stroke-width="1"/>
<line x1="1290.4" y1="243" x2="1290.4" y2="247" stroke="#D4D4D0" stroke-width="1"/>
<line x1="1350.0" y1="243" x2="1350.0" y2="247" stroke="#D4D4D0" stroke-width="1"/>
<line x1="426.9" y1="246" x2="426.9" y2="952" stroke="#085041" stroke-width="2" stroke-dasharray="5,6" opacity="0.75"/>
<text x="433.9" y="134" font-size="18" font-weight="700" fill="#085041">Emissão do Sinal Algédônico</text>
<text x="433.9" y="158" font-size="16" font-style="italic" fill="#085041">15 dez 2020</text>
<rect x="635.3" y="246" width="89.3" height="706" fill="#D4881A" opacity="0.10" stroke="#D4881A" stroke-width="0.8" stroke-dasharray="3,3"/>
<text x="680.0" y="188" text-anchor="middle" font-size="16" font-weight="600" fill="#D4881A">Gate condicional</text>
<line x1="1320.2" y1="246" x2="1320.2" y2="952" stroke="#E85C3F" stroke-width="2.5" opacity="0.85"/>
<text x="1312.2" y="134" text-anchor="end" font-size="18" font-weight="700" fill="#E85C3F">Colapso documentado (14 jan)</text>
<rect x="278" y="248" width="1072" height="88" fill="#F5F8F5" opacity="0.75"/>
<line x1="26" y1="248" x2="1350" y2="248" stroke="#D4D4D0" stroke-width="0.8" opacity="0.5"/>
<text x="272" y="280" text-anchor="end" font-size="20" font-weight="700" fill="#0C447C">SVS</text>
<text x="272" y="302" text-anchor="end" font-size="17" font-style="italic" fill="#4A4A4A">Vigilância em Saúde — leitura epidemiológica</text>
<rect x="426.9" y="298" width="684.9" height="30" rx="5" fill="#0C447C" opacity="0.82"/>
<text x="769.3" y="318" text-anchor="middle" font-size="16" font-weight="600" fill="white">15 dez &#8594; 7 jan</text>
<rect x="278" y="336" width="1072" height="88" fill="#FFFFFF" opacity="0.75"/>
<line x1="26" y1="336" x2="1350" y2="336" stroke="#D4D4D0" stroke-width="0.8" opacity="0.5"/>
<text x="272" y="368" text-anchor="end" font-size="20" font-weight="700" fill="#0C447C">SAES</text>
<text x="272" y="390" text-anchor="end" font-size="17" font-style="italic" fill="#4A4A4A">Atenção Especializada — logística federal</text>
<rect x="426.9" y="386" width="684.9" height="30" rx="5" fill="#0C447C" opacity="0.82"/>
<text x="769.3" y="406" text-anchor="middle" font-size="16" font-weight="600" fill="white">15 dez &#8594; 7 jan</text>
<rect x="278" y="424" width="1072" height="88" fill="#F5F8F5" opacity="0.75"/>
<line x1="26" y1="424" x2="1350" y2="424" stroke="#D4D4D0" stroke-width="0.8" opacity="0.5"/>
<text x="272" y="456" text-anchor="end" font-size="20" font-weight="700" fill="#0C447C">Gabinete do Ministro</text>
<text x="272" y="478" text-anchor="end" font-size="17" font-style="italic" fill="#4A4A4A">decisão de mobilização federal</text>
<rect x="426.9" y="474" width="684.9" height="30" rx="5" fill="#0C447C" opacity="0.82"/>
<text x="769.3" y="494" text-anchor="middle" font-size="16" font-weight="600" fill="white">15 dez &#8594; 7 jan</text>
<rect x="278" y="512" width="1072" height="88" fill="#FFFFFF" opacity="0.75"/>
<line x1="26" y1="512" x2="1350" y2="512" stroke="#D4D4D0" stroke-width="0.8" opacity="0.5"/>
<text x="272" y="544" text-anchor="end" font-size="20" font-weight="700" fill="#2E7D3A">Fiocruz</text>
<text x="272" y="566" text-anchor="end" font-size="17" font-style="italic" fill="#4A4A4A">referência científica em crises</text>
<rect x="426.9" y="562" width="684.9" height="30" rx="5" fill="#2E7D3A" opacity="0.82"/>
<text x="769.3" y="582" text-anchor="middle" font-size="16" font-weight="600" fill="white">15 dez &#8594; 7 jan</text>
<rect x="278" y="600" width="1072" height="88" fill="#F5F8F5" opacity="0.75"/>
<line x1="26" y1="600" x2="1350" y2="600" stroke="#D4D4D0" stroke-width="0.8" opacity="0.5"/>
<text x="272" y="632" text-anchor="end" font-size="20" font-weight="700" fill="#2E7D3A">CONASS</text>
<text x="272" y="654" text-anchor="end" font-size="17" font-style="italic" fill="#4A4A4A">articulação inter-estadual</text>
<rect x="426.9" y="650" width="684.9" height="30" rx="5" fill="#2E7D3A" opacity="0.82"/>
<text x="769.3" y="670" text-anchor="middle" font-size="16" font-weight="600" fill="white">15 dez &#8594; 7 jan</text>
<rect x="278" y="688" width="1072" height="88" fill="#FFFFFF" opacity="0.75"/>
<line x1="26" y1="688" x2="1350" y2="688" stroke="#D4D4D0" stroke-width="0.8" opacity="0.5"/>
<text x="272" y="720" text-anchor="end" font-size="20" font-weight="700" fill="#D4881A">Casa Civil da Presidência</text>
<text x="272" y="742" text-anchor="end" font-size="17" font-style="italic" fill="#4A4A4A">coordenação federativa de crise</text>
<rect x="635.3" y="738" width="565.8" height="30" rx="5" fill="#D4881A" opacity="0.18"/>
<rect x="635.3" y="738" width="565.8" height="30" rx="5" fill="none" stroke="#D4881A" stroke-width="2" stroke-dasharray="6,5" opacity="0.8"/>
<text x="918.2" y="758" text-anchor="middle" font-size="16" font-weight="600" fill="#D4881A">22 dez &#8594; 10 jan</text>
<rect x="278" y="776" width="1072" height="88" fill="#F5F8F5" opacity="0.75"/>
<line x1="26" y1="776" x2="1350" y2="776" stroke="#D4D4D0" stroke-width="0.8" opacity="0.5"/>
<text x="272" y="808" text-anchor="end" font-size="20" font-weight="700" fill="#E85C3F">MPF / 4ª CCR</text>
<text x="272" y="830" text-anchor="end" font-size="17" font-style="italic" fill="#4A4A4A">notificação por omissão em saúde</text>
<rect x="635.3" y="826" width="565.8" height="30" rx="5" fill="#E85C3F" opacity="0.18"/>
<rect x="635.3" y="826" width="565.8" height="30" rx="5" fill="none" stroke="#E85C3F" stroke-width="2" stroke-dasharray="6,5" opacity="0.8"/>
<text x="918.2" y="846" text-anchor="middle" font-size="16" font-weight="600" fill="#E85C3F">22 dez &#8594; 10 jan</text>
<rect x="278" y="864" width="1072" height="88" fill="#FFFFFF" opacity="0.75"/>
<line x1="26" y1="864" x2="1350" y2="864" stroke="#D4D4D0" stroke-width="0.8" opacity="0.5"/>
<text x="272" y="896" text-anchor="end" font-size="20" font-weight="700" fill="#4A4A4A">Sequência real documentada</text>
<rect x="278" y="864" width="1072" height="88" fill="#D4D4D0" opacity="0.22"/>
<circle cx="724.7" cy="908" r="10" fill="#4A4A4A" opacity="0.8"/>
<text x="738.7" y="914" font-size="17" font-style="italic" fill="#4A4A4A">sinais disponíveis, sem ação institucional</text>
<circle cx="1320.2" cy="908" r="10" fill="#E85C3F" opacity="0.8"/>
<text x="1334.2" y="914" font-size="17" font-style="italic" fill="#E85C3F">colapso 14 jan</text>
<circle cx="1350.0" cy="908" r="10" fill="#4A4A4A" opacity="0.8"/>
<text x="1364.0" y="914" font-size="17" font-style="italic" fill="#4A4A4A">ponte aérea FAB — atraso 72h</text>
<line x1="26" y1="952" x2="1350" y2="952" stroke="#D4D4D0" stroke-width="1"/>
<rect x="1358" y="138" width="326" height="1020" rx="10" fill="#FFFFFF" stroke="#085041" stroke-width="2.5"/>
<rect x="1358" y="138" width="326" height="58" rx="10" fill="#085041"/>
<rect x="1358" y="182" width="326" height="14" fill="#085041"/>
<text x="1521" y="166" text-anchor="middle" font-size="18" font-weight="700" fill="white" letter-spacing="1">RELATÓRIO TEMPORAL Q-FENG</text>
<text x="1521" y="186" text-anchor="middle" font-size="16" fill="#CFE8DE">emitido pelo QIM Meso</text>
<text x="1374" y="214" font-size="17" font-weight="700" fill="#085041" letter-spacing="1">DISPARO PRIMÁRIO</text>
<rect x="1374" y="226" width="294" height="210" rx="4" fill="#F0F7F4" stroke="#085041" stroke-width="1" stroke-dasharray="3,3"/>
<text x="1384" y="246" font-size="17" font-weight="600" fill="#1A1A1A">Data de emissão: 15 dez 2020</text>
<text x="1384" y="271" font-size="16" font-weight="700" fill="#085041">Predicados soberanos violados:</text>
<text x="1384" y="295" font-size="17" font-weight="600" fill="#1A1A1A" font-family="Consolas,'Courier New',monospace">direito_saude</text>
<text x="1384" y="317" font-size="17" font-weight="600" fill="#1A1A1A" font-family="Consolas,'Courier New',monospace">atencao_prioritaria_vulneraveis</text>
<text x="1384" y="339" font-size="17" font-weight="600" fill="#1A1A1A" font-family="Consolas,'Courier New',monospace">universalidade_acesso</text>
<text x="1384" y="361" font-size="16" font-style="italic" fill="#4A4A4A">Horizonte disponível: 3&#8211;4 semanas</text>
<text x="1374" y="403" font-size="17" font-weight="700" fill="#D4881A" letter-spacing="1">GATE CONDICIONAL</text>
<rect x="1374" y="415" width="294" height="148" rx="4" fill="#FDF8EE" stroke="#D4881A" stroke-width="1" stroke-dasharray="3,3"/>
<text x="1384" y="435" font-size="17" font-weight="600" fill="#1A1A1A">Critério: inércia da cadeia primária</text>
<text x="1384" y="460" font-size="17" font-weight="400" fill="#1A1A1A">SVS — SAES — Gabinete do Ministro</text>
<text x="1384" y="485" font-size="17" font-weight="700" fill="#D4881A">Prazo configurado: 7–10 dias</text>
<text x="1384" y="510" font-size="16" font-style="italic" fill="#4A4A4A">ativação: 22–25 dez 2020</text>
<text x="1374" y="552" font-size="17" font-weight="700" fill="#E85C3F" letter-spacing="1">JANELA DE MOBILIZAÇÃO</text>
<rect x="1374" y="564" width="294" height="210" rx="4" fill="#FDF3EE" stroke="#E85C3F" stroke-width="1" stroke-dasharray="3,3"/>
<text x="1384" y="584" font-size="17" font-weight="600" fill="#1A1A1A">Tempo para reposição emergencial:</text>
<text x="1384" y="609" font-size="32" font-weight="700" fill="#E85C3F">5&#8211;7 dias</text>
<text x="1384" y="651" font-size="16" font-style="italic" fill="#4A4A4A">deslocamento de cilindros via</text>
<text x="1384" y="671" font-size="16" font-style="italic" fill="#4A4A4A">coordenação federal e</text>
<text x="1384" y="691" font-size="16" font-style="italic" fill="#4A4A4A">requisição interestadual.</text>
<text x="1384" y="711" font-size="16" font-style="italic" fill="#4A4A4A">Resposta efetiva jan. 2021,</text>
<text x="1384" y="731" font-size="16" font-style="italic" fill="#4A4A4A">porém em regime tardio.</text>
<text x="26" y="974" font-size="16" font-weight="700" fill="#1A1A1A" letter-spacing="1">LEGENDA ARQUITETURAL</text>
<line x1="26" y1="982" x2="320" y2="982" stroke="#D4D4D0" stroke-width="1"/>
<line x1="26" y1="1000" x2="68" y2="1000" stroke="#0C447C" stroke-width="4" opacity="0.85"/>
<text x="78" y="1006" font-size="16" fill="#1A1A1A">Cadeia primária — ativação direta pelo Sinal Algédônico</text>
<line x1="26" y1="1032" x2="68" y2="1032" stroke="#E85C3F" stroke-width="4" stroke-dasharray="6,5" opacity="0.85"/>
<text x="78" y="1038" font-size="16" fill="#1A1A1A">Escalonamento subsidiário — condicional à inércia primária</text>
<line x1="26" y1="1064" x2="68" y2="1064" stroke="#D4881A" stroke-width="4" opacity="0.85"/>
<text x="78" y="1070" font-size="16" fill="#1A1A1A">Gate condicional — dispara escalonamento subsidiário</text>
<circle cx="46" cy="1096" r="9" fill="#4A4A4A" opacity="0.75"/>
<text x="78" y="1102" font-size="16" fill="#1A1A1A">Evento real documentado — sequência histórica efetiva</text>
<text x="1680" y="1296" text-anchor="end" font-size="17" fill="#4A4A4A" font-style="italic">Gantt institucional sob arquitetura Q-FENG &#8212; coerente com a Figura 35</text>
<text x="1680" y="1314" text-anchor="end" font-size="17" font-weight="600" fill="#085041">Elaboração Q-FENG: Kaminski (2025)</text>
</svg>
