<?xml version="1.0" encoding="UTF-8"?>
<svg width="680" height="740" viewBox="0 0 680 740" xmlns="http://www.w3.org/2000/svg" style="background:white">
<style>
  text { font-family: 'Cambria','Times New Roman',serif; }
  .title { font-size: 11px; font-weight: 600; fill: #1a1a1a; }
  .label { font-size: 10px; fill: #1a1a1a; }
  .label-b { font-size: 10px; fill: #1a1a1a; font-weight: 600; }
  .label-sm { font-size: 9px; fill: #555; }
  .label-it { font-size: 9px; fill: #555; font-style: italic; }
  .math { font-family: 'Cambria Math','Cambria',serif; font-size: 9px; fill: #444; font-style: italic; }
  .caption { font-size: 9px; fill: #444; }
  .sys-box { stroke: #1a1a1a; stroke-width: 0.6; }
  .s5 { fill: #d8d8d8; }
  .s4 { fill: #e6e6e6; }
  .s3 { fill: #c8c8c8; }
  .s2 { fill: #e6e6e6; }
  .s1 { fill: #f0f0f0; }
  .conn { stroke: #1a1a1a; stroke-width: 1; fill: none; }
  .conn-inter { stroke: #555; stroke-width: 1.2; fill: none; stroke-dasharray: 8 4; }
  .conn-alhed { stroke: #333; stroke-width: 0.8; fill: none; stroke-dasharray: 3 3; }
</style>
<defs>
  <marker id="ah" viewBox="0 0 10 10" refX="9" refY="5" markerWidth="5" markerHeight="5" orient="auto"><path d="M0 1L8 5L0 9Z" fill="#1a1a1a"/></marker>
  <marker id="ahg" viewBox="0 0 10 10" refX="9" refY="5" markerWidth="5" markerHeight="5" orient="auto"><path d="M0 1L8 5L0 9Z" fill="#555"/></marker>
  <marker id="ahd" viewBox="0 0 10 10" refX="9" refY="5" markerWidth="5" markerHeight="5" orient="auto"><path d="M0 1L8 5L0 9Z" fill="#333"/></marker>
</defs>

<!-- MACRO -->
<rect x="40" y="34" width="600" height="186" rx="6" fill="none" stroke="#1a1a1a" stroke-width="0.8"/>
<text class="label-b" x="56" y="52">MACRO (State / Regulatory)</text>
<text class="label-it" x="56" y="64">National AI ecosystem, constitutional norms, primary legislation</text>

<rect x="60" y="76" width="116" height="44" rx="3" class="sys-box s5"/>
<text class="label-b" x="118" y="94" text-anchor="middle">S5</text>
<text class="label-sm" x="118" y="108" text-anchor="middle">Constitution, LGPD</text>
<rect x="192" y="76" width="100" height="44" rx="3" class="sys-box s4"/>
<text class="label-b" x="242" y="94" text-anchor="middle">S4</text>
<text class="label-sm" x="242" y="108" text-anchor="middle">Strategic radar</text>
<rect x="308" y="76" width="100" height="44" rx="3" class="sys-box s3"/>
<text class="label-b" x="358" y="94" text-anchor="middle">S3</text>
<text class="label-sm" x="358" y="108" text-anchor="middle">Operational ctrl</text>
<rect x="424" y="76" width="100" height="44" rx="3" class="sys-box s2"/>
<text class="label-b" x="474" y="94" text-anchor="middle">S2</text>
<text class="label-sm" x="474" y="108" text-anchor="middle">Coordination</text>
<rect x="540" y="76" width="86" height="44" rx="3" class="sys-box s1"/>
<text class="label-b" x="583" y="94" text-anchor="middle">S1</text>
<text class="label-sm" x="583" y="108" text-anchor="middle">Sectoral AI</text>

<line x1="176" y1="98" x2="190" y2="98" class="conn" marker-end="url(#ah)"/>
<line x1="292" y1="98" x2="306" y2="98" class="conn" marker-end="url(#ah)"/>
<line x1="408" y1="98" x2="422" y2="98" class="conn" marker-end="url(#ah)"/>
<line x1="524" y1="98" x2="538" y2="98" class="conn" marker-end="url(#ah)"/>

<text class="math" x="118" y="134">|psi_S> = constitutional norms</text>
<text class="math" x="118" y="146">|psi_N> = aggregate sectoral signals</text>
<text class="math" x="358" y="134" text-anchor="middle">theta_Macro</text>
<text class="label-it" x="420" y="134">Algedonic: escalation from Meso</text>
<text class="label-it" x="420" y="146">Circuit Breaker: regulatory intervention</text>

<!-- INTER-LEVEL Macro-Meso -->
<line x1="358" y1="120" x2="358" y2="230" class="conn-inter" marker-end="url(#ahg)"/>
<text class="label-sm" x="366" y="195">S3_Macro to S5_Meso</text>
<path d="M388 230 L388 170 L398 170 L398 120" class="conn-alhed" marker-end="url(#ahd)"/>
<text class="label-sm" x="404" y="180">Algedonic</text>

<!-- MESO -->
<rect x="40" y="234" width="600" height="186" rx="6" fill="none" stroke="#1a1a1a" stroke-width="0.8"/>
<text class="label-b" x="56" y="252">MESO (Institution / Sector)</text>
<text class="label-it" x="56" y="264">Sectoral regulations, institutional protocols, organizational policies</text>

<rect x="60" y="276" width="116" height="44" rx="3" class="sys-box s5"/>
<text class="label-b" x="118" y="294" text-anchor="middle">S5</text>
<text class="label-sm" x="118" y="308" text-anchor="middle">Sector norms</text>
<rect x="192" y="276" width="100" height="44" rx="3" class="sys-box s4"/>
<text class="label-b" x="242" y="294" text-anchor="middle">S4</text>
<text class="label-sm" x="242" y="308" text-anchor="middle">Environment scan</text>
<rect x="308" y="276" width="100" height="44" rx="3" class="sys-box s3"/>
<text class="label-b" x="358" y="294" text-anchor="middle">S3</text>
<text class="label-sm" x="358" y="308" text-anchor="middle">Operational ctrl</text>
<rect x="424" y="276" width="100" height="44" rx="3" class="sys-box s2"/>
<text class="label-b" x="474" y="294" text-anchor="middle">S2</text>
<text class="label-sm" x="474" y="308" text-anchor="middle">Coordination</text>
<rect x="540" y="276" width="86" height="44" rx="3" class="sys-box s1"/>
<text class="label-b" x="583" y="294" text-anchor="middle">S1</text>
<text class="label-sm" x="583" y="308" text-anchor="middle">AI models</text>

<line x1="176" y1="298" x2="190" y2="298" class="conn" marker-end="url(#ah)"/>
<line x1="292" y1="298" x2="306" y2="298" class="conn" marker-end="url(#ah)"/>
<line x1="408" y1="298" x2="422" y2="298" class="conn" marker-end="url(#ah)"/>
<line x1="524" y1="298" x2="538" y2="298" class="conn" marker-end="url(#ah)"/>

<text class="math" x="118" y="334">|psi_S> = clinical protocols, SOP</text>
<text class="math" x="118" y="346">|psi_N> = institutional model outputs</text>
<text class="math" x="358" y="334" text-anchor="middle">theta_Meso</text>
<text class="label-it" x="420" y="334">Algedonic: escalation from Micro</text>
<text class="label-it" x="420" y="346">Circuit Breaker: institutional override</text>

<!-- INTER-LEVEL Meso-Micro -->
<line x1="358" y1="320" x2="358" y2="430" class="conn-inter" marker-end="url(#ahg)"/>
<text class="label-sm" x="366" y="395">S3_Meso to S5_Micro</text>
<path d="M388 430 L388 370 L398 370 L398 320" class="conn-alhed" marker-end="url(#ahd)"/>
<text class="label-sm" x="404" y="380">Algedonic</text>

<!-- MICRO -->
<rect x="40" y="434" width="600" height="186" rx="6" fill="none" stroke="#1a1a1a" stroke-width="0.8"/>
<text class="label-b" x="56" y="452">MICRO (Algorithm / Container)</text>
<text class="label-it" x="56" y="464">Clingo (ASP) predicates, model-specific constraints, Kubernetes sidecar</text>

<rect x="60" y="476" width="116" height="44" rx="3" class="sys-box s5"/>
<text class="label-b" x="118" y="494" text-anchor="middle">S5</text>
<text class="label-sm" x="118" y="508" text-anchor="middle">Clingo (ASP) rules</text>
<rect x="192" y="476" width="100" height="44" rx="3" class="sys-box s4"/>
<text class="label-b" x="242" y="494" text-anchor="middle">S4</text>
<text class="label-sm" x="242" y="508" text-anchor="middle">Drift monitor</text>
<rect x="308" y="476" width="100" height="44" rx="3" class="sys-box s3"/>
<text class="label-b" x="358" y="494" text-anchor="middle">S3*</text>
<text class="label-sm" x="358" y="508" text-anchor="middle">Audit channel</text>
<rect x="424" y="476" width="100" height="44" rx="3" class="sys-box s2"/>
<text class="label-b" x="474" y="494" text-anchor="middle">S2</text>
<text class="label-sm" x="474" y="508" text-anchor="middle">gRPC / mesh</text>
<rect x="540" y="476" width="86" height="44" rx="3" class="sys-box s1"/>
<text class="label-b" x="583" y="494" text-anchor="middle">S1</text>
<text class="label-sm" x="583" y="508" text-anchor="middle">Neural model</text>

<line x1="176" y1="498" x2="190" y2="498" class="conn" marker-end="url(#ah)"/>
<line x1="292" y1="498" x2="306" y2="498" class="conn" marker-end="url(#ah)"/>
<line x1="408" y1="498" x2="422" y2="498" class="conn" marker-end="url(#ah)"/>
<line x1="524" y1="498" x2="538" y2="498" class="conn" marker-end="url(#ah)"/>

<text class="math" x="118" y="534">|psi_S> = sovereign + elastic predicates</text>
<text class="math" x="118" y="546">|psi_N> = single inference output</text>
<text class="math" x="358" y="534" text-anchor="middle">theta_Micro</text>
<text class="label-it" x="420" y="534">Circuit Breaker: block + normative diagnosis</text>
<text class="label-it" x="420" y="546">Sidecar pattern (Container A + B)</text>

<!-- RIGHT MARGIN: Scale invariance -->
<text class="label-b" x="654" y="330" text-anchor="middle" transform="rotate(90,654,330)">Same S1-S5 structure at every scale (fractal recursion)</text>

<!-- LEGEND -->
<rect x="60" y="640" width="24" height="12" rx="2" class="sys-box s5"/>
<text class="label-sm" x="90" y="650">S5 (Identity / Policy)</text>
<rect x="200" y="640" width="24" height="12" rx="2" class="sys-box s3"/>
<text class="label-sm" x="230" y="650">S3 / S3* (Control / Audit)</text>
<rect x="380" y="640" width="24" height="12" rx="2" class="sys-box s1"/>
<text class="label-sm" x="410" y="650">S1 (Operation / Agency)</text>
<line x1="60" y1="664" x2="96" y2="664" class="conn-inter" marker-end="url(#ahg)"/>
<text class="label-sm" x="104" y="668">Normative cascade (S3 down to S5)</text>
<line x1="300" y1="664" x2="336" y2="664" class="conn-alhed" marker-end="url(#ahd)"/>
<text class="label-sm" x="344" y="668">Algedonic escalation (upward bypass)</text>

<!-- CAPTION -->
</svg>
