<svg width="680" height="450" viewBox="0 0 680 450" xmlns="http://www.w3.org/2000/svg" style="background:white;font-family:Cambria,serif">
<defs><marker id="a" viewBox="0 0 10 10" refX="8" refY="5" markerWidth="6" markerHeight="6" orient="auto-start-reverse"><path d="M2 1L8 5L2 9" fill="none" stroke="context-stroke" stroke-width="1.5" stroke-linecap="round"/></marker></defs>
<style>text{font-family:Cambria,serif}.h{font-size:13px;font-weight:bold;fill:#1F3864}.s{font-size:11px;fill:#555}.sl{font-size:10px;fill:#888}</style>

<line x1="60" y1="340" x2="560" y2="340" stroke="#999" stroke-width="0.5" marker-end="url(#a)"/>
<line x1="60" y1="340" x2="60" y2="40" stroke="#999" stroke-width="0.5" marker-end="url(#a)"/>
<text class="s" x="560" y="356">Time (τ)</text>
<text class="s" x="48" y="40">θ (°)</text>

<text class="sl" x="50" y="344" text-anchor="end">0°</text>
<text class="sl" x="50" y="264" text-anchor="end">45°</text>
<text class="sl" x="50" y="184" text-anchor="end">90°</text>
<text class="sl" x="50" y="104" text-anchor="end">135°</text>
<text class="sl" x="50" y="68" text-anchor="end">180°</text>

<line x1="60" y1="260" x2="540" y2="260" stroke="#DDD" stroke-width="0.3" stroke-dasharray="2 4"/>
<line x1="60" y1="180" x2="540" y2="180" stroke="#DDD" stroke-width="0.3" stroke-dasharray="2 4"/>

<rect x="60" y="162" width="480" height="36" fill="#FAEEDA" opacity="0.4"/>
<text class="sl" x="480" y="178" fill="#854F0B">HITL Zone</text>
<line x1="60" y1="132" x2="540" y2="132" stroke="#A32D2D" stroke-width="0.8" stroke-dasharray="6 3"/>
<text class="sl" x="480" y="125" fill="#A32D2D">Circuit Breaker (120°)</text>

<text class="sl" x="100" y="356" text-anchor="middle">t</text>
<text class="sl" x="200" y="356" text-anchor="middle">t+1</text>
<text class="sl" x="300" y="356" text-anchor="middle">t+2</text>
<text class="sl" x="400" y="356" text-anchor="middle">t+3</text>
<text class="sl" x="500" y="356" text-anchor="middle">t+4</text>

<path d="M100 208 L200 212 L300 205 L400 215 L500 210" fill="none" stroke="#185FA5" stroke-width="2"/>
<circle cx="100" cy="208" r="4" fill="#185FA5"/>
<circle cx="200" cy="212" r="3" fill="#185FA5"/>
<circle cx="300" cy="205" r="3" fill="#185FA5"/>
<circle cx="400" cy="215" r="3" fill="#185FA5"/>
<circle cx="500" cy="210" r="3" fill="#185FA5"/>

<path d="M100 208 L200 190 L300 165 L400 138 L500 110" fill="none" stroke="#999" stroke-width="1.5" stroke-dasharray="5 3"/>
<circle cx="300" cy="165" r="3" fill="#999"/>
<circle cx="400" cy="138" r="3" fill="#999"/>
<circle cx="500" cy="110" r="3" fill="#999"/>

<path d="M100 208 L200 196 L300 172 L400 148 L500 125" fill="none" stroke="#D85A30" stroke-width="2.5"/>
<circle cx="100" cy="208" r="5" fill="#D85A30"/>
<circle cx="200" cy="196" r="4" fill="#D85A30"/>
<circle cx="300" cy="172" r="4" fill="#D85A30"/>
<circle cx="400" cy="148" r="4" fill="#D85A30"/>
<circle cx="500" cy="125" r="4" fill="#D85A30"/>

<text class="s" x="548" y="208" fill="#185FA5">θ_t = 70°</text>
<text class="sl" x="548" y="222" fill="#185FA5">Grey Zone</text>
<text class="s" x="548" y="128" fill="#D85A30">θ_eff = 128°</text>
<text class="h" x="548" y="145" fill="#A32D2D">Circuit Breaker!</text>

<line x1="80" y1="382" x2="120" y2="382" stroke="#185FA5" stroke-width="2"/>
<text class="s" x="128" y="386">θ_t (instantaneous) — stable, apparently tolerable</text>
<line x1="80" y1="402" x2="120" y2="402" stroke="#999" stroke-width="1.5" stroke-dasharray="5 3"/>
<text class="s" x="128" y="406">E[θ_{t+τ}] (forward projection) — deterioration trajectory</text>
<line x1="80" y1="422" x2="120" y2="422" stroke="#D85A30" stroke-width="2.5"/>
<text class="s" x="128" y="426">θ_eff = θ_t + Σ γ^τ · E[θ_{t+τ}] (Eq. A10) — triggers Circuit Breaker</text>

<text class="sl" x="340" y="446" text-anchor="middle" font-style="italic">Diagram 4 — Instantaneous θ vs. effective θ_eff: the Markovian extension reveals hidden governance risks. Kaminski, R. (2026).</text>
</svg>