<svg width="680" height="520" viewBox="0 0 680 520" xmlns="http://www.w3.org/2000/svg" style="background:white;font-family:Cambria,serif">
<defs><marker id="a" viewBox="0 0 10 10" refX="8" refY="5" markerWidth="6" markerHeight="6" orient="auto-start-reverse"><path d="M2 1L8 5L2 9" fill="none" stroke="context-stroke" stroke-width="1.5" stroke-linecap="round"/></marker></defs>
<style>text{font-family:Cambria,serif}.h{font-size:12px;font-weight:bold;fill:#1F3864}.s{font-size:10.5px;fill:#555}.sl{font-size:9.5px;fill:#888}</style>

<rect x="195" y="28" width="280" height="62" rx="6" fill="#EEEDFE" stroke="#6B5FB7" stroke-width="0.5"/>
<text class="h" x="335" y="52" text-anchor="middle" fill="#3C3489">S5 — Motor dPASP</text>
<text class="s" x="335" y="72" text-anchor="middle" fill="#534AB7">Eq. A6, A7, A8 (Boltzmann)</text>

<rect x="505" y="28" width="148" height="62" rx="6" fill="#FCEBEB" stroke="#A32D2D" stroke-width="0.5"/>
<text class="h" x="579" y="52" text-anchor="middle" fill="#791F1F">Soberania</text>
<text class="s" x="579" y="72" text-anchor="middle" fill="#A32D2D">w → −∞ (§5.3)</text>
<line x1="475" y1="59" x2="503" y2="59" stroke="#555" stroke-width="0.7" marker-end="url(#a)"/>

<line x1="335" y1="90" x2="335" y2="128" stroke="#555" stroke-width="0.7" marker-end="url(#a)"/>
<text class="sl" x="345" y="114" fill="#6B5FB7">|ψ_S⟩</text>

<rect x="40" y="132" width="215" height="62" rx="6" fill="#E6F1FB" stroke="#3266AD" stroke-width="0.5"/>
<text class="h" x="147" y="156" text-anchor="middle" fill="#0C447C">S1/S4 — Modelo neural</text>
<text class="s" x="147" y="174" text-anchor="middle" fill="#185FA5">Eq. A1 (|D⟩ = α|S⟩ + β|R⟩)</text>

<line x1="255" y1="163" x2="290" y2="163" stroke="#555" stroke-width="0.7" marker-end="url(#a)"/>
<text class="sl" x="262" y="156" fill="#185FA5">|ψ_N⟩</text>

<rect x="293" y="132" width="235" height="62" rx="6" fill="#FAECE7" stroke="#D85A30" stroke-width="0.5"/>
<text class="h" x="410" y="152" text-anchor="middle" fill="#712B13">S3* — Auditoria quântica</text>
<text class="s" x="410" y="172" text-anchor="middle" fill="#993C1D">Eq. A2 (interferência) + Eq. A5 (θ)</text>

<line x1="410" y1="194" x2="410" y2="232" stroke="#555" stroke-width="0.7" marker-end="url(#a)"/>
<text class="sl" x="422" y="218">θ, P(Ação)</text>

<rect x="293" y="234" width="235" height="40" rx="6" fill="#F1EFE8" stroke="#888" stroke-width="0.5"/>
<text class="h" x="410" y="258" text-anchor="middle">Decisão: STAC / HITL / Bloqueio</text>

<rect x="40" y="310" width="140" height="40" rx="5" fill="#EAF3DE" stroke="#639922" stroke-width="0.5"/>
<text class="s" x="110" y="334" text-anchor="middle" fill="#3B6D11">STAC (cos θ > ε)</text>
<rect x="210" y="310" width="120" height="40" rx="5" fill="#FAEEDA" stroke="#BA7517" stroke-width="0.5"/>
<text class="s" x="270" y="334" text-anchor="middle" fill="#854F0B">HITL (θ ≈ 90°)</text>
<rect x="360" y="310" width="150" height="40" rx="5" fill="#FCEBEB" stroke="#A32D2D" stroke-width="0.5"/>
<text class="s" x="435" y="334" text-anchor="middle" fill="#791F1F">Bloqueio (θ > 120°)</text>

<line x1="345" y1="274" x2="180" y2="308" stroke="#555" stroke-width="0.5" marker-end="url(#a)"/>
<line x1="410" y1="274" x2="270" y2="308" stroke="#555" stroke-width="0.5" marker-end="url(#a)"/>
<line x1="460" y1="274" x2="435" y2="308" stroke="#555" stroke-width="0.5" marker-end="url(#a)"/>

<rect x="40" y="390" width="270" height="52" rx="6" fill="#E1F5EE" stroke="#0F6E56" stroke-width="0.5"/>
<text class="h" x="175" y="410" text-anchor="middle" fill="#085041">Ciclo CT — Evolução ontológica</text>
<text class="s" x="175" y="428" text-anchor="middle" fill="#0F6E56">Eq. A3 (ℒGlobal) + Eq. A4 (∂w)</text>

<line x1="110" y1="350" x2="110" y2="388" stroke="#999" stroke-width="0.5" stroke-dasharray="4 3" marker-end="url(#a)"/>
<line x1="270" y1="350" x2="195" y2="388" stroke="#999" stroke-width="0.5" stroke-dasharray="4 3" marker-end="url(#a)"/>
<line x1="435" y1="350" x2="300" y2="388" stroke="#999" stroke-width="0.5" stroke-dasharray="4 3" marker-end="url(#a)"/>

<path d="M40 416 L20 416 L20 163 L38 163" fill="none" stroke="#0F6E56" stroke-width="0.5" stroke-dasharray="4 3" marker-end="url(#a)"/>
<text class="sl" x="24" y="290" fill="#0F6E56">∂w</text>

<rect x="370" y="390" width="270" height="52" rx="6" fill="#FAECE7" stroke="#D85A30" stroke-width="0.5"/>
<text class="h" x="505" y="410" text-anchor="middle" fill="#712B13">Extensão markoviana</text>
<text class="s" x="505" y="428" text-anchor="middle" fill="#993C1D">Eq. A10 (θ_eff) + Eq. A11 (ℒ Markov)</text>

<path d="M590 390 L590 163 L530 163" fill="none" stroke="#D85A30" stroke-width="0.5" stroke-dasharray="4 3" marker-end="url(#a)"/>
<text class="sl" x="596" y="280" fill="#993C1D">θ_eff → S3*</text>

<rect x="540" y="234" width="120" height="40" rx="5" fill="#EEEDFE" stroke="#6B5FB7" stroke-width="0.5"/>
<text class="sl" x="600" y="250" text-anchor="middle" fill="#3C3489">Aprendizado dPASP</text>
<text class="sl" x="600" y="264" text-anchor="middle" fill="#534AB7">Eq. A9 (∂ log P/∂w)</text>
<line x1="579" y1="90" x2="600" y2="232" stroke="#6B5FB7" stroke-width="0.5" stroke-dasharray="4 3" marker-end="url(#a)"/>

<text class="sl" x="340" y="470" text-anchor="middle">Figura A9 — Mapa das equações na arquitetura Q-FENG: cada equação opera num componente VSM específico.</text>
<text class="sl" x="340" y="486" text-anchor="middle" font-style="italic">Kaminski, R. (2026). Working Paper.</text>
</svg>