<svg width="680" height="490" viewBox="0 0 680 490" xmlns="http://www.w3.org/2000/svg" style="background:white;font-family:Cambria,serif">
<defs><marker id="a" viewBox="0 0 10 10" refX="8" refY="5" markerWidth="6" markerHeight="6" orient="auto-start-reverse"><path d="M2 1L8 5L2 9" fill="none" stroke="context-stroke" stroke-width="1.5" stroke-linecap="round"/></marker></defs>
<style>text{font-family:Cambria,serif}.h{font-size:13px;font-weight:bold;fill:#1F3864}.s{font-size:11px;fill:#555}.sl{font-size:10px;fill:#888}</style>

<text class="h" x="240" y="28">Função de energia E(ω) sobre mundos possíveis</text>
<line x1="60" y1="200" x2="60" y2="50" stroke="#999" stroke-width="0.5" marker-end="url(#a)"/>
<text class="s" x="48" y="48">E(ω)</text>
<line x1="60" y1="200" x2="560" y2="200" stroke="#999" stroke-width="0.5"/>

<rect x="90" y="80" width="55" height="120" rx="3" fill="#E1F5EE" stroke="#0F6E56" stroke-width="0.5"/>
<text class="s" x="117" y="214" text-anchor="middle">ω₁</text>
<text class="sl" x="117" y="75" text-anchor="middle" fill="#0F6E56">+12</text>
<rect x="170" y="110" width="55" height="90" rx="3" fill="#E1F5EE" stroke="#0F6E56" stroke-width="0.5"/>
<text class="s" x="197" y="214" text-anchor="middle">ω₂</text>
<text class="sl" x="197" y="105" text-anchor="middle" fill="#0F6E56">+9</text>
<rect x="250" y="140" width="55" height="60" rx="3" fill="#E6F1FB" stroke="#185FA5" stroke-width="0.5"/>
<text class="s" x="277" y="214" text-anchor="middle">ω₃</text>
<text class="sl" x="277" y="135" text-anchor="middle" fill="#185FA5">+6</text>
<rect x="330" y="160" width="55" height="40" rx="3" fill="#E6F1FB" stroke="#185FA5" stroke-width="0.5"/>
<text class="s" x="357" y="214" text-anchor="middle">ω₄</text>
<text class="sl" x="357" y="155" text-anchor="middle" fill="#185FA5">+4</text>

<rect x="430" y="200" width="55" height="25" rx="3" fill="#FCEBEB" stroke="#A32D2D" stroke-width="0.5"/>
<text class="s" x="457" y="214" text-anchor="middle">ω_v</text>
<text class="s" x="500" y="218" fill="#A32D2D">w_k → −∞</text>
<text class="sl" x="150" y="68" fill="#085041">Mundos conformes (alta energia)</text>
<text class="sl" x="430" y="192" fill="#A32D2D">Mundo violador</text>

<text class="h" x="240" y="272">Distribuição P(ω) = (1/Z) · exp(E(ω))</text>
<line x1="60" y1="440" x2="60" y2="292" stroke="#999" stroke-width="0.5" marker-end="url(#a)"/>
<text class="s" x="48" y="290">P(ω)</text>
<line x1="60" y1="440" x2="560" y2="440" stroke="#999" stroke-width="0.5"/>

<rect x="90" y="310" width="55" height="130" rx="3" fill="#5DCAA5" stroke="#0F6E56" stroke-width="0.5"/>
<text class="s" x="117" y="454" text-anchor="middle">ω₁</text>
<text class="sl" x="117" y="305" text-anchor="middle" fill="#0F6E56">0.42</text>
<rect x="170" y="340" width="55" height="100" rx="3" fill="#5DCAA5" stroke="#0F6E56" stroke-width="0.5"/>
<text class="s" x="197" y="454" text-anchor="middle">ω₂</text>
<text class="sl" x="197" y="335" text-anchor="middle" fill="#0F6E56">0.31</text>
<rect x="250" y="380" width="55" height="60" rx="3" fill="#85B7EB" stroke="#185FA5" stroke-width="0.5"/>
<text class="s" x="277" y="454" text-anchor="middle">ω₃</text>
<text class="sl" x="277" y="375" text-anchor="middle" fill="#185FA5">0.18</text>
<rect x="330" y="400" width="55" height="40" rx="3" fill="#85B7EB" stroke="#185FA5" stroke-width="0.5"/>
<text class="s" x="357" y="454" text-anchor="middle">ω₄</text>
<text class="sl" x="357" y="395" text-anchor="middle" fill="#185FA5">0.09</text>

<rect x="430" y="438" width="55" height="2" rx="1" fill="#E24B4A" stroke="#A32D2D" stroke-width="0.5"/>
<text class="s" x="457" y="454" text-anchor="middle">ω_v</text>
<text class="s" x="500" y="436" fill="#A32D2D">≈ 0</text>

<rect x="500" y="300" width="160" height="72" rx="6" fill="#FCEBEB" stroke="#A32D2D" stroke-width="0.5"/>
<text class="h" x="516" y="320" fill="#791F1F">Soberania ontológica</text>
<text class="sl" x="516" y="338" fill="#A32D2D">exp(w_k) → 0 quando</text>
<text class="sl" x="516" y="354" fill="#A32D2D">w_k → −∞ (Teorema §5.3)</text>

<text class="sl" x="340" y="480" text-anchor="middle" font-style="italic">Figura A7 — Paisagem energética e Soberania Ontológica via Boltzmann. Kaminski, R. (2026).</text>
</svg>