<svg width="680" height="460" viewBox="0 0 680 460" xmlns="http://www.w3.org/2000/svg" style="background:white;font-family:Cambria,serif">
<defs><marker id="a" viewBox="0 0 10 10" refX="8" refY="5" markerWidth="7" markerHeight="7" orient="auto-start-reverse"><path d="M2 1L8 5L2 9" fill="none" stroke="context-stroke" stroke-width="1.5" stroke-linecap="round"/></marker></defs>
<style>text{font-family:Cambria,serif}.h{font-size:13px;font-weight:bold;fill:#1F3864}.s{font-size:11px;fill:#555}.sl{font-size:10px;fill:#888}</style>

<line x1="80" y1="340" x2="460" y2="340" stroke="#999" stroke-width="0.5"/>
<line x1="80" y1="340" x2="80" y2="60" stroke="#999" stroke-width="0.5"/>
<text class="s" x="460" y="356">w₁</text>
<text class="s" x="66" y="65">w₂</text>
<text class="sl" x="86" y="356">Espaço de pesos do modelo</text>

<circle cx="160" cy="280" r="5" fill="#2E5090"/>
<text class="h" x="170" y="276">w_t</text>

<line x1="160" y1="280" x2="330" y2="210" stroke="#185FA5" stroke-width="2.5" marker-end="url(#a)"/>
<text class="s" x="260" y="228" fill="#185FA5">∂ℒPerf/∂w</text>

<line x1="160" y1="280" x2="230" y2="130" stroke="#D85A30" stroke-width="2.5" marker-end="url(#a)"/>
<text class="s" x="238" y="138" fill="#D85A30">λ · sin θ · ∂θ/∂w</text>

<line x1="160" y1="280" x2="340" y2="140" stroke="#0F6E56" stroke-width="3" marker-end="url(#a)" stroke-dasharray="6 3"/>
<text class="h" x="348" y="138" fill="#0F6E56">Resultante</text>
<text class="s" x="348" y="155" fill="#0F6E56">w_{t+1} − w_t</text>

<line x1="330" y1="210" x2="340" y2="140" stroke="#999" stroke-width="0.5" stroke-dasharray="3 3"/>
<line x1="230" y1="130" x2="340" y2="140" stroke="#999" stroke-width="0.5" stroke-dasharray="3 3"/>

<path d="M100 80 Q280 100 420 320" fill="none" stroke="#999" stroke-width="0.5" stroke-dasharray="4 4"/>
<text class="sl" x="422" y="310">θ = 90°</text>
<text class="s" x="440" y="238" fill="#0F6E56">θ &lt; 90° — Zona segura</text>
<text class="s" x="110" y="92" fill="#A32D2D">θ &gt; 90° — Zona de conflito</text>

<rect x="470" y="60" width="190" height="190" rx="6" fill="#F5F7FA" stroke="#CCC" stroke-width="0.5"/>
<text class="h" x="486" y="82">Eq. A4 — Componentes</text>
<line x1="486" y1="106" x2="530" y2="106" stroke="#185FA5" stroke-width="2.5"/>
<text class="s" x="538" y="110">Vetor de utilidade</text>
<text class="sl" x="538" y="126">Reduz erro preditivo</text>
<line x1="486" y1="150" x2="530" y2="150" stroke="#D85A30" stroke-width="2.5"/>
<text class="s" x="538" y="154">Correção ontológica</text>
<text class="sl" x="538" y="170">Torque ético (θ &gt; 90°)</text>
<line x1="486" y1="194" x2="530" y2="194" stroke="#0F6E56" stroke-width="3" stroke-dasharray="6 3"/>
<text class="s" x="538" y="198">Resultante SGD</text>
<text class="sl" x="538" y="214">Atualização efetiva</text>

<text class="sl" x="340" y="400" text-anchor="middle">Figura A6 — Interpretação geométrica: dois vetores-força no espaço de pesos.</text>
<text class="sl" x="340" y="416" text-anchor="middle">A ética opera como torque que rotaciona o modelo para longe do conflito ontológico.</text>
<text class="sl" x="340" y="436" text-anchor="middle" font-style="italic">Kaminski, R. (2026). Working Paper.</text>
</svg>